<?xml version="1.0" encoding="utf-8" standalone="no"?>
<!DOCTYPE svg PUBLIC "-//W3C//DTD SVG 1.1//EN"
  "http://www.w3.org/Graphics/SVG/1.1/DTD/svg11.dtd">
<svg xmlns:xlink="http://www.w3.org/1999/xlink" width="864pt" height="360pt" viewBox="0 0 864 360" xmlns="http://www.w3.org/2000/svg" version="1.1">
 <metadata>
  <rdf:RDF xmlns:dc="http://purl.org/dc/elements/1.1/" xmlns:cc="http://creativecommons.org/ns#" xmlns:rdf="http://www.w3.org/1999/02/22-rdf-syntax-ns#">
   <cc:Work>
    <dc:type rdf:resource="http://purl.org/dc/dcmitype/StillImage"/>
    <dc:date>2024-06-17T05:12:25.833742</dc:date>
    <dc:format>image/svg+xml</dc:format>
    <dc:creator>
     <cc:Agent>
      <dc:title>Matplotlib v3.9.0, https://matplotlib.org/</dc:title>
     </cc:Agent>
    </dc:creator>
   </cc:Work>
  </rdf:RDF>
 </metadata>
 <defs>
  <style type="text/css">*{stroke-linejoin: round; stroke-linecap: butt}</style>
 </defs>
 <g id="figure_1">
  <g id="patch_1">
   <path d="M 0 360 
L 864 360 
L 864 0 
L 0 0 
z
" style="fill: #ffffff"/>
  </g>
  <g id="axes_1">
   <g id="patch_2">
    <path d="M 50.48 301.96 
L 853.2 301.96 
L 853.2 36 
L 50.48 36 
z
" style="fill: #ffffff"/>
   </g>
   <g id="patch_3">
    <path d="M 86.967273 301.96 
L 94.264727 301.96 
L 94.264727 301.96 
L 86.967273 301.96 
z
" clip-path="url(#p03c1a2fb00)" style="fill: #ffffff; stroke: #0072b2; stroke-linejoin: miter"/>
   </g>
   <g id="patch_4">
    <path d="M 94.264727 301.96 
L 101.562182 301.96 
L 101.562182 301.96 
L 94.264727 301.96 
z
" clip-path="url(#p03c1a2fb00)" style="fill: #ffffff; stroke: #0072b2; stroke-linejoin: miter"/>
   </g>
   <g id="patch_5">
    <path d="M 101.562182 301.96 
L 108.859636 301.96 
L 108.859636 301.96 
L 101.562182 301.96 
z
" clip-path="url(#p03c1a2fb00)" style="fill: #ffffff; stroke: #0072b2; stroke-linejoin: miter"/>
   </g>
   <g id="patch_6">
    <path d="M 108.859636 301.96 
L 116.157091 301.96 
L 116.157091 301.96 
L 108.859636 301.96 
z
" clip-path="url(#p03c1a2fb00)" style="fill: #ffffff; stroke: #0072b2; stroke-linejoin: miter"/>
   </g>
   <g id="patch_7">
    <path d="M 116.157091 301.96 
L 123.454545 301.96 
L 123.454545 301.96 
L 116.157091 301.96 
z
" clip-path="url(#p03c1a2fb00)" style="fill: #ffffff; stroke: #0072b2; stroke-linejoin: miter"/>
   </g>
   <g id="patch_8">
    <path d="M 123.454545 301.96 
L 130.752 301.96 
L 130.752 301.96 
L 123.454545 301.96 
z
" clip-path="url(#p03c1a2fb00)" style="fill: #ffffff; stroke: #0072b2; stroke-linejoin: miter"/>
   </g>
   <g id="patch_9">
    <path d="M 130.752 301.96 
L 138.049455 301.96 
L 138.049455 301.96 
L 130.752 301.96 
z
" clip-path="url(#p03c1a2fb00)" style="fill: #ffffff; stroke: #0072b2; stroke-linejoin: miter"/>
   </g>
   <g id="patch_10">
    <path d="M 138.049455 301.96 
L 145.346909 301.96 
L 145.346909 301.96 
L 138.049455 301.96 
z
" clip-path="url(#p03c1a2fb00)" style="fill: #ffffff; stroke: #0072b2; stroke-linejoin: miter"/>
   </g>
   <g id="patch_11">
    <path d="M 145.346909 301.96 
L 152.644364 301.96 
L 152.644364 301.96 
L 145.346909 301.96 
z
" clip-path="url(#p03c1a2fb00)" style="fill: #ffffff; stroke: #0072b2; stroke-linejoin: miter"/>
   </g>
   <g id="patch_12">
    <path d="M 152.644364 301.96 
L 159.941818 301.96 
L 159.941818 301.96 
L 152.644364 301.96 
z
" clip-path="url(#p03c1a2fb00)" style="fill: #ffffff; stroke: #0072b2; stroke-linejoin: miter"/>
   </g>
   <g id="patch_13">
    <path d="M 159.941818 301.96 
L 167.239273 301.96 
L 167.239273 301.96 
L 159.941818 301.96 
z
" clip-path="url(#p03c1a2fb00)" style="fill: #ffffff; stroke: #0072b2; stroke-linejoin: miter"/>
   </g>
   <g id="patch_14">
    <path d="M 167.239273 301.96 
L 174.536727 301.96 
L 174.536727 301.96 
L 167.239273 301.96 
z
" clip-path="url(#p03c1a2fb00)" style="fill: #ffffff; stroke: #0072b2; stroke-linejoin: miter"/>
   </g>
   <g id="patch_15">
    <path d="M 174.536727 301.96 
L 181.834182 301.96 
L 181.834182 301.96 
L 174.536727 301.96 
z
" clip-path="url(#p03c1a2fb00)" style="fill: #ffffff; stroke: #0072b2; stroke-linejoin: miter"/>
   </g>
   <g id="patch_16">
    <path d="M 181.834182 301.96 
L 189.131636 301.96 
L 189.131636 301.96 
L 181.834182 301.96 
z
" clip-path="url(#p03c1a2fb00)" style="fill: #ffffff; stroke: #0072b2; stroke-linejoin: miter"/>
   </g>
   <g id="patch_17">
    <path d="M 189.131636 301.96 
L 196.429091 301.96 
L 196.429091 301.96 
L 189.131636 301.96 
z
" clip-path="url(#p03c1a2fb00)" style="fill: #ffffff; stroke: #0072b2; stroke-linejoin: miter"/>
   </g>
   <g id="patch_18">
    <path d="M 196.429091 301.96 
L 203.726545 301.96 
L 203.726545 301.96 
L 196.429091 301.96 
z
" clip-path="url(#p03c1a2fb00)" style="fill: #ffffff; stroke: #0072b2; stroke-linejoin: miter"/>
   </g>
   <g id="patch_19">
    <path d="M 203.726545 301.96 
L 211.024 301.96 
L 211.024 301.96 
L 203.726545 301.96 
z
" clip-path="url(#p03c1a2fb00)" style="fill: #ffffff; stroke: #0072b2; stroke-linejoin: miter"/>
   </g>
   <g id="patch_20">
    <path d="M 211.024 301.96 
L 218.321455 301.96 
L 218.321455 301.96 
L 211.024 301.96 
z
" clip-path="url(#p03c1a2fb00)" style="fill: #ffffff; stroke: #0072b2; stroke-linejoin: miter"/>
   </g>
   <g id="patch_21">
    <path d="M 218.321455 301.96 
L 225.618909 301.96 
L 225.618909 301.96 
L 218.321455 301.96 
z
" clip-path="url(#p03c1a2fb00)" style="fill: #ffffff; stroke: #0072b2; stroke-linejoin: miter"/>
   </g>
   <g id="patch_22">
    <path d="M 225.618909 301.96 
L 232.916364 301.96 
L 232.916364 301.96 
L 225.618909 301.96 
z
" clip-path="url(#p03c1a2fb00)" style="fill: #ffffff; stroke: #0072b2; stroke-linejoin: miter"/>
   </g>
   <g id="patch_23">
    <path d="M 232.916364 301.96 
L 240.213818 301.96 
L 240.213818 301.96 
L 232.916364 301.96 
z
" clip-path="url(#p03c1a2fb00)" style="fill: #ffffff; stroke: #0072b2; stroke-linejoin: miter"/>
   </g>
   <g id="patch_24">
    <path d="M 240.213818 301.96 
L 247.511273 301.96 
L 247.511273 301.96 
L 240.213818 301.96 
z
" clip-path="url(#p03c1a2fb00)" style="fill: #ffffff; stroke: #0072b2; stroke-linejoin: miter"/>
   </g>
   <g id="patch_25">
    <path d="M 247.511273 301.96 
L 254.808727 301.96 
L 254.808727 301.96 
L 247.511273 301.96 
z
" clip-path="url(#p03c1a2fb00)" style="fill: #ffffff; stroke: #0072b2; stroke-linejoin: miter"/>
   </g>
   <g id="patch_26">
    <path d="M 254.808727 301.96 
L 262.106182 301.96 
L 262.106182 301.96 
L 254.808727 301.96 
z
" clip-path="url(#p03c1a2fb00)" style="fill: #ffffff; stroke: #0072b2; stroke-linejoin: miter"/>
   </g>
   <g id="patch_27">
    <path d="M 262.106182 301.96 
L 269.403636 301.96 
L 269.403636 301.96 
L 262.106182 301.96 
z
" clip-path="url(#p03c1a2fb00)" style="fill: #ffffff; stroke: #0072b2; stroke-linejoin: miter"/>
   </g>
   <g id="patch_28">
    <path d="M 269.403636 301.96 
L 276.701091 301.96 
L 276.701091 301.96 
L 269.403636 301.96 
z
" clip-path="url(#p03c1a2fb00)" style="fill: #ffffff; stroke: #0072b2; stroke-linejoin: miter"/>
   </g>
   <g id="patch_29">
    <path d="M 276.701091 301.96 
L 283.998545 301.96 
L 283.998545 301.96 
L 276.701091 301.96 
z
" clip-path="url(#p03c1a2fb00)" style="fill: #ffffff; stroke: #0072b2; stroke-linejoin: miter"/>
   </g>
   <g id="patch_30">
    <path d="M 283.998545 301.96 
L 291.296 301.96 
L 291.296 301.96 
L 283.998545 301.96 
z
" clip-path="url(#p03c1a2fb00)" style="fill: #ffffff; stroke: #0072b2; stroke-linejoin: miter"/>
   </g>
   <g id="patch_31">
    <path d="M 291.296 301.96 
L 298.593455 301.96 
L 298.593455 301.96 
L 291.296 301.96 
z
" clip-path="url(#p03c1a2fb00)" style="fill: #ffffff; stroke: #0072b2; stroke-linejoin: miter"/>
   </g>
   <g id="patch_32">
    <path d="M 298.593455 301.96 
L 305.890909 301.96 
L 305.890909 301.96 
L 298.593455 301.96 
z
" clip-path="url(#p03c1a2fb00)" style="fill: #ffffff; stroke: #0072b2; stroke-linejoin: miter"/>
   </g>
   <g id="patch_33">
    <path d="M 305.890909 301.96 
L 313.188364 301.96 
L 313.188364 301.96 
L 305.890909 301.96 
z
" clip-path="url(#p03c1a2fb00)" style="fill: #ffffff; stroke: #0072b2; stroke-linejoin: miter"/>
   </g>
   <g id="patch_34">
    <path d="M 313.188364 301.96 
L 320.485818 301.96 
L 320.485818 301.96 
L 313.188364 301.96 
z
" clip-path="url(#p03c1a2fb00)" style="fill: #ffffff; stroke: #0072b2; stroke-linejoin: miter"/>
   </g>
   <g id="patch_35">
    <path d="M 320.485818 301.96 
L 327.783273 301.96 
L 327.783273 301.96 
L 320.485818 301.96 
z
" clip-path="url(#p03c1a2fb00)" style="fill: #ffffff; stroke: #0072b2; stroke-linejoin: miter"/>
   </g>
   <g id="patch_36">
    <path d="M 327.783273 301.96 
L 335.080727 301.96 
L 335.080727 301.96 
L 327.783273 301.96 
z
" clip-path="url(#p03c1a2fb00)" style="fill: #ffffff; stroke: #0072b2; stroke-linejoin: miter"/>
   </g>
   <g id="patch_37">
    <path d="M 335.080727 301.96 
L 342.378182 301.96 
L 342.378182 301.96 
L 335.080727 301.96 
z
" clip-path="url(#p03c1a2fb00)" style="fill: #ffffff; stroke: #0072b2; stroke-linejoin: miter"/>
   </g>
   <g id="patch_38">
    <path d="M 342.378182 301.96 
L 349.675636 301.96 
L 349.675636 301.96 
L 342.378182 301.96 
z
" clip-path="url(#p03c1a2fb00)" style="fill: #ffffff; stroke: #0072b2; stroke-linejoin: miter"/>
   </g>
   <g id="patch_39">
    <path d="M 349.675636 301.96 
L 356.973091 301.96 
L 356.973091 301.96 
L 349.675636 301.96 
z
" clip-path="url(#p03c1a2fb00)" style="fill: #ffffff; stroke: #0072b2; stroke-linejoin: miter"/>
   </g>
   <g id="patch_40">
    <path d="M 356.973091 301.96 
L 364.270545 301.96 
L 364.270545 301.96 
L 356.973091 301.96 
z
" clip-path="url(#p03c1a2fb00)" style="fill: #ffffff; stroke: #0072b2; stroke-linejoin: miter"/>
   </g>
   <g id="patch_41">
    <path d="M 364.270545 301.96 
L 371.568 301.96 
L 371.568 301.96 
L 364.270545 301.96 
z
" clip-path="url(#p03c1a2fb00)" style="fill: #ffffff; stroke: #0072b2; stroke-linejoin: miter"/>
   </g>
   <g id="patch_42">
    <path d="M 371.568 301.96 
L 378.865455 301.96 
L 378.865455 301.96 
L 371.568 301.96 
z
" clip-path="url(#p03c1a2fb00)" style="fill: #ffffff; stroke: #0072b2; stroke-linejoin: miter"/>
   </g>
   <g id="patch_43">
    <path d="M 378.865455 301.96 
L 386.162909 301.96 
L 386.162909 301.96 
L 378.865455 301.96 
z
" clip-path="url(#p03c1a2fb00)" style="fill: #ffffff; stroke: #0072b2; stroke-linejoin: miter"/>
   </g>
   <g id="patch_44">
    <path d="M 386.162909 301.96 
L 393.460364 301.96 
L 393.460364 301.96 
L 386.162909 301.96 
z
" clip-path="url(#p03c1a2fb00)" style="fill: #ffffff; stroke: #0072b2; stroke-linejoin: miter"/>
   </g>
   <g id="patch_45">
    <path d="M 393.460364 301.96 
L 400.757818 301.96 
L 400.757818 301.96 
L 393.460364 301.96 
z
" clip-path="url(#p03c1a2fb00)" style="fill: #ffffff; stroke: #0072b2; stroke-linejoin: miter"/>
   </g>
   <g id="patch_46">
    <path d="M 400.757818 301.96 
L 408.055273 301.96 
L 408.055273 301.96 
L 400.757818 301.96 
z
" clip-path="url(#p03c1a2fb00)" style="fill: #ffffff; stroke: #0072b2; stroke-linejoin: miter"/>
   </g>
   <g id="patch_47">
    <path d="M 408.055273 301.96 
L 415.352727 301.96 
L 415.352727 301.96 
L 408.055273 301.96 
z
" clip-path="url(#p03c1a2fb00)" style="fill: #ffffff; stroke: #0072b2; stroke-linejoin: miter"/>
   </g>
   <g id="patch_48">
    <path d="M 415.352727 301.96 
L 422.650182 301.96 
L 422.650182 301.96 
L 415.352727 301.96 
z
" clip-path="url(#p03c1a2fb00)" style="fill: #ffffff; stroke: #0072b2; stroke-linejoin: miter"/>
   </g>
   <g id="patch_49">
    <path d="M 422.650182 301.96 
L 429.947636 301.96 
L 429.947636 301.883202 
L 422.650182 301.883202 
z
" clip-path="url(#p03c1a2fb00)" style="fill: #ffffff; stroke: #0072b2; stroke-linejoin: miter"/>
   </g>
   <g id="patch_50">
    <path d="M 429.947636 301.96 
L 437.245091 301.96 
L 437.245091 301.916168 
L 429.947636 301.916168 
z
" clip-path="url(#p03c1a2fb00)" style="fill: #ffffff; stroke: #0072b2; stroke-linejoin: miter"/>
   </g>
   <g id="patch_51">
    <path d="M 437.245091 301.96 
L 444.542545 301.96 
L 444.542545 301.912109 
L 437.245091 301.912109 
z
" clip-path="url(#p03c1a2fb00)" style="fill: #ffffff; stroke: #0072b2; stroke-linejoin: miter"/>
   </g>
   <g id="patch_52">
    <path d="M 444.542545 301.96 
L 451.84 301.96 
L 451.84 301.735067 
L 444.542545 301.735067 
z
" clip-path="url(#p03c1a2fb00)" style="fill: #ffffff; stroke: #0072b2; stroke-linejoin: miter"/>
   </g>
   <g id="patch_53">
    <path d="M 451.84 301.96 
L 459.137455 301.96 
L 459.137455 301.279416 
L 451.84 301.279416 
z
" clip-path="url(#p03c1a2fb00)" style="fill: #ffffff; stroke: #0072b2; stroke-linejoin: miter"/>
   </g>
   <g id="patch_54">
    <path d="M 459.137455 301.96 
L 466.434909 301.96 
L 466.434909 301.459836 
L 459.137455 301.459836 
z
" clip-path="url(#p03c1a2fb00)" style="fill: #ffffff; stroke: #0072b2; stroke-linejoin: miter"/>
   </g>
   <g id="patch_55">
    <path d="M 466.434909 301.96 
L 473.732364 301.96 
L 473.732364 301.056002 
L 466.434909 301.056002 
z
" clip-path="url(#p03c1a2fb00)" style="fill: #ffffff; stroke: #0072b2; stroke-linejoin: miter"/>
   </g>
   <g id="patch_56">
    <path d="M 473.732364 301.96 
L 481.029818 301.96 
L 481.029818 299.996575 
L 473.732364 299.996575 
z
" clip-path="url(#p03c1a2fb00)" style="fill: #ffffff; stroke: #0072b2; stroke-linejoin: miter"/>
   </g>
   <g id="patch_57">
    <path d="M 481.029818 301.96 
L 488.327273 301.96 
L 488.327273 299.761892 
L 481.029818 299.761892 
z
" clip-path="url(#p03c1a2fb00)" style="fill: #ffffff; stroke: #0072b2; stroke-linejoin: miter"/>
   </g>
   <g id="patch_58">
    <path d="M 488.327273 301.96 
L 495.624727 301.96 
L 495.624727 299.683872 
L 488.327273 299.683872 
z
" clip-path="url(#p03c1a2fb00)" style="fill: #ffffff; stroke: #0072b2; stroke-linejoin: miter"/>
   </g>
   <g id="patch_59">
    <path d="M 495.624727 301.96 
L 502.922182 301.96 
L 502.922182 298.659953 
L 495.624727 298.659953 
z
" clip-path="url(#p03c1a2fb00)" style="fill: #ffffff; stroke: #0072b2; stroke-linejoin: miter"/>
   </g>
   <g id="patch_60">
    <path d="M 502.922182 301.96 
L 510.219636 301.96 
L 510.219636 296.93757 
L 502.922182 296.93757 
z
" clip-path="url(#p03c1a2fb00)" style="fill: #ffffff; stroke: #0072b2; stroke-linejoin: miter"/>
   </g>
   <g id="patch_61">
    <path d="M 510.219636 301.96 
L 517.517091 301.96 
L 517.517091 294.929596 
L 510.219636 294.929596 
z
" clip-path="url(#p03c1a2fb00)" style="fill: #ffffff; stroke: #0072b2; stroke-linejoin: miter"/>
   </g>
   <g id="patch_62">
    <path d="M 517.517091 301.96 
L 524.814545 301.96 
L 524.814545 291.314688 
L 517.517091 291.314688 
z
" clip-path="url(#p03c1a2fb00)" style="fill: #ffffff; stroke: #0072b2; stroke-linejoin: miter"/>
   </g>
   <g id="patch_63">
    <path d="M 524.814545 301.96 
L 532.112 301.96 
L 532.112 294.045576 
L 524.814545 294.045576 
z
" clip-path="url(#p03c1a2fb00)" style="fill: #ffffff; stroke: #0072b2; stroke-linejoin: miter"/>
   </g>
   <g id="patch_64">
    <path d="M 532.112 301.96 
L 539.409455 301.96 
L 539.409455 291.341215 
L 532.112 291.341215 
z
" clip-path="url(#p03c1a2fb00)" style="fill: #ffffff; stroke: #0072b2; stroke-linejoin: miter"/>
   </g>
   <g id="patch_65">
    <path d="M 539.409455 301.96 
L 546.706909 301.96 
L 546.706909 288.927681 
L 539.409455 288.927681 
z
" clip-path="url(#p03c1a2fb00)" style="fill: #ffffff; stroke: #0072b2; stroke-linejoin: miter"/>
   </g>
   <g id="patch_66">
    <path d="M 546.706909 301.96 
L 554.004364 301.96 
L 554.004364 288.78797 
L 546.706909 288.78797 
z
" clip-path="url(#p03c1a2fb00)" style="fill: #ffffff; stroke: #0072b2; stroke-linejoin: miter"/>
   </g>
   <g id="patch_67">
    <path d="M 554.004364 301.96 
L 561.301818 301.96 
L 561.301818 290.11315 
L 554.004364 290.11315 
z
" clip-path="url(#p03c1a2fb00)" style="fill: #ffffff; stroke: #0072b2; stroke-linejoin: miter"/>
   </g>
   <g id="patch_68">
    <path d="M 561.301818 301.96 
L 568.599273 301.96 
L 568.599273 289.320108 
L 561.301818 289.320108 
z
" clip-path="url(#p03c1a2fb00)" style="fill: #ffffff; stroke: #0072b2; stroke-linejoin: miter"/>
   </g>
   <g id="patch_69">
    <path d="M 568.599273 301.96 
L 575.896727 301.96 
L 575.896727 287.043969 
L 568.599273 287.043969 
z
" clip-path="url(#p03c1a2fb00)" style="fill: #ffffff; stroke: #0072b2; stroke-linejoin: miter"/>
   </g>
   <g id="patch_70">
    <path d="M 575.896727 301.96 
L 583.194182 301.96 
L 583.194182 284.403686 
L 575.896727 284.403686 
z
" clip-path="url(#p03c1a2fb00)" style="fill: #ffffff; stroke: #0072b2; stroke-linejoin: miter"/>
   </g>
   <g id="patch_71">
    <path d="M 583.194182 301.96 
L 590.491636 301.96 
L 590.491636 281.86206 
L 583.194182 281.86206 
z
" clip-path="url(#p03c1a2fb00)" style="fill: #ffffff; stroke: #0072b2; stroke-linejoin: miter"/>
   </g>
   <g id="patch_72">
    <path d="M 590.491636 301.96 
L 597.789091 301.96 
L 597.789091 272.177429 
L 590.491636 272.177429 
z
" clip-path="url(#p03c1a2fb00)" style="fill: #ffffff; stroke: #0072b2; stroke-linejoin: miter"/>
   </g>
   <g id="patch_73">
    <path d="M 597.789091 301.96 
L 605.086545 301.96 
L 605.086545 280.434837 
L 597.789091 280.434837 
z
" clip-path="url(#p03c1a2fb00)" style="fill: #ffffff; stroke: #0072b2; stroke-linejoin: miter"/>
   </g>
   <g id="patch_74">
    <path d="M 605.086545 301.96 
L 612.384 301.96 
L 612.384 268.251514 
L 605.086545 268.251514 
z
" clip-path="url(#p03c1a2fb00)" style="fill: #ffffff; stroke: #0072b2; stroke-linejoin: miter"/>
   </g>
   <g id="patch_75">
    <path d="M 612.384 301.96 
L 619.681455 301.96 
L 619.681455 281.818938 
L 612.384 281.818938 
z
" clip-path="url(#p03c1a2fb00)" style="fill: #ffffff; stroke: #0072b2; stroke-linejoin: miter"/>
   </g>
   <g id="patch_76">
    <path d="M 619.681455 301.96 
L 626.978909 301.96 
L 626.978909 263.550555 
L 619.681455 263.550555 
z
" clip-path="url(#p03c1a2fb00)" style="fill: #ffffff; stroke: #0072b2; stroke-linejoin: miter"/>
   </g>
   <g id="patch_77">
    <path d="M 626.978909 301.96 
L 634.276364 301.96 
L 634.276364 248.52352 
L 626.978909 248.52352 
z
" clip-path="url(#p03c1a2fb00)" style="fill: #ffffff; stroke: #0072b2; stroke-linejoin: miter"/>
   </g>
   <g id="patch_78">
    <path d="M 634.276364 301.96 
L 641.573818 301.96 
L 641.573818 259.92594 
L 634.276364 259.92594 
z
" clip-path="url(#p03c1a2fb00)" style="fill: #ffffff; stroke: #0072b2; stroke-linejoin: miter"/>
   </g>
   <g id="patch_79">
    <path d="M 641.573818 301.96 
L 648.871273 301.96 
L 648.871273 240.604023 
L 641.573818 240.604023 
z
" clip-path="url(#p03c1a2fb00)" style="fill: #ffffff; stroke: #0072b2; stroke-linejoin: miter"/>
   </g>
   <g id="patch_80">
    <path d="M 648.871273 301.96 
L 656.168727 301.96 
L 656.168727 223.062556 
L 648.871273 223.062556 
z
" clip-path="url(#p03c1a2fb00)" style="fill: #ffffff; stroke: #0072b2; stroke-linejoin: miter"/>
   </g>
   <g id="patch_81">
    <path d="M 656.168727 301.96 
L 663.466182 301.96 
L 663.466182 185.851302 
L 656.168727 185.851302 
z
" clip-path="url(#p03c1a2fb00)" style="fill: #ffffff; stroke: #0072b2; stroke-linejoin: miter"/>
   </g>
   <g id="patch_82">
    <path d="M 663.466182 301.96 
L 670.763636 301.96 
L 670.763636 178.584548 
L 663.466182 178.584548 
z
" clip-path="url(#p03c1a2fb00)" style="fill: #ffffff; stroke: #0072b2; stroke-linejoin: miter"/>
   </g>
   <g id="patch_83">
    <path d="M 670.763636 301.96 
L 678.061091 301.96 
L 678.061091 188.754515 
L 670.763636 188.754515 
z
" clip-path="url(#p03c1a2fb00)" style="fill: #ffffff; stroke: #0072b2; stroke-linejoin: miter"/>
   </g>
   <g id="patch_84">
    <path d="M 678.061091 301.96 
L 685.358545 301.96 
L 685.358545 129.222068 
L 678.061091 129.222068 
z
" clip-path="url(#p03c1a2fb00)" style="fill: #ffffff; stroke: #0072b2; stroke-linejoin: miter"/>
   </g>
   <g id="patch_85">
    <path d="M 685.358545 301.96 
L 692.656 301.96 
L 692.656 171.267047 
L 685.358545 171.267047 
z
" clip-path="url(#p03c1a2fb00)" style="fill: #ffffff; stroke: #0072b2; stroke-linejoin: miter"/>
   </g>
   <g id="patch_86">
    <path d="M 692.656 301.96 
L 699.953455 301.96 
L 699.953455 153.127273 
L 692.656 153.127273 
z
" clip-path="url(#p03c1a2fb00)" style="fill: #ffffff; stroke: #0072b2; stroke-linejoin: miter"/>
   </g>
   <g id="patch_87">
    <path d="M 699.953455 301.96 
L 707.250909 301.96 
L 707.250909 126.181498 
L 699.953455 126.181498 
z
" clip-path="url(#p03c1a2fb00)" style="fill: #ffffff; stroke: #0072b2; stroke-linejoin: miter"/>
   </g>
   <g id="patch_88">
    <path d="M 707.250909 301.96 
L 714.548364 301.96 
L 714.548364 131.769089 
L 707.250909 131.769089 
z
" clip-path="url(#p03c1a2fb00)" style="fill: #ffffff; stroke: #0072b2; stroke-linejoin: miter"/>
   </g>
   <g id="patch_89">
    <path d="M 714.548364 301.96 
L 721.845818 301.96 
L 721.845818 138.413631 
L 714.548364 138.413631 
z
" clip-path="url(#p03c1a2fb00)" style="fill: #ffffff; stroke: #0072b2; stroke-linejoin: miter"/>
   </g>
   <g id="patch_90">
    <path d="M 721.845818 301.96 
L 729.143273 301.96 
L 729.143273 181.254484 
L 721.845818 181.254484 
z
" clip-path="url(#p03c1a2fb00)" style="fill: #ffffff; stroke: #0072b2; stroke-linejoin: miter"/>
   </g>
   <g id="patch_91">
    <path d="M 729.143273 301.96 
L 736.440727 301.96 
L 736.440727 161.340473 
L 729.143273 161.340473 
z
" clip-path="url(#p03c1a2fb00)" style="fill: #ffffff; stroke: #0072b2; stroke-linejoin: miter"/>
   </g>
   <g id="patch_92">
    <path d="M 736.440727 301.96 
L 743.738182 301.96 
L 743.738182 66.182757 
L 736.440727 66.182757 
z
" clip-path="url(#p03c1a2fb00)" style="fill: #ffffff; stroke: #0072b2; stroke-linejoin: miter"/>
   </g>
   <g id="patch_93">
    <path d="M 743.738182 301.96 
L 751.035636 301.96 
L 751.035636 203.76585 
L 743.738182 203.76585 
z
" clip-path="url(#p03c1a2fb00)" style="fill: #ffffff; stroke: #0072b2; stroke-linejoin: miter"/>
   </g>
   <g id="patch_94">
    <path d="M 751.035636 301.96 
L 758.333091 301.96 
L 758.333091 247.433375 
L 751.035636 247.433375 
z
" clip-path="url(#p03c1a2fb00)" style="fill: #ffffff; stroke: #0072b2; stroke-linejoin: miter"/>
   </g>
   <g id="patch_95">
    <path d="M 758.333091 301.96 
L 765.630545 301.96 
L 765.630545 210.490138 
L 758.333091 210.490138 
z
" clip-path="url(#p03c1a2fb00)" style="fill: #ffffff; stroke: #0072b2; stroke-linejoin: miter"/>
   </g>
   <g id="patch_96">
    <path d="M 765.630545 301.96 
L 772.928 301.96 
L 772.928 284.630255 
L 765.630545 284.630255 
z
" clip-path="url(#p03c1a2fb00)" style="fill: #ffffff; stroke: #0072b2; stroke-linejoin: miter"/>
   </g>
   <g id="patch_97">
    <path d="M 772.928 301.96 
L 780.225455 301.96 
L 780.225455 281.880194 
L 772.928 281.880194 
z
" clip-path="url(#p03c1a2fb00)" style="fill: #ffffff; stroke: #0072b2; stroke-linejoin: miter"/>
   </g>
   <g id="patch_98">
    <path d="M 780.225455 301.96 
L 787.522909 301.96 
L 787.522909 301.96 
L 780.225455 301.96 
z
" clip-path="url(#p03c1a2fb00)" style="fill: #ffffff; stroke: #0072b2; stroke-linejoin: miter"/>
   </g>
   <g id="patch_99">
    <path d="M 787.522909 301.96 
L 794.820364 301.96 
L 794.820364 301.96 
L 787.522909 301.96 
z
" clip-path="url(#p03c1a2fb00)" style="fill: #ffffff; stroke: #0072b2; stroke-linejoin: miter"/>
   </g>
   <g id="patch_100">
    <path d="M 794.820364 301.96 
L 802.117818 301.96 
L 802.117818 301.96 
L 794.820364 301.96 
z
" clip-path="url(#p03c1a2fb00)" style="fill: #ffffff; stroke: #0072b2; stroke-linejoin: miter"/>
   </g>
   <g id="patch_101">
    <path d="M 802.117818 301.96 
L 809.415273 301.96 
L 809.415273 301.96 
L 802.117818 301.96 
z
" clip-path="url(#p03c1a2fb00)" style="fill: #ffffff; stroke: #0072b2; stroke-linejoin: miter"/>
   </g>
   <g id="patch_102">
    <path d="M 809.415273 301.96 
L 816.712727 301.96 
L 816.712727 301.96 
L 809.415273 301.96 
z
" clip-path="url(#p03c1a2fb00)" style="fill: #ffffff; stroke: #0072b2; stroke-linejoin: miter"/>
   </g>
   <g id="PatchCollection_1">
    <path d="M 86.967273 301.96 
L 94.264727 301.96 
L 94.264727 301.96 
L 86.967273 301.96 
z
" clip-path="url(#p03c1a2fb00)" style="fill: url(#h839324668e)"/>
    <path d="M 94.264727 301.96 
L 101.562182 301.96 
L 101.562182 301.96 
L 94.264727 301.96 
z
" clip-path="url(#p03c1a2fb00)" style="fill: url(#h839324668e)"/>
    <path d="M 101.562182 301.96 
L 108.859636 301.96 
L 108.859636 301.96 
L 101.562182 301.96 
z
" clip-path="url(#p03c1a2fb00)" style="fill: url(#h839324668e)"/>
    <path d="M 108.859636 301.96 
L 116.157091 301.96 
L 116.157091 301.96 
L 108.859636 301.96 
z
" clip-path="url(#p03c1a2fb00)" style="fill: url(#h839324668e)"/>
    <path d="M 116.157091 301.96 
L 123.454545 301.96 
L 123.454545 301.96 
L 116.157091 301.96 
z
" clip-path="url(#p03c1a2fb00)" style="fill: url(#h839324668e)"/>
    <path d="M 123.454545 301.96 
L 130.752 301.96 
L 130.752 301.96 
L 123.454545 301.96 
z
" clip-path="url(#p03c1a2fb00)" style="fill: url(#h839324668e)"/>
    <path d="M 130.752 301.96 
L 138.049455 301.96 
L 138.049455 301.96 
L 130.752 301.96 
z
" clip-path="url(#p03c1a2fb00)" style="fill: url(#h839324668e)"/>
    <path d="M 138.049455 301.96 
L 145.346909 301.96 
L 145.346909 301.96 
L 138.049455 301.96 
z
" clip-path="url(#p03c1a2fb00)" style="fill: url(#h839324668e)"/>
    <path d="M 145.346909 301.96 
L 152.644364 301.96 
L 152.644364 301.96 
L 145.346909 301.96 
z
" clip-path="url(#p03c1a2fb00)" style="fill: url(#h839324668e)"/>
    <path d="M 152.644364 301.96 
L 159.941818 301.96 
L 159.941818 301.96 
L 152.644364 301.96 
z
" clip-path="url(#p03c1a2fb00)" style="fill: url(#h839324668e)"/>
    <path d="M 159.941818 301.96 
L 167.239273 301.96 
L 167.239273 301.96 
L 159.941818 301.96 
z
" clip-path="url(#p03c1a2fb00)" style="fill: url(#h839324668e)"/>
    <path d="M 167.239273 301.96 
L 174.536727 301.96 
L 174.536727 301.96 
L 167.239273 301.96 
z
" clip-path="url(#p03c1a2fb00)" style="fill: url(#h839324668e)"/>
    <path d="M 174.536727 301.96 
L 181.834182 301.96 
L 181.834182 301.96 
L 174.536727 301.96 
z
" clip-path="url(#p03c1a2fb00)" style="fill: url(#h839324668e)"/>
    <path d="M 181.834182 301.96 
L 189.131636 301.96 
L 189.131636 301.96 
L 181.834182 301.96 
z
" clip-path="url(#p03c1a2fb00)" style="fill: url(#h839324668e)"/>
    <path d="M 189.131636 301.96 
L 196.429091 301.96 
L 196.429091 301.96 
L 189.131636 301.96 
z
" clip-path="url(#p03c1a2fb00)" style="fill: url(#h839324668e)"/>
    <path d="M 196.429091 301.96 
L 203.726545 301.96 
L 203.726545 301.96 
L 196.429091 301.96 
z
" clip-path="url(#p03c1a2fb00)" style="fill: url(#h839324668e)"/>
    <path d="M 203.726545 301.96 
L 211.024 301.96 
L 211.024 301.96 
L 203.726545 301.96 
z
" clip-path="url(#p03c1a2fb00)" style="fill: url(#h839324668e)"/>
    <path d="M 211.024 301.96 
L 218.321455 301.96 
L 218.321455 301.96 
L 211.024 301.96 
z
" clip-path="url(#p03c1a2fb00)" style="fill: url(#h839324668e)"/>
    <path d="M 218.321455 301.96 
L 225.618909 301.96 
L 225.618909 301.96 
L 218.321455 301.96 
z
" clip-path="url(#p03c1a2fb00)" style="fill: url(#h839324668e)"/>
    <path d="M 225.618909 301.96 
L 232.916364 301.96 
L 232.916364 301.96 
L 225.618909 301.96 
z
" clip-path="url(#p03c1a2fb00)" style="fill: url(#h839324668e)"/>
    <path d="M 232.916364 301.96 
L 240.213818 301.96 
L 240.213818 301.96 
L 232.916364 301.96 
z
" clip-path="url(#p03c1a2fb00)" style="fill: url(#h839324668e)"/>
    <path d="M 240.213818 301.96 
L 247.511273 301.96 
L 247.511273 301.96 
L 240.213818 301.96 
z
" clip-path="url(#p03c1a2fb00)" style="fill: url(#h839324668e)"/>
    <path d="M 247.511273 301.96 
L 254.808727 301.96 
L 254.808727 301.96 
L 247.511273 301.96 
z
" clip-path="url(#p03c1a2fb00)" style="fill: url(#h839324668e)"/>
    <path d="M 254.808727 301.96 
L 262.106182 301.96 
L 262.106182 301.96 
L 254.808727 301.96 
z
" clip-path="url(#p03c1a2fb00)" style="fill: url(#h839324668e)"/>
    <path d="M 262.106182 301.96 
L 269.403636 301.96 
L 269.403636 301.96 
L 262.106182 301.96 
z
" clip-path="url(#p03c1a2fb00)" style="fill: url(#h839324668e)"/>
    <path d="M 269.403636 301.96 
L 276.701091 301.96 
L 276.701091 301.96 
L 269.403636 301.96 
z
" clip-path="url(#p03c1a2fb00)" style="fill: url(#h839324668e)"/>
    <path d="M 276.701091 301.96 
L 283.998545 301.96 
L 283.998545 301.96 
L 276.701091 301.96 
z
" clip-path="url(#p03c1a2fb00)" style="fill: url(#h839324668e)"/>
    <path d="M 283.998545 301.96 
L 291.296 301.96 
L 291.296 301.96 
L 283.998545 301.96 
z
" clip-path="url(#p03c1a2fb00)" style="fill: url(#h839324668e)"/>
    <path d="M 291.296 301.96 
L 298.593455 301.96 
L 298.593455 301.96 
L 291.296 301.96 
z
" clip-path="url(#p03c1a2fb00)" style="fill: url(#h839324668e)"/>
    <path d="M 298.593455 301.96 
L 305.890909 301.96 
L 305.890909 301.96 
L 298.593455 301.96 
z
" clip-path="url(#p03c1a2fb00)" style="fill: url(#h839324668e)"/>
    <path d="M 305.890909 301.96 
L 313.188364 301.96 
L 313.188364 301.96 
L 305.890909 301.96 
z
" clip-path="url(#p03c1a2fb00)" style="fill: url(#h839324668e)"/>
    <path d="M 313.188364 301.96 
L 320.485818 301.96 
L 320.485818 301.96 
L 313.188364 301.96 
z
" clip-path="url(#p03c1a2fb00)" style="fill: url(#h839324668e)"/>
    <path d="M 320.485818 301.96 
L 327.783273 301.96 
L 327.783273 301.96 
L 320.485818 301.96 
z
" clip-path="url(#p03c1a2fb00)" style="fill: url(#h839324668e)"/>
    <path d="M 327.783273 301.96 
L 335.080727 301.96 
L 335.080727 301.96 
L 327.783273 301.96 
z
" clip-path="url(#p03c1a2fb00)" style="fill: url(#h839324668e)"/>
    <path d="M 335.080727 301.96 
L 342.378182 301.96 
L 342.378182 301.96 
L 335.080727 301.96 
z
" clip-path="url(#p03c1a2fb00)" style="fill: url(#h839324668e)"/>
    <path d="M 342.378182 301.96 
L 349.675636 301.96 
L 349.675636 301.96 
L 342.378182 301.96 
z
" clip-path="url(#p03c1a2fb00)" style="fill: url(#h839324668e)"/>
    <path d="M 349.675636 301.96 
L 356.973091 301.96 
L 356.973091 301.96 
L 349.675636 301.96 
z
" clip-path="url(#p03c1a2fb00)" style="fill: url(#h839324668e)"/>
    <path d="M 356.973091 301.96 
L 364.270545 301.96 
L 364.270545 301.96 
L 356.973091 301.96 
z
" clip-path="url(#p03c1a2fb00)" style="fill: url(#h839324668e)"/>
    <path d="M 364.270545 301.96 
L 371.568 301.96 
L 371.568 301.96 
L 364.270545 301.96 
z
" clip-path="url(#p03c1a2fb00)" style="fill: url(#h839324668e)"/>
    <path d="M 371.568 301.96 
L 378.865455 301.96 
L 378.865455 301.96 
L 371.568 301.96 
z
" clip-path="url(#p03c1a2fb00)" style="fill: url(#h839324668e)"/>
    <path d="M 378.865455 301.96 
L 386.162909 301.96 
L 386.162909 301.96 
L 378.865455 301.96 
z
" clip-path="url(#p03c1a2fb00)" style="fill: url(#h839324668e)"/>
    <path d="M 386.162909 301.96 
L 393.460364 301.96 
L 393.460364 301.96 
L 386.162909 301.96 
z
" clip-path="url(#p03c1a2fb00)" style="fill: url(#h839324668e)"/>
    <path d="M 393.460364 301.96 
L 400.757818 301.96 
L 400.757818 301.96 
L 393.460364 301.96 
z
" clip-path="url(#p03c1a2fb00)" style="fill: url(#h839324668e)"/>
    <path d="M 400.757818 301.96 
L 408.055273 301.96 
L 408.055273 301.96 
L 400.757818 301.96 
z
" clip-path="url(#p03c1a2fb00)" style="fill: url(#h839324668e)"/>
    <path d="M 408.055273 301.96 
L 415.352727 301.96 
L 415.352727 301.96 
L 408.055273 301.96 
z
" clip-path="url(#p03c1a2fb00)" style="fill: url(#h839324668e)"/>
    <path d="M 415.352727 301.96 
L 422.650182 301.96 
L 422.650182 301.96 
L 415.352727 301.96 
z
" clip-path="url(#p03c1a2fb00)" style="fill: url(#h839324668e)"/>
    <path d="M 422.650182 303.682963 
L 429.947636 303.682963 
L 429.947636 300.083442 
L 422.650182 300.083442 
z
" clip-path="url(#p03c1a2fb00)" style="fill: url(#h839324668e)"/>
    <path d="M 429.947636 303.275755 
L 437.245091 303.275755 
L 437.245091 300.556581 
L 429.947636 300.556581 
z
" clip-path="url(#p03c1a2fb00)" style="fill: url(#h839324668e)"/>
    <path d="M 437.245091 303.333188 
L 444.542545 303.333188 
L 444.542545 300.49103 
L 437.245091 300.49103 
z
" clip-path="url(#p03c1a2fb00)" style="fill: url(#h839324668e)"/>
    <path d="M 444.542545 304.814531 
L 451.84 304.814531 
L 451.84 298.655603 
L 444.542545 298.655603 
z
" clip-path="url(#p03c1a2fb00)" style="fill: url(#h839324668e)"/>
    <path d="M 451.84 306.635657 
L 459.137455 306.635657 
L 459.137455 295.923175 
L 451.84 295.923175 
z
" clip-path="url(#p03c1a2fb00)" style="fill: url(#h839324668e)"/>
    <path d="M 459.137455 306.051033 
L 466.434909 306.051033 
L 466.434909 296.868639 
L 459.137455 296.868639 
z
" clip-path="url(#p03c1a2fb00)" style="fill: url(#h839324668e)"/>
    <path d="M 466.434909 307.227598 
L 473.732364 307.227598 
L 473.732364 294.884406 
L 466.434909 294.884406 
z
" clip-path="url(#p03c1a2fb00)" style="fill: url(#h839324668e)"/>
    <path d="M 473.732364 309.090742 
L 481.029818 309.090742 
L 481.029818 290.902408 
L 473.732364 290.902408 
z
" clip-path="url(#p03c1a2fb00)" style="fill: url(#h839324668e)"/>
    <path d="M 481.029818 309.382939 
L 488.327273 309.382939 
L 488.327273 290.140844 
L 481.029818 290.140844 
z
" clip-path="url(#p03c1a2fb00)" style="fill: url(#h839324668e)"/>
    <path d="M 488.327273 309.472418 
L 495.624727 309.472418 
L 495.624727 289.895327 
L 488.327273 289.895327 
z
" clip-path="url(#p03c1a2fb00)" style="fill: url(#h839324668e)"/>
    <path d="M 495.624727 310.443834 
L 502.922182 310.443834 
L 502.922182 286.876072 
L 495.624727 286.876072 
z
" clip-path="url(#p03c1a2fb00)" style="fill: url(#h839324668e)"/>
    <path d="M 502.922182 311.471566 
L 510.219636 311.471566 
L 510.219636 282.403573 
L 502.922182 282.403573 
z
" clip-path="url(#p03c1a2fb00)" style="fill: url(#h839324668e)"/>
    <path d="M 510.219636 312.12045 
L 517.517091 312.12045 
L 517.517091 277.738743 
L 510.219636 277.738743 
z
" clip-path="url(#p03c1a2fb00)" style="fill: url(#h839324668e)"/>
    <path d="M 517.517091 312.462218 
L 524.814545 312.462218 
L 524.814545 270.167158 
L 517.517091 270.167158 
z
" clip-path="url(#p03c1a2fb00)" style="fill: url(#h839324668e)"/>
    <path d="M 524.814545 312.273836 
L 532.112 312.273836 
L 532.112 275.817315 
L 524.814545 275.817315 
z
" clip-path="url(#p03c1a2fb00)" style="fill: url(#h839324668e)"/>
    <path d="M 532.112 312.44708 
L 539.409455 312.44708 
L 539.409455 270.235351 
L 532.112 270.235351 
z
" clip-path="url(#p03c1a2fb00)" style="fill: url(#h839324668e)"/>
    <path d="M 539.409455 312.298957 
L 546.706909 312.298957 
L 546.706909 265.556404 
L 539.409455 265.556404 
z
" clip-path="url(#p03c1a2fb00)" style="fill: url(#h839324668e)"/>
    <path d="M 546.706909 312.27192 
L 554.004364 312.27192 
L 554.004364 265.304021 
L 546.706909 265.304021 
z
" clip-path="url(#p03c1a2fb00)" style="fill: url(#h839324668e)"/>
    <path d="M 554.004364 312.37167 
L 561.301818 312.37167 
L 561.301818 267.85463 
L 554.004364 267.85463 
z
" clip-path="url(#p03c1a2fb00)" style="fill: url(#h839324668e)"/>
    <path d="M 561.301818 312.295924 
L 568.599273 312.295924 
L 568.599273 266.344293 
L 561.301818 266.344293 
z
" clip-path="url(#p03c1a2fb00)" style="fill: url(#h839324668e)"/>
    <path d="M 568.599273 311.984123 
L 575.896727 311.984123 
L 575.896727 262.103816 
L 568.599273 262.103816 
z
" clip-path="url(#p03c1a2fb00)" style="fill: url(#h839324668e)"/>
    <path d="M 575.896727 311.438232 
L 583.194182 311.438232 
L 583.194182 257.369139 
L 575.896727 257.369139 
z
" clip-path="url(#p03c1a2fb00)" style="fill: url(#h839324668e)"/>
    <path d="M 583.194182 310.757938 
L 590.491636 310.757938 
L 590.491636 252.966181 
L 583.194182 252.966181 
z
" clip-path="url(#p03c1a2fb00)" style="fill: url(#h839324668e)"/>
    <path d="M 590.491636 307.313161 
L 597.789091 307.313161 
L 597.789091 237.041696 
L 590.491636 237.041696 
z
" clip-path="url(#p03c1a2fb00)" style="fill: url(#h839324668e)"/>
    <path d="M 597.789091 310.270104 
L 605.086545 310.270104 
L 605.086545 250.59957 
L 597.789091 250.59957 
z
" clip-path="url(#p03c1a2fb00)" style="fill: url(#h839324668e)"/>
    <path d="M 605.086545 305.528281 
L 612.384 305.528281 
L 612.384 230.974746 
L 605.086545 230.974746 
z
" clip-path="url(#p03c1a2fb00)" style="fill: url(#h839324668e)"/>
    <path d="M 612.384 310.588833 
L 619.681455 310.588833 
L 619.681455 253.049044 
L 612.384 253.049044 
z
" clip-path="url(#p03c1a2fb00)" style="fill: url(#h839324668e)"/>
    <path d="M 619.681455 303.202148 
L 626.978909 303.202148 
L 626.978909 223.898962 
L 619.681455 223.898962 
z
" clip-path="url(#p03c1a2fb00)" style="fill: url(#h839324668e)"/>
    <path d="M 626.978909 295.175493 
L 634.276364 295.175493 
L 634.276364 201.871548 
L 626.978909 201.871548 
z
" clip-path="url(#p03c1a2fb00)" style="fill: url(#h839324668e)"/>
    <path d="M 634.276364 301.202364 
L 641.573818 301.202364 
L 641.573818 218.649515 
L 634.276364 218.649515 
z
" clip-path="url(#p03c1a2fb00)" style="fill: url(#h839324668e)"/>
    <path d="M 641.573818 290.326787 
L 648.871273 290.326787 
L 648.871273 190.88126 
L 641.573818 190.88126 
z
" clip-path="url(#p03c1a2fb00)" style="fill: url(#h839324668e)"/>
    <path d="M 648.871273 279.254942 
L 656.168727 279.254942 
L 656.168727 166.870171 
L 648.871273 166.870171 
z
" clip-path="url(#p03c1a2fb00)" style="fill: url(#h839324668e)"/>
    <path d="M 656.168727 253.781235 
L 663.466182 253.781235 
L 663.466182 117.921369 
L 656.168727 117.921369 
z
" clip-path="url(#p03c1a2fb00)" style="fill: url(#h839324668e)"/>
    <path d="M 663.466182 248.254255 
L 670.763636 248.254255 
L 670.763636 108.914842 
L 663.466182 108.914842 
z
" clip-path="url(#p03c1a2fb00)" style="fill: url(#h839324668e)"/>
    <path d="M 670.763636 255.180775 
L 678.061091 255.180775 
L 678.061091 122.328255 
L 670.763636 122.328255 
z
" clip-path="url(#p03c1a2fb00)" style="fill: url(#h839324668e)"/>
    <path d="M 678.061091 210.810307 
L 685.358545 210.810307 
L 685.358545 47.633829 
L 678.061091 47.633829 
z
" clip-path="url(#p03c1a2fb00)" style="fill: url(#h839324668e)"/>
    <path d="M 685.358545 241.7346 
L 692.656 241.7346 
L 692.656 100.799494 
L 685.358545 100.799494 
z
" clip-path="url(#p03c1a2fb00)" style="fill: url(#h839324668e)"/>
    <path d="M 692.656 227.742537 
L 699.953455 227.742537 
L 699.953455 78.512009 
L 692.656 78.512009 
z
" clip-path="url(#p03c1a2fb00)" style="fill: url(#h839324668e)"/>
    <path d="M 699.953455 206.515219 
L 707.250909 206.515219 
L 707.250909 45.847786 
L 699.953455 45.847786 
z
" clip-path="url(#p03c1a2fb00)" style="fill: url(#h839324668e)"/>
    <path d="M 707.250909 209.940415 
L 714.548364 209.940415 
L 714.548364 53.597773 
L 707.250909 53.597773 
z
" clip-path="url(#p03c1a2fb00)" style="fill: url(#h839324668e)"/>
    <path d="M 714.548364 214.175466 
L 721.845818 214.175466 
L 721.845818 62.651787 
L 714.548364 62.651787 
z
" clip-path="url(#p03c1a2fb00)" style="fill: url(#h839324668e)"/>
    <path d="M 721.845818 245.464908 
L 729.143273 245.464908 
L 729.143273 117.044059 
L 721.845818 117.044059 
z
" clip-path="url(#p03c1a2fb00)" style="fill: url(#h839324668e)"/>
    <path d="M 729.143273 229.282409 
L 736.440727 229.282409 
L 736.440727 93.398538 
L 729.143273 93.398538 
z
" clip-path="url(#p03c1a2fb00)" style="fill: url(#h839324668e)"/>
    <path d="M 736.440727 152.346316 
L 743.738182 152.346316 
L 743.738182 -19.980801 
L 736.440727 -19.980801 
z
" clip-path="url(#p03c1a2fb00)" style="fill: url(#h839324668e)"/>
    <path d="M 743.738182 257.976906 
L 751.035636 257.976906 
L 751.035636 149.554795 
L 743.738182 149.554795 
z
" clip-path="url(#p03c1a2fb00)" style="fill: url(#h839324668e)"/>
    <path d="M 751.035636 286.892705 
L 758.333091 286.892705 
L 758.333091 207.974044 
L 751.035636 207.974044 
z
" clip-path="url(#p03c1a2fb00)" style="fill: url(#h839324668e)"/>
    <path d="M 758.333091 260.155843 
L 765.630545 260.155843 
L 765.630545 160.824433 
L 758.333091 160.824433 
z
" clip-path="url(#p03c1a2fb00)" style="fill: url(#h839324668e)"/>
    <path d="M 765.630545 305.397303 
L 772.928 305.397303 
L 772.928 263.863207 
L 765.630545 263.863207 
z
" clip-path="url(#p03c1a2fb00)" style="fill: url(#h839324668e)"/>
    <path d="M 772.928 302.963076 
L 780.225455 302.963076 
L 780.225455 260.797312 
L 772.928 260.797312 
z
" clip-path="url(#p03c1a2fb00)" style="fill: url(#h839324668e)"/>
    <path d="M 780.225455 301.96 
L 787.522909 301.96 
L 787.522909 301.96 
L 780.225455 301.96 
z
" clip-path="url(#p03c1a2fb00)" style="fill: url(#h839324668e)"/>
    <path d="M 787.522909 301.96 
L 794.820364 301.96 
L 794.820364 301.96 
L 787.522909 301.96 
z
" clip-path="url(#p03c1a2fb00)" style="fill: url(#h839324668e)"/>
    <path d="M 794.820364 301.96 
L 802.117818 301.96 
L 802.117818 301.96 
L 794.820364 301.96 
z
" clip-path="url(#p03c1a2fb00)" style="fill: url(#h839324668e)"/>
    <path d="M 802.117818 301.96 
L 809.415273 301.96 
L 809.415273 301.96 
L 802.117818 301.96 
z
" clip-path="url(#p03c1a2fb00)" style="fill: url(#h839324668e)"/>
    <path d="M 809.415273 301.96 
L 816.712727 301.96 
L 816.712727 301.96 
L 809.415273 301.96 
z
" clip-path="url(#p03c1a2fb00)" style="fill: url(#h839324668e)"/>
   </g>
   <g id="matplotlib.axis_1">
    <g id="xtick_1">
     <g id="line2d_1">
      <defs>
       <path id="m9f4d21d079" d="M 0 0 
L 0 3.5 
" style="stroke: #000000; stroke-width: 0.8"/>
      </defs>
      <g>
       <use xlink:href="#m9f4d21d079" x="50.607492" y="301.96" style="stroke: #000000; stroke-width: 0.8"/>
      </g>
     </g>
     <g id="text_1">
      <!-- −6 -->
      <g transform="translate(40.287961 319.597813) scale(0.14 -0.14)">
       <defs>
        <path id="DejaVuSans-2212" d="M 678 2272 
L 4684 2272 
L 4684 1741 
L 678 1741 
L 678 2272 
z
" transform="scale(0.015625)"/>
        <path id="DejaVuSans-36" d="M 2113 2584 
Q 1688 2584 1439 2293 
Q 1191 2003 1191 1497 
Q 1191 994 1439 701 
Q 1688 409 2113 409 
Q 2538 409 2786 701 
Q 3034 994 3034 1497 
Q 3034 2003 2786 2293 
Q 2538 2584 2113 2584 
z
M 3366 4563 
L 3366 3988 
Q 3128 4100 2886 4159 
Q 2644 4219 2406 4219 
Q 1781 4219 1451 3797 
Q 1122 3375 1075 2522 
Q 1259 2794 1537 2939 
Q 1816 3084 2150 3084 
Q 2853 3084 3261 2657 
Q 3669 2231 3669 1497 
Q 3669 778 3244 343 
Q 2819 -91 2113 -91 
Q 1303 -91 875 529 
Q 447 1150 447 2328 
Q 447 3434 972 4092 
Q 1497 4750 2381 4750 
Q 2619 4750 2861 4703 
Q 3103 4656 3366 4563 
z
" transform="scale(0.015625)"/>
       </defs>
       <use xlink:href="#DejaVuSans-2212"/>
       <use xlink:href="#DejaVuSans-36" x="83.789062"/>
      </g>
     </g>
    </g>
    <g id="xtick_2">
     <g id="line2d_2">
      <g>
       <use xlink:href="#m9f4d21d079" x="178.291698" y="301.96" style="stroke: #000000; stroke-width: 0.8"/>
      </g>
     </g>
     <g id="text_2">
      <!-- −5 -->
      <g transform="translate(167.972167 319.597813) scale(0.14 -0.14)">
       <defs>
        <path id="DejaVuSans-35" d="M 691 4666 
L 3169 4666 
L 3169 4134 
L 1269 4134 
L 1269 2991 
Q 1406 3038 1543 3061 
Q 1681 3084 1819 3084 
Q 2600 3084 3056 2656 
Q 3513 2228 3513 1497 
Q 3513 744 3044 326 
Q 2575 -91 1722 -91 
Q 1428 -91 1123 -41 
Q 819 9 494 109 
L 494 744 
Q 775 591 1075 516 
Q 1375 441 1709 441 
Q 2250 441 2565 725 
Q 2881 1009 2881 1497 
Q 2881 1984 2565 2268 
Q 2250 2553 1709 2553 
Q 1456 2553 1204 2497 
Q 953 2441 691 2322 
L 691 4666 
z
" transform="scale(0.015625)"/>
       </defs>
       <use xlink:href="#DejaVuSans-2212"/>
       <use xlink:href="#DejaVuSans-35" x="83.789062"/>
      </g>
     </g>
    </g>
    <g id="xtick_3">
     <g id="line2d_3">
      <g>
       <use xlink:href="#m9f4d21d079" x="305.975904" y="301.96" style="stroke: #000000; stroke-width: 0.8"/>
      </g>
     </g>
     <g id="text_3">
      <!-- −4 -->
      <g transform="translate(295.656373 319.597813) scale(0.14 -0.14)">
       <defs>
        <path id="DejaVuSans-34" d="M 2419 4116 
L 825 1625 
L 2419 1625 
L 2419 4116 
z
M 2253 4666 
L 3047 4666 
L 3047 1625 
L 3713 1625 
L 3713 1100 
L 3047 1100 
L 3047 0 
L 2419 0 
L 2419 1100 
L 313 1100 
L 313 1709 
L 2253 4666 
z
" transform="scale(0.015625)"/>
       </defs>
       <use xlink:href="#DejaVuSans-2212"/>
       <use xlink:href="#DejaVuSans-34" x="83.789062"/>
      </g>
     </g>
    </g>
    <g id="xtick_4">
     <g id="line2d_4">
      <g>
       <use xlink:href="#m9f4d21d079" x="433.66011" y="301.96" style="stroke: #000000; stroke-width: 0.8"/>
      </g>
     </g>
     <g id="text_4">
      <!-- −3 -->
      <g transform="translate(423.340579 319.597813) scale(0.14 -0.14)">
       <defs>
        <path id="DejaVuSans-33" d="M 2597 2516 
Q 3050 2419 3304 2112 
Q 3559 1806 3559 1356 
Q 3559 666 3084 287 
Q 2609 -91 1734 -91 
Q 1441 -91 1130 -33 
Q 819 25 488 141 
L 488 750 
Q 750 597 1062 519 
Q 1375 441 1716 441 
Q 2309 441 2620 675 
Q 2931 909 2931 1356 
Q 2931 1769 2642 2001 
Q 2353 2234 1838 2234 
L 1294 2234 
L 1294 2753 
L 1863 2753 
Q 2328 2753 2575 2939 
Q 2822 3125 2822 3475 
Q 2822 3834 2567 4026 
Q 2313 4219 1838 4219 
Q 1578 4219 1281 4162 
Q 984 4106 628 3988 
L 628 4550 
Q 988 4650 1302 4700 
Q 1616 4750 1894 4750 
Q 2613 4750 3031 4423 
Q 3450 4097 3450 3541 
Q 3450 3153 3228 2886 
Q 3006 2619 2597 2516 
z
" transform="scale(0.015625)"/>
       </defs>
       <use xlink:href="#DejaVuSans-2212"/>
       <use xlink:href="#DejaVuSans-33" x="83.789062"/>
      </g>
     </g>
    </g>
    <g id="xtick_5">
     <g id="line2d_5">
      <g>
       <use xlink:href="#m9f4d21d079" x="561.344316" y="301.96" style="stroke: #000000; stroke-width: 0.8"/>
      </g>
     </g>
     <g id="text_5">
      <!-- −2 -->
      <g transform="translate(551.024784 319.597813) scale(0.14 -0.14)">
       <defs>
        <path id="DejaVuSans-32" d="M 1228 531 
L 3431 531 
L 3431 0 
L 469 0 
L 469 531 
Q 828 903 1448 1529 
Q 2069 2156 2228 2338 
Q 2531 2678 2651 2914 
Q 2772 3150 2772 3378 
Q 2772 3750 2511 3984 
Q 2250 4219 1831 4219 
Q 1534 4219 1204 4116 
Q 875 4013 500 3803 
L 500 4441 
Q 881 4594 1212 4672 
Q 1544 4750 1819 4750 
Q 2544 4750 2975 4387 
Q 3406 4025 3406 3419 
Q 3406 3131 3298 2873 
Q 3191 2616 2906 2266 
Q 2828 2175 2409 1742 
Q 1991 1309 1228 531 
z
" transform="scale(0.015625)"/>
       </defs>
       <use xlink:href="#DejaVuSans-2212"/>
       <use xlink:href="#DejaVuSans-32" x="83.789062"/>
      </g>
     </g>
    </g>
    <g id="xtick_6">
     <g id="line2d_6">
      <g>
       <use xlink:href="#m9f4d21d079" x="689.028521" y="301.96" style="stroke: #000000; stroke-width: 0.8"/>
      </g>
     </g>
     <g id="text_6">
      <!-- −1 -->
      <g transform="translate(678.70899 319.597813) scale(0.14 -0.14)">
       <defs>
        <path id="DejaVuSans-31" d="M 794 531 
L 1825 531 
L 1825 4091 
L 703 3866 
L 703 4441 
L 1819 4666 
L 2450 4666 
L 2450 531 
L 3481 531 
L 3481 0 
L 794 0 
L 794 531 
z
" transform="scale(0.015625)"/>
       </defs>
       <use xlink:href="#DejaVuSans-2212"/>
       <use xlink:href="#DejaVuSans-31" x="83.789062"/>
      </g>
     </g>
    </g>
    <g id="xtick_7">
     <g id="line2d_7">
      <g>
       <use xlink:href="#m9f4d21d079" x="816.712727" y="301.96" style="stroke: #000000; stroke-width: 0.8"/>
      </g>
     </g>
     <g id="text_7">
      <!-- 0 -->
      <g transform="translate(812.258977 319.597813) scale(0.14 -0.14)">
       <defs>
        <path id="DejaVuSans-30" d="M 2034 4250 
Q 1547 4250 1301 3770 
Q 1056 3291 1056 2328 
Q 1056 1369 1301 889 
Q 1547 409 2034 409 
Q 2525 409 2770 889 
Q 3016 1369 3016 2328 
Q 3016 3291 2770 3770 
Q 2525 4250 2034 4250 
z
M 2034 4750 
Q 2819 4750 3233 4129 
Q 3647 3509 3647 2328 
Q 3647 1150 3233 529 
Q 2819 -91 2034 -91 
Q 1250 -91 836 529 
Q 422 1150 422 2328 
Q 422 3509 836 4129 
Q 1250 4750 2034 4750 
z
" transform="scale(0.015625)"/>
       </defs>
       <use xlink:href="#DejaVuSans-30"/>
      </g>
     </g>
    </g>
    <g id="text_8">
     <!-- $\log_{10}$(amino acid substitution probability) -->
     <g transform="translate(306.1 343.149375) scale(0.14 -0.14)">
      <defs>
       <path id="DejaVuSans-6c" d="M 603 4863 
L 1178 4863 
L 1178 0 
L 603 0 
L 603 4863 
z
" transform="scale(0.015625)"/>
       <path id="DejaVuSans-6f" d="M 1959 3097 
Q 1497 3097 1228 2736 
Q 959 2375 959 1747 
Q 959 1119 1226 758 
Q 1494 397 1959 397 
Q 2419 397 2687 759 
Q 2956 1122 2956 1747 
Q 2956 2369 2687 2733 
Q 2419 3097 1959 3097 
z
M 1959 3584 
Q 2709 3584 3137 3096 
Q 3566 2609 3566 1747 
Q 3566 888 3137 398 
Q 2709 -91 1959 -91 
Q 1206 -91 779 398 
Q 353 888 353 1747 
Q 353 2609 779 3096 
Q 1206 3584 1959 3584 
z
" transform="scale(0.015625)"/>
       <path id="DejaVuSans-67" d="M 2906 1791 
Q 2906 2416 2648 2759 
Q 2391 3103 1925 3103 
Q 1463 3103 1205 2759 
Q 947 2416 947 1791 
Q 947 1169 1205 825 
Q 1463 481 1925 481 
Q 2391 481 2648 825 
Q 2906 1169 2906 1791 
z
M 3481 434 
Q 3481 -459 3084 -895 
Q 2688 -1331 1869 -1331 
Q 1566 -1331 1297 -1286 
Q 1028 -1241 775 -1147 
L 775 -588 
Q 1028 -725 1275 -790 
Q 1522 -856 1778 -856 
Q 2344 -856 2625 -561 
Q 2906 -266 2906 331 
L 2906 616 
Q 2728 306 2450 153 
Q 2172 0 1784 0 
Q 1141 0 747 490 
Q 353 981 353 1791 
Q 353 2603 747 3093 
Q 1141 3584 1784 3584 
Q 2172 3584 2450 3431 
Q 2728 3278 2906 2969 
L 2906 3500 
L 3481 3500 
L 3481 434 
z
" transform="scale(0.015625)"/>
       <path id="DejaVuSans-28" d="M 1984 4856 
Q 1566 4138 1362 3434 
Q 1159 2731 1159 2009 
Q 1159 1288 1364 580 
Q 1569 -128 1984 -844 
L 1484 -844 
Q 1016 -109 783 600 
Q 550 1309 550 2009 
Q 550 2706 781 3412 
Q 1013 4119 1484 4856 
L 1984 4856 
z
" transform="scale(0.015625)"/>
       <path id="DejaVuSans-61" d="M 2194 1759 
Q 1497 1759 1228 1600 
Q 959 1441 959 1056 
Q 959 750 1161 570 
Q 1363 391 1709 391 
Q 2188 391 2477 730 
Q 2766 1069 2766 1631 
L 2766 1759 
L 2194 1759 
z
M 3341 1997 
L 3341 0 
L 2766 0 
L 2766 531 
Q 2569 213 2275 61 
Q 1981 -91 1556 -91 
Q 1019 -91 701 211 
Q 384 513 384 1019 
Q 384 1609 779 1909 
Q 1175 2209 1959 2209 
L 2766 2209 
L 2766 2266 
Q 2766 2663 2505 2880 
Q 2244 3097 1772 3097 
Q 1472 3097 1187 3025 
Q 903 2953 641 2809 
L 641 3341 
Q 956 3463 1253 3523 
Q 1550 3584 1831 3584 
Q 2591 3584 2966 3190 
Q 3341 2797 3341 1997 
z
" transform="scale(0.015625)"/>
       <path id="DejaVuSans-6d" d="M 3328 2828 
Q 3544 3216 3844 3400 
Q 4144 3584 4550 3584 
Q 5097 3584 5394 3201 
Q 5691 2819 5691 2113 
L 5691 0 
L 5113 0 
L 5113 2094 
Q 5113 2597 4934 2840 
Q 4756 3084 4391 3084 
Q 3944 3084 3684 2787 
Q 3425 2491 3425 1978 
L 3425 0 
L 2847 0 
L 2847 2094 
Q 2847 2600 2669 2842 
Q 2491 3084 2119 3084 
Q 1678 3084 1418 2786 
Q 1159 2488 1159 1978 
L 1159 0 
L 581 0 
L 581 3500 
L 1159 3500 
L 1159 2956 
Q 1356 3278 1631 3431 
Q 1906 3584 2284 3584 
Q 2666 3584 2933 3390 
Q 3200 3197 3328 2828 
z
" transform="scale(0.015625)"/>
       <path id="DejaVuSans-69" d="M 603 3500 
L 1178 3500 
L 1178 0 
L 603 0 
L 603 3500 
z
M 603 4863 
L 1178 4863 
L 1178 4134 
L 603 4134 
L 603 4863 
z
" transform="scale(0.015625)"/>
       <path id="DejaVuSans-6e" d="M 3513 2113 
L 3513 0 
L 2938 0 
L 2938 2094 
Q 2938 2591 2744 2837 
Q 2550 3084 2163 3084 
Q 1697 3084 1428 2787 
Q 1159 2491 1159 1978 
L 1159 0 
L 581 0 
L 581 3500 
L 1159 3500 
L 1159 2956 
Q 1366 3272 1645 3428 
Q 1925 3584 2291 3584 
Q 2894 3584 3203 3211 
Q 3513 2838 3513 2113 
z
" transform="scale(0.015625)"/>
       <path id="DejaVuSans-20" transform="scale(0.015625)"/>
       <path id="DejaVuSans-63" d="M 3122 3366 
L 3122 2828 
Q 2878 2963 2633 3030 
Q 2388 3097 2138 3097 
Q 1578 3097 1268 2742 
Q 959 2388 959 1747 
Q 959 1106 1268 751 
Q 1578 397 2138 397 
Q 2388 397 2633 464 
Q 2878 531 3122 666 
L 3122 134 
Q 2881 22 2623 -34 
Q 2366 -91 2075 -91 
Q 1284 -91 818 406 
Q 353 903 353 1747 
Q 353 2603 823 3093 
Q 1294 3584 2113 3584 
Q 2378 3584 2631 3529 
Q 2884 3475 3122 3366 
z
" transform="scale(0.015625)"/>
       <path id="DejaVuSans-64" d="M 2906 2969 
L 2906 4863 
L 3481 4863 
L 3481 0 
L 2906 0 
L 2906 525 
Q 2725 213 2448 61 
Q 2172 -91 1784 -91 
Q 1150 -91 751 415 
Q 353 922 353 1747 
Q 353 2572 751 3078 
Q 1150 3584 1784 3584 
Q 2172 3584 2448 3432 
Q 2725 3281 2906 2969 
z
M 947 1747 
Q 947 1113 1208 752 
Q 1469 391 1925 391 
Q 2381 391 2643 752 
Q 2906 1113 2906 1747 
Q 2906 2381 2643 2742 
Q 2381 3103 1925 3103 
Q 1469 3103 1208 2742 
Q 947 2381 947 1747 
z
" transform="scale(0.015625)"/>
       <path id="DejaVuSans-73" d="M 2834 3397 
L 2834 2853 
Q 2591 2978 2328 3040 
Q 2066 3103 1784 3103 
Q 1356 3103 1142 2972 
Q 928 2841 928 2578 
Q 928 2378 1081 2264 
Q 1234 2150 1697 2047 
L 1894 2003 
Q 2506 1872 2764 1633 
Q 3022 1394 3022 966 
Q 3022 478 2636 193 
Q 2250 -91 1575 -91 
Q 1294 -91 989 -36 
Q 684 19 347 128 
L 347 722 
Q 666 556 975 473 
Q 1284 391 1588 391 
Q 1994 391 2212 530 
Q 2431 669 2431 922 
Q 2431 1156 2273 1281 
Q 2116 1406 1581 1522 
L 1381 1569 
Q 847 1681 609 1914 
Q 372 2147 372 2553 
Q 372 3047 722 3315 
Q 1072 3584 1716 3584 
Q 2034 3584 2315 3537 
Q 2597 3491 2834 3397 
z
" transform="scale(0.015625)"/>
       <path id="DejaVuSans-75" d="M 544 1381 
L 544 3500 
L 1119 3500 
L 1119 1403 
Q 1119 906 1312 657 
Q 1506 409 1894 409 
Q 2359 409 2629 706 
Q 2900 1003 2900 1516 
L 2900 3500 
L 3475 3500 
L 3475 0 
L 2900 0 
L 2900 538 
Q 2691 219 2414 64 
Q 2138 -91 1772 -91 
Q 1169 -91 856 284 
Q 544 659 544 1381 
z
M 1991 3584 
L 1991 3584 
z
" transform="scale(0.015625)"/>
       <path id="DejaVuSans-62" d="M 3116 1747 
Q 3116 2381 2855 2742 
Q 2594 3103 2138 3103 
Q 1681 3103 1420 2742 
Q 1159 2381 1159 1747 
Q 1159 1113 1420 752 
Q 1681 391 2138 391 
Q 2594 391 2855 752 
Q 3116 1113 3116 1747 
z
M 1159 2969 
Q 1341 3281 1617 3432 
Q 1894 3584 2278 3584 
Q 2916 3584 3314 3078 
Q 3713 2572 3713 1747 
Q 3713 922 3314 415 
Q 2916 -91 2278 -91 
Q 1894 -91 1617 61 
Q 1341 213 1159 525 
L 1159 0 
L 581 0 
L 581 4863 
L 1159 4863 
L 1159 2969 
z
" transform="scale(0.015625)"/>
       <path id="DejaVuSans-74" d="M 1172 4494 
L 1172 3500 
L 2356 3500 
L 2356 3053 
L 1172 3053 
L 1172 1153 
Q 1172 725 1289 603 
Q 1406 481 1766 481 
L 2356 481 
L 2356 0 
L 1766 0 
Q 1100 0 847 248 
Q 594 497 594 1153 
L 594 3053 
L 172 3053 
L 172 3500 
L 594 3500 
L 594 4494 
L 1172 4494 
z
" transform="scale(0.015625)"/>
       <path id="DejaVuSans-70" d="M 1159 525 
L 1159 -1331 
L 581 -1331 
L 581 3500 
L 1159 3500 
L 1159 2969 
Q 1341 3281 1617 3432 
Q 1894 3584 2278 3584 
Q 2916 3584 3314 3078 
Q 3713 2572 3713 1747 
Q 3713 922 3314 415 
Q 2916 -91 2278 -91 
Q 1894 -91 1617 61 
Q 1341 213 1159 525 
z
M 3116 1747 
Q 3116 2381 2855 2742 
Q 2594 3103 2138 3103 
Q 1681 3103 1420 2742 
Q 1159 2381 1159 1747 
Q 1159 1113 1420 752 
Q 1681 391 2138 391 
Q 2594 391 2855 752 
Q 3116 1113 3116 1747 
z
" transform="scale(0.015625)"/>
       <path id="DejaVuSans-72" d="M 2631 2963 
Q 2534 3019 2420 3045 
Q 2306 3072 2169 3072 
Q 1681 3072 1420 2755 
Q 1159 2438 1159 1844 
L 1159 0 
L 581 0 
L 581 3500 
L 1159 3500 
L 1159 2956 
Q 1341 3275 1631 3429 
Q 1922 3584 2338 3584 
Q 2397 3584 2469 3576 
Q 2541 3569 2628 3553 
L 2631 2963 
z
" transform="scale(0.015625)"/>
       <path id="DejaVuSans-79" d="M 2059 -325 
Q 1816 -950 1584 -1140 
Q 1353 -1331 966 -1331 
L 506 -1331 
L 506 -850 
L 844 -850 
Q 1081 -850 1212 -737 
Q 1344 -625 1503 -206 
L 1606 56 
L 191 3500 
L 800 3500 
L 1894 763 
L 2988 3500 
L 3597 3500 
L 2059 -325 
z
" transform="scale(0.015625)"/>
       <path id="DejaVuSans-29" d="M 513 4856 
L 1013 4856 
Q 1481 4119 1714 3412 
Q 1947 2706 1947 2009 
Q 1947 1309 1714 600 
Q 1481 -109 1013 -844 
L 513 -844 
Q 928 -128 1133 580 
Q 1338 1288 1338 2009 
Q 1338 2731 1133 3434 
Q 928 4138 513 4856 
z
" transform="scale(0.015625)"/>
      </defs>
      <use xlink:href="#DejaVuSans-6c" transform="translate(0 0.015625)"/>
      <use xlink:href="#DejaVuSans-6f" transform="translate(27.783203 0.015625)"/>
      <use xlink:href="#DejaVuSans-67" transform="translate(88.964844 0.015625)"/>
      <use xlink:href="#DejaVuSans-31" transform="translate(153.398438 -16.390625) scale(0.7)"/>
      <use xlink:href="#DejaVuSans-30" transform="translate(197.93457 -16.390625) scale(0.7)"/>
      <use xlink:href="#DejaVuSans-28" transform="translate(261.440754 0.015625)"/>
      <use xlink:href="#DejaVuSans-61" transform="translate(300.454426 0.015625)"/>
      <use xlink:href="#DejaVuSans-6d" transform="translate(361.733723 0.015625)"/>
      <use xlink:href="#DejaVuSans-69" transform="translate(459.145833 0.015625)"/>
      <use xlink:href="#DejaVuSans-6e" transform="translate(486.929036 0.015625)"/>
      <use xlink:href="#DejaVuSans-6f" transform="translate(550.307942 0.015625)"/>
      <use xlink:href="#DejaVuSans-20" transform="translate(611.489583 0.015625)"/>
      <use xlink:href="#DejaVuSans-61" transform="translate(643.276692 0.015625)"/>
      <use xlink:href="#DejaVuSans-63" transform="translate(704.555989 0.015625)"/>
      <use xlink:href="#DejaVuSans-69" transform="translate(759.536458 0.015625)"/>
      <use xlink:href="#DejaVuSans-64" transform="translate(787.319661 0.015625)"/>
      <use xlink:href="#DejaVuSans-20" transform="translate(850.796223 0.015625)"/>
      <use xlink:href="#DejaVuSans-73" transform="translate(882.583333 0.015625)"/>
      <use xlink:href="#DejaVuSans-75" transform="translate(934.682942 0.015625)"/>
      <use xlink:href="#DejaVuSans-62" transform="translate(998.061848 0.015625)"/>
      <use xlink:href="#DejaVuSans-73" transform="translate(1061.538411 0.015625)"/>
      <use xlink:href="#DejaVuSans-74" transform="translate(1113.63802 0.015625)"/>
      <use xlink:href="#DejaVuSans-69" transform="translate(1152.847004 0.015625)"/>
      <use xlink:href="#DejaVuSans-74" transform="translate(1180.630208 0.015625)"/>
      <use xlink:href="#DejaVuSans-75" transform="translate(1219.839192 0.015625)"/>
      <use xlink:href="#DejaVuSans-74" transform="translate(1283.218098 0.015625)"/>
      <use xlink:href="#DejaVuSans-69" transform="translate(1322.427083 0.015625)"/>
      <use xlink:href="#DejaVuSans-6f" transform="translate(1350.210286 0.015625)"/>
      <use xlink:href="#DejaVuSans-6e" transform="translate(1411.391926 0.015625)"/>
      <use xlink:href="#DejaVuSans-20" transform="translate(1474.770833 0.015625)"/>
      <use xlink:href="#DejaVuSans-70" transform="translate(1506.557942 0.015625)"/>
      <use xlink:href="#DejaVuSans-72" transform="translate(1570.034504 0.015625)"/>
      <use xlink:href="#DejaVuSans-6f" transform="translate(1611.147786 0.015625)"/>
      <use xlink:href="#DejaVuSans-62" transform="translate(1672.329426 0.015625)"/>
      <use xlink:href="#DejaVuSans-61" transform="translate(1735.805989 0.015625)"/>
      <use xlink:href="#DejaVuSans-62" transform="translate(1797.085286 0.015625)"/>
      <use xlink:href="#DejaVuSans-69" transform="translate(1860.561848 0.015625)"/>
      <use xlink:href="#DejaVuSans-6c" transform="translate(1888.345051 0.015625)"/>
      <use xlink:href="#DejaVuSans-69" transform="translate(1916.128254 0.015625)"/>
      <use xlink:href="#DejaVuSans-74" transform="translate(1943.911458 0.015625)"/>
      <use xlink:href="#DejaVuSans-79" transform="translate(1983.120442 0.015625)"/>
      <use xlink:href="#DejaVuSans-29" transform="translate(2042.300129 0.015625)"/>
     </g>
    </g>
   </g>
   <g id="matplotlib.axis_2">
    <g id="ytick_1">
     <g id="line2d_8">
      <defs>
       <path id="mf34b5b4743" d="M 0 0 
L -3.5 0 
" style="stroke: #000000; stroke-width: 0.8"/>
      </defs>
      <g>
       <use xlink:href="#mf34b5b4743" x="50.48" y="301.96" style="stroke: #000000; stroke-width: 0.8"/>
      </g>
     </g>
     <g id="text_9">
      <!-- 0 -->
      <g transform="translate(34.5725 307.278906) scale(0.14 -0.14)">
       <use xlink:href="#DejaVuSans-30"/>
      </g>
     </g>
    </g>
    <g id="ytick_2">
     <g id="line2d_9">
      <g>
       <use xlink:href="#mf34b5b4743" x="50.48" y="259.744127" style="stroke: #000000; stroke-width: 0.8"/>
      </g>
     </g>
     <g id="text_10">
      <!-- 1 -->
      <g transform="translate(34.5725 265.063033) scale(0.14 -0.14)">
       <use xlink:href="#DejaVuSans-31"/>
      </g>
     </g>
    </g>
    <g id="ytick_3">
     <g id="line2d_10">
      <g>
       <use xlink:href="#mf34b5b4743" x="50.48" y="217.528254" style="stroke: #000000; stroke-width: 0.8"/>
      </g>
     </g>
     <g id="text_11">
      <!-- 2 -->
      <g transform="translate(34.5725 222.84716) scale(0.14 -0.14)">
       <use xlink:href="#DejaVuSans-32"/>
      </g>
     </g>
    </g>
    <g id="ytick_4">
     <g id="line2d_11">
      <g>
       <use xlink:href="#mf34b5b4743" x="50.48" y="175.312381" style="stroke: #000000; stroke-width: 0.8"/>
      </g>
     </g>
     <g id="text_12">
      <!-- 3 -->
      <g transform="translate(34.5725 180.631287) scale(0.14 -0.14)">
       <use xlink:href="#DejaVuSans-33"/>
      </g>
     </g>
    </g>
    <g id="ytick_5">
     <g id="line2d_12">
      <g>
       <use xlink:href="#mf34b5b4743" x="50.48" y="133.096508" style="stroke: #000000; stroke-width: 0.8"/>
      </g>
     </g>
     <g id="text_13">
      <!-- 4 -->
      <g transform="translate(34.5725 138.415414) scale(0.14 -0.14)">
       <use xlink:href="#DejaVuSans-34"/>
      </g>
     </g>
    </g>
    <g id="ytick_6">
     <g id="line2d_13">
      <g>
       <use xlink:href="#mf34b5b4743" x="50.48" y="90.880635" style="stroke: #000000; stroke-width: 0.8"/>
      </g>
     </g>
     <g id="text_14">
      <!-- 5 -->
      <g transform="translate(34.5725 96.199541) scale(0.14 -0.14)">
       <use xlink:href="#DejaVuSans-35"/>
      </g>
     </g>
    </g>
    <g id="ytick_7">
     <g id="line2d_14">
      <g>
       <use xlink:href="#mf34b5b4743" x="50.48" y="48.664762" style="stroke: #000000; stroke-width: 0.8"/>
      </g>
     </g>
     <g id="text_15">
      <!-- 6 -->
      <g transform="translate(34.5725 53.983668) scale(0.14 -0.14)">
       <use xlink:href="#DejaVuSans-36"/>
      </g>
     </g>
    </g>
    <g id="text_16">
     <!-- number of mutations -->
     <g transform="translate(21.660937 242.839844) rotate(-90) scale(0.14 -0.14)">
      <defs>
       <path id="DejaVuSans-65" d="M 3597 1894 
L 3597 1613 
L 953 1613 
Q 991 1019 1311 708 
Q 1631 397 2203 397 
Q 2534 397 2845 478 
Q 3156 559 3463 722 
L 3463 178 
Q 3153 47 2828 -22 
Q 2503 -91 2169 -91 
Q 1331 -91 842 396 
Q 353 884 353 1716 
Q 353 2575 817 3079 
Q 1281 3584 2069 3584 
Q 2775 3584 3186 3129 
Q 3597 2675 3597 1894 
z
M 3022 2063 
Q 3016 2534 2758 2815 
Q 2500 3097 2075 3097 
Q 1594 3097 1305 2825 
Q 1016 2553 972 2059 
L 3022 2063 
z
" transform="scale(0.015625)"/>
       <path id="DejaVuSans-66" d="M 2375 4863 
L 2375 4384 
L 1825 4384 
Q 1516 4384 1395 4259 
Q 1275 4134 1275 3809 
L 1275 3500 
L 2222 3500 
L 2222 3053 
L 1275 3053 
L 1275 0 
L 697 0 
L 697 3053 
L 147 3053 
L 147 3500 
L 697 3500 
L 697 3744 
Q 697 4328 969 4595 
Q 1241 4863 1831 4863 
L 2375 4863 
z
" transform="scale(0.015625)"/>
      </defs>
      <use xlink:href="#DejaVuSans-6e"/>
      <use xlink:href="#DejaVuSans-75" x="63.378906"/>
      <use xlink:href="#DejaVuSans-6d" x="126.757812"/>
      <use xlink:href="#DejaVuSans-62" x="224.169922"/>
      <use xlink:href="#DejaVuSans-65" x="287.646484"/>
      <use xlink:href="#DejaVuSans-72" x="349.169922"/>
      <use xlink:href="#DejaVuSans-20" x="390.283203"/>
      <use xlink:href="#DejaVuSans-6f" x="422.070312"/>
      <use xlink:href="#DejaVuSans-66" x="483.251953"/>
      <use xlink:href="#DejaVuSans-20" x="518.457031"/>
      <use xlink:href="#DejaVuSans-6d" x="550.244141"/>
      <use xlink:href="#DejaVuSans-75" x="647.65625"/>
      <use xlink:href="#DejaVuSans-74" x="711.035156"/>
      <use xlink:href="#DejaVuSans-61" x="750.244141"/>
      <use xlink:href="#DejaVuSans-74" x="811.523438"/>
      <use xlink:href="#DejaVuSans-69" x="850.732422"/>
      <use xlink:href="#DejaVuSans-6f" x="878.515625"/>
      <use xlink:href="#DejaVuSans-6e" x="939.697266"/>
      <use xlink:href="#DejaVuSans-73" x="1003.076172"/>
     </g>
    </g>
   </g>
   <g id="line2d_15">
    <path d="M 90.616 301.96 
L 97.913455 301.96 
L 105.210909 301.96 
L 112.508364 301.96 
L 119.805818 301.96 
L 127.103273 301.96 
L 134.400727 301.96 
L 141.698182 301.96 
L 148.995636 301.96 
L 156.293091 301.96 
L 163.590545 301.96 
L 170.888 301.96 
L 178.185455 301.96 
L 185.482909 301.96 
L 192.780364 301.96 
L 200.077818 301.96 
L 207.375273 301.96 
L 214.672727 301.96 
L 221.970182 301.96 
L 229.267636 301.96 
L 236.565091 301.96 
L 243.862545 301.96 
L 251.16 301.96 
L 258.457455 301.96 
L 265.754909 301.96 
L 273.052364 301.96 
L 280.349818 301.96 
L 287.647273 301.96 
L 294.944727 301.96 
L 302.242182 301.96 
L 309.539636 301.96 
L 316.837091 301.96 
L 324.134545 301.96 
L 331.432 301.96 
L 338.729455 301.96 
L 346.026909 301.96 
L 353.324364 301.96 
L 360.621818 301.96 
L 367.919273 301.96 
L 375.216727 301.96 
L 382.514182 301.96 
L 389.811636 301.96 
L 397.109091 301.96 
L 404.406545 301.96 
L 411.704 301.96 
L 419.001455 301.96 
L 426.298909 301.96 
L 433.596364 301.96 
L 440.893818 301.96 
L 448.191273 301.96 
L 455.488727 301.96 
L 462.786182 301.96 
L 470.083636 301.96 
L 477.381091 301.96 
L 484.678545 301.96 
L 491.976 301.96 
L 499.273455 301.96 
L 506.570909 301.96 
L 513.868364 301.96 
L 521.165818 301.96 
L 528.463273 301.96 
L 535.760727 259.744127 
L 543.058182 301.96 
L 550.355636 259.744127 
L 557.653091 301.96 
L 564.950545 301.96 
L 572.248 259.744127 
L 579.545455 301.96 
L 586.842909 301.96 
L 594.140364 217.528254 
L 601.437818 301.96 
L 608.735273 301.96 
L 616.032727 301.96 
L 623.330182 301.96 
L 630.627636 259.744127 
L 637.925091 301.96 
L 645.222545 259.744127 
L 652.52 259.744127 
L 659.817455 217.528254 
L 667.114909 133.096508 
L 674.412364 133.096508 
L 681.709818 48.664762 
L 689.007273 217.528254 
L 696.304727 217.528254 
L 703.602182 133.096508 
L 710.899636 133.096508 
L 718.197091 217.528254 
L 725.494545 217.528254 
L 732.792 133.096508 
L 740.089455 48.664762 
L 747.386909 217.528254 
L 754.684364 259.744127 
L 761.981818 217.528254 
L 769.279273 259.744127 
L 776.576727 259.744127 
L 783.874182 301.96 
L 791.171636 301.96 
L 798.469091 301.96 
L 805.766545 301.96 
L 813.064 301.96 
" clip-path="url(#p03c1a2fb00)" style="fill: none"/>
    <defs>
     <path id="m043b2a4c40" d="M 0 2 
C 0.530406 2 1.03916 1.789267 1.414214 1.414214 
C 1.789267 1.03916 2 0.530406 2 0 
C 2 -0.530406 1.789267 -1.03916 1.414214 -1.414214 
C 1.03916 -1.789267 0.530406 -2 0 -2 
C -0.530406 -2 -1.03916 -1.789267 -1.414214 -1.414214 
C -1.789267 -1.03916 -2 -0.530406 -2 0 
C -2 0.530406 -1.789267 1.03916 -1.414214 1.414214 
C -1.03916 1.789267 -0.530406 2 0 2 
z
" style="stroke: #000000"/>
    </defs>
    <g clip-path="url(#p03c1a2fb00)">
     <use xlink:href="#m043b2a4c40" x="90.616" y="301.96" style="stroke: #000000"/>
     <use xlink:href="#m043b2a4c40" x="97.913455" y="301.96" style="stroke: #000000"/>
     <use xlink:href="#m043b2a4c40" x="105.210909" y="301.96" style="stroke: #000000"/>
     <use xlink:href="#m043b2a4c40" x="112.508364" y="301.96" style="stroke: #000000"/>
     <use xlink:href="#m043b2a4c40" x="119.805818" y="301.96" style="stroke: #000000"/>
     <use xlink:href="#m043b2a4c40" x="127.103273" y="301.96" style="stroke: #000000"/>
     <use xlink:href="#m043b2a4c40" x="134.400727" y="301.96" style="stroke: #000000"/>
     <use xlink:href="#m043b2a4c40" x="141.698182" y="301.96" style="stroke: #000000"/>
     <use xlink:href="#m043b2a4c40" x="148.995636" y="301.96" style="stroke: #000000"/>
     <use xlink:href="#m043b2a4c40" x="156.293091" y="301.96" style="stroke: #000000"/>
     <use xlink:href="#m043b2a4c40" x="163.590545" y="301.96" style="stroke: #000000"/>
     <use xlink:href="#m043b2a4c40" x="170.888" y="301.96" style="stroke: #000000"/>
     <use xlink:href="#m043b2a4c40" x="178.185455" y="301.96" style="stroke: #000000"/>
     <use xlink:href="#m043b2a4c40" x="185.482909" y="301.96" style="stroke: #000000"/>
     <use xlink:href="#m043b2a4c40" x="192.780364" y="301.96" style="stroke: #000000"/>
     <use xlink:href="#m043b2a4c40" x="200.077818" y="301.96" style="stroke: #000000"/>
     <use xlink:href="#m043b2a4c40" x="207.375273" y="301.96" style="stroke: #000000"/>
     <use xlink:href="#m043b2a4c40" x="214.672727" y="301.96" style="stroke: #000000"/>
     <use xlink:href="#m043b2a4c40" x="221.970182" y="301.96" style="stroke: #000000"/>
     <use xlink:href="#m043b2a4c40" x="229.267636" y="301.96" style="stroke: #000000"/>
     <use xlink:href="#m043b2a4c40" x="236.565091" y="301.96" style="stroke: #000000"/>
     <use xlink:href="#m043b2a4c40" x="243.862545" y="301.96" style="stroke: #000000"/>
     <use xlink:href="#m043b2a4c40" x="251.16" y="301.96" style="stroke: #000000"/>
     <use xlink:href="#m043b2a4c40" x="258.457455" y="301.96" style="stroke: #000000"/>
     <use xlink:href="#m043b2a4c40" x="265.754909" y="301.96" style="stroke: #000000"/>
     <use xlink:href="#m043b2a4c40" x="273.052364" y="301.96" style="stroke: #000000"/>
     <use xlink:href="#m043b2a4c40" x="280.349818" y="301.96" style="stroke: #000000"/>
     <use xlink:href="#m043b2a4c40" x="287.647273" y="301.96" style="stroke: #000000"/>
     <use xlink:href="#m043b2a4c40" x="294.944727" y="301.96" style="stroke: #000000"/>
     <use xlink:href="#m043b2a4c40" x="302.242182" y="301.96" style="stroke: #000000"/>
     <use xlink:href="#m043b2a4c40" x="309.539636" y="301.96" style="stroke: #000000"/>
     <use xlink:href="#m043b2a4c40" x="316.837091" y="301.96" style="stroke: #000000"/>
     <use xlink:href="#m043b2a4c40" x="324.134545" y="301.96" style="stroke: #000000"/>
     <use xlink:href="#m043b2a4c40" x="331.432" y="301.96" style="stroke: #000000"/>
     <use xlink:href="#m043b2a4c40" x="338.729455" y="301.96" style="stroke: #000000"/>
     <use xlink:href="#m043b2a4c40" x="346.026909" y="301.96" style="stroke: #000000"/>
     <use xlink:href="#m043b2a4c40" x="353.324364" y="301.96" style="stroke: #000000"/>
     <use xlink:href="#m043b2a4c40" x="360.621818" y="301.96" style="stroke: #000000"/>
     <use xlink:href="#m043b2a4c40" x="367.919273" y="301.96" style="stroke: #000000"/>
     <use xlink:href="#m043b2a4c40" x="375.216727" y="301.96" style="stroke: #000000"/>
     <use xlink:href="#m043b2a4c40" x="382.514182" y="301.96" style="stroke: #000000"/>
     <use xlink:href="#m043b2a4c40" x="389.811636" y="301.96" style="stroke: #000000"/>
     <use xlink:href="#m043b2a4c40" x="397.109091" y="301.96" style="stroke: #000000"/>
     <use xlink:href="#m043b2a4c40" x="404.406545" y="301.96" style="stroke: #000000"/>
     <use xlink:href="#m043b2a4c40" x="411.704" y="301.96" style="stroke: #000000"/>
     <use xlink:href="#m043b2a4c40" x="419.001455" y="301.96" style="stroke: #000000"/>
     <use xlink:href="#m043b2a4c40" x="426.298909" y="301.96" style="stroke: #000000"/>
     <use xlink:href="#m043b2a4c40" x="433.596364" y="301.96" style="stroke: #000000"/>
     <use xlink:href="#m043b2a4c40" x="440.893818" y="301.96" style="stroke: #000000"/>
     <use xlink:href="#m043b2a4c40" x="448.191273" y="301.96" style="stroke: #000000"/>
     <use xlink:href="#m043b2a4c40" x="455.488727" y="301.96" style="stroke: #000000"/>
     <use xlink:href="#m043b2a4c40" x="462.786182" y="301.96" style="stroke: #000000"/>
     <use xlink:href="#m043b2a4c40" x="470.083636" y="301.96" style="stroke: #000000"/>
     <use xlink:href="#m043b2a4c40" x="477.381091" y="301.96" style="stroke: #000000"/>
     <use xlink:href="#m043b2a4c40" x="484.678545" y="301.96" style="stroke: #000000"/>
     <use xlink:href="#m043b2a4c40" x="491.976" y="301.96" style="stroke: #000000"/>
     <use xlink:href="#m043b2a4c40" x="499.273455" y="301.96" style="stroke: #000000"/>
     <use xlink:href="#m043b2a4c40" x="506.570909" y="301.96" style="stroke: #000000"/>
     <use xlink:href="#m043b2a4c40" x="513.868364" y="301.96" style="stroke: #000000"/>
     <use xlink:href="#m043b2a4c40" x="521.165818" y="301.96" style="stroke: #000000"/>
     <use xlink:href="#m043b2a4c40" x="528.463273" y="301.96" style="stroke: #000000"/>
     <use xlink:href="#m043b2a4c40" x="535.760727" y="259.744127" style="stroke: #000000"/>
     <use xlink:href="#m043b2a4c40" x="543.058182" y="301.96" style="stroke: #000000"/>
     <use xlink:href="#m043b2a4c40" x="550.355636" y="259.744127" style="stroke: #000000"/>
     <use xlink:href="#m043b2a4c40" x="557.653091" y="301.96" style="stroke: #000000"/>
     <use xlink:href="#m043b2a4c40" x="564.950545" y="301.96" style="stroke: #000000"/>
     <use xlink:href="#m043b2a4c40" x="572.248" y="259.744127" style="stroke: #000000"/>
     <use xlink:href="#m043b2a4c40" x="579.545455" y="301.96" style="stroke: #000000"/>
     <use xlink:href="#m043b2a4c40" x="586.842909" y="301.96" style="stroke: #000000"/>
     <use xlink:href="#m043b2a4c40" x="594.140364" y="217.528254" style="stroke: #000000"/>
     <use xlink:href="#m043b2a4c40" x="601.437818" y="301.96" style="stroke: #000000"/>
     <use xlink:href="#m043b2a4c40" x="608.735273" y="301.96" style="stroke: #000000"/>
     <use xlink:href="#m043b2a4c40" x="616.032727" y="301.96" style="stroke: #000000"/>
     <use xlink:href="#m043b2a4c40" x="623.330182" y="301.96" style="stroke: #000000"/>
     <use xlink:href="#m043b2a4c40" x="630.627636" y="259.744127" style="stroke: #000000"/>
     <use xlink:href="#m043b2a4c40" x="637.925091" y="301.96" style="stroke: #000000"/>
     <use xlink:href="#m043b2a4c40" x="645.222545" y="259.744127" style="stroke: #000000"/>
     <use xlink:href="#m043b2a4c40" x="652.52" y="259.744127" style="stroke: #000000"/>
     <use xlink:href="#m043b2a4c40" x="659.817455" y="217.528254" style="stroke: #000000"/>
     <use xlink:href="#m043b2a4c40" x="667.114909" y="133.096508" style="stroke: #000000"/>
     <use xlink:href="#m043b2a4c40" x="674.412364" y="133.096508" style="stroke: #000000"/>
     <use xlink:href="#m043b2a4c40" x="681.709818" y="48.664762" style="stroke: #000000"/>
     <use xlink:href="#m043b2a4c40" x="689.007273" y="217.528254" style="stroke: #000000"/>
     <use xlink:href="#m043b2a4c40" x="696.304727" y="217.528254" style="stroke: #000000"/>
     <use xlink:href="#m043b2a4c40" x="703.602182" y="133.096508" style="stroke: #000000"/>
     <use xlink:href="#m043b2a4c40" x="710.899636" y="133.096508" style="stroke: #000000"/>
     <use xlink:href="#m043b2a4c40" x="718.197091" y="217.528254" style="stroke: #000000"/>
     <use xlink:href="#m043b2a4c40" x="725.494545" y="217.528254" style="stroke: #000000"/>
     <use xlink:href="#m043b2a4c40" x="732.792" y="133.096508" style="stroke: #000000"/>
     <use xlink:href="#m043b2a4c40" x="740.089455" y="48.664762" style="stroke: #000000"/>
     <use xlink:href="#m043b2a4c40" x="747.386909" y="217.528254" style="stroke: #000000"/>
     <use xlink:href="#m043b2a4c40" x="754.684364" y="259.744127" style="stroke: #000000"/>
     <use xlink:href="#m043b2a4c40" x="761.981818" y="217.528254" style="stroke: #000000"/>
     <use xlink:href="#m043b2a4c40" x="769.279273" y="259.744127" style="stroke: #000000"/>
     <use xlink:href="#m043b2a4c40" x="776.576727" y="259.744127" style="stroke: #000000"/>
     <use xlink:href="#m043b2a4c40" x="783.874182" y="301.96" style="stroke: #000000"/>
     <use xlink:href="#m043b2a4c40" x="791.171636" y="301.96" style="stroke: #000000"/>
     <use xlink:href="#m043b2a4c40" x="798.469091" y="301.96" style="stroke: #000000"/>
     <use xlink:href="#m043b2a4c40" x="805.766545" y="301.96" style="stroke: #000000"/>
     <use xlink:href="#m043b2a4c40" x="813.064" y="301.96" style="stroke: #000000"/>
    </g>
   </g>
   <g id="patch_103">
    <path d="M 50.48 301.96 
L 50.48 36 
" style="fill: none; stroke: #000000; stroke-width: 0.8; stroke-linejoin: miter; stroke-linecap: square"/>
   </g>
   <g id="patch_104">
    <path d="M 853.2 301.96 
L 853.2 36 
" style="fill: none; stroke: #000000; stroke-width: 0.8; stroke-linejoin: miter; stroke-linecap: square"/>
   </g>
   <g id="patch_105">
    <path d="M 50.48 301.96 
L 853.2 301.96 
" style="fill: none; stroke: #000000; stroke-width: 0.8; stroke-linejoin: miter; stroke-linecap: square"/>
   </g>
   <g id="patch_106">
    <path d="M 50.48 36 
L 853.2 36 
" style="fill: none; stroke: #000000; stroke-width: 0.8; stroke-linejoin: miter; stroke-linecap: square"/>
   </g>
   <g id="legend_1">
    <g id="patch_107">
     <path d="M 60.98 92.034375 
L 181.151094 92.034375 
Q 184.151094 92.034375 184.151094 89.034375 
L 184.151094 46.5 
Q 184.151094 43.5 181.151094 43.5 
L 60.98 43.5 
Q 57.98 43.5 57.98 46.5 
L 57.98 89.034375 
Q 57.98 92.034375 60.98 92.034375 
z
" style="fill: #ffffff; opacity: 0.8; stroke: #cccccc; stroke-linejoin: miter"/>
    </g>
    <g id="patch_108">
     <path d="M 63.98 60.897656 
L 93.98 60.897656 
L 93.98 50.397656 
L 63.98 50.397656 
z
" style="fill: #ffffff; stroke: #0072b2; stroke-linejoin: miter"/>
    </g>
    <g id="text_17">
     <!-- Expected -->
     <g transform="translate(105.98 60.897656) scale(0.15 -0.15)">
      <defs>
       <path id="DejaVuSans-45" d="M 628 4666 
L 3578 4666 
L 3578 4134 
L 1259 4134 
L 1259 2753 
L 3481 2753 
L 3481 2222 
L 1259 2222 
L 1259 531 
L 3634 531 
L 3634 0 
L 628 0 
L 628 4666 
z
" transform="scale(0.015625)"/>
       <path id="DejaVuSans-78" d="M 3513 3500 
L 2247 1797 
L 3578 0 
L 2900 0 
L 1881 1375 
L 863 0 
L 184 0 
L 1544 1831 
L 300 3500 
L 978 3500 
L 1906 2253 
L 2834 3500 
L 3513 3500 
z
" transform="scale(0.015625)"/>
      </defs>
      <use xlink:href="#DejaVuSans-45"/>
      <use xlink:href="#DejaVuSans-78" x="63.183594"/>
      <use xlink:href="#DejaVuSans-70" x="122.363281"/>
      <use xlink:href="#DejaVuSans-65" x="185.839844"/>
      <use xlink:href="#DejaVuSans-63" x="247.363281"/>
      <use xlink:href="#DejaVuSans-74" x="302.34375"/>
      <use xlink:href="#DejaVuSans-65" x="341.552734"/>
      <use xlink:href="#DejaVuSans-64" x="403.076172"/>
     </g>
    </g>
    <g id="line2d_16">
     <path d="M 63.98 77.664844 
L 78.98 77.664844 
L 93.98 77.664844 
" style="fill: none"/>
     <g>
      <use xlink:href="#m043b2a4c40" x="78.98" y="77.664844" style="stroke: #000000"/>
     </g>
    </g>
    <g id="text_18">
     <!-- Observed -->
     <g transform="translate(105.98 82.914844) scale(0.15 -0.15)">
      <defs>
       <path id="DejaVuSans-4f" d="M 2522 4238 
Q 1834 4238 1429 3725 
Q 1025 3213 1025 2328 
Q 1025 1447 1429 934 
Q 1834 422 2522 422 
Q 3209 422 3611 934 
Q 4013 1447 4013 2328 
Q 4013 3213 3611 3725 
Q 3209 4238 2522 4238 
z
M 2522 4750 
Q 3503 4750 4090 4092 
Q 4678 3434 4678 2328 
Q 4678 1225 4090 567 
Q 3503 -91 2522 -91 
Q 1538 -91 948 565 
Q 359 1222 359 2328 
Q 359 3434 948 4092 
Q 1538 4750 2522 4750 
z
" transform="scale(0.015625)"/>
       <path id="DejaVuSans-76" d="M 191 3500 
L 800 3500 
L 1894 563 
L 2988 3500 
L 3597 3500 
L 2284 0 
L 1503 0 
L 191 3500 
z
" transform="scale(0.015625)"/>
      </defs>
      <use xlink:href="#DejaVuSans-4f"/>
      <use xlink:href="#DejaVuSans-62" x="78.710938"/>
      <use xlink:href="#DejaVuSans-73" x="142.1875"/>
      <use xlink:href="#DejaVuSans-65" x="194.287109"/>
      <use xlink:href="#DejaVuSans-72" x="255.810547"/>
      <use xlink:href="#DejaVuSans-76" x="296.923828"/>
      <use xlink:href="#DejaVuSans-65" x="356.103516"/>
      <use xlink:href="#DejaVuSans-64" x="417.626953"/>
     </g>
    </g>
   </g>
  </g>
  <g id="text_19">
   <!-- single on v1rodriguezV34 sampled 0k; overlap=0.79, residual=0.0791 -->
   <g transform="translate(149.6775 19.3575) scale(0.16 -0.16)">
    <defs>
     <path id="DejaVuSans-7a" d="M 353 3500 
L 3084 3500 
L 3084 2975 
L 922 459 
L 3084 459 
L 3084 0 
L 275 0 
L 275 525 
L 2438 3041 
L 353 3041 
L 353 3500 
z
" transform="scale(0.015625)"/>
     <path id="DejaVuSans-56" d="M 1831 0 
L 50 4666 
L 709 4666 
L 2188 738 
L 3669 4666 
L 4325 4666 
L 2547 0 
L 1831 0 
z
" transform="scale(0.015625)"/>
     <path id="DejaVuSans-6b" d="M 581 4863 
L 1159 4863 
L 1159 1991 
L 2875 3500 
L 3609 3500 
L 1753 1863 
L 3688 0 
L 2938 0 
L 1159 1709 
L 1159 0 
L 581 0 
L 581 4863 
z
" transform="scale(0.015625)"/>
     <path id="DejaVuSans-3b" d="M 750 3309 
L 1409 3309 
L 1409 2516 
L 750 2516 
L 750 3309 
z
M 750 794 
L 1409 794 
L 1409 256 
L 897 -744 
L 494 -744 
L 750 256 
L 750 794 
z
" transform="scale(0.015625)"/>
     <path id="DejaVuSans-3d" d="M 678 2906 
L 4684 2906 
L 4684 2381 
L 678 2381 
L 678 2906 
z
M 678 1631 
L 4684 1631 
L 4684 1100 
L 678 1100 
L 678 1631 
z
" transform="scale(0.015625)"/>
     <path id="DejaVuSans-2e" d="M 684 794 
L 1344 794 
L 1344 0 
L 684 0 
L 684 794 
z
" transform="scale(0.015625)"/>
     <path id="DejaVuSans-37" d="M 525 4666 
L 3525 4666 
L 3525 4397 
L 1831 0 
L 1172 0 
L 2766 4134 
L 525 4134 
L 525 4666 
z
" transform="scale(0.015625)"/>
     <path id="DejaVuSans-39" d="M 703 97 
L 703 672 
Q 941 559 1184 500 
Q 1428 441 1663 441 
Q 2288 441 2617 861 
Q 2947 1281 2994 2138 
Q 2813 1869 2534 1725 
Q 2256 1581 1919 1581 
Q 1219 1581 811 2004 
Q 403 2428 403 3163 
Q 403 3881 828 4315 
Q 1253 4750 1959 4750 
Q 2769 4750 3195 4129 
Q 3622 3509 3622 2328 
Q 3622 1225 3098 567 
Q 2575 -91 1691 -91 
Q 1453 -91 1209 -44 
Q 966 3 703 97 
z
M 1959 2075 
Q 2384 2075 2632 2365 
Q 2881 2656 2881 3163 
Q 2881 3666 2632 3958 
Q 2384 4250 1959 4250 
Q 1534 4250 1286 3958 
Q 1038 3666 1038 3163 
Q 1038 2656 1286 2365 
Q 1534 2075 1959 2075 
z
" transform="scale(0.015625)"/>
     <path id="DejaVuSans-2c" d="M 750 794 
L 1409 794 
L 1409 256 
L 897 -744 
L 494 -744 
L 750 256 
L 750 794 
z
" transform="scale(0.015625)"/>
    </defs>
    <use xlink:href="#DejaVuSans-73"/>
    <use xlink:href="#DejaVuSans-69" x="52.099609"/>
    <use xlink:href="#DejaVuSans-6e" x="79.882812"/>
    <use xlink:href="#DejaVuSans-67" x="143.261719"/>
    <use xlink:href="#DejaVuSans-6c" x="206.738281"/>
    <use xlink:href="#DejaVuSans-65" x="234.521484"/>
    <use xlink:href="#DejaVuSans-20" x="296.044922"/>
    <use xlink:href="#DejaVuSans-6f" x="327.832031"/>
    <use xlink:href="#DejaVuSans-6e" x="389.013672"/>
    <use xlink:href="#DejaVuSans-20" x="452.392578"/>
    <use xlink:href="#DejaVuSans-76" x="484.179688"/>
    <use xlink:href="#DejaVuSans-31" x="543.359375"/>
    <use xlink:href="#DejaVuSans-72" x="606.982422"/>
    <use xlink:href="#DejaVuSans-6f" x="645.845703"/>
    <use xlink:href="#DejaVuSans-64" x="707.027344"/>
    <use xlink:href="#DejaVuSans-72" x="770.503906"/>
    <use xlink:href="#DejaVuSans-69" x="811.617188"/>
    <use xlink:href="#DejaVuSans-67" x="839.400391"/>
    <use xlink:href="#DejaVuSans-75" x="902.876953"/>
    <use xlink:href="#DejaVuSans-65" x="966.255859"/>
    <use xlink:href="#DejaVuSans-7a" x="1027.779297"/>
    <use xlink:href="#DejaVuSans-56" x="1080.269531"/>
    <use xlink:href="#DejaVuSans-33" x="1148.677734"/>
    <use xlink:href="#DejaVuSans-34" x="1212.300781"/>
    <use xlink:href="#DejaVuSans-20" x="1275.923828"/>
    <use xlink:href="#DejaVuSans-73" x="1307.710938"/>
    <use xlink:href="#DejaVuSans-61" x="1359.810547"/>
    <use xlink:href="#DejaVuSans-6d" x="1421.089844"/>
    <use xlink:href="#DejaVuSans-70" x="1518.501953"/>
    <use xlink:href="#DejaVuSans-6c" x="1581.978516"/>
    <use xlink:href="#DejaVuSans-65" x="1609.761719"/>
    <use xlink:href="#DejaVuSans-64" x="1671.285156"/>
    <use xlink:href="#DejaVuSans-20" x="1734.761719"/>
    <use xlink:href="#DejaVuSans-30" x="1766.548828"/>
    <use xlink:href="#DejaVuSans-6b" x="1830.171875"/>
    <use xlink:href="#DejaVuSans-3b" x="1888.082031"/>
    <use xlink:href="#DejaVuSans-20" x="1921.773438"/>
    <use xlink:href="#DejaVuSans-6f" x="1953.560547"/>
    <use xlink:href="#DejaVuSans-76" x="2014.742188"/>
    <use xlink:href="#DejaVuSans-65" x="2073.921875"/>
    <use xlink:href="#DejaVuSans-72" x="2135.445312"/>
    <use xlink:href="#DejaVuSans-6c" x="2176.558594"/>
    <use xlink:href="#DejaVuSans-61" x="2204.341797"/>
    <use xlink:href="#DejaVuSans-70" x="2265.621094"/>
    <use xlink:href="#DejaVuSans-3d" x="2329.097656"/>
    <use xlink:href="#DejaVuSans-30" x="2412.886719"/>
    <use xlink:href="#DejaVuSans-2e" x="2476.509766"/>
    <use xlink:href="#DejaVuSans-37" x="2508.296875"/>
    <use xlink:href="#DejaVuSans-39" x="2571.919922"/>
    <use xlink:href="#DejaVuSans-2c" x="2635.542969"/>
    <use xlink:href="#DejaVuSans-20" x="2667.330078"/>
    <use xlink:href="#DejaVuSans-72" x="2699.117188"/>
    <use xlink:href="#DejaVuSans-65" x="2737.980469"/>
    <use xlink:href="#DejaVuSans-73" x="2799.503906"/>
    <use xlink:href="#DejaVuSans-69" x="2851.603516"/>
    <use xlink:href="#DejaVuSans-64" x="2879.386719"/>
    <use xlink:href="#DejaVuSans-75" x="2942.863281"/>
    <use xlink:href="#DejaVuSans-61" x="3006.242188"/>
    <use xlink:href="#DejaVuSans-6c" x="3067.521484"/>
    <use xlink:href="#DejaVuSans-3d" x="3095.304688"/>
    <use xlink:href="#DejaVuSans-30" x="3179.09375"/>
    <use xlink:href="#DejaVuSans-2e" x="3242.716797"/>
    <use xlink:href="#DejaVuSans-30" x="3274.503906"/>
    <use xlink:href="#DejaVuSans-37" x="3338.126953"/>
    <use xlink:href="#DejaVuSans-39" x="3401.75"/>
    <use xlink:href="#DejaVuSans-31" x="3465.373047"/>
   </g>
  </g>
 </g>
 <defs>
  <clipPath id="p03c1a2fb00">
   <rect x="50.48" y="36" width="802.72" height="265.96"/>
  </clipPath>
 </defs>
 <defs>
  <pattern id="h839324668e" patternUnits="userSpaceOnUse" x="0" y="0" width="72" height="72">
   <rect x="0" y="0" width="73" height="73" fill="none"/>
   <path d="M -36 36 
L 36 -36 
M -34 38 
L 38 -34 
M -32 40 
L 40 -32 
M -30 42 
L 42 -30 
M -28 44 
L 44 -28 
M -26 46 
L 46 -26 
M -24 48 
L 48 -24 
M -22 50 
L 50 -22 
M -20 52 
L 52 -20 
M -18 54 
L 54 -18 
M -16 56 
L 56 -16 
M -14 58 
L 58 -14 
M -12 60 
L 60 -12 
M -10 62 
L 62 -10 
M -8 64 
L 64 -8 
M -6 66 
L 66 -6 
M -4 68 
L 68 -4 
M -2 70 
L 70 -2 
M 0 72 
L 72 0 
M 2 74 
L 74 2 
M 4 76 
L 76 4 
M 6 78 
L 78 6 
M 8 80 
L 80 8 
M 10 82 
L 82 10 
M 12 84 
L 84 12 
M 14 86 
L 86 14 
M 16 88 
L 88 16 
M 18 90 
L 90 18 
M 20 92 
L 92 20 
M 22 94 
L 94 22 
M 24 96 
L 96 24 
M 26 98 
L 98 26 
M 28 100 
L 100 28 
M 30 102 
L 102 30 
M 32 104 
L 104 32 
M 34 106 
L 106 34 
M 36 108 
L 108 36 
" style="fill: #808080; stroke: #808080; stroke-width: 1.0; stroke-linecap: butt; stroke-linejoin: miter"/>
  </pattern>
 </defs>
</svg>
