<?xml version="1.0" encoding="utf-8" standalone="no"?>
<!DOCTYPE svg PUBLIC "-//W3C//DTD SVG 1.1//EN"
  "http://www.w3.org/Graphics/SVG/1.1/DTD/svg11.dtd">
<svg xmlns:xlink="http://www.w3.org/1999/xlink" width="864pt" height="360pt" viewBox="0 0 864 360" xmlns="http://www.w3.org/2000/svg" version="1.1">
 <metadata>
  <rdf:RDF xmlns:dc="http://purl.org/dc/elements/1.1/" xmlns:cc="http://creativecommons.org/ns#" xmlns:rdf="http://www.w3.org/1999/02/22-rdf-syntax-ns#">
   <cc:Work>
    <dc:type rdf:resource="http://purl.org/dc/dcmitype/StillImage"/>
    <dc:date>2024-06-15T03:45:06.088664</dc:date>
    <dc:format>image/svg+xml</dc:format>
    <dc:creator>
     <cc:Agent>
      <dc:title>Matplotlib v3.9.0, https://matplotlib.org/</dc:title>
     </cc:Agent>
    </dc:creator>
   </cc:Work>
  </rdf:RDF>
 </metadata>
 <defs>
  <style type="text/css">*{stroke-linejoin: round; stroke-linecap: butt}</style>
 </defs>
 <g id="figure_1">
  <g id="patch_1">
   <path d="M 0 360 
L 864 360 
L 864 0 
L 0 0 
z
" style="fill: #ffffff"/>
  </g>
  <g id="axes_1">
   <g id="patch_2">
    <path d="M 77.12 301.96 
L 853.2 301.96 
L 853.2 36 
L 77.12 36 
z
" style="fill: #ffffff"/>
   </g>
   <g id="patch_3">
    <path d="M 112.396364 301.96 
L 119.451636 301.96 
L 119.451636 301.959998 
L 112.396364 301.959998 
z
" clip-path="url(#pd0451a1883)" style="fill: #ffffff; stroke: #0072b2; stroke-linejoin: miter"/>
   </g>
   <g id="patch_4">
    <path d="M 119.451636 301.96 
L 126.506909 301.96 
L 126.506909 301.959992 
L 119.451636 301.959992 
z
" clip-path="url(#pd0451a1883)" style="fill: #ffffff; stroke: #0072b2; stroke-linejoin: miter"/>
   </g>
   <g id="patch_5">
    <path d="M 126.506909 301.96 
L 133.562182 301.96 
L 133.562182 301.959959 
L 126.506909 301.959959 
z
" clip-path="url(#pd0451a1883)" style="fill: #ffffff; stroke: #0072b2; stroke-linejoin: miter"/>
   </g>
   <g id="patch_6">
    <path d="M 133.562182 301.96 
L 140.617455 301.96 
L 140.617455 301.959909 
L 133.562182 301.959909 
z
" clip-path="url(#pd0451a1883)" style="fill: #ffffff; stroke: #0072b2; stroke-linejoin: miter"/>
   </g>
   <g id="patch_7">
    <path d="M 140.617455 301.96 
L 147.672727 301.96 
L 147.672727 301.959813 
L 140.617455 301.959813 
z
" clip-path="url(#pd0451a1883)" style="fill: #ffffff; stroke: #0072b2; stroke-linejoin: miter"/>
   </g>
   <g id="patch_8">
    <path d="M 147.672727 301.96 
L 154.728 301.96 
L 154.728 301.959709 
L 147.672727 301.959709 
z
" clip-path="url(#pd0451a1883)" style="fill: #ffffff; stroke: #0072b2; stroke-linejoin: miter"/>
   </g>
   <g id="patch_9">
    <path d="M 154.728 301.96 
L 161.783273 301.96 
L 161.783273 301.959463 
L 154.728 301.959463 
z
" clip-path="url(#pd0451a1883)" style="fill: #ffffff; stroke: #0072b2; stroke-linejoin: miter"/>
   </g>
   <g id="patch_10">
    <path d="M 161.783273 301.96 
L 168.838545 301.96 
L 168.838545 301.959261 
L 161.783273 301.959261 
z
" clip-path="url(#pd0451a1883)" style="fill: #ffffff; stroke: #0072b2; stroke-linejoin: miter"/>
   </g>
   <g id="patch_11">
    <path d="M 168.838545 301.96 
L 175.893818 301.96 
L 175.893818 301.959176 
L 168.838545 301.959176 
z
" clip-path="url(#pd0451a1883)" style="fill: #ffffff; stroke: #0072b2; stroke-linejoin: miter"/>
   </g>
   <g id="patch_12">
    <path d="M 175.893818 301.96 
L 182.949091 301.96 
L 182.949091 301.959149 
L 175.893818 301.959149 
z
" clip-path="url(#pd0451a1883)" style="fill: #ffffff; stroke: #0072b2; stroke-linejoin: miter"/>
   </g>
   <g id="patch_13">
    <path d="M 182.949091 301.96 
L 190.004364 301.96 
L 190.004364 301.959175 
L 182.949091 301.959175 
z
" clip-path="url(#pd0451a1883)" style="fill: #ffffff; stroke: #0072b2; stroke-linejoin: miter"/>
   </g>
   <g id="patch_14">
    <path d="M 190.004364 301.96 
L 197.059636 301.96 
L 197.059636 301.959079 
L 190.004364 301.959079 
z
" clip-path="url(#pd0451a1883)" style="fill: #ffffff; stroke: #0072b2; stroke-linejoin: miter"/>
   </g>
   <g id="patch_15">
    <path d="M 197.059636 301.96 
L 204.114909 301.96 
L 204.114909 301.958922 
L 197.059636 301.958922 
z
" clip-path="url(#pd0451a1883)" style="fill: #ffffff; stroke: #0072b2; stroke-linejoin: miter"/>
   </g>
   <g id="patch_16">
    <path d="M 204.114909 301.96 
L 211.170182 301.96 
L 211.170182 301.958981 
L 204.114909 301.958981 
z
" clip-path="url(#pd0451a1883)" style="fill: #ffffff; stroke: #0072b2; stroke-linejoin: miter"/>
   </g>
   <g id="patch_17">
    <path d="M 211.170182 301.96 
L 218.225455 301.96 
L 218.225455 301.958874 
L 211.170182 301.958874 
z
" clip-path="url(#pd0451a1883)" style="fill: #ffffff; stroke: #0072b2; stroke-linejoin: miter"/>
   </g>
   <g id="patch_18">
    <path d="M 218.225455 301.96 
L 225.280727 301.96 
L 225.280727 301.958678 
L 218.225455 301.958678 
z
" clip-path="url(#pd0451a1883)" style="fill: #ffffff; stroke: #0072b2; stroke-linejoin: miter"/>
   </g>
   <g id="patch_19">
    <path d="M 225.280727 301.96 
L 232.336 301.96 
L 232.336 301.958487 
L 225.280727 301.958487 
z
" clip-path="url(#pd0451a1883)" style="fill: #ffffff; stroke: #0072b2; stroke-linejoin: miter"/>
   </g>
   <g id="patch_20">
    <path d="M 232.336 301.96 
L 239.391273 301.96 
L 239.391273 301.95842 
L 232.336 301.95842 
z
" clip-path="url(#pd0451a1883)" style="fill: #ffffff; stroke: #0072b2; stroke-linejoin: miter"/>
   </g>
   <g id="patch_21">
    <path d="M 239.391273 301.96 
L 246.446545 301.96 
L 246.446545 301.957895 
L 239.391273 301.957895 
z
" clip-path="url(#pd0451a1883)" style="fill: #ffffff; stroke: #0072b2; stroke-linejoin: miter"/>
   </g>
   <g id="patch_22">
    <path d="M 246.446545 301.96 
L 253.501818 301.96 
L 253.501818 301.957245 
L 246.446545 301.957245 
z
" clip-path="url(#pd0451a1883)" style="fill: #ffffff; stroke: #0072b2; stroke-linejoin: miter"/>
   </g>
   <g id="patch_23">
    <path d="M 253.501818 301.96 
L 260.557091 301.96 
L 260.557091 301.956377 
L 253.501818 301.956377 
z
" clip-path="url(#pd0451a1883)" style="fill: #ffffff; stroke: #0072b2; stroke-linejoin: miter"/>
   </g>
   <g id="patch_24">
    <path d="M 260.557091 301.96 
L 267.612364 301.96 
L 267.612364 301.955404 
L 260.557091 301.955404 
z
" clip-path="url(#pd0451a1883)" style="fill: #ffffff; stroke: #0072b2; stroke-linejoin: miter"/>
   </g>
   <g id="patch_25">
    <path d="M 267.612364 301.96 
L 274.667636 301.96 
L 274.667636 301.95386 
L 267.612364 301.95386 
z
" clip-path="url(#pd0451a1883)" style="fill: #ffffff; stroke: #0072b2; stroke-linejoin: miter"/>
   </g>
   <g id="patch_26">
    <path d="M 274.667636 301.96 
L 281.722909 301.96 
L 281.722909 301.952054 
L 274.667636 301.952054 
z
" clip-path="url(#pd0451a1883)" style="fill: #ffffff; stroke: #0072b2; stroke-linejoin: miter"/>
   </g>
   <g id="patch_27">
    <path d="M 281.722909 301.96 
L 288.778182 301.96 
L 288.778182 301.950061 
L 281.722909 301.950061 
z
" clip-path="url(#pd0451a1883)" style="fill: #ffffff; stroke: #0072b2; stroke-linejoin: miter"/>
   </g>
   <g id="patch_28">
    <path d="M 288.778182 301.96 
L 295.833455 301.96 
L 295.833455 301.946751 
L 288.778182 301.946751 
z
" clip-path="url(#pd0451a1883)" style="fill: #ffffff; stroke: #0072b2; stroke-linejoin: miter"/>
   </g>
   <g id="patch_29">
    <path d="M 295.833455 301.96 
L 302.888727 301.96 
L 302.888727 301.941802 
L 295.833455 301.941802 
z
" clip-path="url(#pd0451a1883)" style="fill: #ffffff; stroke: #0072b2; stroke-linejoin: miter"/>
   </g>
   <g id="patch_30">
    <path d="M 302.888727 301.96 
L 309.944 301.96 
L 309.944 301.93775 
L 302.888727 301.93775 
z
" clip-path="url(#pd0451a1883)" style="fill: #ffffff; stroke: #0072b2; stroke-linejoin: miter"/>
   </g>
   <g id="patch_31">
    <path d="M 309.944 301.96 
L 316.999273 301.96 
L 316.999273 301.927834 
L 309.944 301.927834 
z
" clip-path="url(#pd0451a1883)" style="fill: #ffffff; stroke: #0072b2; stroke-linejoin: miter"/>
   </g>
   <g id="patch_32">
    <path d="M 316.999273 301.96 
L 324.054545 301.96 
L 324.054545 301.921227 
L 316.999273 301.921227 
z
" clip-path="url(#pd0451a1883)" style="fill: #ffffff; stroke: #0072b2; stroke-linejoin: miter"/>
   </g>
   <g id="patch_33">
    <path d="M 324.054545 301.96 
L 331.109818 301.96 
L 331.109818 301.911589 
L 324.054545 301.911589 
z
" clip-path="url(#pd0451a1883)" style="fill: #ffffff; stroke: #0072b2; stroke-linejoin: miter"/>
   </g>
   <g id="patch_34">
    <path d="M 331.109818 301.96 
L 338.165091 301.96 
L 338.165091 301.90222 
L 331.109818 301.90222 
z
" clip-path="url(#pd0451a1883)" style="fill: #ffffff; stroke: #0072b2; stroke-linejoin: miter"/>
   </g>
   <g id="patch_35">
    <path d="M 338.165091 301.96 
L 345.220364 301.96 
L 345.220364 301.892404 
L 338.165091 301.892404 
z
" clip-path="url(#pd0451a1883)" style="fill: #ffffff; stroke: #0072b2; stroke-linejoin: miter"/>
   </g>
   <g id="patch_36">
    <path d="M 345.220364 301.96 
L 352.275636 301.96 
L 352.275636 301.879577 
L 345.220364 301.879577 
z
" clip-path="url(#pd0451a1883)" style="fill: #ffffff; stroke: #0072b2; stroke-linejoin: miter"/>
   </g>
   <g id="patch_37">
    <path d="M 352.275636 301.96 
L 359.330909 301.96 
L 359.330909 301.863505 
L 352.275636 301.863505 
z
" clip-path="url(#pd0451a1883)" style="fill: #ffffff; stroke: #0072b2; stroke-linejoin: miter"/>
   </g>
   <g id="patch_38">
    <path d="M 359.330909 301.96 
L 366.386182 301.96 
L 366.386182 301.844382 
L 359.330909 301.844382 
z
" clip-path="url(#pd0451a1883)" style="fill: #ffffff; stroke: #0072b2; stroke-linejoin: miter"/>
   </g>
   <g id="patch_39">
    <path d="M 366.386182 301.96 
L 373.441455 301.96 
L 373.441455 301.809443 
L 366.386182 301.809443 
z
" clip-path="url(#pd0451a1883)" style="fill: #ffffff; stroke: #0072b2; stroke-linejoin: miter"/>
   </g>
   <g id="patch_40">
    <path d="M 373.441455 301.96 
L 380.496727 301.96 
L 380.496727 301.763801 
L 373.441455 301.763801 
z
" clip-path="url(#pd0451a1883)" style="fill: #ffffff; stroke: #0072b2; stroke-linejoin: miter"/>
   </g>
   <g id="patch_41">
    <path d="M 380.496727 301.96 
L 387.552 301.96 
L 387.552 301.699684 
L 380.496727 301.699684 
z
" clip-path="url(#pd0451a1883)" style="fill: #ffffff; stroke: #0072b2; stroke-linejoin: miter"/>
   </g>
   <g id="patch_42">
    <path d="M 387.552 301.96 
L 394.607273 301.96 
L 394.607273 301.622147 
L 387.552 301.622147 
z
" clip-path="url(#pd0451a1883)" style="fill: #ffffff; stroke: #0072b2; stroke-linejoin: miter"/>
   </g>
   <g id="patch_43">
    <path d="M 394.607273 301.96 
L 401.662545 301.96 
L 401.662545 301.519054 
L 394.607273 301.519054 
z
" clip-path="url(#pd0451a1883)" style="fill: #ffffff; stroke: #0072b2; stroke-linejoin: miter"/>
   </g>
   <g id="patch_44">
    <path d="M 401.662545 301.96 
L 408.717818 301.96 
L 408.717818 301.384915 
L 401.662545 301.384915 
z
" clip-path="url(#pd0451a1883)" style="fill: #ffffff; stroke: #0072b2; stroke-linejoin: miter"/>
   </g>
   <g id="patch_45">
    <path d="M 408.717818 301.96 
L 415.773091 301.96 
L 415.773091 301.26429 
L 408.717818 301.26429 
z
" clip-path="url(#pd0451a1883)" style="fill: #ffffff; stroke: #0072b2; stroke-linejoin: miter"/>
   </g>
   <g id="patch_46">
    <path d="M 415.773091 301.96 
L 422.828364 301.96 
L 422.828364 301.077017 
L 415.773091 301.077017 
z
" clip-path="url(#pd0451a1883)" style="fill: #ffffff; stroke: #0072b2; stroke-linejoin: miter"/>
   </g>
   <g id="patch_47">
    <path d="M 422.828364 301.96 
L 429.883636 301.96 
L 429.883636 300.851289 
L 422.828364 300.851289 
z
" clip-path="url(#pd0451a1883)" style="fill: #ffffff; stroke: #0072b2; stroke-linejoin: miter"/>
   </g>
   <g id="patch_48">
    <path d="M 429.883636 301.96 
L 436.938909 301.96 
L 436.938909 300.559416 
L 429.883636 300.559416 
z
" clip-path="url(#pd0451a1883)" style="fill: #ffffff; stroke: #0072b2; stroke-linejoin: miter"/>
   </g>
   <g id="patch_49">
    <path d="M 436.938909 301.96 
L 443.994182 301.96 
L 443.994182 300.21481 
L 436.938909 300.21481 
z
" clip-path="url(#pd0451a1883)" style="fill: #ffffff; stroke: #0072b2; stroke-linejoin: miter"/>
   </g>
   <g id="patch_50">
    <path d="M 443.994182 301.96 
L 451.049455 301.96 
L 451.049455 299.794553 
L 443.994182 299.794553 
z
" clip-path="url(#pd0451a1883)" style="fill: #ffffff; stroke: #0072b2; stroke-linejoin: miter"/>
   </g>
   <g id="patch_51">
    <path d="M 451.049455 301.96 
L 458.104727 301.96 
L 458.104727 299.329559 
L 451.049455 299.329559 
z
" clip-path="url(#pd0451a1883)" style="fill: #ffffff; stroke: #0072b2; stroke-linejoin: miter"/>
   </g>
   <g id="patch_52">
    <path d="M 458.104727 301.96 
L 465.16 301.96 
L 465.16 298.746147 
L 458.104727 298.746147 
z
" clip-path="url(#pd0451a1883)" style="fill: #ffffff; stroke: #0072b2; stroke-linejoin: miter"/>
   </g>
   <g id="patch_53">
    <path d="M 465.16 301.96 
L 472.215273 301.96 
L 472.215273 297.932538 
L 465.16 297.932538 
z
" clip-path="url(#pd0451a1883)" style="fill: #ffffff; stroke: #0072b2; stroke-linejoin: miter"/>
   </g>
   <g id="patch_54">
    <path d="M 472.215273 301.96 
L 479.270545 301.96 
L 479.270545 296.94285 
L 472.215273 296.94285 
z
" clip-path="url(#pd0451a1883)" style="fill: #ffffff; stroke: #0072b2; stroke-linejoin: miter"/>
   </g>
   <g id="patch_55">
    <path d="M 479.270545 301.96 
L 486.325818 301.96 
L 486.325818 295.780148 
L 479.270545 295.780148 
z
" clip-path="url(#pd0451a1883)" style="fill: #ffffff; stroke: #0072b2; stroke-linejoin: miter"/>
   </g>
   <g id="patch_56">
    <path d="M 486.325818 301.96 
L 493.381091 301.96 
L 493.381091 294.365048 
L 486.325818 294.365048 
z
" clip-path="url(#pd0451a1883)" style="fill: #ffffff; stroke: #0072b2; stroke-linejoin: miter"/>
   </g>
   <g id="patch_57">
    <path d="M 493.381091 301.96 
L 500.436364 301.96 
L 500.436364 293.047533 
L 493.381091 293.047533 
z
" clip-path="url(#pd0451a1883)" style="fill: #ffffff; stroke: #0072b2; stroke-linejoin: miter"/>
   </g>
   <g id="patch_58">
    <path d="M 500.436364 301.96 
L 507.491636 301.96 
L 507.491636 291.462534 
L 500.436364 291.462534 
z
" clip-path="url(#pd0451a1883)" style="fill: #ffffff; stroke: #0072b2; stroke-linejoin: miter"/>
   </g>
   <g id="patch_59">
    <path d="M 507.491636 301.96 
L 514.546909 301.96 
L 514.546909 289.58986 
L 507.491636 289.58986 
z
" clip-path="url(#pd0451a1883)" style="fill: #ffffff; stroke: #0072b2; stroke-linejoin: miter"/>
   </g>
   <g id="patch_60">
    <path d="M 514.546909 301.96 
L 521.602182 301.96 
L 521.602182 286.46507 
L 514.546909 286.46507 
z
" clip-path="url(#pd0451a1883)" style="fill: #ffffff; stroke: #0072b2; stroke-linejoin: miter"/>
   </g>
   <g id="patch_61">
    <path d="M 521.602182 301.96 
L 528.657455 301.96 
L 528.657455 282.702539 
L 521.602182 282.702539 
z
" clip-path="url(#pd0451a1883)" style="fill: #ffffff; stroke: #0072b2; stroke-linejoin: miter"/>
   </g>
   <g id="patch_62">
    <path d="M 528.657455 301.96 
L 535.712727 301.96 
L 535.712727 278.78344 
L 528.657455 278.78344 
z
" clip-path="url(#pd0451a1883)" style="fill: #ffffff; stroke: #0072b2; stroke-linejoin: miter"/>
   </g>
   <g id="patch_63">
    <path d="M 535.712727 301.96 
L 542.768 301.96 
L 542.768 274.642674 
L 535.712727 274.642674 
z
" clip-path="url(#pd0451a1883)" style="fill: #ffffff; stroke: #0072b2; stroke-linejoin: miter"/>
   </g>
   <g id="patch_64">
    <path d="M 542.768 301.96 
L 549.823273 301.96 
L 549.823273 270.456775 
L 542.768 270.456775 
z
" clip-path="url(#pd0451a1883)" style="fill: #ffffff; stroke: #0072b2; stroke-linejoin: miter"/>
   </g>
   <g id="patch_65">
    <path d="M 549.823273 301.96 
L 556.878545 301.96 
L 556.878545 266.297971 
L 549.823273 266.297971 
z
" clip-path="url(#pd0451a1883)" style="fill: #ffffff; stroke: #0072b2; stroke-linejoin: miter"/>
   </g>
   <g id="patch_66">
    <path d="M 556.878545 301.96 
L 563.933818 301.96 
L 563.933818 261.831434 
L 556.878545 261.831434 
z
" clip-path="url(#pd0451a1883)" style="fill: #ffffff; stroke: #0072b2; stroke-linejoin: miter"/>
   </g>
   <g id="patch_67">
    <path d="M 563.933818 301.96 
L 570.989091 301.96 
L 570.989091 257.842822 
L 563.933818 257.842822 
z
" clip-path="url(#pd0451a1883)" style="fill: #ffffff; stroke: #0072b2; stroke-linejoin: miter"/>
   </g>
   <g id="patch_68">
    <path d="M 570.989091 301.96 
L 578.044364 301.96 
L 578.044364 251.963417 
L 570.989091 251.963417 
z
" clip-path="url(#pd0451a1883)" style="fill: #ffffff; stroke: #0072b2; stroke-linejoin: miter"/>
   </g>
   <g id="patch_69">
    <path d="M 578.044364 301.96 
L 585.099636 301.96 
L 585.099636 245.524786 
L 578.044364 245.524786 
z
" clip-path="url(#pd0451a1883)" style="fill: #ffffff; stroke: #0072b2; stroke-linejoin: miter"/>
   </g>
   <g id="patch_70">
    <path d="M 585.099636 301.96 
L 592.154909 301.96 
L 592.154909 238.480744 
L 585.099636 238.480744 
z
" clip-path="url(#pd0451a1883)" style="fill: #ffffff; stroke: #0072b2; stroke-linejoin: miter"/>
   </g>
   <g id="patch_71">
    <path d="M 592.154909 301.96 
L 599.210182 301.96 
L 599.210182 231.350203 
L 592.154909 231.350203 
z
" clip-path="url(#pd0451a1883)" style="fill: #ffffff; stroke: #0072b2; stroke-linejoin: miter"/>
   </g>
   <g id="patch_72">
    <path d="M 599.210182 301.96 
L 606.265455 301.96 
L 606.265455 225.209994 
L 599.210182 225.209994 
z
" clip-path="url(#pd0451a1883)" style="fill: #ffffff; stroke: #0072b2; stroke-linejoin: miter"/>
   </g>
   <g id="patch_73">
    <path d="M 606.265455 301.96 
L 613.320727 301.96 
L 613.320727 219.775635 
L 606.265455 219.775635 
z
" clip-path="url(#pd0451a1883)" style="fill: #ffffff; stroke: #0072b2; stroke-linejoin: miter"/>
   </g>
   <g id="patch_74">
    <path d="M 613.320727 301.96 
L 620.376 301.96 
L 620.376 213.036166 
L 613.320727 213.036166 
z
" clip-path="url(#pd0451a1883)" style="fill: #ffffff; stroke: #0072b2; stroke-linejoin: miter"/>
   </g>
   <g id="patch_75">
    <path d="M 620.376 301.96 
L 627.431273 301.96 
L 627.431273 203.931929 
L 620.376 203.931929 
z
" clip-path="url(#pd0451a1883)" style="fill: #ffffff; stroke: #0072b2; stroke-linejoin: miter"/>
   </g>
   <g id="patch_76">
    <path d="M 627.431273 301.96 
L 634.486545 301.96 
L 634.486545 195.935101 
L 627.431273 195.935101 
z
" clip-path="url(#pd0451a1883)" style="fill: #ffffff; stroke: #0072b2; stroke-linejoin: miter"/>
   </g>
   <g id="patch_77">
    <path d="M 634.486545 301.96 
L 641.541818 301.96 
L 641.541818 182.512409 
L 634.486545 182.512409 
z
" clip-path="url(#pd0451a1883)" style="fill: #ffffff; stroke: #0072b2; stroke-linejoin: miter"/>
   </g>
   <g id="patch_78">
    <path d="M 641.541818 301.96 
L 648.597091 301.96 
L 648.597091 171.421971 
L 641.541818 171.421971 
z
" clip-path="url(#pd0451a1883)" style="fill: #ffffff; stroke: #0072b2; stroke-linejoin: miter"/>
   </g>
   <g id="patch_79">
    <path d="M 648.597091 301.96 
L 655.652364 301.96 
L 655.652364 159.177361 
L 648.597091 159.177361 
z
" clip-path="url(#pd0451a1883)" style="fill: #ffffff; stroke: #0072b2; stroke-linejoin: miter"/>
   </g>
   <g id="patch_80">
    <path d="M 655.652364 301.96 
L 662.707636 301.96 
L 662.707636 149.109636 
L 655.652364 149.109636 
z
" clip-path="url(#pd0451a1883)" style="fill: #ffffff; stroke: #0072b2; stroke-linejoin: miter"/>
   </g>
   <g id="patch_81">
    <path d="M 662.707636 301.96 
L 669.762909 301.96 
L 669.762909 135.290233 
L 662.707636 135.290233 
z
" clip-path="url(#pd0451a1883)" style="fill: #ffffff; stroke: #0072b2; stroke-linejoin: miter"/>
   </g>
   <g id="patch_82">
    <path d="M 669.762909 301.96 
L 676.818182 301.96 
L 676.818182 121.406632 
L 669.762909 121.406632 
z
" clip-path="url(#pd0451a1883)" style="fill: #ffffff; stroke: #0072b2; stroke-linejoin: miter"/>
   </g>
   <g id="patch_83">
    <path d="M 676.818182 301.96 
L 683.873455 301.96 
L 683.873455 106.54067 
L 676.818182 106.54067 
z
" clip-path="url(#pd0451a1883)" style="fill: #ffffff; stroke: #0072b2; stroke-linejoin: miter"/>
   </g>
   <g id="patch_84">
    <path d="M 683.873455 301.96 
L 690.928727 301.96 
L 690.928727 94.163124 
L 683.873455 94.163124 
z
" clip-path="url(#pd0451a1883)" style="fill: #ffffff; stroke: #0072b2; stroke-linejoin: miter"/>
   </g>
   <g id="patch_85">
    <path d="M 690.928727 301.96 
L 697.984 301.96 
L 697.984 84.314677 
L 690.928727 84.314677 
z
" clip-path="url(#pd0451a1883)" style="fill: #ffffff; stroke: #0072b2; stroke-linejoin: miter"/>
   </g>
   <g id="patch_86">
    <path d="M 697.984 301.96 
L 705.039273 301.96 
L 705.039273 71.330209 
L 697.984 71.330209 
z
" clip-path="url(#pd0451a1883)" style="fill: #ffffff; stroke: #0072b2; stroke-linejoin: miter"/>
   </g>
   <g id="patch_87">
    <path d="M 705.039273 301.96 
L 712.094545 301.96 
L 712.094545 59.81513 
L 705.039273 59.81513 
z
" clip-path="url(#pd0451a1883)" style="fill: #ffffff; stroke: #0072b2; stroke-linejoin: miter"/>
   </g>
   <g id="patch_88">
    <path d="M 712.094545 301.96 
L 719.149818 301.96 
L 719.149818 52.807189 
L 712.094545 52.807189 
z
" clip-path="url(#pd0451a1883)" style="fill: #ffffff; stroke: #0072b2; stroke-linejoin: miter"/>
   </g>
   <g id="patch_89">
    <path d="M 719.149818 301.96 
L 726.205091 301.96 
L 726.205091 52.94578 
L 719.149818 52.94578 
z
" clip-path="url(#pd0451a1883)" style="fill: #ffffff; stroke: #0072b2; stroke-linejoin: miter"/>
   </g>
   <g id="patch_90">
    <path d="M 726.205091 301.96 
L 733.260364 301.96 
L 733.260364 52.551527 
L 726.205091 52.551527 
z
" clip-path="url(#pd0451a1883)" style="fill: #ffffff; stroke: #0072b2; stroke-linejoin: miter"/>
   </g>
   <g id="patch_91">
    <path d="M 733.260364 301.96 
L 740.315636 301.96 
L 740.315636 50.210322 
L 733.260364 50.210322 
z
" clip-path="url(#pd0451a1883)" style="fill: #ffffff; stroke: #0072b2; stroke-linejoin: miter"/>
   </g>
   <g id="patch_92">
    <path d="M 740.315636 301.96 
L 747.370909 301.96 
L 747.370909 61.724902 
L 740.315636 61.724902 
z
" clip-path="url(#pd0451a1883)" style="fill: #ffffff; stroke: #0072b2; stroke-linejoin: miter"/>
   </g>
   <g id="patch_93">
    <path d="M 747.370909 301.96 
L 754.426182 301.96 
L 754.426182 67.115149 
L 747.370909 67.115149 
z
" clip-path="url(#pd0451a1883)" style="fill: #ffffff; stroke: #0072b2; stroke-linejoin: miter"/>
   </g>
   <g id="patch_94">
    <path d="M 754.426182 301.96 
L 761.481455 301.96 
L 761.481455 84.395829 
L 754.426182 84.395829 
z
" clip-path="url(#pd0451a1883)" style="fill: #ffffff; stroke: #0072b2; stroke-linejoin: miter"/>
   </g>
   <g id="patch_95">
    <path d="M 761.481455 301.96 
L 768.536727 301.96 
L 768.536727 99.454184 
L 761.481455 99.454184 
z
" clip-path="url(#pd0451a1883)" style="fill: #ffffff; stroke: #0072b2; stroke-linejoin: miter"/>
   </g>
   <g id="patch_96">
    <path d="M 768.536727 301.96 
L 775.592 301.96 
L 775.592 115.132729 
L 768.536727 115.132729 
z
" clip-path="url(#pd0451a1883)" style="fill: #ffffff; stroke: #0072b2; stroke-linejoin: miter"/>
   </g>
   <g id="patch_97">
    <path d="M 775.592 301.96 
L 782.647273 301.96 
L 782.647273 144.833533 
L 775.592 144.833533 
z
" clip-path="url(#pd0451a1883)" style="fill: #ffffff; stroke: #0072b2; stroke-linejoin: miter"/>
   </g>
   <g id="patch_98">
    <path d="M 782.647273 301.96 
L 789.702545 301.96 
L 789.702545 169.42956 
L 782.647273 169.42956 
z
" clip-path="url(#pd0451a1883)" style="fill: #ffffff; stroke: #0072b2; stroke-linejoin: miter"/>
   </g>
   <g id="patch_99">
    <path d="M 789.702545 301.96 
L 796.757818 301.96 
L 796.757818 196.773324 
L 789.702545 196.773324 
z
" clip-path="url(#pd0451a1883)" style="fill: #ffffff; stroke: #0072b2; stroke-linejoin: miter"/>
   </g>
   <g id="patch_100">
    <path d="M 796.757818 301.96 
L 803.813091 301.96 
L 803.813091 230.17158 
L 796.757818 230.17158 
z
" clip-path="url(#pd0451a1883)" style="fill: #ffffff; stroke: #0072b2; stroke-linejoin: miter"/>
   </g>
   <g id="patch_101">
    <path d="M 803.813091 301.96 
L 810.868364 301.96 
L 810.868364 260.808722 
L 803.813091 260.808722 
z
" clip-path="url(#pd0451a1883)" style="fill: #ffffff; stroke: #0072b2; stroke-linejoin: miter"/>
   </g>
   <g id="patch_102">
    <path d="M 810.868364 301.96 
L 817.923636 301.96 
L 817.923636 266.977182 
L 810.868364 266.977182 
z
" clip-path="url(#pd0451a1883)" style="fill: #ffffff; stroke: #0072b2; stroke-linejoin: miter"/>
   </g>
   <g id="PatchCollection_1">
    <path d="M 112.396364 301.960485 
L 119.451636 301.960485 
L 119.451636 301.959512 
L 112.396364 301.959512 
z
" clip-path="url(#pd0451a1883)" style="fill: url(#h4fa8a0e51b)"/>
    <path d="M 119.451636 301.961056 
L 126.506909 301.961056 
L 126.506909 301.958928 
L 119.451636 301.958928 
z
" clip-path="url(#pd0451a1883)" style="fill: url(#h4fa8a0e51b)"/>
    <path d="M 126.506909 301.962315 
L 133.562182 301.962315 
L 133.562182 301.957604 
L 126.506909 301.957604 
z
" clip-path="url(#pd0451a1883)" style="fill: url(#h4fa8a0e51b)"/>
    <path d="M 133.562182 301.963431 
L 140.617455 301.963431 
L 140.617455 301.956386 
L 133.562182 301.956386 
z
" clip-path="url(#pd0451a1883)" style="fill: url(#h4fa8a0e51b)"/>
    <path d="M 140.617455 301.964859 
L 147.672727 301.964859 
L 147.672727 301.954767 
L 140.617455 301.954767 
z
" clip-path="url(#pd0451a1883)" style="fill: url(#h4fa8a0e51b)"/>
    <path d="M 147.672727 301.966003 
L 154.728 301.966003 
L 154.728 301.953414 
L 147.672727 301.953414 
z
" clip-path="url(#pd0451a1883)" style="fill: url(#h4fa8a0e51b)"/>
    <path d="M 154.728 301.968011 
L 161.783273 301.968011 
L 161.783273 301.950915 
L 154.728 301.950915 
z
" clip-path="url(#pd0451a1883)" style="fill: url(#h4fa8a0e51b)"/>
    <path d="M 161.783273 301.969285 
L 168.838545 301.969285 
L 168.838545 301.949238 
L 161.783273 301.949238 
z
" clip-path="url(#pd0451a1883)" style="fill: url(#h4fa8a0e51b)"/>
    <path d="M 168.838545 301.969764 
L 175.893818 301.969764 
L 175.893818 301.948588 
L 168.838545 301.948588 
z
" clip-path="url(#pd0451a1883)" style="fill: url(#h4fa8a0e51b)"/>
    <path d="M 175.893818 301.969907 
L 182.949091 301.969907 
L 182.949091 301.948392 
L 175.893818 301.948392 
z
" clip-path="url(#pd0451a1883)" style="fill: url(#h4fa8a0e51b)"/>
    <path d="M 182.949091 301.969768 
L 190.004364 301.969768 
L 190.004364 301.948582 
L 182.949091 301.948582 
z
" clip-path="url(#pd0451a1883)" style="fill: url(#h4fa8a0e51b)"/>
    <path d="M 190.004364 301.970271 
L 197.059636 301.970271 
L 197.059636 301.947887 
L 190.004364 301.947887 
z
" clip-path="url(#pd0451a1883)" style="fill: url(#h4fa8a0e51b)"/>
    <path d="M 197.059636 301.971032 
L 204.114909 301.971032 
L 204.114909 301.946812 
L 197.059636 301.946812 
z
" clip-path="url(#pd0451a1883)" style="fill: url(#h4fa8a0e51b)"/>
    <path d="M 204.114909 301.970752 
L 211.170182 301.970752 
L 211.170182 301.947211 
L 204.114909 301.947211 
z
" clip-path="url(#pd0451a1883)" style="fill: url(#h4fa8a0e51b)"/>
    <path d="M 211.170182 301.971252 
L 218.225455 301.971252 
L 218.225455 301.946496 
L 211.170182 301.946496 
z
" clip-path="url(#pd0451a1883)" style="fill: url(#h4fa8a0e51b)"/>
    <path d="M 218.225455 301.972087 
L 225.280727 301.972087 
L 225.280727 301.945269 
L 218.225455 301.945269 
z
" clip-path="url(#pd0451a1883)" style="fill: url(#h4fa8a0e51b)"/>
    <path d="M 225.280727 301.972832 
L 232.336 301.972832 
L 232.336 301.944142 
L 225.280727 301.944142 
z
" clip-path="url(#pd0451a1883)" style="fill: url(#h4fa8a0e51b)"/>
    <path d="M 232.336 301.973079 
L 239.391273 301.973079 
L 239.391273 301.943761 
L 232.336 301.943761 
z
" clip-path="url(#pd0451a1883)" style="fill: url(#h4fa8a0e51b)"/>
    <path d="M 239.391273 301.974817 
L 246.446545 301.974817 
L 246.446545 301.940974 
L 239.391273 301.940974 
z
" clip-path="url(#pd0451a1883)" style="fill: url(#h4fa8a0e51b)"/>
    <path d="M 246.446545 301.976604 
L 253.501818 301.976604 
L 253.501818 301.937886 
L 246.446545 301.937886 
z
" clip-path="url(#pd0451a1883)" style="fill: url(#h4fa8a0e51b)"/>
    <path d="M 253.501818 301.978576 
L 260.557091 301.978576 
L 260.557091 301.934179 
L 253.501818 301.934179 
z
" clip-path="url(#pd0451a1883)" style="fill: url(#h4fa8a0e51b)"/>
    <path d="M 260.557091 301.980408 
L 267.612364 301.980408 
L 267.612364 301.9304 
L 260.557091 301.9304 
z
" clip-path="url(#pd0451a1883)" style="fill: url(#h4fa8a0e51b)"/>
    <path d="M 267.612364 301.982761 
L 274.667636 301.982761 
L 274.667636 301.924958 
L 267.612364 301.924958 
z
" clip-path="url(#pd0451a1883)" style="fill: url(#h4fa8a0e51b)"/>
    <path d="M 274.667636 301.984931 
L 281.722909 301.984931 
L 281.722909 301.919176 
L 274.667636 301.919176 
z
" clip-path="url(#pd0451a1883)" style="fill: url(#h4fa8a0e51b)"/>
    <path d="M 281.722909 301.98683 
L 288.778182 301.98683 
L 288.778182 301.913292 
L 281.722909 301.913292 
z
" clip-path="url(#pd0451a1883)" style="fill: url(#h4fa8a0e51b)"/>
    <path d="M 288.778182 301.989204 
L 295.833455 301.989204 
L 295.833455 301.904298 
L 288.778182 301.904298 
z
" clip-path="url(#pd0451a1883)" style="fill: url(#h4fa8a0e51b)"/>
    <path d="M 295.833455 301.991555 
L 302.888727 301.991555 
L 302.888727 301.892048 
L 295.833455 301.892048 
z
" clip-path="url(#pd0451a1883)" style="fill: url(#h4fa8a0e51b)"/>
    <path d="M 302.888727 301.992764 
L 309.944 301.992764 
L 309.944 301.882736 
L 302.888727 301.882736 
z
" clip-path="url(#pd0451a1883)" style="fill: url(#h4fa8a0e51b)"/>
    <path d="M 309.944 301.99398 
L 316.999273 301.99398 
L 316.999273 301.861689 
L 309.944 301.861689 
z
" clip-path="url(#pd0451a1883)" style="fill: url(#h4fa8a0e51b)"/>
    <path d="M 316.999273 301.993849 
L 324.054545 301.993849 
L 324.054545 301.848605 
L 316.999273 301.848605 
z
" clip-path="url(#pd0451a1883)" style="fill: url(#h4fa8a0e51b)"/>
    <path d="M 324.054545 301.992736 
L 331.109818 301.992736 
L 331.109818 301.830441 
L 324.054545 301.830441 
z
" clip-path="url(#pd0451a1883)" style="fill: url(#h4fa8a0e51b)"/>
    <path d="M 331.109818 301.990871 
L 338.165091 301.990871 
L 338.165091 301.813569 
L 331.109818 301.813569 
z
" clip-path="url(#pd0451a1883)" style="fill: url(#h4fa8a0e51b)"/>
    <path d="M 338.165091 301.98829 
L 345.220364 301.98829 
L 345.220364 301.796518 
L 338.165091 301.796518 
z
" clip-path="url(#pd0451a1883)" style="fill: url(#h4fa8a0e51b)"/>
    <path d="M 345.220364 301.984164 
L 352.275636 301.984164 
L 352.275636 301.77499 
L 345.220364 301.77499 
z
" clip-path="url(#pd0451a1883)" style="fill: url(#h4fa8a0e51b)"/>
    <path d="M 352.275636 301.978066 
L 359.330909 301.978066 
L 359.330909 301.748944 
L 352.275636 301.748944 
z
" clip-path="url(#pd0451a1883)" style="fill: url(#h4fa8a0e51b)"/>
    <path d="M 359.330909 301.96978 
L 366.386182 301.96978 
L 366.386182 301.718984 
L 359.330909 301.718984 
z
" clip-path="url(#pd0451a1883)" style="fill: url(#h4fa8a0e51b)"/>
    <path d="M 366.386182 301.952537 
L 373.441455 301.952537 
L 373.441455 301.666349 
L 366.386182 301.666349 
z
" clip-path="url(#pd0451a1883)" style="fill: url(#h4fa8a0e51b)"/>
    <path d="M 373.441455 301.927148 
L 380.496727 301.927148 
L 380.496727 301.600453 
L 373.441455 301.600453 
z
" clip-path="url(#pd0451a1883)" style="fill: url(#h4fa8a0e51b)"/>
    <path d="M 380.496727 301.887835 
L 387.552 301.887835 
L 387.552 301.511533 
L 380.496727 301.511533 
z
" clip-path="url(#pd0451a1883)" style="fill: url(#h4fa8a0e51b)"/>
    <path d="M 387.552 301.836491 
L 394.607273 301.836491 
L 394.607273 301.407803 
L 387.552 301.407803 
z
" clip-path="url(#pd0451a1883)" style="fill: url(#h4fa8a0e51b)"/>
    <path d="M 394.607273 301.76392 
L 401.662545 301.76392 
L 401.662545 301.274188 
L 394.607273 301.274188 
z
" clip-path="url(#pd0451a1883)" style="fill: url(#h4fa8a0e51b)"/>
    <path d="M 401.662545 301.664549 
L 408.717818 301.664549 
L 408.717818 301.105281 
L 401.662545 301.105281 
z
" clip-path="url(#pd0451a1883)" style="fill: url(#h4fa8a0e51b)"/>
    <path d="M 408.717818 301.571846 
L 415.773091 301.571846 
L 415.773091 300.956734 
L 408.717818 300.956734 
z
" clip-path="url(#pd0451a1883)" style="fill: url(#h4fa8a0e51b)"/>
    <path d="M 415.773091 301.42349 
L 422.828364 301.42349 
L 422.828364 300.730543 
L 415.773091 300.730543 
z
" clip-path="url(#pd0451a1883)" style="fill: url(#h4fa8a0e51b)"/>
    <path d="M 422.828364 301.239515 
L 429.883636 301.239515 
L 429.883636 300.463063 
L 422.828364 300.463063 
z
" clip-path="url(#pd0451a1883)" style="fill: url(#h4fa8a0e51b)"/>
    <path d="M 429.883636 300.995741 
L 436.938909 300.995741 
L 436.938909 300.123092 
L 429.883636 300.123092 
z
" clip-path="url(#pd0451a1883)" style="fill: url(#h4fa8a0e51b)"/>
    <path d="M 436.938909 300.701836 
L 443.994182 300.701836 
L 443.994182 299.727784 
L 436.938909 299.727784 
z
" clip-path="url(#pd0451a1883)" style="fill: url(#h4fa8a0e51b)"/>
    <path d="M 443.994182 300.337025 
L 451.049455 300.337025 
L 451.049455 299.25208 
L 443.994182 299.25208 
z
" clip-path="url(#pd0451a1883)" style="fill: url(#h4fa8a0e51b)"/>
    <path d="M 451.049455 299.927402 
L 458.104727 299.927402 
L 458.104727 298.731715 
L 451.049455 298.731715 
z
" clip-path="url(#pd0451a1883)" style="fill: url(#h4fa8a0e51b)"/>
    <path d="M 458.104727 299.406918 
L 465.16 299.406918 
L 465.16 298.085376 
L 458.104727 298.085376 
z
" clip-path="url(#pd0451a1883)" style="fill: url(#h4fa8a0e51b)"/>
    <path d="M 465.16 298.672166 
L 472.215273 298.672166 
L 472.215273 297.192909 
L 465.16 297.192909 
z
" clip-path="url(#pd0451a1883)" style="fill: url(#h4fa8a0e51b)"/>
    <path d="M 472.215273 297.76828 
L 479.270545 297.76828 
L 479.270545 296.117419 
L 472.215273 296.117419 
z
" clip-path="url(#pd0451a1883)" style="fill: url(#h4fa8a0e51b)"/>
    <path d="M 479.270545 296.696134 
L 486.325818 296.696134 
L 486.325818 294.864162 
L 479.270545 294.864162 
z
" clip-path="url(#pd0451a1883)" style="fill: url(#h4fa8a0e51b)"/>
    <path d="M 486.325818 295.380367 
L 493.381091 295.380367 
L 493.381091 293.349728 
L 486.325818 293.349728 
z
" clip-path="url(#pd0451a1883)" style="fill: url(#h4fa8a0e51b)"/>
    <path d="M 493.381091 294.147226 
L 500.436364 294.147226 
L 500.436364 291.94784 
L 493.381091 291.94784 
z
" clip-path="url(#pd0451a1883)" style="fill: url(#h4fa8a0e51b)"/>
    <path d="M 500.436364 292.655801 
L 507.491636 292.655801 
L 507.491636 290.269269 
L 500.436364 290.269269 
z
" clip-path="url(#pd0451a1883)" style="fill: url(#h4fa8a0e51b)"/>
    <path d="M 507.491636 290.884931 
L 514.546909 290.884931 
L 514.546909 288.294788 
L 507.491636 288.294788 
z
" clip-path="url(#pd0451a1883)" style="fill: url(#h4fa8a0e51b)"/>
    <path d="M 514.546909 287.914175 
L 521.602182 287.914175 
L 521.602182 285.015965 
L 514.546909 285.015965 
z
" clip-path="url(#pd0451a1883)" style="fill: url(#h4fa8a0e51b)"/>
    <path d="M 521.602182 284.317601 
L 528.657455 284.317601 
L 528.657455 281.087474 
L 521.602182 281.087474 
z
" clip-path="url(#pd0451a1883)" style="fill: url(#h4fa8a0e51b)"/>
    <path d="M 528.657455 280.554704 
L 535.712727 280.554704 
L 535.712727 277.012177 
L 528.657455 277.012177 
z
" clip-path="url(#pd0451a1883)" style="fill: url(#h4fa8a0e51b)"/>
    <path d="M 535.712727 276.565007 
L 542.768 276.565007 
L 542.768 272.72034 
L 535.712727 272.72034 
z
" clip-path="url(#pd0451a1883)" style="fill: url(#h4fa8a0e51b)"/>
    <path d="M 542.768 272.520329 
L 549.823273 272.520329 
L 549.823273 268.39322 
L 542.768 268.39322 
z
" clip-path="url(#pd0451a1883)" style="fill: url(#h4fa8a0e51b)"/>
    <path d="M 549.823273 268.492525 
L 556.878545 268.492525 
L 556.878545 264.103418 
L 549.823273 264.103418 
z
" clip-path="url(#pd0451a1883)" style="fill: url(#h4fa8a0e51b)"/>
    <path d="M 556.878545 264.158172 
L 563.933818 264.158172 
L 563.933818 259.504697 
L 556.878545 259.504697 
z
" clip-path="url(#pd0451a1883)" style="fill: url(#h4fa8a0e51b)"/>
    <path d="M 563.933818 260.281026 
L 570.989091 260.281026 
L 570.989091 255.404614 
L 563.933818 255.404614 
z
" clip-path="url(#pd0451a1883)" style="fill: url(#h4fa8a0e51b)"/>
    <path d="M 570.989091 254.557266 
L 578.044364 254.557266 
L 578.044364 249.369571 
L 570.989091 249.369571 
z
" clip-path="url(#pd0451a1883)" style="fill: url(#h4fa8a0e51b)"/>
    <path d="M 578.044364 248.278494 
L 585.099636 248.278494 
L 585.099636 242.77108 
L 578.044364 242.77108 
z
" clip-path="url(#pd0451a1883)" style="fill: url(#h4fa8a0e51b)"/>
    <path d="M 585.099636 241.39872 
L 592.154909 241.39872 
L 592.154909 235.562768 
L 585.099636 235.562768 
z
" clip-path="url(#pd0451a1883)" style="fill: url(#h4fa8a0e51b)"/>
    <path d="M 592.154909 234.424626 
L 599.210182 234.424626 
L 599.210182 228.275784 
L 592.154909 228.275784 
z
" clip-path="url(#pd0451a1883)" style="fill: url(#h4fa8a0e51b)"/>
    <path d="M 599.210182 228.411674 
L 606.265455 228.411674 
L 606.265455 222.008306 
L 599.210182 222.008306 
z
" clip-path="url(#pd0451a1883)" style="fill: url(#h4fa8a0e51b)"/>
    <path d="M 606.265455 223.084405 
L 613.320727 223.084405 
L 613.320727 216.466865 
L 606.265455 216.466865 
z
" clip-path="url(#pd0451a1883)" style="fill: url(#h4fa8a0e51b)"/>
    <path d="M 613.320727 216.472801 
L 620.376 216.472801 
L 620.376 209.599536 
L 613.320727 209.599536 
z
" clip-path="url(#pd0451a1883)" style="fill: url(#h4fa8a0e51b)"/>
    <path d="M 620.376 207.534056 
L 627.431273 207.534056 
L 627.431273 200.329798 
L 620.376 200.329798 
z
" clip-path="url(#pd0451a1883)" style="fill: url(#h4fa8a0e51b)"/>
    <path d="M 627.431273 199.673943 
L 634.486545 199.673943 
L 634.486545 192.196259 
L 627.431273 192.196259 
z
" clip-path="url(#pd0451a1883)" style="fill: url(#h4fa8a0e51b)"/>
    <path d="M 634.486545 186.472031 
L 641.541818 186.472031 
L 641.541818 178.55278 
L 634.486545 178.55278 
z
" clip-path="url(#pd0451a1883)" style="fill: url(#h4fa8a0e51b)"/>
    <path d="M 641.541818 175.550748 
L 648.597091 175.550748 
L 648.597091 167.293198 
L 641.541818 167.293198 
z
" clip-path="url(#pd0451a1883)" style="fill: url(#h4fa8a0e51b)"/>
    <path d="M 648.597091 163.482831 
L 655.652364 163.482831 
L 655.652364 154.871896 
L 648.597091 154.871896 
z
" clip-path="url(#pd0451a1883)" style="fill: url(#h4fa8a0e51b)"/>
    <path d="M 655.652364 153.549305 
L 662.707636 153.549305 
L 662.707636 144.669961 
L 655.652364 144.669961 
z
" clip-path="url(#pd0451a1883)" style="fill: url(#h4fa8a0e51b)"/>
    <path d="M 662.707636 139.90833 
L 669.762909 139.90833 
L 669.762909 130.67212 
L 662.707636 130.67212 
z
" clip-path="url(#pd0451a1883)" style="fill: url(#h4fa8a0e51b)"/>
    <path d="M 669.762909 126.191816 
L 676.818182 126.191816 
L 676.818182 116.621451 
L 669.762909 116.621451 
z
" clip-path="url(#pd0451a1883)" style="fill: url(#h4fa8a0e51b)"/>
    <path d="M 676.818182 111.493638 
L 683.873455 111.493638 
L 683.873455 101.587716 
L 676.818182 101.587716 
z
" clip-path="url(#pd0451a1883)" style="fill: url(#h4fa8a0e51b)"/>
    <path d="M 683.873455 99.240485 
L 690.928727 99.240485 
L 690.928727 89.085769 
L 683.873455 89.085769 
z
" clip-path="url(#pd0451a1883)" style="fill: url(#h4fa8a0e51b)"/>
    <path d="M 690.928727 89.475748 
L 697.984 89.475748 
L 697.984 79.153592 
L 690.928727 79.153592 
z
" clip-path="url(#pd0451a1883)" style="fill: url(#h4fa8a0e51b)"/>
    <path d="M 697.984 76.600993 
L 705.039273 76.600993 
L 705.039273 66.059417 
L 697.984 66.059417 
z
" clip-path="url(#pd0451a1883)" style="fill: url(#h4fa8a0e51b)"/>
    <path d="M 705.039273 65.166651 
L 712.094545 65.166651 
L 712.094545 54.463591 
L 705.039273 54.463591 
z
" clip-path="url(#pd0451a1883)" style="fill: url(#h4fa8a0e51b)"/>
    <path d="M 712.094545 58.178355 
L 719.149818 58.178355 
L 719.149818 47.436016 
L 712.094545 47.436016 
z
" clip-path="url(#pd0451a1883)" style="fill: url(#h4fa8a0e51b)"/>
    <path d="M 719.149818 58.249245 
L 726.205091 58.249245 
L 726.205091 47.642328 
L 719.149818 47.642328 
z
" clip-path="url(#pd0451a1883)" style="fill: url(#h4fa8a0e51b)"/>
    <path d="M 726.205091 57.782226 
L 733.260364 57.782226 
L 733.260364 47.320813 
L 726.205091 47.320813 
z
" clip-path="url(#pd0451a1883)" style="fill: url(#h4fa8a0e51b)"/>
    <path d="M 733.260364 55.37654 
L 740.315636 55.37654 
L 740.315636 45.044119 
L 733.260364 45.044119 
z
" clip-path="url(#pd0451a1883)" style="fill: url(#h4fa8a0e51b)"/>
    <path d="M 740.315636 66.670614 
L 747.370909 66.670614 
L 747.370909 56.779188 
L 740.315636 56.779188 
z
" clip-path="url(#pd0451a1883)" style="fill: url(#h4fa8a0e51b)"/>
    <path d="M 747.370909 71.887679 
L 754.426182 71.887679 
L 754.426182 62.342633 
L 747.370909 62.342633 
z
" clip-path="url(#pd0451a1883)" style="fill: url(#h4fa8a0e51b)"/>
    <path d="M 754.426182 88.858148 
L 761.481455 88.858148 
L 761.481455 79.933508 
L 754.426182 79.933508 
z
" clip-path="url(#pd0451a1883)" style="fill: url(#h4fa8a0e51b)"/>
    <path d="M 761.481455 103.610294 
L 768.536727 103.610294 
L 768.536727 95.298076 
L 761.481455 95.298076 
z
" clip-path="url(#pd0451a1883)" style="fill: url(#h4fa8a0e51b)"/>
    <path d="M 768.536727 118.95455 
L 775.592 118.95455 
L 775.592 111.310904 
L 768.536727 111.310904 
z
" clip-path="url(#pd0451a1883)" style="fill: url(#h4fa8a0e51b)"/>
    <path d="M 775.592 148.150025 
L 782.647273 148.150025 
L 782.647273 141.517048 
L 775.592 141.517048 
z
" clip-path="url(#pd0451a1883)" style="fill: url(#h4fa8a0e51b)"/>
    <path d="M 782.647273 172.267077 
L 789.702545 172.267077 
L 789.702545 166.592039 
L 782.647273 166.592039 
z
" clip-path="url(#pd0451a1883)" style="fill: url(#h4fa8a0e51b)"/>
    <path d="M 789.702545 199.075722 
L 796.757818 199.075722 
L 796.757818 194.470921 
L 789.702545 194.470921 
z
" clip-path="url(#pd0451a1883)" style="fill: url(#h4fa8a0e51b)"/>
    <path d="M 796.757818 231.845228 
L 803.813091 231.845228 
L 803.813091 228.49793 
L 796.757818 228.49793 
z
" clip-path="url(#pd0451a1883)" style="fill: url(#h4fa8a0e51b)"/>
    <path d="M 803.813091 261.828134 
L 810.868364 261.828134 
L 810.868364 259.78931 
L 803.813091 259.78931 
z
" clip-path="url(#pd0451a1883)" style="fill: url(#h4fa8a0e51b)"/>
    <path d="M 810.868364 267.363485 
L 817.923636 267.363485 
L 817.923636 266.590878 
L 810.868364 266.590878 
z
" clip-path="url(#pd0451a1883)" style="fill: url(#h4fa8a0e51b)"/>
   </g>
   <g id="matplotlib.axis_1">
    <g id="xtick_1">
     <g id="line2d_1">
      <defs>
       <path id="mebef98f97d" d="M 0 0 
L 0 3.5 
" style="stroke: #000000; stroke-width: 0.8"/>
      </defs>
      <g>
       <use xlink:href="#mebef98f97d" x="199.892657" y="301.96" style="stroke: #000000; stroke-width: 0.8"/>
      </g>
     </g>
     <g id="text_1">
      <!-- −5 -->
      <g transform="translate(189.573126 319.597813) scale(0.14 -0.14)">
       <defs>
        <path id="DejaVuSans-2212" d="M 678 2272 
L 4684 2272 
L 4684 1741 
L 678 1741 
L 678 2272 
z
" transform="scale(0.015625)"/>
        <path id="DejaVuSans-35" d="M 691 4666 
L 3169 4666 
L 3169 4134 
L 1269 4134 
L 1269 2991 
Q 1406 3038 1543 3061 
Q 1681 3084 1819 3084 
Q 2600 3084 3056 2656 
Q 3513 2228 3513 1497 
Q 3513 744 3044 326 
Q 2575 -91 1722 -91 
Q 1428 -91 1123 -41 
Q 819 9 494 109 
L 494 744 
Q 775 591 1075 516 
Q 1375 441 1709 441 
Q 2250 441 2565 725 
Q 2881 1009 2881 1497 
Q 2881 1984 2565 2268 
Q 2250 2553 1709 2553 
Q 1456 2553 1204 2497 
Q 953 2441 691 2322 
L 691 4666 
z
" transform="scale(0.015625)"/>
       </defs>
       <use xlink:href="#DejaVuSans-2212"/>
       <use xlink:href="#DejaVuSans-35" x="83.789062"/>
      </g>
     </g>
    </g>
    <g id="xtick_2">
     <g id="line2d_2">
      <g>
       <use xlink:href="#mebef98f97d" x="323.498853" y="301.96" style="stroke: #000000; stroke-width: 0.8"/>
      </g>
     </g>
     <g id="text_2">
      <!-- −4 -->
      <g transform="translate(313.179322 319.597813) scale(0.14 -0.14)">
       <defs>
        <path id="DejaVuSans-34" d="M 2419 4116 
L 825 1625 
L 2419 1625 
L 2419 4116 
z
M 2253 4666 
L 3047 4666 
L 3047 1625 
L 3713 1625 
L 3713 1100 
L 3047 1100 
L 3047 0 
L 2419 0 
L 2419 1100 
L 313 1100 
L 313 1709 
L 2253 4666 
z
" transform="scale(0.015625)"/>
       </defs>
       <use xlink:href="#DejaVuSans-2212"/>
       <use xlink:href="#DejaVuSans-34" x="83.789062"/>
      </g>
     </g>
    </g>
    <g id="xtick_3">
     <g id="line2d_3">
      <g>
       <use xlink:href="#mebef98f97d" x="447.105049" y="301.96" style="stroke: #000000; stroke-width: 0.8"/>
      </g>
     </g>
     <g id="text_3">
      <!-- −3 -->
      <g transform="translate(436.785518 319.597813) scale(0.14 -0.14)">
       <defs>
        <path id="DejaVuSans-33" d="M 2597 2516 
Q 3050 2419 3304 2112 
Q 3559 1806 3559 1356 
Q 3559 666 3084 287 
Q 2609 -91 1734 -91 
Q 1441 -91 1130 -33 
Q 819 25 488 141 
L 488 750 
Q 750 597 1062 519 
Q 1375 441 1716 441 
Q 2309 441 2620 675 
Q 2931 909 2931 1356 
Q 2931 1769 2642 2001 
Q 2353 2234 1838 2234 
L 1294 2234 
L 1294 2753 
L 1863 2753 
Q 2328 2753 2575 2939 
Q 2822 3125 2822 3475 
Q 2822 3834 2567 4026 
Q 2313 4219 1838 4219 
Q 1578 4219 1281 4162 
Q 984 4106 628 3988 
L 628 4550 
Q 988 4650 1302 4700 
Q 1616 4750 1894 4750 
Q 2613 4750 3031 4423 
Q 3450 4097 3450 3541 
Q 3450 3153 3228 2886 
Q 3006 2619 2597 2516 
z
" transform="scale(0.015625)"/>
       </defs>
       <use xlink:href="#DejaVuSans-2212"/>
       <use xlink:href="#DejaVuSans-33" x="83.789062"/>
      </g>
     </g>
    </g>
    <g id="xtick_4">
     <g id="line2d_4">
      <g>
       <use xlink:href="#mebef98f97d" x="570.711245" y="301.96" style="stroke: #000000; stroke-width: 0.8"/>
      </g>
     </g>
     <g id="text_4">
      <!-- −2 -->
      <g transform="translate(560.391713 319.597813) scale(0.14 -0.14)">
       <defs>
        <path id="DejaVuSans-32" d="M 1228 531 
L 3431 531 
L 3431 0 
L 469 0 
L 469 531 
Q 828 903 1448 1529 
Q 2069 2156 2228 2338 
Q 2531 2678 2651 2914 
Q 2772 3150 2772 3378 
Q 2772 3750 2511 3984 
Q 2250 4219 1831 4219 
Q 1534 4219 1204 4116 
Q 875 4013 500 3803 
L 500 4441 
Q 881 4594 1212 4672 
Q 1544 4750 1819 4750 
Q 2544 4750 2975 4387 
Q 3406 4025 3406 3419 
Q 3406 3131 3298 2873 
Q 3191 2616 2906 2266 
Q 2828 2175 2409 1742 
Q 1991 1309 1228 531 
z
" transform="scale(0.015625)"/>
       </defs>
       <use xlink:href="#DejaVuSans-2212"/>
       <use xlink:href="#DejaVuSans-32" x="83.789062"/>
      </g>
     </g>
    </g>
    <g id="xtick_5">
     <g id="line2d_5">
      <g>
       <use xlink:href="#mebef98f97d" x="694.317441" y="301.96" style="stroke: #000000; stroke-width: 0.8"/>
      </g>
     </g>
     <g id="text_5">
      <!-- −1 -->
      <g transform="translate(683.997909 319.597813) scale(0.14 -0.14)">
       <defs>
        <path id="DejaVuSans-31" d="M 794 531 
L 1825 531 
L 1825 4091 
L 703 3866 
L 703 4441 
L 1819 4666 
L 2450 4666 
L 2450 531 
L 3481 531 
L 3481 0 
L 794 0 
L 794 531 
z
" transform="scale(0.015625)"/>
       </defs>
       <use xlink:href="#DejaVuSans-2212"/>
       <use xlink:href="#DejaVuSans-31" x="83.789062"/>
      </g>
     </g>
    </g>
    <g id="xtick_6">
     <g id="line2d_6">
      <g>
       <use xlink:href="#mebef98f97d" x="817.923636" y="301.96" style="stroke: #000000; stroke-width: 0.8"/>
      </g>
     </g>
     <g id="text_6">
      <!-- 0 -->
      <g transform="translate(813.469886 319.597813) scale(0.14 -0.14)">
       <defs>
        <path id="DejaVuSans-30" d="M 2034 4250 
Q 1547 4250 1301 3770 
Q 1056 3291 1056 2328 
Q 1056 1369 1301 889 
Q 1547 409 2034 409 
Q 2525 409 2770 889 
Q 3016 1369 3016 2328 
Q 3016 3291 2770 3770 
Q 2525 4250 2034 4250 
z
M 2034 4750 
Q 2819 4750 3233 4129 
Q 3647 3509 3647 2328 
Q 3647 1150 3233 529 
Q 2819 -91 2034 -91 
Q 1250 -91 836 529 
Q 422 1150 422 2328 
Q 422 3509 836 4129 
Q 1250 4750 2034 4750 
z
" transform="scale(0.015625)"/>
       </defs>
       <use xlink:href="#DejaVuSans-30"/>
      </g>
     </g>
    </g>
    <g id="text_7">
     <!-- $\log_{10}$(amino acid substitution probability) -->
     <g transform="translate(319.42 343.149375) scale(0.14 -0.14)">
      <defs>
       <path id="DejaVuSans-6c" d="M 603 4863 
L 1178 4863 
L 1178 0 
L 603 0 
L 603 4863 
z
" transform="scale(0.015625)"/>
       <path id="DejaVuSans-6f" d="M 1959 3097 
Q 1497 3097 1228 2736 
Q 959 2375 959 1747 
Q 959 1119 1226 758 
Q 1494 397 1959 397 
Q 2419 397 2687 759 
Q 2956 1122 2956 1747 
Q 2956 2369 2687 2733 
Q 2419 3097 1959 3097 
z
M 1959 3584 
Q 2709 3584 3137 3096 
Q 3566 2609 3566 1747 
Q 3566 888 3137 398 
Q 2709 -91 1959 -91 
Q 1206 -91 779 398 
Q 353 888 353 1747 
Q 353 2609 779 3096 
Q 1206 3584 1959 3584 
z
" transform="scale(0.015625)"/>
       <path id="DejaVuSans-67" d="M 2906 1791 
Q 2906 2416 2648 2759 
Q 2391 3103 1925 3103 
Q 1463 3103 1205 2759 
Q 947 2416 947 1791 
Q 947 1169 1205 825 
Q 1463 481 1925 481 
Q 2391 481 2648 825 
Q 2906 1169 2906 1791 
z
M 3481 434 
Q 3481 -459 3084 -895 
Q 2688 -1331 1869 -1331 
Q 1566 -1331 1297 -1286 
Q 1028 -1241 775 -1147 
L 775 -588 
Q 1028 -725 1275 -790 
Q 1522 -856 1778 -856 
Q 2344 -856 2625 -561 
Q 2906 -266 2906 331 
L 2906 616 
Q 2728 306 2450 153 
Q 2172 0 1784 0 
Q 1141 0 747 490 
Q 353 981 353 1791 
Q 353 2603 747 3093 
Q 1141 3584 1784 3584 
Q 2172 3584 2450 3431 
Q 2728 3278 2906 2969 
L 2906 3500 
L 3481 3500 
L 3481 434 
z
" transform="scale(0.015625)"/>
       <path id="DejaVuSans-28" d="M 1984 4856 
Q 1566 4138 1362 3434 
Q 1159 2731 1159 2009 
Q 1159 1288 1364 580 
Q 1569 -128 1984 -844 
L 1484 -844 
Q 1016 -109 783 600 
Q 550 1309 550 2009 
Q 550 2706 781 3412 
Q 1013 4119 1484 4856 
L 1984 4856 
z
" transform="scale(0.015625)"/>
       <path id="DejaVuSans-61" d="M 2194 1759 
Q 1497 1759 1228 1600 
Q 959 1441 959 1056 
Q 959 750 1161 570 
Q 1363 391 1709 391 
Q 2188 391 2477 730 
Q 2766 1069 2766 1631 
L 2766 1759 
L 2194 1759 
z
M 3341 1997 
L 3341 0 
L 2766 0 
L 2766 531 
Q 2569 213 2275 61 
Q 1981 -91 1556 -91 
Q 1019 -91 701 211 
Q 384 513 384 1019 
Q 384 1609 779 1909 
Q 1175 2209 1959 2209 
L 2766 2209 
L 2766 2266 
Q 2766 2663 2505 2880 
Q 2244 3097 1772 3097 
Q 1472 3097 1187 3025 
Q 903 2953 641 2809 
L 641 3341 
Q 956 3463 1253 3523 
Q 1550 3584 1831 3584 
Q 2591 3584 2966 3190 
Q 3341 2797 3341 1997 
z
" transform="scale(0.015625)"/>
       <path id="DejaVuSans-6d" d="M 3328 2828 
Q 3544 3216 3844 3400 
Q 4144 3584 4550 3584 
Q 5097 3584 5394 3201 
Q 5691 2819 5691 2113 
L 5691 0 
L 5113 0 
L 5113 2094 
Q 5113 2597 4934 2840 
Q 4756 3084 4391 3084 
Q 3944 3084 3684 2787 
Q 3425 2491 3425 1978 
L 3425 0 
L 2847 0 
L 2847 2094 
Q 2847 2600 2669 2842 
Q 2491 3084 2119 3084 
Q 1678 3084 1418 2786 
Q 1159 2488 1159 1978 
L 1159 0 
L 581 0 
L 581 3500 
L 1159 3500 
L 1159 2956 
Q 1356 3278 1631 3431 
Q 1906 3584 2284 3584 
Q 2666 3584 2933 3390 
Q 3200 3197 3328 2828 
z
" transform="scale(0.015625)"/>
       <path id="DejaVuSans-69" d="M 603 3500 
L 1178 3500 
L 1178 0 
L 603 0 
L 603 3500 
z
M 603 4863 
L 1178 4863 
L 1178 4134 
L 603 4134 
L 603 4863 
z
" transform="scale(0.015625)"/>
       <path id="DejaVuSans-6e" d="M 3513 2113 
L 3513 0 
L 2938 0 
L 2938 2094 
Q 2938 2591 2744 2837 
Q 2550 3084 2163 3084 
Q 1697 3084 1428 2787 
Q 1159 2491 1159 1978 
L 1159 0 
L 581 0 
L 581 3500 
L 1159 3500 
L 1159 2956 
Q 1366 3272 1645 3428 
Q 1925 3584 2291 3584 
Q 2894 3584 3203 3211 
Q 3513 2838 3513 2113 
z
" transform="scale(0.015625)"/>
       <path id="DejaVuSans-20" transform="scale(0.015625)"/>
       <path id="DejaVuSans-63" d="M 3122 3366 
L 3122 2828 
Q 2878 2963 2633 3030 
Q 2388 3097 2138 3097 
Q 1578 3097 1268 2742 
Q 959 2388 959 1747 
Q 959 1106 1268 751 
Q 1578 397 2138 397 
Q 2388 397 2633 464 
Q 2878 531 3122 666 
L 3122 134 
Q 2881 22 2623 -34 
Q 2366 -91 2075 -91 
Q 1284 -91 818 406 
Q 353 903 353 1747 
Q 353 2603 823 3093 
Q 1294 3584 2113 3584 
Q 2378 3584 2631 3529 
Q 2884 3475 3122 3366 
z
" transform="scale(0.015625)"/>
       <path id="DejaVuSans-64" d="M 2906 2969 
L 2906 4863 
L 3481 4863 
L 3481 0 
L 2906 0 
L 2906 525 
Q 2725 213 2448 61 
Q 2172 -91 1784 -91 
Q 1150 -91 751 415 
Q 353 922 353 1747 
Q 353 2572 751 3078 
Q 1150 3584 1784 3584 
Q 2172 3584 2448 3432 
Q 2725 3281 2906 2969 
z
M 947 1747 
Q 947 1113 1208 752 
Q 1469 391 1925 391 
Q 2381 391 2643 752 
Q 2906 1113 2906 1747 
Q 2906 2381 2643 2742 
Q 2381 3103 1925 3103 
Q 1469 3103 1208 2742 
Q 947 2381 947 1747 
z
" transform="scale(0.015625)"/>
       <path id="DejaVuSans-73" d="M 2834 3397 
L 2834 2853 
Q 2591 2978 2328 3040 
Q 2066 3103 1784 3103 
Q 1356 3103 1142 2972 
Q 928 2841 928 2578 
Q 928 2378 1081 2264 
Q 1234 2150 1697 2047 
L 1894 2003 
Q 2506 1872 2764 1633 
Q 3022 1394 3022 966 
Q 3022 478 2636 193 
Q 2250 -91 1575 -91 
Q 1294 -91 989 -36 
Q 684 19 347 128 
L 347 722 
Q 666 556 975 473 
Q 1284 391 1588 391 
Q 1994 391 2212 530 
Q 2431 669 2431 922 
Q 2431 1156 2273 1281 
Q 2116 1406 1581 1522 
L 1381 1569 
Q 847 1681 609 1914 
Q 372 2147 372 2553 
Q 372 3047 722 3315 
Q 1072 3584 1716 3584 
Q 2034 3584 2315 3537 
Q 2597 3491 2834 3397 
z
" transform="scale(0.015625)"/>
       <path id="DejaVuSans-75" d="M 544 1381 
L 544 3500 
L 1119 3500 
L 1119 1403 
Q 1119 906 1312 657 
Q 1506 409 1894 409 
Q 2359 409 2629 706 
Q 2900 1003 2900 1516 
L 2900 3500 
L 3475 3500 
L 3475 0 
L 2900 0 
L 2900 538 
Q 2691 219 2414 64 
Q 2138 -91 1772 -91 
Q 1169 -91 856 284 
Q 544 659 544 1381 
z
M 1991 3584 
L 1991 3584 
z
" transform="scale(0.015625)"/>
       <path id="DejaVuSans-62" d="M 3116 1747 
Q 3116 2381 2855 2742 
Q 2594 3103 2138 3103 
Q 1681 3103 1420 2742 
Q 1159 2381 1159 1747 
Q 1159 1113 1420 752 
Q 1681 391 2138 391 
Q 2594 391 2855 752 
Q 3116 1113 3116 1747 
z
M 1159 2969 
Q 1341 3281 1617 3432 
Q 1894 3584 2278 3584 
Q 2916 3584 3314 3078 
Q 3713 2572 3713 1747 
Q 3713 922 3314 415 
Q 2916 -91 2278 -91 
Q 1894 -91 1617 61 
Q 1341 213 1159 525 
L 1159 0 
L 581 0 
L 581 4863 
L 1159 4863 
L 1159 2969 
z
" transform="scale(0.015625)"/>
       <path id="DejaVuSans-74" d="M 1172 4494 
L 1172 3500 
L 2356 3500 
L 2356 3053 
L 1172 3053 
L 1172 1153 
Q 1172 725 1289 603 
Q 1406 481 1766 481 
L 2356 481 
L 2356 0 
L 1766 0 
Q 1100 0 847 248 
Q 594 497 594 1153 
L 594 3053 
L 172 3053 
L 172 3500 
L 594 3500 
L 594 4494 
L 1172 4494 
z
" transform="scale(0.015625)"/>
       <path id="DejaVuSans-70" d="M 1159 525 
L 1159 -1331 
L 581 -1331 
L 581 3500 
L 1159 3500 
L 1159 2969 
Q 1341 3281 1617 3432 
Q 1894 3584 2278 3584 
Q 2916 3584 3314 3078 
Q 3713 2572 3713 1747 
Q 3713 922 3314 415 
Q 2916 -91 2278 -91 
Q 1894 -91 1617 61 
Q 1341 213 1159 525 
z
M 3116 1747 
Q 3116 2381 2855 2742 
Q 2594 3103 2138 3103 
Q 1681 3103 1420 2742 
Q 1159 2381 1159 1747 
Q 1159 1113 1420 752 
Q 1681 391 2138 391 
Q 2594 391 2855 752 
Q 3116 1113 3116 1747 
z
" transform="scale(0.015625)"/>
       <path id="DejaVuSans-72" d="M 2631 2963 
Q 2534 3019 2420 3045 
Q 2306 3072 2169 3072 
Q 1681 3072 1420 2755 
Q 1159 2438 1159 1844 
L 1159 0 
L 581 0 
L 581 3500 
L 1159 3500 
L 1159 2956 
Q 1341 3275 1631 3429 
Q 1922 3584 2338 3584 
Q 2397 3584 2469 3576 
Q 2541 3569 2628 3553 
L 2631 2963 
z
" transform="scale(0.015625)"/>
       <path id="DejaVuSans-79" d="M 2059 -325 
Q 1816 -950 1584 -1140 
Q 1353 -1331 966 -1331 
L 506 -1331 
L 506 -850 
L 844 -850 
Q 1081 -850 1212 -737 
Q 1344 -625 1503 -206 
L 1606 56 
L 191 3500 
L 800 3500 
L 1894 763 
L 2988 3500 
L 3597 3500 
L 2059 -325 
z
" transform="scale(0.015625)"/>
       <path id="DejaVuSans-29" d="M 513 4856 
L 1013 4856 
Q 1481 4119 1714 3412 
Q 1947 2706 1947 2009 
Q 1947 1309 1714 600 
Q 1481 -109 1013 -844 
L 513 -844 
Q 928 -128 1133 580 
Q 1338 1288 1338 2009 
Q 1338 2731 1133 3434 
Q 928 4138 513 4856 
z
" transform="scale(0.015625)"/>
      </defs>
      <use xlink:href="#DejaVuSans-6c" transform="translate(0 0.015625)"/>
      <use xlink:href="#DejaVuSans-6f" transform="translate(27.783203 0.015625)"/>
      <use xlink:href="#DejaVuSans-67" transform="translate(88.964844 0.015625)"/>
      <use xlink:href="#DejaVuSans-31" transform="translate(153.398438 -16.390625) scale(0.7)"/>
      <use xlink:href="#DejaVuSans-30" transform="translate(197.93457 -16.390625) scale(0.7)"/>
      <use xlink:href="#DejaVuSans-28" transform="translate(261.440754 0.015625)"/>
      <use xlink:href="#DejaVuSans-61" transform="translate(300.454426 0.015625)"/>
      <use xlink:href="#DejaVuSans-6d" transform="translate(361.733723 0.015625)"/>
      <use xlink:href="#DejaVuSans-69" transform="translate(459.145833 0.015625)"/>
      <use xlink:href="#DejaVuSans-6e" transform="translate(486.929036 0.015625)"/>
      <use xlink:href="#DejaVuSans-6f" transform="translate(550.307942 0.015625)"/>
      <use xlink:href="#DejaVuSans-20" transform="translate(611.489583 0.015625)"/>
      <use xlink:href="#DejaVuSans-61" transform="translate(643.276692 0.015625)"/>
      <use xlink:href="#DejaVuSans-63" transform="translate(704.555989 0.015625)"/>
      <use xlink:href="#DejaVuSans-69" transform="translate(759.536458 0.015625)"/>
      <use xlink:href="#DejaVuSans-64" transform="translate(787.319661 0.015625)"/>
      <use xlink:href="#DejaVuSans-20" transform="translate(850.796223 0.015625)"/>
      <use xlink:href="#DejaVuSans-73" transform="translate(882.583333 0.015625)"/>
      <use xlink:href="#DejaVuSans-75" transform="translate(934.682942 0.015625)"/>
      <use xlink:href="#DejaVuSans-62" transform="translate(998.061848 0.015625)"/>
      <use xlink:href="#DejaVuSans-73" transform="translate(1061.538411 0.015625)"/>
      <use xlink:href="#DejaVuSans-74" transform="translate(1113.63802 0.015625)"/>
      <use xlink:href="#DejaVuSans-69" transform="translate(1152.847004 0.015625)"/>
      <use xlink:href="#DejaVuSans-74" transform="translate(1180.630208 0.015625)"/>
      <use xlink:href="#DejaVuSans-75" transform="translate(1219.839192 0.015625)"/>
      <use xlink:href="#DejaVuSans-74" transform="translate(1283.218098 0.015625)"/>
      <use xlink:href="#DejaVuSans-69" transform="translate(1322.427083 0.015625)"/>
      <use xlink:href="#DejaVuSans-6f" transform="translate(1350.210286 0.015625)"/>
      <use xlink:href="#DejaVuSans-6e" transform="translate(1411.391926 0.015625)"/>
      <use xlink:href="#DejaVuSans-20" transform="translate(1474.770833 0.015625)"/>
      <use xlink:href="#DejaVuSans-70" transform="translate(1506.557942 0.015625)"/>
      <use xlink:href="#DejaVuSans-72" transform="translate(1570.034504 0.015625)"/>
      <use xlink:href="#DejaVuSans-6f" transform="translate(1611.147786 0.015625)"/>
      <use xlink:href="#DejaVuSans-62" transform="translate(1672.329426 0.015625)"/>
      <use xlink:href="#DejaVuSans-61" transform="translate(1735.805989 0.015625)"/>
      <use xlink:href="#DejaVuSans-62" transform="translate(1797.085286 0.015625)"/>
      <use xlink:href="#DejaVuSans-69" transform="translate(1860.561848 0.015625)"/>
      <use xlink:href="#DejaVuSans-6c" transform="translate(1888.345051 0.015625)"/>
      <use xlink:href="#DejaVuSans-69" transform="translate(1916.128254 0.015625)"/>
      <use xlink:href="#DejaVuSans-74" transform="translate(1943.911458 0.015625)"/>
      <use xlink:href="#DejaVuSans-79" transform="translate(1983.120442 0.015625)"/>
      <use xlink:href="#DejaVuSans-29" transform="translate(2042.300129 0.015625)"/>
     </g>
    </g>
   </g>
   <g id="matplotlib.axis_2">
    <g id="ytick_1">
     <g id="line2d_7">
      <defs>
       <path id="m77a9391da4" d="M 0 0 
L -3.5 0 
" style="stroke: #000000; stroke-width: 0.8"/>
      </defs>
      <g>
       <use xlink:href="#m77a9391da4" x="77.12" y="301.96" style="stroke: #000000; stroke-width: 0.8"/>
      </g>
     </g>
     <g id="text_8">
      <!-- 0 -->
      <g transform="translate(61.2125 307.278906) scale(0.14 -0.14)">
       <use xlink:href="#DejaVuSans-30"/>
      </g>
     </g>
    </g>
    <g id="ytick_2">
     <g id="line2d_8">
      <g>
       <use xlink:href="#m77a9391da4" x="77.12" y="267.951509" style="stroke: #000000; stroke-width: 0.8"/>
      </g>
     </g>
     <g id="text_9">
      <!-- 250 -->
      <g transform="translate(43.3975 273.270416) scale(0.14 -0.14)">
       <use xlink:href="#DejaVuSans-32"/>
       <use xlink:href="#DejaVuSans-35" x="63.623047"/>
       <use xlink:href="#DejaVuSans-30" x="127.246094"/>
      </g>
     </g>
    </g>
    <g id="ytick_3">
     <g id="line2d_9">
      <g>
       <use xlink:href="#m77a9391da4" x="77.12" y="233.943019" style="stroke: #000000; stroke-width: 0.8"/>
      </g>
     </g>
     <g id="text_10">
      <!-- 500 -->
      <g transform="translate(43.3975 239.261925) scale(0.14 -0.14)">
       <use xlink:href="#DejaVuSans-35"/>
       <use xlink:href="#DejaVuSans-30" x="63.623047"/>
       <use xlink:href="#DejaVuSans-30" x="127.246094"/>
      </g>
     </g>
    </g>
    <g id="ytick_4">
     <g id="line2d_10">
      <g>
       <use xlink:href="#m77a9391da4" x="77.12" y="199.934528" style="stroke: #000000; stroke-width: 0.8"/>
      </g>
     </g>
     <g id="text_11">
      <!-- 750 -->
      <g transform="translate(43.3975 205.253434) scale(0.14 -0.14)">
       <defs>
        <path id="DejaVuSans-37" d="M 525 4666 
L 3525 4666 
L 3525 4397 
L 1831 0 
L 1172 0 
L 2766 4134 
L 525 4134 
L 525 4666 
z
" transform="scale(0.015625)"/>
       </defs>
       <use xlink:href="#DejaVuSans-37"/>
       <use xlink:href="#DejaVuSans-35" x="63.623047"/>
       <use xlink:href="#DejaVuSans-30" x="127.246094"/>
      </g>
     </g>
    </g>
    <g id="ytick_5">
     <g id="line2d_11">
      <g>
       <use xlink:href="#m77a9391da4" x="77.12" y="165.926038" style="stroke: #000000; stroke-width: 0.8"/>
      </g>
     </g>
     <g id="text_12">
      <!-- 1000 -->
      <g transform="translate(34.49 171.244944) scale(0.14 -0.14)">
       <use xlink:href="#DejaVuSans-31"/>
       <use xlink:href="#DejaVuSans-30" x="63.623047"/>
       <use xlink:href="#DejaVuSans-30" x="127.246094"/>
       <use xlink:href="#DejaVuSans-30" x="190.869141"/>
      </g>
     </g>
    </g>
    <g id="ytick_6">
     <g id="line2d_12">
      <g>
       <use xlink:href="#m77a9391da4" x="77.12" y="131.917547" style="stroke: #000000; stroke-width: 0.8"/>
      </g>
     </g>
     <g id="text_13">
      <!-- 1250 -->
      <g transform="translate(34.49 137.236453) scale(0.14 -0.14)">
       <use xlink:href="#DejaVuSans-31"/>
       <use xlink:href="#DejaVuSans-32" x="63.623047"/>
       <use xlink:href="#DejaVuSans-35" x="127.246094"/>
       <use xlink:href="#DejaVuSans-30" x="190.869141"/>
      </g>
     </g>
    </g>
    <g id="ytick_7">
     <g id="line2d_13">
      <g>
       <use xlink:href="#m77a9391da4" x="77.12" y="97.909056" style="stroke: #000000; stroke-width: 0.8"/>
      </g>
     </g>
     <g id="text_14">
      <!-- 1500 -->
      <g transform="translate(34.49 103.227963) scale(0.14 -0.14)">
       <use xlink:href="#DejaVuSans-31"/>
       <use xlink:href="#DejaVuSans-35" x="63.623047"/>
       <use xlink:href="#DejaVuSans-30" x="127.246094"/>
       <use xlink:href="#DejaVuSans-30" x="190.869141"/>
      </g>
     </g>
    </g>
    <g id="ytick_8">
     <g id="line2d_14">
      <g>
       <use xlink:href="#m77a9391da4" x="77.12" y="63.900566" style="stroke: #000000; stroke-width: 0.8"/>
      </g>
     </g>
     <g id="text_15">
      <!-- 1750 -->
      <g transform="translate(34.49 69.219472) scale(0.14 -0.14)">
       <use xlink:href="#DejaVuSans-31"/>
       <use xlink:href="#DejaVuSans-37" x="63.623047"/>
       <use xlink:href="#DejaVuSans-35" x="127.246094"/>
       <use xlink:href="#DejaVuSans-30" x="190.869141"/>
      </g>
     </g>
    </g>
    <g id="text_16">
     <!-- number of mutations -->
     <g transform="translate(21.578437 242.839844) rotate(-90) scale(0.14 -0.14)">
      <defs>
       <path id="DejaVuSans-65" d="M 3597 1894 
L 3597 1613 
L 953 1613 
Q 991 1019 1311 708 
Q 1631 397 2203 397 
Q 2534 397 2845 478 
Q 3156 559 3463 722 
L 3463 178 
Q 3153 47 2828 -22 
Q 2503 -91 2169 -91 
Q 1331 -91 842 396 
Q 353 884 353 1716 
Q 353 2575 817 3079 
Q 1281 3584 2069 3584 
Q 2775 3584 3186 3129 
Q 3597 2675 3597 1894 
z
M 3022 2063 
Q 3016 2534 2758 2815 
Q 2500 3097 2075 3097 
Q 1594 3097 1305 2825 
Q 1016 2553 972 2059 
L 3022 2063 
z
" transform="scale(0.015625)"/>
       <path id="DejaVuSans-66" d="M 2375 4863 
L 2375 4384 
L 1825 4384 
Q 1516 4384 1395 4259 
Q 1275 4134 1275 3809 
L 1275 3500 
L 2222 3500 
L 2222 3053 
L 1275 3053 
L 1275 0 
L 697 0 
L 697 3053 
L 147 3053 
L 147 3500 
L 697 3500 
L 697 3744 
Q 697 4328 969 4595 
Q 1241 4863 1831 4863 
L 2375 4863 
z
" transform="scale(0.015625)"/>
      </defs>
      <use xlink:href="#DejaVuSans-6e"/>
      <use xlink:href="#DejaVuSans-75" x="63.378906"/>
      <use xlink:href="#DejaVuSans-6d" x="126.757812"/>
      <use xlink:href="#DejaVuSans-62" x="224.169922"/>
      <use xlink:href="#DejaVuSans-65" x="287.646484"/>
      <use xlink:href="#DejaVuSans-72" x="349.169922"/>
      <use xlink:href="#DejaVuSans-20" x="390.283203"/>
      <use xlink:href="#DejaVuSans-6f" x="422.070312"/>
      <use xlink:href="#DejaVuSans-66" x="483.251953"/>
      <use xlink:href="#DejaVuSans-20" x="518.457031"/>
      <use xlink:href="#DejaVuSans-6d" x="550.244141"/>
      <use xlink:href="#DejaVuSans-75" x="647.65625"/>
      <use xlink:href="#DejaVuSans-74" x="711.035156"/>
      <use xlink:href="#DejaVuSans-61" x="750.244141"/>
      <use xlink:href="#DejaVuSans-74" x="811.523438"/>
      <use xlink:href="#DejaVuSans-69" x="850.732422"/>
      <use xlink:href="#DejaVuSans-6f" x="878.515625"/>
      <use xlink:href="#DejaVuSans-6e" x="939.697266"/>
      <use xlink:href="#DejaVuSans-73" x="1003.076172"/>
     </g>
    </g>
   </g>
   <g id="line2d_15">
    <path d="M 115.924 301.96 
L 122.979273 301.96 
L 130.034545 301.96 
L 137.089818 301.96 
L 144.145091 301.96 
L 151.200364 301.96 
L 158.255636 301.96 
L 165.310909 301.96 
L 172.366182 301.96 
L 179.421455 301.96 
L 186.476727 301.96 
L 193.532 301.96 
L 200.587273 301.96 
L 207.642545 301.96 
L 214.697818 301.96 
L 221.753091 301.96 
L 228.808364 301.96 
L 235.863636 301.96 
L 242.918909 301.823966 
L 249.974182 301.96 
L 257.029455 301.687932 
L 264.084727 301.96 
L 271.14 301.823966 
L 278.195273 301.415864 
L 285.250545 301.687932 
L 292.305818 301.823966 
L 299.361091 301.96 
L 306.416364 301.687932 
L 313.471636 301.415864 
L 320.526909 301.415864 
L 327.582182 301.551898 
L 334.637455 301.415864 
L 341.692727 301.415864 
L 348.748 301.27983 
L 355.803273 301.143796 
L 362.858545 301.415864 
L 369.913818 300.735694 
L 376.969091 301.143796 
L 384.024364 299.919491 
L 391.079636 300.055525 
L 398.134909 300.735694 
L 405.190182 299.783457 
L 412.245455 297.878981 
L 419.300727 298.287083 
L 426.356 297.742947 
L 433.411273 298.423117 
L 440.466545 297.878981 
L 447.521818 295.838472 
L 454.577091 294.886234 
L 461.632364 294.206064 
L 468.687636 291.485385 
L 475.742909 292.165555 
L 482.798182 289.989011 
L 489.853455 286.996264 
L 496.908727 287.676434 
L 503.964 284.003517 
L 511.019273 282.915245 
L 518.074545 280.466634 
L 525.129818 280.194566 
L 532.185091 278.290091 
L 539.240364 271.352358 
L 546.295636 270.808223 
L 553.350909 270.808223 
L 560.406182 260.741709 
L 567.461455 263.190321 
L 574.516727 259.38137 
L 581.572 252.579672 
L 588.627273 245.369872 
L 595.682545 243.465396 
L 602.737818 234.079053 
L 609.793091 231.086306 
L 616.848364 218.435147 
L 623.903636 214.08206 
L 630.958909 200.750732 
L 638.014182 192.588694 
L 645.069455 175.584449 
L 652.124727 163.749494 
L 659.18 145.520943 
L 666.235273 143.480434 
L 673.290545 118.722253 
L 680.345818 104.982822 
L 687.401091 103.078347 
L 694.456364 77.09586 
L 701.511636 74.375181 
L 708.566909 59.411445 
L 715.622182 48.664762 
L 722.677455 48.93683 
L 729.732727 51.929577 
L 736.788 50.161135 
L 743.843273 59.955581 
L 750.898545 59.955581 
L 757.953818 83.62549 
L 765.009091 101.718007 
L 772.064364 119.402422 
L 779.119636 144.432671 
L 786.174909 169.190853 
L 793.230182 201.158834 
L 800.285455 233.943019 
L 807.340727 264.822728 
L 814.396 272.168562 
" clip-path="url(#pd0451a1883)" style="fill: none"/>
    <defs>
     <path id="m4ea4b7973f" d="M 0 2 
C 0.530406 2 1.03916 1.789267 1.414214 1.414214 
C 1.789267 1.03916 2 0.530406 2 0 
C 2 -0.530406 1.789267 -1.03916 1.414214 -1.414214 
C 1.03916 -1.789267 0.530406 -2 0 -2 
C -0.530406 -2 -1.03916 -1.789267 -1.414214 -1.414214 
C -1.789267 -1.03916 -2 -0.530406 -2 0 
C -2 0.530406 -1.789267 1.03916 -1.414214 1.414214 
C -1.03916 1.789267 -0.530406 2 0 2 
z
" style="stroke: #000000"/>
    </defs>
    <g clip-path="url(#pd0451a1883)">
     <use xlink:href="#m4ea4b7973f" x="115.924" y="301.96" style="stroke: #000000"/>
     <use xlink:href="#m4ea4b7973f" x="122.979273" y="301.96" style="stroke: #000000"/>
     <use xlink:href="#m4ea4b7973f" x="130.034545" y="301.96" style="stroke: #000000"/>
     <use xlink:href="#m4ea4b7973f" x="137.089818" y="301.96" style="stroke: #000000"/>
     <use xlink:href="#m4ea4b7973f" x="144.145091" y="301.96" style="stroke: #000000"/>
     <use xlink:href="#m4ea4b7973f" x="151.200364" y="301.96" style="stroke: #000000"/>
     <use xlink:href="#m4ea4b7973f" x="158.255636" y="301.96" style="stroke: #000000"/>
     <use xlink:href="#m4ea4b7973f" x="165.310909" y="301.96" style="stroke: #000000"/>
     <use xlink:href="#m4ea4b7973f" x="172.366182" y="301.96" style="stroke: #000000"/>
     <use xlink:href="#m4ea4b7973f" x="179.421455" y="301.96" style="stroke: #000000"/>
     <use xlink:href="#m4ea4b7973f" x="186.476727" y="301.96" style="stroke: #000000"/>
     <use xlink:href="#m4ea4b7973f" x="193.532" y="301.96" style="stroke: #000000"/>
     <use xlink:href="#m4ea4b7973f" x="200.587273" y="301.96" style="stroke: #000000"/>
     <use xlink:href="#m4ea4b7973f" x="207.642545" y="301.96" style="stroke: #000000"/>
     <use xlink:href="#m4ea4b7973f" x="214.697818" y="301.96" style="stroke: #000000"/>
     <use xlink:href="#m4ea4b7973f" x="221.753091" y="301.96" style="stroke: #000000"/>
     <use xlink:href="#m4ea4b7973f" x="228.808364" y="301.96" style="stroke: #000000"/>
     <use xlink:href="#m4ea4b7973f" x="235.863636" y="301.96" style="stroke: #000000"/>
     <use xlink:href="#m4ea4b7973f" x="242.918909" y="301.823966" style="stroke: #000000"/>
     <use xlink:href="#m4ea4b7973f" x="249.974182" y="301.96" style="stroke: #000000"/>
     <use xlink:href="#m4ea4b7973f" x="257.029455" y="301.687932" style="stroke: #000000"/>
     <use xlink:href="#m4ea4b7973f" x="264.084727" y="301.96" style="stroke: #000000"/>
     <use xlink:href="#m4ea4b7973f" x="271.14" y="301.823966" style="stroke: #000000"/>
     <use xlink:href="#m4ea4b7973f" x="278.195273" y="301.415864" style="stroke: #000000"/>
     <use xlink:href="#m4ea4b7973f" x="285.250545" y="301.687932" style="stroke: #000000"/>
     <use xlink:href="#m4ea4b7973f" x="292.305818" y="301.823966" style="stroke: #000000"/>
     <use xlink:href="#m4ea4b7973f" x="299.361091" y="301.96" style="stroke: #000000"/>
     <use xlink:href="#m4ea4b7973f" x="306.416364" y="301.687932" style="stroke: #000000"/>
     <use xlink:href="#m4ea4b7973f" x="313.471636" y="301.415864" style="stroke: #000000"/>
     <use xlink:href="#m4ea4b7973f" x="320.526909" y="301.415864" style="stroke: #000000"/>
     <use xlink:href="#m4ea4b7973f" x="327.582182" y="301.551898" style="stroke: #000000"/>
     <use xlink:href="#m4ea4b7973f" x="334.637455" y="301.415864" style="stroke: #000000"/>
     <use xlink:href="#m4ea4b7973f" x="341.692727" y="301.415864" style="stroke: #000000"/>
     <use xlink:href="#m4ea4b7973f" x="348.748" y="301.27983" style="stroke: #000000"/>
     <use xlink:href="#m4ea4b7973f" x="355.803273" y="301.143796" style="stroke: #000000"/>
     <use xlink:href="#m4ea4b7973f" x="362.858545" y="301.415864" style="stroke: #000000"/>
     <use xlink:href="#m4ea4b7973f" x="369.913818" y="300.735694" style="stroke: #000000"/>
     <use xlink:href="#m4ea4b7973f" x="376.969091" y="301.143796" style="stroke: #000000"/>
     <use xlink:href="#m4ea4b7973f" x="384.024364" y="299.919491" style="stroke: #000000"/>
     <use xlink:href="#m4ea4b7973f" x="391.079636" y="300.055525" style="stroke: #000000"/>
     <use xlink:href="#m4ea4b7973f" x="398.134909" y="300.735694" style="stroke: #000000"/>
     <use xlink:href="#m4ea4b7973f" x="405.190182" y="299.783457" style="stroke: #000000"/>
     <use xlink:href="#m4ea4b7973f" x="412.245455" y="297.878981" style="stroke: #000000"/>
     <use xlink:href="#m4ea4b7973f" x="419.300727" y="298.287083" style="stroke: #000000"/>
     <use xlink:href="#m4ea4b7973f" x="426.356" y="297.742947" style="stroke: #000000"/>
     <use xlink:href="#m4ea4b7973f" x="433.411273" y="298.423117" style="stroke: #000000"/>
     <use xlink:href="#m4ea4b7973f" x="440.466545" y="297.878981" style="stroke: #000000"/>
     <use xlink:href="#m4ea4b7973f" x="447.521818" y="295.838472" style="stroke: #000000"/>
     <use xlink:href="#m4ea4b7973f" x="454.577091" y="294.886234" style="stroke: #000000"/>
     <use xlink:href="#m4ea4b7973f" x="461.632364" y="294.206064" style="stroke: #000000"/>
     <use xlink:href="#m4ea4b7973f" x="468.687636" y="291.485385" style="stroke: #000000"/>
     <use xlink:href="#m4ea4b7973f" x="475.742909" y="292.165555" style="stroke: #000000"/>
     <use xlink:href="#m4ea4b7973f" x="482.798182" y="289.989011" style="stroke: #000000"/>
     <use xlink:href="#m4ea4b7973f" x="489.853455" y="286.996264" style="stroke: #000000"/>
     <use xlink:href="#m4ea4b7973f" x="496.908727" y="287.676434" style="stroke: #000000"/>
     <use xlink:href="#m4ea4b7973f" x="503.964" y="284.003517" style="stroke: #000000"/>
     <use xlink:href="#m4ea4b7973f" x="511.019273" y="282.915245" style="stroke: #000000"/>
     <use xlink:href="#m4ea4b7973f" x="518.074545" y="280.466634" style="stroke: #000000"/>
     <use xlink:href="#m4ea4b7973f" x="525.129818" y="280.194566" style="stroke: #000000"/>
     <use xlink:href="#m4ea4b7973f" x="532.185091" y="278.290091" style="stroke: #000000"/>
     <use xlink:href="#m4ea4b7973f" x="539.240364" y="271.352358" style="stroke: #000000"/>
     <use xlink:href="#m4ea4b7973f" x="546.295636" y="270.808223" style="stroke: #000000"/>
     <use xlink:href="#m4ea4b7973f" x="553.350909" y="270.808223" style="stroke: #000000"/>
     <use xlink:href="#m4ea4b7973f" x="560.406182" y="260.741709" style="stroke: #000000"/>
     <use xlink:href="#m4ea4b7973f" x="567.461455" y="263.190321" style="stroke: #000000"/>
     <use xlink:href="#m4ea4b7973f" x="574.516727" y="259.38137" style="stroke: #000000"/>
     <use xlink:href="#m4ea4b7973f" x="581.572" y="252.579672" style="stroke: #000000"/>
     <use xlink:href="#m4ea4b7973f" x="588.627273" y="245.369872" style="stroke: #000000"/>
     <use xlink:href="#m4ea4b7973f" x="595.682545" y="243.465396" style="stroke: #000000"/>
     <use xlink:href="#m4ea4b7973f" x="602.737818" y="234.079053" style="stroke: #000000"/>
     <use xlink:href="#m4ea4b7973f" x="609.793091" y="231.086306" style="stroke: #000000"/>
     <use xlink:href="#m4ea4b7973f" x="616.848364" y="218.435147" style="stroke: #000000"/>
     <use xlink:href="#m4ea4b7973f" x="623.903636" y="214.08206" style="stroke: #000000"/>
     <use xlink:href="#m4ea4b7973f" x="630.958909" y="200.750732" style="stroke: #000000"/>
     <use xlink:href="#m4ea4b7973f" x="638.014182" y="192.588694" style="stroke: #000000"/>
     <use xlink:href="#m4ea4b7973f" x="645.069455" y="175.584449" style="stroke: #000000"/>
     <use xlink:href="#m4ea4b7973f" x="652.124727" y="163.749494" style="stroke: #000000"/>
     <use xlink:href="#m4ea4b7973f" x="659.18" y="145.520943" style="stroke: #000000"/>
     <use xlink:href="#m4ea4b7973f" x="666.235273" y="143.480434" style="stroke: #000000"/>
     <use xlink:href="#m4ea4b7973f" x="673.290545" y="118.722253" style="stroke: #000000"/>
     <use xlink:href="#m4ea4b7973f" x="680.345818" y="104.982822" style="stroke: #000000"/>
     <use xlink:href="#m4ea4b7973f" x="687.401091" y="103.078347" style="stroke: #000000"/>
     <use xlink:href="#m4ea4b7973f" x="694.456364" y="77.09586" style="stroke: #000000"/>
     <use xlink:href="#m4ea4b7973f" x="701.511636" y="74.375181" style="stroke: #000000"/>
     <use xlink:href="#m4ea4b7973f" x="708.566909" y="59.411445" style="stroke: #000000"/>
     <use xlink:href="#m4ea4b7973f" x="715.622182" y="48.664762" style="stroke: #000000"/>
     <use xlink:href="#m4ea4b7973f" x="722.677455" y="48.93683" style="stroke: #000000"/>
     <use xlink:href="#m4ea4b7973f" x="729.732727" y="51.929577" style="stroke: #000000"/>
     <use xlink:href="#m4ea4b7973f" x="736.788" y="50.161135" style="stroke: #000000"/>
     <use xlink:href="#m4ea4b7973f" x="743.843273" y="59.955581" style="stroke: #000000"/>
     <use xlink:href="#m4ea4b7973f" x="750.898545" y="59.955581" style="stroke: #000000"/>
     <use xlink:href="#m4ea4b7973f" x="757.953818" y="83.62549" style="stroke: #000000"/>
     <use xlink:href="#m4ea4b7973f" x="765.009091" y="101.718007" style="stroke: #000000"/>
     <use xlink:href="#m4ea4b7973f" x="772.064364" y="119.402422" style="stroke: #000000"/>
     <use xlink:href="#m4ea4b7973f" x="779.119636" y="144.432671" style="stroke: #000000"/>
     <use xlink:href="#m4ea4b7973f" x="786.174909" y="169.190853" style="stroke: #000000"/>
     <use xlink:href="#m4ea4b7973f" x="793.230182" y="201.158834" style="stroke: #000000"/>
     <use xlink:href="#m4ea4b7973f" x="800.285455" y="233.943019" style="stroke: #000000"/>
     <use xlink:href="#m4ea4b7973f" x="807.340727" y="264.822728" style="stroke: #000000"/>
     <use xlink:href="#m4ea4b7973f" x="814.396" y="272.168562" style="stroke: #000000"/>
    </g>
   </g>
   <g id="patch_103">
    <path d="M 77.12 301.96 
L 77.12 36 
" style="fill: none; stroke: #000000; stroke-width: 0.8; stroke-linejoin: miter; stroke-linecap: square"/>
   </g>
   <g id="patch_104">
    <path d="M 853.2 301.96 
L 853.2 36 
" style="fill: none; stroke: #000000; stroke-width: 0.8; stroke-linejoin: miter; stroke-linecap: square"/>
   </g>
   <g id="patch_105">
    <path d="M 77.12 301.96 
L 853.2 301.96 
" style="fill: none; stroke: #000000; stroke-width: 0.8; stroke-linejoin: miter; stroke-linecap: square"/>
   </g>
   <g id="patch_106">
    <path d="M 77.12 36 
L 853.2 36 
" style="fill: none; stroke: #000000; stroke-width: 0.8; stroke-linejoin: miter; stroke-linecap: square"/>
   </g>
   <g id="legend_1">
    <g id="patch_107">
     <path d="M 87.62 92.034375 
L 207.791094 92.034375 
Q 210.791094 92.034375 210.791094 89.034375 
L 210.791094 46.5 
Q 210.791094 43.5 207.791094 43.5 
L 87.62 43.5 
Q 84.62 43.5 84.62 46.5 
L 84.62 89.034375 
Q 84.62 92.034375 87.62 92.034375 
z
" style="fill: #ffffff; opacity: 0.8; stroke: #cccccc; stroke-linejoin: miter"/>
    </g>
    <g id="patch_108">
     <path d="M 90.62 60.897656 
L 120.62 60.897656 
L 120.62 50.397656 
L 90.62 50.397656 
z
" style="fill: #ffffff; stroke: #0072b2; stroke-linejoin: miter"/>
    </g>
    <g id="text_17">
     <!-- Expected -->
     <g transform="translate(132.62 60.897656) scale(0.15 -0.15)">
      <defs>
       <path id="DejaVuSans-45" d="M 628 4666 
L 3578 4666 
L 3578 4134 
L 1259 4134 
L 1259 2753 
L 3481 2753 
L 3481 2222 
L 1259 2222 
L 1259 531 
L 3634 531 
L 3634 0 
L 628 0 
L 628 4666 
z
" transform="scale(0.015625)"/>
       <path id="DejaVuSans-78" d="M 3513 3500 
L 2247 1797 
L 3578 0 
L 2900 0 
L 1881 1375 
L 863 0 
L 184 0 
L 1544 1831 
L 300 3500 
L 978 3500 
L 1906 2253 
L 2834 3500 
L 3513 3500 
z
" transform="scale(0.015625)"/>
      </defs>
      <use xlink:href="#DejaVuSans-45"/>
      <use xlink:href="#DejaVuSans-78" x="63.183594"/>
      <use xlink:href="#DejaVuSans-70" x="122.363281"/>
      <use xlink:href="#DejaVuSans-65" x="185.839844"/>
      <use xlink:href="#DejaVuSans-63" x="247.363281"/>
      <use xlink:href="#DejaVuSans-74" x="302.34375"/>
      <use xlink:href="#DejaVuSans-65" x="341.552734"/>
      <use xlink:href="#DejaVuSans-64" x="403.076172"/>
     </g>
    </g>
    <g id="line2d_16">
     <path d="M 90.62 77.664844 
L 105.62 77.664844 
L 120.62 77.664844 
" style="fill: none"/>
     <g>
      <use xlink:href="#m4ea4b7973f" x="105.62" y="77.664844" style="stroke: #000000"/>
     </g>
    </g>
    <g id="text_18">
     <!-- Observed -->
     <g transform="translate(132.62 82.914844) scale(0.15 -0.15)">
      <defs>
       <path id="DejaVuSans-4f" d="M 2522 4238 
Q 1834 4238 1429 3725 
Q 1025 3213 1025 2328 
Q 1025 1447 1429 934 
Q 1834 422 2522 422 
Q 3209 422 3611 934 
Q 4013 1447 4013 2328 
Q 4013 3213 3611 3725 
Q 3209 4238 2522 4238 
z
M 2522 4750 
Q 3503 4750 4090 4092 
Q 4678 3434 4678 2328 
Q 4678 1225 4090 567 
Q 3503 -91 2522 -91 
Q 1538 -91 948 565 
Q 359 1222 359 2328 
Q 359 3434 948 4092 
Q 1538 4750 2522 4750 
z
" transform="scale(0.015625)"/>
       <path id="DejaVuSans-76" d="M 191 3500 
L 800 3500 
L 1894 563 
L 2988 3500 
L 3597 3500 
L 2284 0 
L 1503 0 
L 191 3500 
z
" transform="scale(0.015625)"/>
      </defs>
      <use xlink:href="#DejaVuSans-4f"/>
      <use xlink:href="#DejaVuSans-62" x="78.710938"/>
      <use xlink:href="#DejaVuSans-73" x="142.1875"/>
      <use xlink:href="#DejaVuSans-65" x="194.287109"/>
      <use xlink:href="#DejaVuSans-72" x="255.810547"/>
      <use xlink:href="#DejaVuSans-76" x="296.923828"/>
      <use xlink:href="#DejaVuSans-65" x="356.103516"/>
      <use xlink:href="#DejaVuSans-64" x="417.626953"/>
     </g>
    </g>
   </g>
  </g>
  <g id="text_19">
   <!-- 1m-+2 on tang250 sampled 10k; overlap=0.975, residual=0.00738 -->
   <g transform="translate(160.4125 19.3575) scale(0.16 -0.16)">
    <defs>
     <path id="DejaVuSans-2d" d="M 313 2009 
L 1997 2009 
L 1997 1497 
L 313 1497 
L 313 2009 
z
" transform="scale(0.015625)"/>
     <path id="DejaVuSans-2b" d="M 2944 4013 
L 2944 2272 
L 4684 2272 
L 4684 1741 
L 2944 1741 
L 2944 0 
L 2419 0 
L 2419 1741 
L 678 1741 
L 678 2272 
L 2419 2272 
L 2419 4013 
L 2944 4013 
z
" transform="scale(0.015625)"/>
     <path id="DejaVuSans-6b" d="M 581 4863 
L 1159 4863 
L 1159 1991 
L 2875 3500 
L 3609 3500 
L 1753 1863 
L 3688 0 
L 2938 0 
L 1159 1709 
L 1159 0 
L 581 0 
L 581 4863 
z
" transform="scale(0.015625)"/>
     <path id="DejaVuSans-3b" d="M 750 3309 
L 1409 3309 
L 1409 2516 
L 750 2516 
L 750 3309 
z
M 750 794 
L 1409 794 
L 1409 256 
L 897 -744 
L 494 -744 
L 750 256 
L 750 794 
z
" transform="scale(0.015625)"/>
     <path id="DejaVuSans-3d" d="M 678 2906 
L 4684 2906 
L 4684 2381 
L 678 2381 
L 678 2906 
z
M 678 1631 
L 4684 1631 
L 4684 1100 
L 678 1100 
L 678 1631 
z
" transform="scale(0.015625)"/>
     <path id="DejaVuSans-2e" d="M 684 794 
L 1344 794 
L 1344 0 
L 684 0 
L 684 794 
z
" transform="scale(0.015625)"/>
     <path id="DejaVuSans-39" d="M 703 97 
L 703 672 
Q 941 559 1184 500 
Q 1428 441 1663 441 
Q 2288 441 2617 861 
Q 2947 1281 2994 2138 
Q 2813 1869 2534 1725 
Q 2256 1581 1919 1581 
Q 1219 1581 811 2004 
Q 403 2428 403 3163 
Q 403 3881 828 4315 
Q 1253 4750 1959 4750 
Q 2769 4750 3195 4129 
Q 3622 3509 3622 2328 
Q 3622 1225 3098 567 
Q 2575 -91 1691 -91 
Q 1453 -91 1209 -44 
Q 966 3 703 97 
z
M 1959 2075 
Q 2384 2075 2632 2365 
Q 2881 2656 2881 3163 
Q 2881 3666 2632 3958 
Q 2384 4250 1959 4250 
Q 1534 4250 1286 3958 
Q 1038 3666 1038 3163 
Q 1038 2656 1286 2365 
Q 1534 2075 1959 2075 
z
" transform="scale(0.015625)"/>
     <path id="DejaVuSans-2c" d="M 750 794 
L 1409 794 
L 1409 256 
L 897 -744 
L 494 -744 
L 750 256 
L 750 794 
z
" transform="scale(0.015625)"/>
     <path id="DejaVuSans-38" d="M 2034 2216 
Q 1584 2216 1326 1975 
Q 1069 1734 1069 1313 
Q 1069 891 1326 650 
Q 1584 409 2034 409 
Q 2484 409 2743 651 
Q 3003 894 3003 1313 
Q 3003 1734 2745 1975 
Q 2488 2216 2034 2216 
z
M 1403 2484 
Q 997 2584 770 2862 
Q 544 3141 544 3541 
Q 544 4100 942 4425 
Q 1341 4750 2034 4750 
Q 2731 4750 3128 4425 
Q 3525 4100 3525 3541 
Q 3525 3141 3298 2862 
Q 3072 2584 2669 2484 
Q 3125 2378 3379 2068 
Q 3634 1759 3634 1313 
Q 3634 634 3220 271 
Q 2806 -91 2034 -91 
Q 1263 -91 848 271 
Q 434 634 434 1313 
Q 434 1759 690 2068 
Q 947 2378 1403 2484 
z
M 1172 3481 
Q 1172 3119 1398 2916 
Q 1625 2713 2034 2713 
Q 2441 2713 2670 2916 
Q 2900 3119 2900 3481 
Q 2900 3844 2670 4047 
Q 2441 4250 2034 4250 
Q 1625 4250 1398 4047 
Q 1172 3844 1172 3481 
z
" transform="scale(0.015625)"/>
    </defs>
    <use xlink:href="#DejaVuSans-31"/>
    <use xlink:href="#DejaVuSans-6d" x="63.623047"/>
    <use xlink:href="#DejaVuSans-2d" x="161.035156"/>
    <use xlink:href="#DejaVuSans-2b" x="197.119141"/>
    <use xlink:href="#DejaVuSans-32" x="280.908203"/>
    <use xlink:href="#DejaVuSans-20" x="344.53125"/>
    <use xlink:href="#DejaVuSans-6f" x="376.318359"/>
    <use xlink:href="#DejaVuSans-6e" x="437.5"/>
    <use xlink:href="#DejaVuSans-20" x="500.878906"/>
    <use xlink:href="#DejaVuSans-74" x="532.666016"/>
    <use xlink:href="#DejaVuSans-61" x="571.875"/>
    <use xlink:href="#DejaVuSans-6e" x="633.154297"/>
    <use xlink:href="#DejaVuSans-67" x="696.533203"/>
    <use xlink:href="#DejaVuSans-32" x="760.009766"/>
    <use xlink:href="#DejaVuSans-35" x="823.632812"/>
    <use xlink:href="#DejaVuSans-30" x="887.255859"/>
    <use xlink:href="#DejaVuSans-20" x="950.878906"/>
    <use xlink:href="#DejaVuSans-73" x="982.666016"/>
    <use xlink:href="#DejaVuSans-61" x="1034.765625"/>
    <use xlink:href="#DejaVuSans-6d" x="1096.044922"/>
    <use xlink:href="#DejaVuSans-70" x="1193.457031"/>
    <use xlink:href="#DejaVuSans-6c" x="1256.933594"/>
    <use xlink:href="#DejaVuSans-65" x="1284.716797"/>
    <use xlink:href="#DejaVuSans-64" x="1346.240234"/>
    <use xlink:href="#DejaVuSans-20" x="1409.716797"/>
    <use xlink:href="#DejaVuSans-31" x="1441.503906"/>
    <use xlink:href="#DejaVuSans-30" x="1505.126953"/>
    <use xlink:href="#DejaVuSans-6b" x="1568.75"/>
    <use xlink:href="#DejaVuSans-3b" x="1626.660156"/>
    <use xlink:href="#DejaVuSans-20" x="1660.351562"/>
    <use xlink:href="#DejaVuSans-6f" x="1692.138672"/>
    <use xlink:href="#DejaVuSans-76" x="1753.320312"/>
    <use xlink:href="#DejaVuSans-65" x="1812.5"/>
    <use xlink:href="#DejaVuSans-72" x="1874.023438"/>
    <use xlink:href="#DejaVuSans-6c" x="1915.136719"/>
    <use xlink:href="#DejaVuSans-61" x="1942.919922"/>
    <use xlink:href="#DejaVuSans-70" x="2004.199219"/>
    <use xlink:href="#DejaVuSans-3d" x="2067.675781"/>
    <use xlink:href="#DejaVuSans-30" x="2151.464844"/>
    <use xlink:href="#DejaVuSans-2e" x="2215.087891"/>
    <use xlink:href="#DejaVuSans-39" x="2246.875"/>
    <use xlink:href="#DejaVuSans-37" x="2310.498047"/>
    <use xlink:href="#DejaVuSans-35" x="2374.121094"/>
    <use xlink:href="#DejaVuSans-2c" x="2437.744141"/>
    <use xlink:href="#DejaVuSans-20" x="2469.53125"/>
    <use xlink:href="#DejaVuSans-72" x="2501.318359"/>
    <use xlink:href="#DejaVuSans-65" x="2540.181641"/>
    <use xlink:href="#DejaVuSans-73" x="2601.705078"/>
    <use xlink:href="#DejaVuSans-69" x="2653.804688"/>
    <use xlink:href="#DejaVuSans-64" x="2681.587891"/>
    <use xlink:href="#DejaVuSans-75" x="2745.064453"/>
    <use xlink:href="#DejaVuSans-61" x="2808.443359"/>
    <use xlink:href="#DejaVuSans-6c" x="2869.722656"/>
    <use xlink:href="#DejaVuSans-3d" x="2897.505859"/>
    <use xlink:href="#DejaVuSans-30" x="2981.294922"/>
    <use xlink:href="#DejaVuSans-2e" x="3044.917969"/>
    <use xlink:href="#DejaVuSans-30" x="3076.705078"/>
    <use xlink:href="#DejaVuSans-30" x="3140.328125"/>
    <use xlink:href="#DejaVuSans-37" x="3203.951172"/>
    <use xlink:href="#DejaVuSans-33" x="3267.574219"/>
    <use xlink:href="#DejaVuSans-38" x="3331.197266"/>
   </g>
  </g>
 </g>
 <defs>
  <clipPath id="pd0451a1883">
   <rect x="77.12" y="36" width="776.08" height="265.96"/>
  </clipPath>
 </defs>
 <defs>
  <pattern id="h4fa8a0e51b" patternUnits="userSpaceOnUse" x="0" y="0" width="72" height="72">
   <rect x="0" y="0" width="73" height="73" fill="none"/>
   <path d="M -36 36 
L 36 -36 
M -34 38 
L 38 -34 
M -32 40 
L 40 -32 
M -30 42 
L 42 -30 
M -28 44 
L 44 -28 
M -26 46 
L 46 -26 
M -24 48 
L 48 -24 
M -22 50 
L 50 -22 
M -20 52 
L 52 -20 
M -18 54 
L 54 -18 
M -16 56 
L 56 -16 
M -14 58 
L 58 -14 
M -12 60 
L 60 -12 
M -10 62 
L 62 -10 
M -8 64 
L 64 -8 
M -6 66 
L 66 -6 
M -4 68 
L 68 -4 
M -2 70 
L 70 -2 
M 0 72 
L 72 0 
M 2 74 
L 74 2 
M 4 76 
L 76 4 
M 6 78 
L 78 6 
M 8 80 
L 80 8 
M 10 82 
L 82 10 
M 12 84 
L 84 12 
M 14 86 
L 86 14 
M 16 88 
L 88 16 
M 18 90 
L 90 18 
M 20 92 
L 92 20 
M 22 94 
L 94 22 
M 24 96 
L 96 24 
M 26 98 
L 98 26 
M 28 100 
L 100 28 
M 30 102 
L 102 30 
M 32 104 
L 104 32 
M 34 106 
L 106 34 
M 36 108 
L 108 36 
" style="fill: #808080; stroke: #808080; stroke-width: 1.0; stroke-linecap: butt; stroke-linejoin: miter"/>
  </pattern>
 </defs>
</svg>
