<?xml version="1.0" encoding="utf-8" standalone="no"?>
<!DOCTYPE svg PUBLIC "-//W3C//DTD SVG 1.1//EN"
  "http://www.w3.org/Graphics/SVG/1.1/DTD/svg11.dtd">
<svg xmlns:xlink="http://www.w3.org/1999/xlink" width="864pt" height="360pt" viewBox="0 0 864 360" xmlns="http://www.w3.org/2000/svg" version="1.1">
 <metadata>
  <rdf:RDF xmlns:dc="http://purl.org/dc/elements/1.1/" xmlns:cc="http://creativecommons.org/ns#" xmlns:rdf="http://www.w3.org/1999/02/22-rdf-syntax-ns#">
   <cc:Work>
    <dc:type rdf:resource="http://purl.org/dc/dcmitype/StillImage"/>
    <dc:date>2024-06-15T03:45:07.710505</dc:date>
    <dc:format>image/svg+xml</dc:format>
    <dc:creator>
     <cc:Agent>
      <dc:title>Matplotlib v3.9.0, https://matplotlib.org/</dc:title>
     </cc:Agent>
    </dc:creator>
   </cc:Work>
  </rdf:RDF>
 </metadata>
 <defs>
  <style type="text/css">*{stroke-linejoin: round; stroke-linecap: butt}</style>
 </defs>
 <g id="figure_1">
  <g id="patch_1">
   <path d="M 0 360 
L 864 360 
L 864 0 
L 0 0 
z
" style="fill: #ffffff"/>
  </g>
  <g id="axes_1">
   <g id="patch_2">
    <path d="M 77.03 301.96 
L 853.2 301.96 
L 853.2 36 
L 77.03 36 
z
" style="fill: #ffffff"/>
   </g>
   <g id="patch_3">
    <path d="M 112.310455 301.96 
L 119.366545 301.96 
L 119.366545 301.96 
L 112.310455 301.96 
z
" clip-path="url(#p37848ed0bc)" style="fill: #ffffff; stroke: #0072b2; stroke-linejoin: miter"/>
   </g>
   <g id="patch_4">
    <path d="M 119.366545 301.96 
L 126.422636 301.96 
L 126.422636 301.96 
L 119.366545 301.96 
z
" clip-path="url(#p37848ed0bc)" style="fill: #ffffff; stroke: #0072b2; stroke-linejoin: miter"/>
   </g>
   <g id="patch_5">
    <path d="M 126.422636 301.96 
L 133.478727 301.96 
L 133.478727 301.96 
L 126.422636 301.96 
z
" clip-path="url(#p37848ed0bc)" style="fill: #ffffff; stroke: #0072b2; stroke-linejoin: miter"/>
   </g>
   <g id="patch_6">
    <path d="M 133.478727 301.96 
L 140.534818 301.96 
L 140.534818 301.96 
L 133.478727 301.96 
z
" clip-path="url(#p37848ed0bc)" style="fill: #ffffff; stroke: #0072b2; stroke-linejoin: miter"/>
   </g>
   <g id="patch_7">
    <path d="M 140.534818 301.96 
L 147.590909 301.96 
L 147.590909 301.96 
L 140.534818 301.96 
z
" clip-path="url(#p37848ed0bc)" style="fill: #ffffff; stroke: #0072b2; stroke-linejoin: miter"/>
   </g>
   <g id="patch_8">
    <path d="M 147.590909 301.96 
L 154.647 301.96 
L 154.647 301.96 
L 147.590909 301.96 
z
" clip-path="url(#p37848ed0bc)" style="fill: #ffffff; stroke: #0072b2; stroke-linejoin: miter"/>
   </g>
   <g id="patch_9">
    <path d="M 154.647 301.96 
L 161.703091 301.96 
L 161.703091 301.96 
L 154.647 301.96 
z
" clip-path="url(#p37848ed0bc)" style="fill: #ffffff; stroke: #0072b2; stroke-linejoin: miter"/>
   </g>
   <g id="patch_10">
    <path d="M 161.703091 301.96 
L 168.759182 301.96 
L 168.759182 301.96 
L 161.703091 301.96 
z
" clip-path="url(#p37848ed0bc)" style="fill: #ffffff; stroke: #0072b2; stroke-linejoin: miter"/>
   </g>
   <g id="patch_11">
    <path d="M 168.759182 301.96 
L 175.815273 301.96 
L 175.815273 301.96 
L 168.759182 301.96 
z
" clip-path="url(#p37848ed0bc)" style="fill: #ffffff; stroke: #0072b2; stroke-linejoin: miter"/>
   </g>
   <g id="patch_12">
    <path d="M 175.815273 301.96 
L 182.871364 301.96 
L 182.871364 301.96 
L 175.815273 301.96 
z
" clip-path="url(#p37848ed0bc)" style="fill: #ffffff; stroke: #0072b2; stroke-linejoin: miter"/>
   </g>
   <g id="patch_13">
    <path d="M 182.871364 301.96 
L 189.927455 301.96 
L 189.927455 301.96 
L 182.871364 301.96 
z
" clip-path="url(#p37848ed0bc)" style="fill: #ffffff; stroke: #0072b2; stroke-linejoin: miter"/>
   </g>
   <g id="patch_14">
    <path d="M 189.927455 301.96 
L 196.983545 301.96 
L 196.983545 301.96 
L 189.927455 301.96 
z
" clip-path="url(#p37848ed0bc)" style="fill: #ffffff; stroke: #0072b2; stroke-linejoin: miter"/>
   </g>
   <g id="patch_15">
    <path d="M 196.983545 301.96 
L 204.039636 301.96 
L 204.039636 301.96 
L 196.983545 301.96 
z
" clip-path="url(#p37848ed0bc)" style="fill: #ffffff; stroke: #0072b2; stroke-linejoin: miter"/>
   </g>
   <g id="patch_16">
    <path d="M 204.039636 301.96 
L 211.095727 301.96 
L 211.095727 301.96 
L 204.039636 301.96 
z
" clip-path="url(#p37848ed0bc)" style="fill: #ffffff; stroke: #0072b2; stroke-linejoin: miter"/>
   </g>
   <g id="patch_17">
    <path d="M 211.095727 301.96 
L 218.151818 301.96 
L 218.151818 301.96 
L 211.095727 301.96 
z
" clip-path="url(#p37848ed0bc)" style="fill: #ffffff; stroke: #0072b2; stroke-linejoin: miter"/>
   </g>
   <g id="patch_18">
    <path d="M 218.151818 301.96 
L 225.207909 301.96 
L 225.207909 301.96 
L 218.151818 301.96 
z
" clip-path="url(#p37848ed0bc)" style="fill: #ffffff; stroke: #0072b2; stroke-linejoin: miter"/>
   </g>
   <g id="patch_19">
    <path d="M 225.207909 301.96 
L 232.264 301.96 
L 232.264 301.96 
L 225.207909 301.96 
z
" clip-path="url(#p37848ed0bc)" style="fill: #ffffff; stroke: #0072b2; stroke-linejoin: miter"/>
   </g>
   <g id="patch_20">
    <path d="M 232.264 301.96 
L 239.320091 301.96 
L 239.320091 301.96 
L 232.264 301.96 
z
" clip-path="url(#p37848ed0bc)" style="fill: #ffffff; stroke: #0072b2; stroke-linejoin: miter"/>
   </g>
   <g id="patch_21">
    <path d="M 239.320091 301.96 
L 246.376182 301.96 
L 246.376182 301.96 
L 239.320091 301.96 
z
" clip-path="url(#p37848ed0bc)" style="fill: #ffffff; stroke: #0072b2; stroke-linejoin: miter"/>
   </g>
   <g id="patch_22">
    <path d="M 246.376182 301.96 
L 253.432273 301.96 
L 253.432273 301.96 
L 246.376182 301.96 
z
" clip-path="url(#p37848ed0bc)" style="fill: #ffffff; stroke: #0072b2; stroke-linejoin: miter"/>
   </g>
   <g id="patch_23">
    <path d="M 253.432273 301.96 
L 260.488364 301.96 
L 260.488364 301.96 
L 253.432273 301.96 
z
" clip-path="url(#p37848ed0bc)" style="fill: #ffffff; stroke: #0072b2; stroke-linejoin: miter"/>
   </g>
   <g id="patch_24">
    <path d="M 260.488364 301.96 
L 267.544455 301.96 
L 267.544455 301.96 
L 260.488364 301.96 
z
" clip-path="url(#p37848ed0bc)" style="fill: #ffffff; stroke: #0072b2; stroke-linejoin: miter"/>
   </g>
   <g id="patch_25">
    <path d="M 267.544455 301.96 
L 274.600545 301.96 
L 274.600545 301.96 
L 267.544455 301.96 
z
" clip-path="url(#p37848ed0bc)" style="fill: #ffffff; stroke: #0072b2; stroke-linejoin: miter"/>
   </g>
   <g id="patch_26">
    <path d="M 274.600545 301.96 
L 281.656636 301.96 
L 281.656636 301.96 
L 274.600545 301.96 
z
" clip-path="url(#p37848ed0bc)" style="fill: #ffffff; stroke: #0072b2; stroke-linejoin: miter"/>
   </g>
   <g id="patch_27">
    <path d="M 281.656636 301.96 
L 288.712727 301.96 
L 288.712727 301.96 
L 281.656636 301.96 
z
" clip-path="url(#p37848ed0bc)" style="fill: #ffffff; stroke: #0072b2; stroke-linejoin: miter"/>
   </g>
   <g id="patch_28">
    <path d="M 288.712727 301.96 
L 295.768818 301.96 
L 295.768818 301.96 
L 288.712727 301.96 
z
" clip-path="url(#p37848ed0bc)" style="fill: #ffffff; stroke: #0072b2; stroke-linejoin: miter"/>
   </g>
   <g id="patch_29">
    <path d="M 295.768818 301.96 
L 302.824909 301.96 
L 302.824909 301.96 
L 295.768818 301.96 
z
" clip-path="url(#p37848ed0bc)" style="fill: #ffffff; stroke: #0072b2; stroke-linejoin: miter"/>
   </g>
   <g id="patch_30">
    <path d="M 302.824909 301.96 
L 309.881 301.96 
L 309.881 301.96 
L 302.824909 301.96 
z
" clip-path="url(#p37848ed0bc)" style="fill: #ffffff; stroke: #0072b2; stroke-linejoin: miter"/>
   </g>
   <g id="patch_31">
    <path d="M 309.881 301.96 
L 316.937091 301.96 
L 316.937091 301.96 
L 309.881 301.96 
z
" clip-path="url(#p37848ed0bc)" style="fill: #ffffff; stroke: #0072b2; stroke-linejoin: miter"/>
   </g>
   <g id="patch_32">
    <path d="M 316.937091 301.96 
L 323.993182 301.96 
L 323.993182 301.96 
L 316.937091 301.96 
z
" clip-path="url(#p37848ed0bc)" style="fill: #ffffff; stroke: #0072b2; stroke-linejoin: miter"/>
   </g>
   <g id="patch_33">
    <path d="M 323.993182 301.96 
L 331.049273 301.96 
L 331.049273 301.96 
L 323.993182 301.96 
z
" clip-path="url(#p37848ed0bc)" style="fill: #ffffff; stroke: #0072b2; stroke-linejoin: miter"/>
   </g>
   <g id="patch_34">
    <path d="M 331.049273 301.96 
L 338.105364 301.96 
L 338.105364 301.96 
L 331.049273 301.96 
z
" clip-path="url(#p37848ed0bc)" style="fill: #ffffff; stroke: #0072b2; stroke-linejoin: miter"/>
   </g>
   <g id="patch_35">
    <path d="M 338.105364 301.96 
L 345.161455 301.96 
L 345.161455 301.96 
L 338.105364 301.96 
z
" clip-path="url(#p37848ed0bc)" style="fill: #ffffff; stroke: #0072b2; stroke-linejoin: miter"/>
   </g>
   <g id="patch_36">
    <path d="M 345.161455 301.96 
L 352.217545 301.96 
L 352.217545 301.96 
L 345.161455 301.96 
z
" clip-path="url(#p37848ed0bc)" style="fill: #ffffff; stroke: #0072b2; stroke-linejoin: miter"/>
   </g>
   <g id="patch_37">
    <path d="M 352.217545 301.96 
L 359.273636 301.96 
L 359.273636 301.96 
L 352.217545 301.96 
z
" clip-path="url(#p37848ed0bc)" style="fill: #ffffff; stroke: #0072b2; stroke-linejoin: miter"/>
   </g>
   <g id="patch_38">
    <path d="M 359.273636 301.96 
L 366.329727 301.96 
L 366.329727 301.96 
L 359.273636 301.96 
z
" clip-path="url(#p37848ed0bc)" style="fill: #ffffff; stroke: #0072b2; stroke-linejoin: miter"/>
   </g>
   <g id="patch_39">
    <path d="M 366.329727 301.96 
L 373.385818 301.96 
L 373.385818 301.96 
L 366.329727 301.96 
z
" clip-path="url(#p37848ed0bc)" style="fill: #ffffff; stroke: #0072b2; stroke-linejoin: miter"/>
   </g>
   <g id="patch_40">
    <path d="M 373.385818 301.96 
L 380.441909 301.96 
L 380.441909 301.96 
L 373.385818 301.96 
z
" clip-path="url(#p37848ed0bc)" style="fill: #ffffff; stroke: #0072b2; stroke-linejoin: miter"/>
   </g>
   <g id="patch_41">
    <path d="M 380.441909 301.96 
L 387.498 301.96 
L 387.498 301.96 
L 380.441909 301.96 
z
" clip-path="url(#p37848ed0bc)" style="fill: #ffffff; stroke: #0072b2; stroke-linejoin: miter"/>
   </g>
   <g id="patch_42">
    <path d="M 387.498 301.96 
L 394.554091 301.96 
L 394.554091 301.96 
L 387.498 301.96 
z
" clip-path="url(#p37848ed0bc)" style="fill: #ffffff; stroke: #0072b2; stroke-linejoin: miter"/>
   </g>
   <g id="patch_43">
    <path d="M 394.554091 301.96 
L 401.610182 301.96 
L 401.610182 301.96 
L 394.554091 301.96 
z
" clip-path="url(#p37848ed0bc)" style="fill: #ffffff; stroke: #0072b2; stroke-linejoin: miter"/>
   </g>
   <g id="patch_44">
    <path d="M 401.610182 301.96 
L 408.666273 301.96 
L 408.666273 301.96 
L 401.610182 301.96 
z
" clip-path="url(#p37848ed0bc)" style="fill: #ffffff; stroke: #0072b2; stroke-linejoin: miter"/>
   </g>
   <g id="patch_45">
    <path d="M 408.666273 301.96 
L 415.722364 301.96 
L 415.722364 301.96 
L 408.666273 301.96 
z
" clip-path="url(#p37848ed0bc)" style="fill: #ffffff; stroke: #0072b2; stroke-linejoin: miter"/>
   </g>
   <g id="patch_46">
    <path d="M 415.722364 301.96 
L 422.778455 301.96 
L 422.778455 301.959936 
L 415.722364 301.959936 
z
" clip-path="url(#p37848ed0bc)" style="fill: #ffffff; stroke: #0072b2; stroke-linejoin: miter"/>
   </g>
   <g id="patch_47">
    <path d="M 422.778455 301.96 
L 429.834545 301.96 
L 429.834545 301.959783 
L 422.778455 301.959783 
z
" clip-path="url(#p37848ed0bc)" style="fill: #ffffff; stroke: #0072b2; stroke-linejoin: miter"/>
   </g>
   <g id="patch_48">
    <path d="M 429.834545 301.96 
L 436.890636 301.96 
L 436.890636 301.93764 
L 429.834545 301.93764 
z
" clip-path="url(#p37848ed0bc)" style="fill: #ffffff; stroke: #0072b2; stroke-linejoin: miter"/>
   </g>
   <g id="patch_49">
    <path d="M 436.890636 301.96 
L 443.946727 301.96 
L 443.946727 301.790613 
L 436.890636 301.790613 
z
" clip-path="url(#p37848ed0bc)" style="fill: #ffffff; stroke: #0072b2; stroke-linejoin: miter"/>
   </g>
   <g id="patch_50">
    <path d="M 443.946727 301.96 
L 451.002818 301.96 
L 451.002818 301.810796 
L 443.946727 301.810796 
z
" clip-path="url(#p37848ed0bc)" style="fill: #ffffff; stroke: #0072b2; stroke-linejoin: miter"/>
   </g>
   <g id="patch_51">
    <path d="M 451.002818 301.96 
L 458.058909 301.96 
L 458.058909 301.705119 
L 451.002818 301.705119 
z
" clip-path="url(#p37848ed0bc)" style="fill: #ffffff; stroke: #0072b2; stroke-linejoin: miter"/>
   </g>
   <g id="patch_52">
    <path d="M 458.058909 301.96 
L 465.115 301.96 
L 465.115 300.90196 
L 458.058909 300.90196 
z
" clip-path="url(#p37848ed0bc)" style="fill: #ffffff; stroke: #0072b2; stroke-linejoin: miter"/>
   </g>
   <g id="patch_53">
    <path d="M 465.115 301.96 
L 472.171091 301.96 
L 472.171091 300.097497 
L 465.115 300.097497 
z
" clip-path="url(#p37848ed0bc)" style="fill: #ffffff; stroke: #0072b2; stroke-linejoin: miter"/>
   </g>
   <g id="patch_54">
    <path d="M 472.171091 301.96 
L 479.227182 301.96 
L 479.227182 299.885582 
L 472.171091 299.885582 
z
" clip-path="url(#p37848ed0bc)" style="fill: #ffffff; stroke: #0072b2; stroke-linejoin: miter"/>
   </g>
   <g id="patch_55">
    <path d="M 479.227182 301.96 
L 486.283273 301.96 
L 486.283273 298.240128 
L 479.227182 298.240128 
z
" clip-path="url(#p37848ed0bc)" style="fill: #ffffff; stroke: #0072b2; stroke-linejoin: miter"/>
   </g>
   <g id="patch_56">
    <path d="M 486.283273 301.96 
L 493.339364 301.96 
L 493.339364 296.348663 
L 486.283273 296.348663 
z
" clip-path="url(#p37848ed0bc)" style="fill: #ffffff; stroke: #0072b2; stroke-linejoin: miter"/>
   </g>
   <g id="patch_57">
    <path d="M 493.339364 301.96 
L 500.395455 301.96 
L 500.395455 294.958252 
L 493.339364 294.958252 
z
" clip-path="url(#p37848ed0bc)" style="fill: #ffffff; stroke: #0072b2; stroke-linejoin: miter"/>
   </g>
   <g id="patch_58">
    <path d="M 500.395455 301.96 
L 507.451545 301.96 
L 507.451545 293.664168 
L 500.395455 293.664168 
z
" clip-path="url(#p37848ed0bc)" style="fill: #ffffff; stroke: #0072b2; stroke-linejoin: miter"/>
   </g>
   <g id="patch_59">
    <path d="M 507.451545 301.96 
L 514.507636 301.96 
L 514.507636 291.125623 
L 507.451545 291.125623 
z
" clip-path="url(#p37848ed0bc)" style="fill: #ffffff; stroke: #0072b2; stroke-linejoin: miter"/>
   </g>
   <g id="patch_60">
    <path d="M 514.507636 301.96 
L 521.563727 301.96 
L 521.563727 288.894659 
L 514.507636 288.894659 
z
" clip-path="url(#p37848ed0bc)" style="fill: #ffffff; stroke: #0072b2; stroke-linejoin: miter"/>
   </g>
   <g id="patch_61">
    <path d="M 521.563727 301.96 
L 528.619818 301.96 
L 528.619818 282.916195 
L 521.563727 282.916195 
z
" clip-path="url(#p37848ed0bc)" style="fill: #ffffff; stroke: #0072b2; stroke-linejoin: miter"/>
   </g>
   <g id="patch_62">
    <path d="M 528.619818 301.96 
L 535.675909 301.96 
L 535.675909 277.058738 
L 528.619818 277.058738 
z
" clip-path="url(#p37848ed0bc)" style="fill: #ffffff; stroke: #0072b2; stroke-linejoin: miter"/>
   </g>
   <g id="patch_63">
    <path d="M 535.675909 301.96 
L 542.732 301.96 
L 542.732 275.526742 
L 535.675909 275.526742 
z
" clip-path="url(#p37848ed0bc)" style="fill: #ffffff; stroke: #0072b2; stroke-linejoin: miter"/>
   </g>
   <g id="patch_64">
    <path d="M 542.732 301.96 
L 549.788091 301.96 
L 549.788091 269.897634 
L 542.732 269.897634 
z
" clip-path="url(#p37848ed0bc)" style="fill: #ffffff; stroke: #0072b2; stroke-linejoin: miter"/>
   </g>
   <g id="patch_65">
    <path d="M 549.788091 301.96 
L 556.844182 301.96 
L 556.844182 268.280271 
L 549.788091 268.280271 
z
" clip-path="url(#p37848ed0bc)" style="fill: #ffffff; stroke: #0072b2; stroke-linejoin: miter"/>
   </g>
   <g id="patch_66">
    <path d="M 556.844182 301.96 
L 563.900273 301.96 
L 563.900273 266.174071 
L 556.844182 266.174071 
z
" clip-path="url(#p37848ed0bc)" style="fill: #ffffff; stroke: #0072b2; stroke-linejoin: miter"/>
   </g>
   <g id="patch_67">
    <path d="M 563.900273 301.96 
L 570.956364 301.96 
L 570.956364 261.802769 
L 563.900273 261.802769 
z
" clip-path="url(#p37848ed0bc)" style="fill: #ffffff; stroke: #0072b2; stroke-linejoin: miter"/>
   </g>
   <g id="patch_68">
    <path d="M 570.956364 301.96 
L 578.012455 301.96 
L 578.012455 261.836483 
L 570.956364 261.836483 
z
" clip-path="url(#p37848ed0bc)" style="fill: #ffffff; stroke: #0072b2; stroke-linejoin: miter"/>
   </g>
   <g id="patch_69">
    <path d="M 578.012455 301.96 
L 585.068545 301.96 
L 585.068545 256.088685 
L 578.012455 256.088685 
z
" clip-path="url(#p37848ed0bc)" style="fill: #ffffff; stroke: #0072b2; stroke-linejoin: miter"/>
   </g>
   <g id="patch_70">
    <path d="M 585.068545 301.96 
L 592.124636 301.96 
L 592.124636 251.379716 
L 585.068545 251.379716 
z
" clip-path="url(#p37848ed0bc)" style="fill: #ffffff; stroke: #0072b2; stroke-linejoin: miter"/>
   </g>
   <g id="patch_71">
    <path d="M 592.124636 301.96 
L 599.180727 301.96 
L 599.180727 247.227319 
L 592.124636 247.227319 
z
" clip-path="url(#p37848ed0bc)" style="fill: #ffffff; stroke: #0072b2; stroke-linejoin: miter"/>
   </g>
   <g id="patch_72">
    <path d="M 599.180727 301.96 
L 606.236818 301.96 
L 606.236818 237.859896 
L 599.180727 237.859896 
z
" clip-path="url(#p37848ed0bc)" style="fill: #ffffff; stroke: #0072b2; stroke-linejoin: miter"/>
   </g>
   <g id="patch_73">
    <path d="M 606.236818 301.96 
L 613.292909 301.96 
L 613.292909 231.246931 
L 606.236818 231.246931 
z
" clip-path="url(#p37848ed0bc)" style="fill: #ffffff; stroke: #0072b2; stroke-linejoin: miter"/>
   </g>
   <g id="patch_74">
    <path d="M 613.292909 301.96 
L 620.349 301.96 
L 620.349 218.965099 
L 613.292909 218.965099 
z
" clip-path="url(#p37848ed0bc)" style="fill: #ffffff; stroke: #0072b2; stroke-linejoin: miter"/>
   </g>
   <g id="patch_75">
    <path d="M 620.349 301.96 
L 627.405091 301.96 
L 627.405091 207.370593 
L 620.349 207.370593 
z
" clip-path="url(#p37848ed0bc)" style="fill: #ffffff; stroke: #0072b2; stroke-linejoin: miter"/>
   </g>
   <g id="patch_76">
    <path d="M 627.405091 301.96 
L 634.461182 301.96 
L 634.461182 194.467022 
L 627.405091 194.467022 
z
" clip-path="url(#p37848ed0bc)" style="fill: #ffffff; stroke: #0072b2; stroke-linejoin: miter"/>
   </g>
   <g id="patch_77">
    <path d="M 634.461182 301.96 
L 641.517273 301.96 
L 641.517273 177.482332 
L 634.461182 177.482332 
z
" clip-path="url(#p37848ed0bc)" style="fill: #ffffff; stroke: #0072b2; stroke-linejoin: miter"/>
   </g>
   <g id="patch_78">
    <path d="M 641.517273 301.96 
L 648.573364 301.96 
L 648.573364 162.681288 
L 641.517273 162.681288 
z
" clip-path="url(#p37848ed0bc)" style="fill: #ffffff; stroke: #0072b2; stroke-linejoin: miter"/>
   </g>
   <g id="patch_79">
    <path d="M 648.573364 301.96 
L 655.629455 301.96 
L 655.629455 143.61579 
L 648.573364 143.61579 
z
" clip-path="url(#p37848ed0bc)" style="fill: #ffffff; stroke: #0072b2; stroke-linejoin: miter"/>
   </g>
   <g id="patch_80">
    <path d="M 655.629455 301.96 
L 662.685545 301.96 
L 662.685545 127.729047 
L 655.629455 127.729047 
z
" clip-path="url(#p37848ed0bc)" style="fill: #ffffff; stroke: #0072b2; stroke-linejoin: miter"/>
   </g>
   <g id="patch_81">
    <path d="M 662.685545 301.96 
L 669.741636 301.96 
L 669.741636 107.703512 
L 662.685545 107.703512 
z
" clip-path="url(#p37848ed0bc)" style="fill: #ffffff; stroke: #0072b2; stroke-linejoin: miter"/>
   </g>
   <g id="patch_82">
    <path d="M 669.741636 301.96 
L 676.797727 301.96 
L 676.797727 90.634906 
L 669.741636 90.634906 
z
" clip-path="url(#p37848ed0bc)" style="fill: #ffffff; stroke: #0072b2; stroke-linejoin: miter"/>
   </g>
   <g id="patch_83">
    <path d="M 676.797727 301.96 
L 683.853818 301.96 
L 683.853818 76.872127 
L 676.797727 76.872127 
z
" clip-path="url(#p37848ed0bc)" style="fill: #ffffff; stroke: #0072b2; stroke-linejoin: miter"/>
   </g>
   <g id="patch_84">
    <path d="M 683.853818 301.96 
L 690.909909 301.96 
L 690.909909 65.03461 
L 683.853818 65.03461 
z
" clip-path="url(#p37848ed0bc)" style="fill: #ffffff; stroke: #0072b2; stroke-linejoin: miter"/>
   </g>
   <g id="patch_85">
    <path d="M 690.909909 301.96 
L 697.966 301.96 
L 697.966 55.946375 
L 690.909909 55.946375 
z
" clip-path="url(#p37848ed0bc)" style="fill: #ffffff; stroke: #0072b2; stroke-linejoin: miter"/>
   </g>
   <g id="patch_86">
    <path d="M 697.966 301.96 
L 705.022091 301.96 
L 705.022091 54.702398 
L 697.966 54.702398 
z
" clip-path="url(#p37848ed0bc)" style="fill: #ffffff; stroke: #0072b2; stroke-linejoin: miter"/>
   </g>
   <g id="patch_87">
    <path d="M 705.022091 301.96 
L 712.078182 301.96 
L 712.078182 58.665375 
L 705.022091 58.665375 
z
" clip-path="url(#p37848ed0bc)" style="fill: #ffffff; stroke: #0072b2; stroke-linejoin: miter"/>
   </g>
   <g id="patch_88">
    <path d="M 712.078182 301.96 
L 719.134273 301.96 
L 719.134273 73.248807 
L 712.078182 73.248807 
z
" clip-path="url(#p37848ed0bc)" style="fill: #ffffff; stroke: #0072b2; stroke-linejoin: miter"/>
   </g>
   <g id="patch_89">
    <path d="M 719.134273 301.96 
L 726.190364 301.96 
L 726.190364 86.829235 
L 719.134273 86.829235 
z
" clip-path="url(#p37848ed0bc)" style="fill: #ffffff; stroke: #0072b2; stroke-linejoin: miter"/>
   </g>
   <g id="patch_90">
    <path d="M 726.190364 301.96 
L 733.246455 301.96 
L 733.246455 108.595223 
L 726.190364 108.595223 
z
" clip-path="url(#p37848ed0bc)" style="fill: #ffffff; stroke: #0072b2; stroke-linejoin: miter"/>
   </g>
   <g id="patch_91">
    <path d="M 733.246455 301.96 
L 740.302545 301.96 
L 740.302545 134.548921 
L 733.246455 134.548921 
z
" clip-path="url(#p37848ed0bc)" style="fill: #ffffff; stroke: #0072b2; stroke-linejoin: miter"/>
   </g>
   <g id="patch_92">
    <path d="M 740.302545 301.96 
L 747.358636 301.96 
L 747.358636 165.408532 
L 740.302545 165.408532 
z
" clip-path="url(#p37848ed0bc)" style="fill: #ffffff; stroke: #0072b2; stroke-linejoin: miter"/>
   </g>
   <g id="patch_93">
    <path d="M 747.358636 301.96 
L 754.414727 301.96 
L 754.414727 180.895711 
L 747.358636 180.895711 
z
" clip-path="url(#p37848ed0bc)" style="fill: #ffffff; stroke: #0072b2; stroke-linejoin: miter"/>
   </g>
   <g id="patch_94">
    <path d="M 754.414727 301.96 
L 761.470818 301.96 
L 761.470818 208.112488 
L 754.414727 208.112488 
z
" clip-path="url(#p37848ed0bc)" style="fill: #ffffff; stroke: #0072b2; stroke-linejoin: miter"/>
   </g>
   <g id="patch_95">
    <path d="M 761.470818 301.96 
L 768.526909 301.96 
L 768.526909 229.803509 
L 761.470818 229.803509 
z
" clip-path="url(#p37848ed0bc)" style="fill: #ffffff; stroke: #0072b2; stroke-linejoin: miter"/>
   </g>
   <g id="patch_96">
    <path d="M 768.526909 301.96 
L 775.583 301.96 
L 775.583 254.311384 
L 768.526909 254.311384 
z
" clip-path="url(#p37848ed0bc)" style="fill: #ffffff; stroke: #0072b2; stroke-linejoin: miter"/>
   </g>
   <g id="patch_97">
    <path d="M 775.583 301.96 
L 782.639091 301.96 
L 782.639091 271.870167 
L 775.583 271.870167 
z
" clip-path="url(#p37848ed0bc)" style="fill: #ffffff; stroke: #0072b2; stroke-linejoin: miter"/>
   </g>
   <g id="patch_98">
    <path d="M 782.639091 301.96 
L 789.695182 301.96 
L 789.695182 292.549083 
L 782.639091 292.549083 
z
" clip-path="url(#p37848ed0bc)" style="fill: #ffffff; stroke: #0072b2; stroke-linejoin: miter"/>
   </g>
   <g id="patch_99">
    <path d="M 789.695182 301.96 
L 796.751273 301.96 
L 796.751273 301.838366 
L 789.695182 301.838366 
z
" clip-path="url(#p37848ed0bc)" style="fill: #ffffff; stroke: #0072b2; stroke-linejoin: miter"/>
   </g>
   <g id="patch_100">
    <path d="M 796.751273 301.96 
L 803.807364 301.96 
L 803.807364 301.96 
L 796.751273 301.96 
z
" clip-path="url(#p37848ed0bc)" style="fill: #ffffff; stroke: #0072b2; stroke-linejoin: miter"/>
   </g>
   <g id="patch_101">
    <path d="M 803.807364 301.96 
L 810.863455 301.96 
L 810.863455 301.96 
L 803.807364 301.96 
z
" clip-path="url(#p37848ed0bc)" style="fill: #ffffff; stroke: #0072b2; stroke-linejoin: miter"/>
   </g>
   <g id="patch_102">
    <path d="M 810.863455 301.96 
L 817.919545 301.96 
L 817.919545 301.96 
L 810.863455 301.96 
z
" clip-path="url(#p37848ed0bc)" style="fill: #ffffff; stroke: #0072b2; stroke-linejoin: miter"/>
   </g>
   <g id="PatchCollection_1">
    <path d="M 112.310455 301.96 
L 119.366545 301.96 
L 119.366545 301.96 
L 112.310455 301.96 
z
" clip-path="url(#p37848ed0bc)" style="fill: url(#h8937669feb)"/>
    <path d="M 119.366545 301.96 
L 126.422636 301.96 
L 126.422636 301.96 
L 119.366545 301.96 
z
" clip-path="url(#p37848ed0bc)" style="fill: url(#h8937669feb)"/>
    <path d="M 126.422636 301.96 
L 133.478727 301.96 
L 133.478727 301.96 
L 126.422636 301.96 
z
" clip-path="url(#p37848ed0bc)" style="fill: url(#h8937669feb)"/>
    <path d="M 133.478727 301.96 
L 140.534818 301.96 
L 140.534818 301.96 
L 133.478727 301.96 
z
" clip-path="url(#p37848ed0bc)" style="fill: url(#h8937669feb)"/>
    <path d="M 140.534818 301.96 
L 147.590909 301.96 
L 147.590909 301.96 
L 140.534818 301.96 
z
" clip-path="url(#p37848ed0bc)" style="fill: url(#h8937669feb)"/>
    <path d="M 147.590909 301.96 
L 154.647 301.96 
L 154.647 301.96 
L 147.590909 301.96 
z
" clip-path="url(#p37848ed0bc)" style="fill: url(#h8937669feb)"/>
    <path d="M 154.647 301.96 
L 161.703091 301.96 
L 161.703091 301.96 
L 154.647 301.96 
z
" clip-path="url(#p37848ed0bc)" style="fill: url(#h8937669feb)"/>
    <path d="M 161.703091 301.96 
L 168.759182 301.96 
L 168.759182 301.96 
L 161.703091 301.96 
z
" clip-path="url(#p37848ed0bc)" style="fill: url(#h8937669feb)"/>
    <path d="M 168.759182 301.96 
L 175.815273 301.96 
L 175.815273 301.96 
L 168.759182 301.96 
z
" clip-path="url(#p37848ed0bc)" style="fill: url(#h8937669feb)"/>
    <path d="M 175.815273 301.96 
L 182.871364 301.96 
L 182.871364 301.96 
L 175.815273 301.96 
z
" clip-path="url(#p37848ed0bc)" style="fill: url(#h8937669feb)"/>
    <path d="M 182.871364 301.96 
L 189.927455 301.96 
L 189.927455 301.96 
L 182.871364 301.96 
z
" clip-path="url(#p37848ed0bc)" style="fill: url(#h8937669feb)"/>
    <path d="M 189.927455 301.96 
L 196.983545 301.96 
L 196.983545 301.96 
L 189.927455 301.96 
z
" clip-path="url(#p37848ed0bc)" style="fill: url(#h8937669feb)"/>
    <path d="M 196.983545 301.96 
L 204.039636 301.96 
L 204.039636 301.96 
L 196.983545 301.96 
z
" clip-path="url(#p37848ed0bc)" style="fill: url(#h8937669feb)"/>
    <path d="M 204.039636 301.96 
L 211.095727 301.96 
L 211.095727 301.96 
L 204.039636 301.96 
z
" clip-path="url(#p37848ed0bc)" style="fill: url(#h8937669feb)"/>
    <path d="M 211.095727 301.96 
L 218.151818 301.96 
L 218.151818 301.96 
L 211.095727 301.96 
z
" clip-path="url(#p37848ed0bc)" style="fill: url(#h8937669feb)"/>
    <path d="M 218.151818 301.96 
L 225.207909 301.96 
L 225.207909 301.96 
L 218.151818 301.96 
z
" clip-path="url(#p37848ed0bc)" style="fill: url(#h8937669feb)"/>
    <path d="M 225.207909 301.96 
L 232.264 301.96 
L 232.264 301.96 
L 225.207909 301.96 
z
" clip-path="url(#p37848ed0bc)" style="fill: url(#h8937669feb)"/>
    <path d="M 232.264 301.96 
L 239.320091 301.96 
L 239.320091 301.96 
L 232.264 301.96 
z
" clip-path="url(#p37848ed0bc)" style="fill: url(#h8937669feb)"/>
    <path d="M 239.320091 301.96 
L 246.376182 301.96 
L 246.376182 301.96 
L 239.320091 301.96 
z
" clip-path="url(#p37848ed0bc)" style="fill: url(#h8937669feb)"/>
    <path d="M 246.376182 301.96 
L 253.432273 301.96 
L 253.432273 301.96 
L 246.376182 301.96 
z
" clip-path="url(#p37848ed0bc)" style="fill: url(#h8937669feb)"/>
    <path d="M 253.432273 301.96 
L 260.488364 301.96 
L 260.488364 301.96 
L 253.432273 301.96 
z
" clip-path="url(#p37848ed0bc)" style="fill: url(#h8937669feb)"/>
    <path d="M 260.488364 301.96 
L 267.544455 301.96 
L 267.544455 301.96 
L 260.488364 301.96 
z
" clip-path="url(#p37848ed0bc)" style="fill: url(#h8937669feb)"/>
    <path d="M 267.544455 301.96 
L 274.600545 301.96 
L 274.600545 301.96 
L 267.544455 301.96 
z
" clip-path="url(#p37848ed0bc)" style="fill: url(#h8937669feb)"/>
    <path d="M 274.600545 301.96 
L 281.656636 301.96 
L 281.656636 301.96 
L 274.600545 301.96 
z
" clip-path="url(#p37848ed0bc)" style="fill: url(#h8937669feb)"/>
    <path d="M 281.656636 301.96 
L 288.712727 301.96 
L 288.712727 301.96 
L 281.656636 301.96 
z
" clip-path="url(#p37848ed0bc)" style="fill: url(#h8937669feb)"/>
    <path d="M 288.712727 301.96 
L 295.768818 301.96 
L 295.768818 301.96 
L 288.712727 301.96 
z
" clip-path="url(#p37848ed0bc)" style="fill: url(#h8937669feb)"/>
    <path d="M 295.768818 301.96 
L 302.824909 301.96 
L 302.824909 301.96 
L 295.768818 301.96 
z
" clip-path="url(#p37848ed0bc)" style="fill: url(#h8937669feb)"/>
    <path d="M 302.824909 301.96 
L 309.881 301.96 
L 309.881 301.96 
L 302.824909 301.96 
z
" clip-path="url(#p37848ed0bc)" style="fill: url(#h8937669feb)"/>
    <path d="M 309.881 301.96 
L 316.937091 301.96 
L 316.937091 301.96 
L 309.881 301.96 
z
" clip-path="url(#p37848ed0bc)" style="fill: url(#h8937669feb)"/>
    <path d="M 316.937091 301.96 
L 323.993182 301.96 
L 323.993182 301.96 
L 316.937091 301.96 
z
" clip-path="url(#p37848ed0bc)" style="fill: url(#h8937669feb)"/>
    <path d="M 323.993182 301.96 
L 331.049273 301.96 
L 331.049273 301.96 
L 323.993182 301.96 
z
" clip-path="url(#p37848ed0bc)" style="fill: url(#h8937669feb)"/>
    <path d="M 331.049273 301.96 
L 338.105364 301.96 
L 338.105364 301.96 
L 331.049273 301.96 
z
" clip-path="url(#p37848ed0bc)" style="fill: url(#h8937669feb)"/>
    <path d="M 338.105364 301.96 
L 345.161455 301.96 
L 345.161455 301.96 
L 338.105364 301.96 
z
" clip-path="url(#p37848ed0bc)" style="fill: url(#h8937669feb)"/>
    <path d="M 345.161455 301.96 
L 352.217545 301.96 
L 352.217545 301.96 
L 345.161455 301.96 
z
" clip-path="url(#p37848ed0bc)" style="fill: url(#h8937669feb)"/>
    <path d="M 352.217545 301.96 
L 359.273636 301.96 
L 359.273636 301.96 
L 352.217545 301.96 
z
" clip-path="url(#p37848ed0bc)" style="fill: url(#h8937669feb)"/>
    <path d="M 359.273636 301.96 
L 366.329727 301.96 
L 366.329727 301.96 
L 359.273636 301.96 
z
" clip-path="url(#p37848ed0bc)" style="fill: url(#h8937669feb)"/>
    <path d="M 366.329727 301.96 
L 373.385818 301.96 
L 373.385818 301.96 
L 366.329727 301.96 
z
" clip-path="url(#p37848ed0bc)" style="fill: url(#h8937669feb)"/>
    <path d="M 373.385818 301.96 
L 380.441909 301.96 
L 380.441909 301.96 
L 373.385818 301.96 
z
" clip-path="url(#p37848ed0bc)" style="fill: url(#h8937669feb)"/>
    <path d="M 380.441909 301.96 
L 387.498 301.96 
L 387.498 301.96 
L 380.441909 301.96 
z
" clip-path="url(#p37848ed0bc)" style="fill: url(#h8937669feb)"/>
    <path d="M 387.498 301.96 
L 394.554091 301.96 
L 394.554091 301.96 
L 387.498 301.96 
z
" clip-path="url(#p37848ed0bc)" style="fill: url(#h8937669feb)"/>
    <path d="M 394.554091 301.96 
L 401.610182 301.96 
L 401.610182 301.96 
L 394.554091 301.96 
z
" clip-path="url(#p37848ed0bc)" style="fill: url(#h8937669feb)"/>
    <path d="M 401.610182 301.96 
L 408.666273 301.96 
L 408.666273 301.96 
L 401.610182 301.96 
z
" clip-path="url(#p37848ed0bc)" style="fill: url(#h8937669feb)"/>
    <path d="M 408.666273 301.96 
L 415.722364 301.96 
L 415.722364 301.96 
L 408.666273 301.96 
z
" clip-path="url(#p37848ed0bc)" style="fill: url(#h8937669feb)"/>
    <path d="M 415.722364 301.962485 
L 422.778455 301.962485 
L 422.778455 301.957388 
L 415.722364 301.957388 
z
" clip-path="url(#p37848ed0bc)" style="fill: url(#h8937669feb)"/>
    <path d="M 422.778455 301.964487 
L 429.834545 301.964487 
L 429.834545 301.95508 
L 422.778455 301.95508 
z
" clip-path="url(#p37848ed0bc)" style="fill: url(#h8937669feb)"/>
    <path d="M 429.834545 301.985419 
L 436.890636 301.985419 
L 436.890636 301.88986 
L 429.834545 301.88986 
z
" clip-path="url(#p37848ed0bc)" style="fill: url(#h8937669feb)"/>
    <path d="M 436.890636 301.922112 
L 443.946727 301.922112 
L 443.946727 301.659115 
L 436.890636 301.659115 
z
" clip-path="url(#p37848ed0bc)" style="fill: url(#h8937669feb)"/>
    <path d="M 443.946727 301.934205 
L 451.002818 301.934205 
L 451.002818 301.687387 
L 443.946727 301.687387 
z
" clip-path="url(#p37848ed0bc)" style="fill: url(#h8937669feb)"/>
    <path d="M 451.002818 301.866403 
L 458.058909 301.866403 
L 458.058909 301.543835 
L 451.002818 301.543835 
z
" clip-path="url(#p37848ed0bc)" style="fill: url(#h8937669feb)"/>
    <path d="M 458.058909 301.230537 
L 465.115 301.230537 
L 465.115 300.573382 
L 458.058909 300.573382 
z
" clip-path="url(#p37848ed0bc)" style="fill: url(#h8937669feb)"/>
    <path d="M 465.115 300.533408 
L 472.171091 300.533408 
L 472.171091 299.661585 
L 465.115 299.661585 
z
" clip-path="url(#p37848ed0bc)" style="fill: url(#h8937669feb)"/>
    <path d="M 472.171091 300.345575 
L 479.227182 300.345575 
L 479.227182 299.42559 
L 472.171091 299.42559 
z
" clip-path="url(#p37848ed0bc)" style="fill: url(#h8937669feb)"/>
    <path d="M 479.227182 298.856034 
L 486.283273 298.856034 
L 486.283273 297.624222 
L 479.227182 297.624222 
z
" clip-path="url(#p37848ed0bc)" style="fill: url(#h8937669feb)"/>
    <path d="M 486.283273 297.105015 
L 493.339364 297.105015 
L 493.339364 295.592311 
L 486.283273 295.592311 
z
" clip-path="url(#p37848ed0bc)" style="fill: url(#h8937669feb)"/>
    <path d="M 493.339364 295.803001 
L 500.395455 295.803001 
L 500.395455 294.113503 
L 493.339364 294.113503 
z
" clip-path="url(#p37848ed0bc)" style="fill: url(#h8937669feb)"/>
    <path d="M 500.395455 294.583507 
L 507.451545 294.583507 
L 507.451545 292.744829 
L 500.395455 292.744829 
z
" clip-path="url(#p37848ed0bc)" style="fill: url(#h8937669feb)"/>
    <path d="M 507.451545 292.176035 
L 514.507636 292.176035 
L 514.507636 290.075211 
L 507.451545 290.075211 
z
" clip-path="url(#p37848ed0bc)" style="fill: url(#h8937669feb)"/>
    <path d="M 514.507636 290.047892 
L 521.563727 290.047892 
L 521.563727 287.741426 
L 514.507636 287.741426 
z
" clip-path="url(#p37848ed0bc)" style="fill: url(#h8937669feb)"/>
    <path d="M 521.563727 284.30812 
L 528.619818 284.30812 
L 528.619818 281.52427 
L 521.563727 281.52427 
z
" clip-path="url(#p37848ed0bc)" style="fill: url(#h8937669feb)"/>
    <path d="M 528.619818 278.649929 
L 535.675909 278.649929 
L 535.675909 275.467547 
L 528.619818 275.467547 
z
" clip-path="url(#p37848ed0bc)" style="fill: url(#h8937669feb)"/>
    <path d="M 535.675909 277.165579 
L 542.732 277.165579 
L 542.732 273.887906 
L 535.675909 273.887906 
z
" clip-path="url(#p37848ed0bc)" style="fill: url(#h8937669feb)"/>
    <path d="M 542.732 271.701848 
L 549.788091 271.701848 
L 549.788091 268.093422 
L 542.732 268.093422 
z
" clip-path="url(#p37848ed0bc)" style="fill: url(#h8937669feb)"/>
    <path d="M 549.788091 270.128607 
L 556.844182 270.128607 
L 556.844182 266.431933 
L 549.788091 266.431933 
z
" clip-path="url(#p37848ed0bc)" style="fill: url(#h8937669feb)"/>
    <path d="M 556.844182 268.078338 
L 563.900273 268.078338 
L 563.900273 264.269803 
L 556.844182 264.269803 
z
" clip-path="url(#p37848ed0bc)" style="fill: url(#h8937669feb)"/>
    <path d="M 563.900273 263.818816 
L 570.956364 263.818816 
L 570.956364 259.786724 
L 563.900273 259.786724 
z
" clip-path="url(#p37848ed0bc)" style="fill: url(#h8937669feb)"/>
    <path d="M 570.956364 263.850338 
L 578.012455 263.850338 
L 578.012455 259.822627 
L 570.956364 259.822627 
z
" clip-path="url(#p37848ed0bc)" style="fill: url(#h8937669feb)"/>
    <path d="M 578.012455 258.240291 
L 585.068545 258.240291 
L 585.068545 253.937077 
L 578.012455 253.937077 
z
" clip-path="url(#p37848ed0bc)" style="fill: url(#h8937669feb)"/>
    <path d="M 585.068545 253.637116 
L 592.124636 253.637116 
L 592.124636 249.122318 
L 585.068545 249.122318 
z
" clip-path="url(#p37848ed0bc)" style="fill: url(#h8937669feb)"/>
    <path d="M 592.124636 249.573204 
L 599.180727 249.573204 
L 599.180727 244.881435 
L 592.124636 244.881435 
z
" clip-path="url(#p37848ed0bc)" style="fill: url(#h8937669feb)"/>
    <path d="M 599.180727 240.395708 
L 606.236818 240.395708 
L 606.236818 235.32408 
L 599.180727 235.32408 
z
" clip-path="url(#p37848ed0bc)" style="fill: url(#h8937669feb)"/>
    <path d="M 606.236818 233.906872 
L 613.292909 233.906872 
L 613.292909 228.586985 
L 606.236818 228.586985 
z
" clip-path="url(#p37848ed0bc)" style="fill: url(#h8937669feb)"/>
    <path d="M 613.292909 221.842495 
L 620.349 221.842495 
L 620.349 216.087707 
L 613.292909 216.087707 
z
" clip-path="url(#p37848ed0bc)" style="fill: url(#h8937669feb)"/>
    <path d="M 620.349 210.437169 
L 627.405091 210.437169 
L 627.405091 204.30402 
L 620.349 204.30402 
z
" clip-path="url(#p37848ed0bc)" style="fill: url(#h8937669feb)"/>
    <path d="M 627.405091 197.729725 
L 634.461182 197.729725 
L 634.461182 191.204318 
L 627.405091 191.204318 
z
" clip-path="url(#p37848ed0bc)" style="fill: url(#h8937669feb)"/>
    <path d="M 634.461182 180.985465 
L 641.517273 180.985465 
L 641.517273 173.979195 
L 634.461182 173.979195 
z
" clip-path="url(#p37848ed0bc)" style="fill: url(#h8937669feb)"/>
    <path d="M 641.517273 166.377411 
L 648.573364 166.377411 
L 648.573364 158.985164 
L 641.517273 158.985164 
z
" clip-path="url(#p37848ed0bc)" style="fill: url(#h8937669feb)"/>
    <path d="M 648.573364 147.545227 
L 655.629455 147.545227 
L 655.629455 139.68634 
L 648.573364 139.68634 
z
" clip-path="url(#p37848ed0bc)" style="fill: url(#h8937669feb)"/>
    <path d="M 655.629455 131.837031 
L 662.685545 131.837031 
L 662.685545 123.621064 
L 655.629455 123.621064 
z
" clip-path="url(#p37848ed0bc)" style="fill: url(#h8937669feb)"/>
    <path d="M 662.685545 112.024406 
L 669.741636 112.024406 
L 669.741636 103.382612 
L 662.685545 103.382612 
z
" clip-path="url(#p37848ed0bc)" style="fill: url(#h8937669feb)"/>
    <path d="M 669.741636 95.121574 
L 676.797727 95.121574 
L 676.797727 86.148235 
L 669.741636 86.148235 
z
" clip-path="url(#p37848ed0bc)" style="fill: url(#h8937669feb)"/>
    <path d="M 676.797727 81.47902 
L 683.853818 81.47902 
L 683.853818 72.265219 
L 676.797727 72.265219 
z
" clip-path="url(#p37848ed0bc)" style="fill: url(#h8937669feb)"/>
    <path d="M 683.853818 69.733251 
L 690.909909 69.733251 
L 690.909909 60.335949 
L 683.853818 60.335949 
z
" clip-path="url(#p37848ed0bc)" style="fill: url(#h8937669feb)"/>
    <path d="M 690.909909 60.701867 
L 697.966 60.701867 
L 697.966 51.1909 
L 690.909909 51.1909 
z
" clip-path="url(#p37848ed0bc)" style="fill: url(#h8937669feb)"/>
    <path d="M 697.966 59.432446 
L 705.022091 59.432446 
L 705.022091 49.972345 
L 697.966 49.972345 
z
" clip-path="url(#p37848ed0bc)" style="fill: url(#h8937669feb)"/>
    <path d="M 705.022091 63.314724 
L 712.078182 63.314724 
L 712.078182 54.016004 
L 705.022091 54.016004 
z
" clip-path="url(#p37848ed0bc)" style="fill: url(#h8937669feb)"/>
    <path d="M 712.078182 77.709071 
L 719.134273 77.709071 
L 719.134273 68.788527 
L 712.078182 68.788527 
z
" clip-path="url(#p37848ed0bc)" style="fill: url(#h8937669feb)"/>
    <path d="M 719.134273 91.101809 
L 726.190364 91.101809 
L 726.190364 82.55665 
L 719.134273 82.55665 
z
" clip-path="url(#p37848ed0bc)" style="fill: url(#h8937669feb)"/>
    <path d="M 726.190364 112.587336 
L 733.246455 112.587336 
L 733.246455 104.603109 
L 726.190364 104.603109 
z
" clip-path="url(#p37848ed0bc)" style="fill: url(#h8937669feb)"/>
    <path d="M 733.246455 138.20099 
L 740.302545 138.20099 
L 740.302545 130.896858 
L 733.246455 130.896858 
z
" clip-path="url(#p37848ed0bc)" style="fill: url(#h8937669feb)"/>
    <path d="M 740.302545 168.641631 
L 747.358636 168.641631 
L 747.358636 162.175435 
L 740.302545 162.175435 
z
" clip-path="url(#p37848ed0bc)" style="fill: url(#h8937669feb)"/>
    <path d="M 747.358636 183.867482 
L 754.414727 183.867482 
L 754.414727 177.92395 
L 747.358636 177.92395 
z
" clip-path="url(#p37848ed0bc)" style="fill: url(#h8937669feb)"/>
    <path d="M 754.414727 210.65397 
L 761.470818 210.65397 
L 761.470818 205.571007 
L 754.414727 205.571007 
z
" clip-path="url(#p37848ed0bc)" style="fill: url(#h8937669feb)"/>
    <path d="M 761.470818 231.954595 
L 768.526909 231.954595 
L 768.526909 227.652427 
L 761.470818 227.652427 
z
" clip-path="url(#p37848ed0bc)" style="fill: url(#h8937669feb)"/>
    <path d="M 768.526909 255.985744 
L 775.583 255.985744 
L 775.583 252.637021 
L 768.526909 252.637021 
z
" clip-path="url(#p37848ed0bc)" style="fill: url(#h8937669feb)"/>
    <path d="M 775.583 273.131348 
L 782.639091 273.131348 
L 782.639091 270.608985 
L 775.583 270.608985 
z
" clip-path="url(#p37848ed0bc)" style="fill: url(#h8937669feb)"/>
    <path d="M 782.639091 293.214823 
L 789.695182 293.214823 
L 789.695182 291.883344 
L 782.639091 291.883344 
z
" clip-path="url(#p37848ed0bc)" style="fill: url(#h8937669feb)"/>
    <path d="M 789.695182 301.909293 
L 796.751273 301.909293 
L 796.751273 301.76744 
L 789.695182 301.76744 
z
" clip-path="url(#p37848ed0bc)" style="fill: url(#h8937669feb)"/>
    <path d="M 796.751273 301.96 
L 803.807364 301.96 
L 803.807364 301.96 
L 796.751273 301.96 
z
" clip-path="url(#p37848ed0bc)" style="fill: url(#h8937669feb)"/>
    <path d="M 803.807364 301.96 
L 810.863455 301.96 
L 810.863455 301.96 
L 803.807364 301.96 
z
" clip-path="url(#p37848ed0bc)" style="fill: url(#h8937669feb)"/>
    <path d="M 810.863455 301.96 
L 817.919545 301.96 
L 817.919545 301.96 
L 810.863455 301.96 
z
" clip-path="url(#p37848ed0bc)" style="fill: url(#h8937669feb)"/>
   </g>
   <g id="matplotlib.axis_1">
    <g id="xtick_1">
     <g id="line2d_1">
      <defs>
       <path id="m780291b243" d="M 0 0 
L 0 3.5 
" style="stroke: #000000; stroke-width: 0.8"/>
      </defs>
      <g>
       <use xlink:href="#m780291b243" x="199.816895" y="301.96" style="stroke: #000000; stroke-width: 0.8"/>
      </g>
     </g>
     <g id="text_1">
      <!-- −5 -->
      <g transform="translate(189.497364 319.597813) scale(0.14 -0.14)">
       <defs>
        <path id="DejaVuSans-2212" d="M 678 2272 
L 4684 2272 
L 4684 1741 
L 678 1741 
L 678 2272 
z
" transform="scale(0.015625)"/>
        <path id="DejaVuSans-35" d="M 691 4666 
L 3169 4666 
L 3169 4134 
L 1269 4134 
L 1269 2991 
Q 1406 3038 1543 3061 
Q 1681 3084 1819 3084 
Q 2600 3084 3056 2656 
Q 3513 2228 3513 1497 
Q 3513 744 3044 326 
Q 2575 -91 1722 -91 
Q 1428 -91 1123 -41 
Q 819 9 494 109 
L 494 744 
Q 775 591 1075 516 
Q 1375 441 1709 441 
Q 2250 441 2565 725 
Q 2881 1009 2881 1497 
Q 2881 1984 2565 2268 
Q 2250 2553 1709 2553 
Q 1456 2553 1204 2497 
Q 953 2441 691 2322 
L 691 4666 
z
" transform="scale(0.015625)"/>
       </defs>
       <use xlink:href="#DejaVuSans-2212"/>
       <use xlink:href="#DejaVuSans-35" x="83.789062"/>
      </g>
     </g>
    </g>
    <g id="xtick_2">
     <g id="line2d_2">
      <g>
       <use xlink:href="#m780291b243" x="323.437425" y="301.96" style="stroke: #000000; stroke-width: 0.8"/>
      </g>
     </g>
     <g id="text_2">
      <!-- −4 -->
      <g transform="translate(313.117894 319.597813) scale(0.14 -0.14)">
       <defs>
        <path id="DejaVuSans-34" d="M 2419 4116 
L 825 1625 
L 2419 1625 
L 2419 4116 
z
M 2253 4666 
L 3047 4666 
L 3047 1625 
L 3713 1625 
L 3713 1100 
L 3047 1100 
L 3047 0 
L 2419 0 
L 2419 1100 
L 313 1100 
L 313 1709 
L 2253 4666 
z
" transform="scale(0.015625)"/>
       </defs>
       <use xlink:href="#DejaVuSans-2212"/>
       <use xlink:href="#DejaVuSans-34" x="83.789062"/>
      </g>
     </g>
    </g>
    <g id="xtick_3">
     <g id="line2d_3">
      <g>
       <use xlink:href="#m780291b243" x="447.057955" y="301.96" style="stroke: #000000; stroke-width: 0.8"/>
      </g>
     </g>
     <g id="text_3">
      <!-- −3 -->
      <g transform="translate(436.738424 319.597813) scale(0.14 -0.14)">
       <defs>
        <path id="DejaVuSans-33" d="M 2597 2516 
Q 3050 2419 3304 2112 
Q 3559 1806 3559 1356 
Q 3559 666 3084 287 
Q 2609 -91 1734 -91 
Q 1441 -91 1130 -33 
Q 819 25 488 141 
L 488 750 
Q 750 597 1062 519 
Q 1375 441 1716 441 
Q 2309 441 2620 675 
Q 2931 909 2931 1356 
Q 2931 1769 2642 2001 
Q 2353 2234 1838 2234 
L 1294 2234 
L 1294 2753 
L 1863 2753 
Q 2328 2753 2575 2939 
Q 2822 3125 2822 3475 
Q 2822 3834 2567 4026 
Q 2313 4219 1838 4219 
Q 1578 4219 1281 4162 
Q 984 4106 628 3988 
L 628 4550 
Q 988 4650 1302 4700 
Q 1616 4750 1894 4750 
Q 2613 4750 3031 4423 
Q 3450 4097 3450 3541 
Q 3450 3153 3228 2886 
Q 3006 2619 2597 2516 
z
" transform="scale(0.015625)"/>
       </defs>
       <use xlink:href="#DejaVuSans-2212"/>
       <use xlink:href="#DejaVuSans-33" x="83.789062"/>
      </g>
     </g>
    </g>
    <g id="xtick_4">
     <g id="line2d_4">
      <g>
       <use xlink:href="#m780291b243" x="570.678485" y="301.96" style="stroke: #000000; stroke-width: 0.8"/>
      </g>
     </g>
     <g id="text_4">
      <!-- −2 -->
      <g transform="translate(560.358954 319.597813) scale(0.14 -0.14)">
       <defs>
        <path id="DejaVuSans-32" d="M 1228 531 
L 3431 531 
L 3431 0 
L 469 0 
L 469 531 
Q 828 903 1448 1529 
Q 2069 2156 2228 2338 
Q 2531 2678 2651 2914 
Q 2772 3150 2772 3378 
Q 2772 3750 2511 3984 
Q 2250 4219 1831 4219 
Q 1534 4219 1204 4116 
Q 875 4013 500 3803 
L 500 4441 
Q 881 4594 1212 4672 
Q 1544 4750 1819 4750 
Q 2544 4750 2975 4387 
Q 3406 4025 3406 3419 
Q 3406 3131 3298 2873 
Q 3191 2616 2906 2266 
Q 2828 2175 2409 1742 
Q 1991 1309 1228 531 
z
" transform="scale(0.015625)"/>
       </defs>
       <use xlink:href="#DejaVuSans-2212"/>
       <use xlink:href="#DejaVuSans-32" x="83.789062"/>
      </g>
     </g>
    </g>
    <g id="xtick_5">
     <g id="line2d_5">
      <g>
       <use xlink:href="#m780291b243" x="694.299015" y="301.96" style="stroke: #000000; stroke-width: 0.8"/>
      </g>
     </g>
     <g id="text_5">
      <!-- −1 -->
      <g transform="translate(683.979484 319.597813) scale(0.14 -0.14)">
       <defs>
        <path id="DejaVuSans-31" d="M 794 531 
L 1825 531 
L 1825 4091 
L 703 3866 
L 703 4441 
L 1819 4666 
L 2450 4666 
L 2450 531 
L 3481 531 
L 3481 0 
L 794 0 
L 794 531 
z
" transform="scale(0.015625)"/>
       </defs>
       <use xlink:href="#DejaVuSans-2212"/>
       <use xlink:href="#DejaVuSans-31" x="83.789062"/>
      </g>
     </g>
    </g>
    <g id="xtick_6">
     <g id="line2d_6">
      <g>
       <use xlink:href="#m780291b243" x="817.919545" y="301.96" style="stroke: #000000; stroke-width: 0.8"/>
      </g>
     </g>
     <g id="text_6">
      <!-- 0 -->
      <g transform="translate(813.465795 319.597813) scale(0.14 -0.14)">
       <defs>
        <path id="DejaVuSans-30" d="M 2034 4250 
Q 1547 4250 1301 3770 
Q 1056 3291 1056 2328 
Q 1056 1369 1301 889 
Q 1547 409 2034 409 
Q 2525 409 2770 889 
Q 3016 1369 3016 2328 
Q 3016 3291 2770 3770 
Q 2525 4250 2034 4250 
z
M 2034 4750 
Q 2819 4750 3233 4129 
Q 3647 3509 3647 2328 
Q 3647 1150 3233 529 
Q 2819 -91 2034 -91 
Q 1250 -91 836 529 
Q 422 1150 422 2328 
Q 422 3509 836 4129 
Q 1250 4750 2034 4750 
z
" transform="scale(0.015625)"/>
       </defs>
       <use xlink:href="#DejaVuSans-30"/>
      </g>
     </g>
    </g>
    <g id="text_7">
     <!-- $\log_{10}$(amino acid substitution probability) -->
     <g transform="translate(319.375 343.149375) scale(0.14 -0.14)">
      <defs>
       <path id="DejaVuSans-6c" d="M 603 4863 
L 1178 4863 
L 1178 0 
L 603 0 
L 603 4863 
z
" transform="scale(0.015625)"/>
       <path id="DejaVuSans-6f" d="M 1959 3097 
Q 1497 3097 1228 2736 
Q 959 2375 959 1747 
Q 959 1119 1226 758 
Q 1494 397 1959 397 
Q 2419 397 2687 759 
Q 2956 1122 2956 1747 
Q 2956 2369 2687 2733 
Q 2419 3097 1959 3097 
z
M 1959 3584 
Q 2709 3584 3137 3096 
Q 3566 2609 3566 1747 
Q 3566 888 3137 398 
Q 2709 -91 1959 -91 
Q 1206 -91 779 398 
Q 353 888 353 1747 
Q 353 2609 779 3096 
Q 1206 3584 1959 3584 
z
" transform="scale(0.015625)"/>
       <path id="DejaVuSans-67" d="M 2906 1791 
Q 2906 2416 2648 2759 
Q 2391 3103 1925 3103 
Q 1463 3103 1205 2759 
Q 947 2416 947 1791 
Q 947 1169 1205 825 
Q 1463 481 1925 481 
Q 2391 481 2648 825 
Q 2906 1169 2906 1791 
z
M 3481 434 
Q 3481 -459 3084 -895 
Q 2688 -1331 1869 -1331 
Q 1566 -1331 1297 -1286 
Q 1028 -1241 775 -1147 
L 775 -588 
Q 1028 -725 1275 -790 
Q 1522 -856 1778 -856 
Q 2344 -856 2625 -561 
Q 2906 -266 2906 331 
L 2906 616 
Q 2728 306 2450 153 
Q 2172 0 1784 0 
Q 1141 0 747 490 
Q 353 981 353 1791 
Q 353 2603 747 3093 
Q 1141 3584 1784 3584 
Q 2172 3584 2450 3431 
Q 2728 3278 2906 2969 
L 2906 3500 
L 3481 3500 
L 3481 434 
z
" transform="scale(0.015625)"/>
       <path id="DejaVuSans-28" d="M 1984 4856 
Q 1566 4138 1362 3434 
Q 1159 2731 1159 2009 
Q 1159 1288 1364 580 
Q 1569 -128 1984 -844 
L 1484 -844 
Q 1016 -109 783 600 
Q 550 1309 550 2009 
Q 550 2706 781 3412 
Q 1013 4119 1484 4856 
L 1984 4856 
z
" transform="scale(0.015625)"/>
       <path id="DejaVuSans-61" d="M 2194 1759 
Q 1497 1759 1228 1600 
Q 959 1441 959 1056 
Q 959 750 1161 570 
Q 1363 391 1709 391 
Q 2188 391 2477 730 
Q 2766 1069 2766 1631 
L 2766 1759 
L 2194 1759 
z
M 3341 1997 
L 3341 0 
L 2766 0 
L 2766 531 
Q 2569 213 2275 61 
Q 1981 -91 1556 -91 
Q 1019 -91 701 211 
Q 384 513 384 1019 
Q 384 1609 779 1909 
Q 1175 2209 1959 2209 
L 2766 2209 
L 2766 2266 
Q 2766 2663 2505 2880 
Q 2244 3097 1772 3097 
Q 1472 3097 1187 3025 
Q 903 2953 641 2809 
L 641 3341 
Q 956 3463 1253 3523 
Q 1550 3584 1831 3584 
Q 2591 3584 2966 3190 
Q 3341 2797 3341 1997 
z
" transform="scale(0.015625)"/>
       <path id="DejaVuSans-6d" d="M 3328 2828 
Q 3544 3216 3844 3400 
Q 4144 3584 4550 3584 
Q 5097 3584 5394 3201 
Q 5691 2819 5691 2113 
L 5691 0 
L 5113 0 
L 5113 2094 
Q 5113 2597 4934 2840 
Q 4756 3084 4391 3084 
Q 3944 3084 3684 2787 
Q 3425 2491 3425 1978 
L 3425 0 
L 2847 0 
L 2847 2094 
Q 2847 2600 2669 2842 
Q 2491 3084 2119 3084 
Q 1678 3084 1418 2786 
Q 1159 2488 1159 1978 
L 1159 0 
L 581 0 
L 581 3500 
L 1159 3500 
L 1159 2956 
Q 1356 3278 1631 3431 
Q 1906 3584 2284 3584 
Q 2666 3584 2933 3390 
Q 3200 3197 3328 2828 
z
" transform="scale(0.015625)"/>
       <path id="DejaVuSans-69" d="M 603 3500 
L 1178 3500 
L 1178 0 
L 603 0 
L 603 3500 
z
M 603 4863 
L 1178 4863 
L 1178 4134 
L 603 4134 
L 603 4863 
z
" transform="scale(0.015625)"/>
       <path id="DejaVuSans-6e" d="M 3513 2113 
L 3513 0 
L 2938 0 
L 2938 2094 
Q 2938 2591 2744 2837 
Q 2550 3084 2163 3084 
Q 1697 3084 1428 2787 
Q 1159 2491 1159 1978 
L 1159 0 
L 581 0 
L 581 3500 
L 1159 3500 
L 1159 2956 
Q 1366 3272 1645 3428 
Q 1925 3584 2291 3584 
Q 2894 3584 3203 3211 
Q 3513 2838 3513 2113 
z
" transform="scale(0.015625)"/>
       <path id="DejaVuSans-20" transform="scale(0.015625)"/>
       <path id="DejaVuSans-63" d="M 3122 3366 
L 3122 2828 
Q 2878 2963 2633 3030 
Q 2388 3097 2138 3097 
Q 1578 3097 1268 2742 
Q 959 2388 959 1747 
Q 959 1106 1268 751 
Q 1578 397 2138 397 
Q 2388 397 2633 464 
Q 2878 531 3122 666 
L 3122 134 
Q 2881 22 2623 -34 
Q 2366 -91 2075 -91 
Q 1284 -91 818 406 
Q 353 903 353 1747 
Q 353 2603 823 3093 
Q 1294 3584 2113 3584 
Q 2378 3584 2631 3529 
Q 2884 3475 3122 3366 
z
" transform="scale(0.015625)"/>
       <path id="DejaVuSans-64" d="M 2906 2969 
L 2906 4863 
L 3481 4863 
L 3481 0 
L 2906 0 
L 2906 525 
Q 2725 213 2448 61 
Q 2172 -91 1784 -91 
Q 1150 -91 751 415 
Q 353 922 353 1747 
Q 353 2572 751 3078 
Q 1150 3584 1784 3584 
Q 2172 3584 2448 3432 
Q 2725 3281 2906 2969 
z
M 947 1747 
Q 947 1113 1208 752 
Q 1469 391 1925 391 
Q 2381 391 2643 752 
Q 2906 1113 2906 1747 
Q 2906 2381 2643 2742 
Q 2381 3103 1925 3103 
Q 1469 3103 1208 2742 
Q 947 2381 947 1747 
z
" transform="scale(0.015625)"/>
       <path id="DejaVuSans-73" d="M 2834 3397 
L 2834 2853 
Q 2591 2978 2328 3040 
Q 2066 3103 1784 3103 
Q 1356 3103 1142 2972 
Q 928 2841 928 2578 
Q 928 2378 1081 2264 
Q 1234 2150 1697 2047 
L 1894 2003 
Q 2506 1872 2764 1633 
Q 3022 1394 3022 966 
Q 3022 478 2636 193 
Q 2250 -91 1575 -91 
Q 1294 -91 989 -36 
Q 684 19 347 128 
L 347 722 
Q 666 556 975 473 
Q 1284 391 1588 391 
Q 1994 391 2212 530 
Q 2431 669 2431 922 
Q 2431 1156 2273 1281 
Q 2116 1406 1581 1522 
L 1381 1569 
Q 847 1681 609 1914 
Q 372 2147 372 2553 
Q 372 3047 722 3315 
Q 1072 3584 1716 3584 
Q 2034 3584 2315 3537 
Q 2597 3491 2834 3397 
z
" transform="scale(0.015625)"/>
       <path id="DejaVuSans-75" d="M 544 1381 
L 544 3500 
L 1119 3500 
L 1119 1403 
Q 1119 906 1312 657 
Q 1506 409 1894 409 
Q 2359 409 2629 706 
Q 2900 1003 2900 1516 
L 2900 3500 
L 3475 3500 
L 3475 0 
L 2900 0 
L 2900 538 
Q 2691 219 2414 64 
Q 2138 -91 1772 -91 
Q 1169 -91 856 284 
Q 544 659 544 1381 
z
M 1991 3584 
L 1991 3584 
z
" transform="scale(0.015625)"/>
       <path id="DejaVuSans-62" d="M 3116 1747 
Q 3116 2381 2855 2742 
Q 2594 3103 2138 3103 
Q 1681 3103 1420 2742 
Q 1159 2381 1159 1747 
Q 1159 1113 1420 752 
Q 1681 391 2138 391 
Q 2594 391 2855 752 
Q 3116 1113 3116 1747 
z
M 1159 2969 
Q 1341 3281 1617 3432 
Q 1894 3584 2278 3584 
Q 2916 3584 3314 3078 
Q 3713 2572 3713 1747 
Q 3713 922 3314 415 
Q 2916 -91 2278 -91 
Q 1894 -91 1617 61 
Q 1341 213 1159 525 
L 1159 0 
L 581 0 
L 581 4863 
L 1159 4863 
L 1159 2969 
z
" transform="scale(0.015625)"/>
       <path id="DejaVuSans-74" d="M 1172 4494 
L 1172 3500 
L 2356 3500 
L 2356 3053 
L 1172 3053 
L 1172 1153 
Q 1172 725 1289 603 
Q 1406 481 1766 481 
L 2356 481 
L 2356 0 
L 1766 0 
Q 1100 0 847 248 
Q 594 497 594 1153 
L 594 3053 
L 172 3053 
L 172 3500 
L 594 3500 
L 594 4494 
L 1172 4494 
z
" transform="scale(0.015625)"/>
       <path id="DejaVuSans-70" d="M 1159 525 
L 1159 -1331 
L 581 -1331 
L 581 3500 
L 1159 3500 
L 1159 2969 
Q 1341 3281 1617 3432 
Q 1894 3584 2278 3584 
Q 2916 3584 3314 3078 
Q 3713 2572 3713 1747 
Q 3713 922 3314 415 
Q 2916 -91 2278 -91 
Q 1894 -91 1617 61 
Q 1341 213 1159 525 
z
M 3116 1747 
Q 3116 2381 2855 2742 
Q 2594 3103 2138 3103 
Q 1681 3103 1420 2742 
Q 1159 2381 1159 1747 
Q 1159 1113 1420 752 
Q 1681 391 2138 391 
Q 2594 391 2855 752 
Q 3116 1113 3116 1747 
z
" transform="scale(0.015625)"/>
       <path id="DejaVuSans-72" d="M 2631 2963 
Q 2534 3019 2420 3045 
Q 2306 3072 2169 3072 
Q 1681 3072 1420 2755 
Q 1159 2438 1159 1844 
L 1159 0 
L 581 0 
L 581 3500 
L 1159 3500 
L 1159 2956 
Q 1341 3275 1631 3429 
Q 1922 3584 2338 3584 
Q 2397 3584 2469 3576 
Q 2541 3569 2628 3553 
L 2631 2963 
z
" transform="scale(0.015625)"/>
       <path id="DejaVuSans-79" d="M 2059 -325 
Q 1816 -950 1584 -1140 
Q 1353 -1331 966 -1331 
L 506 -1331 
L 506 -850 
L 844 -850 
Q 1081 -850 1212 -737 
Q 1344 -625 1503 -206 
L 1606 56 
L 191 3500 
L 800 3500 
L 1894 763 
L 2988 3500 
L 3597 3500 
L 2059 -325 
z
" transform="scale(0.015625)"/>
       <path id="DejaVuSans-29" d="M 513 4856 
L 1013 4856 
Q 1481 4119 1714 3412 
Q 1947 2706 1947 2009 
Q 1947 1309 1714 600 
Q 1481 -109 1013 -844 
L 513 -844 
Q 928 -128 1133 580 
Q 1338 1288 1338 2009 
Q 1338 2731 1133 3434 
Q 928 4138 513 4856 
z
" transform="scale(0.015625)"/>
      </defs>
      <use xlink:href="#DejaVuSans-6c" transform="translate(0 0.015625)"/>
      <use xlink:href="#DejaVuSans-6f" transform="translate(27.783203 0.015625)"/>
      <use xlink:href="#DejaVuSans-67" transform="translate(88.964844 0.015625)"/>
      <use xlink:href="#DejaVuSans-31" transform="translate(153.398438 -16.390625) scale(0.7)"/>
      <use xlink:href="#DejaVuSans-30" transform="translate(197.93457 -16.390625) scale(0.7)"/>
      <use xlink:href="#DejaVuSans-28" transform="translate(261.440754 0.015625)"/>
      <use xlink:href="#DejaVuSans-61" transform="translate(300.454426 0.015625)"/>
      <use xlink:href="#DejaVuSans-6d" transform="translate(361.733723 0.015625)"/>
      <use xlink:href="#DejaVuSans-69" transform="translate(459.145833 0.015625)"/>
      <use xlink:href="#DejaVuSans-6e" transform="translate(486.929036 0.015625)"/>
      <use xlink:href="#DejaVuSans-6f" transform="translate(550.307942 0.015625)"/>
      <use xlink:href="#DejaVuSans-20" transform="translate(611.489583 0.015625)"/>
      <use xlink:href="#DejaVuSans-61" transform="translate(643.276692 0.015625)"/>
      <use xlink:href="#DejaVuSans-63" transform="translate(704.555989 0.015625)"/>
      <use xlink:href="#DejaVuSans-69" transform="translate(759.536458 0.015625)"/>
      <use xlink:href="#DejaVuSans-64" transform="translate(787.319661 0.015625)"/>
      <use xlink:href="#DejaVuSans-20" transform="translate(850.796223 0.015625)"/>
      <use xlink:href="#DejaVuSans-73" transform="translate(882.583333 0.015625)"/>
      <use xlink:href="#DejaVuSans-75" transform="translate(934.682942 0.015625)"/>
      <use xlink:href="#DejaVuSans-62" transform="translate(998.061848 0.015625)"/>
      <use xlink:href="#DejaVuSans-73" transform="translate(1061.538411 0.015625)"/>
      <use xlink:href="#DejaVuSans-74" transform="translate(1113.63802 0.015625)"/>
      <use xlink:href="#DejaVuSans-69" transform="translate(1152.847004 0.015625)"/>
      <use xlink:href="#DejaVuSans-74" transform="translate(1180.630208 0.015625)"/>
      <use xlink:href="#DejaVuSans-75" transform="translate(1219.839192 0.015625)"/>
      <use xlink:href="#DejaVuSans-74" transform="translate(1283.218098 0.015625)"/>
      <use xlink:href="#DejaVuSans-69" transform="translate(1322.427083 0.015625)"/>
      <use xlink:href="#DejaVuSans-6f" transform="translate(1350.210286 0.015625)"/>
      <use xlink:href="#DejaVuSans-6e" transform="translate(1411.391926 0.015625)"/>
      <use xlink:href="#DejaVuSans-20" transform="translate(1474.770833 0.015625)"/>
      <use xlink:href="#DejaVuSans-70" transform="translate(1506.557942 0.015625)"/>
      <use xlink:href="#DejaVuSans-72" transform="translate(1570.034504 0.015625)"/>
      <use xlink:href="#DejaVuSans-6f" transform="translate(1611.147786 0.015625)"/>
      <use xlink:href="#DejaVuSans-62" transform="translate(1672.329426 0.015625)"/>
      <use xlink:href="#DejaVuSans-61" transform="translate(1735.805989 0.015625)"/>
      <use xlink:href="#DejaVuSans-62" transform="translate(1797.085286 0.015625)"/>
      <use xlink:href="#DejaVuSans-69" transform="translate(1860.561848 0.015625)"/>
      <use xlink:href="#DejaVuSans-6c" transform="translate(1888.345051 0.015625)"/>
      <use xlink:href="#DejaVuSans-69" transform="translate(1916.128254 0.015625)"/>
      <use xlink:href="#DejaVuSans-74" transform="translate(1943.911458 0.015625)"/>
      <use xlink:href="#DejaVuSans-79" transform="translate(1983.120442 0.015625)"/>
      <use xlink:href="#DejaVuSans-29" transform="translate(2042.300129 0.015625)"/>
     </g>
    </g>
   </g>
   <g id="matplotlib.axis_2">
    <g id="ytick_1">
     <g id="line2d_7">
      <defs>
       <path id="m29aecc6135" d="M 0 0 
L -3.5 0 
" style="stroke: #000000; stroke-width: 0.8"/>
      </defs>
      <g>
       <use xlink:href="#m29aecc6135" x="77.03" y="301.96" style="stroke: #000000; stroke-width: 0.8"/>
      </g>
     </g>
     <g id="text_8">
      <!-- 0 -->
      <g transform="translate(61.1225 307.278906) scale(0.14 -0.14)">
       <use xlink:href="#DejaVuSans-30"/>
      </g>
     </g>
    </g>
    <g id="ytick_2">
     <g id="line2d_8">
      <g>
       <use xlink:href="#m29aecc6135" x="77.03" y="250.871812" style="stroke: #000000; stroke-width: 0.8"/>
      </g>
     </g>
     <g id="text_9">
      <!-- 500 -->
      <g transform="translate(43.3075 256.190718) scale(0.14 -0.14)">
       <use xlink:href="#DejaVuSans-35"/>
       <use xlink:href="#DejaVuSans-30" x="63.623047"/>
       <use xlink:href="#DejaVuSans-30" x="127.246094"/>
      </g>
     </g>
    </g>
    <g id="ytick_3">
     <g id="line2d_9">
      <g>
       <use xlink:href="#m29aecc6135" x="77.03" y="199.783623" style="stroke: #000000; stroke-width: 0.8"/>
      </g>
     </g>
     <g id="text_10">
      <!-- 1000 -->
      <g transform="translate(34.4 205.102529) scale(0.14 -0.14)">
       <use xlink:href="#DejaVuSans-31"/>
       <use xlink:href="#DejaVuSans-30" x="63.623047"/>
       <use xlink:href="#DejaVuSans-30" x="127.246094"/>
       <use xlink:href="#DejaVuSans-30" x="190.869141"/>
      </g>
     </g>
    </g>
    <g id="ytick_4">
     <g id="line2d_10">
      <g>
       <use xlink:href="#m29aecc6135" x="77.03" y="148.695435" style="stroke: #000000; stroke-width: 0.8"/>
      </g>
     </g>
     <g id="text_11">
      <!-- 1500 -->
      <g transform="translate(34.4 154.014341) scale(0.14 -0.14)">
       <use xlink:href="#DejaVuSans-31"/>
       <use xlink:href="#DejaVuSans-35" x="63.623047"/>
       <use xlink:href="#DejaVuSans-30" x="127.246094"/>
       <use xlink:href="#DejaVuSans-30" x="190.869141"/>
      </g>
     </g>
    </g>
    <g id="ytick_5">
     <g id="line2d_11">
      <g>
       <use xlink:href="#m29aecc6135" x="77.03" y="97.607246" style="stroke: #000000; stroke-width: 0.8"/>
      </g>
     </g>
     <g id="text_12">
      <!-- 2000 -->
      <g transform="translate(34.4 102.926153) scale(0.14 -0.14)">
       <use xlink:href="#DejaVuSans-32"/>
       <use xlink:href="#DejaVuSans-30" x="63.623047"/>
       <use xlink:href="#DejaVuSans-30" x="127.246094"/>
       <use xlink:href="#DejaVuSans-30" x="190.869141"/>
      </g>
     </g>
    </g>
    <g id="ytick_6">
     <g id="line2d_12">
      <g>
       <use xlink:href="#m29aecc6135" x="77.03" y="46.519058" style="stroke: #000000; stroke-width: 0.8"/>
      </g>
     </g>
     <g id="text_13">
      <!-- 2500 -->
      <g transform="translate(34.4 51.837964) scale(0.14 -0.14)">
       <use xlink:href="#DejaVuSans-32"/>
       <use xlink:href="#DejaVuSans-35" x="63.623047"/>
       <use xlink:href="#DejaVuSans-30" x="127.246094"/>
       <use xlink:href="#DejaVuSans-30" x="190.869141"/>
      </g>
     </g>
    </g>
    <g id="text_14">
     <!-- number of mutations -->
     <g transform="translate(21.488437 242.839844) rotate(-90) scale(0.14 -0.14)">
      <defs>
       <path id="DejaVuSans-65" d="M 3597 1894 
L 3597 1613 
L 953 1613 
Q 991 1019 1311 708 
Q 1631 397 2203 397 
Q 2534 397 2845 478 
Q 3156 559 3463 722 
L 3463 178 
Q 3153 47 2828 -22 
Q 2503 -91 2169 -91 
Q 1331 -91 842 396 
Q 353 884 353 1716 
Q 353 2575 817 3079 
Q 1281 3584 2069 3584 
Q 2775 3584 3186 3129 
Q 3597 2675 3597 1894 
z
M 3022 2063 
Q 3016 2534 2758 2815 
Q 2500 3097 2075 3097 
Q 1594 3097 1305 2825 
Q 1016 2553 972 2059 
L 3022 2063 
z
" transform="scale(0.015625)"/>
       <path id="DejaVuSans-66" d="M 2375 4863 
L 2375 4384 
L 1825 4384 
Q 1516 4384 1395 4259 
Q 1275 4134 1275 3809 
L 1275 3500 
L 2222 3500 
L 2222 3053 
L 1275 3053 
L 1275 0 
L 697 0 
L 697 3053 
L 147 3053 
L 147 3500 
L 697 3500 
L 697 3744 
Q 697 4328 969 4595 
Q 1241 4863 1831 4863 
L 2375 4863 
z
" transform="scale(0.015625)"/>
      </defs>
      <use xlink:href="#DejaVuSans-6e"/>
      <use xlink:href="#DejaVuSans-75" x="63.378906"/>
      <use xlink:href="#DejaVuSans-6d" x="126.757812"/>
      <use xlink:href="#DejaVuSans-62" x="224.169922"/>
      <use xlink:href="#DejaVuSans-65" x="287.646484"/>
      <use xlink:href="#DejaVuSans-72" x="349.169922"/>
      <use xlink:href="#DejaVuSans-20" x="390.283203"/>
      <use xlink:href="#DejaVuSans-6f" x="422.070312"/>
      <use xlink:href="#DejaVuSans-66" x="483.251953"/>
      <use xlink:href="#DejaVuSans-20" x="518.457031"/>
      <use xlink:href="#DejaVuSans-6d" x="550.244141"/>
      <use xlink:href="#DejaVuSans-75" x="647.65625"/>
      <use xlink:href="#DejaVuSans-74" x="711.035156"/>
      <use xlink:href="#DejaVuSans-61" x="750.244141"/>
      <use xlink:href="#DejaVuSans-74" x="811.523438"/>
      <use xlink:href="#DejaVuSans-69" x="850.732422"/>
      <use xlink:href="#DejaVuSans-6f" x="878.515625"/>
      <use xlink:href="#DejaVuSans-6e" x="939.697266"/>
      <use xlink:href="#DejaVuSans-73" x="1003.076172"/>
     </g>
    </g>
   </g>
   <g id="line2d_13">
    <path d="M 115.8385 301.96 
L 122.894591 301.96 
L 129.950682 301.96 
L 137.006773 301.96 
L 144.062864 301.96 
L 151.118955 301.96 
L 158.175045 301.96 
L 165.231136 301.96 
L 172.287227 301.96 
L 179.343318 301.96 
L 186.399409 301.96 
L 193.4555 301.96 
L 200.511591 301.96 
L 207.567682 301.96 
L 214.623773 301.96 
L 221.679864 301.96 
L 228.735955 301.96 
L 235.792045 301.96 
L 242.848136 301.96 
L 249.904227 301.96 
L 256.960318 301.96 
L 264.016409 301.96 
L 271.0725 301.96 
L 278.128591 301.96 
L 285.184682 301.96 
L 292.240773 301.96 
L 299.296864 301.96 
L 306.352955 301.96 
L 313.409045 301.96 
L 320.465136 301.96 
L 327.521227 301.96 
L 334.577318 301.96 
L 341.633409 301.96 
L 348.6895 301.96 
L 355.745591 301.96 
L 362.801682 301.96 
L 369.857773 301.96 
L 376.913864 301.96 
L 383.969955 301.96 
L 391.026045 301.96 
L 398.082136 301.96 
L 405.138227 301.96 
L 412.194318 301.96 
L 419.250409 301.96 
L 426.3065 301.96 
L 433.362591 301.857824 
L 440.418682 301.244765 
L 447.474773 301.449118 
L 454.530864 301.449118 
L 461.586955 299.71212 
L 468.643045 298.58818 
L 475.699136 298.077298 
L 482.755227 295.012006 
L 489.811318 293.172832 
L 496.867409 291.027128 
L 503.9235 286.429191 
L 510.979591 288.370542 
L 518.035682 283.466076 
L 525.091773 274.781084 
L 532.147864 274.270202 
L 539.203955 270.3875 
L 546.260045 272.226674 
L 553.316136 274.985437 
L 560.372227 277.539846 
L 567.428318 274.270202 
L 574.484409 277.13114 
L 581.5405 274.270202 
L 588.596591 265.278681 
L 595.652682 265.789563 
L 602.708773 256.389336 
L 609.764864 251.382693 
L 616.820955 238.304117 
L 623.877045 231.049594 
L 630.933136 219.197135 
L 637.989227 199.272741 
L 645.045318 193.142159 
L 652.101409 174.750411 
L 659.1575 156.767369 
L 666.213591 135.821211 
L 673.269682 115.181583 
L 680.325773 95.155013 
L 687.381864 85.959139 
L 694.437955 60.823751 
L 701.494045 48.664762 
L 708.550136 55.510579 
L 715.606227 56.838872 
L 722.662318 75.741502 
L 729.718409 83.915612 
L 736.7745 119.268638 
L 743.830591 142.871381 
L 750.886682 157.58478 
L 757.942773 190.383397 
L 764.998864 214.394845 
L 772.054955 242.902054 
L 779.111045 265.176504 
L 786.167136 290.209717 
L 793.223227 301.755647 
L 800.279318 301.96 
L 807.335409 301.96 
L 814.3915 301.96 
" clip-path="url(#p37848ed0bc)" style="fill: none"/>
    <defs>
     <path id="maf7208dbd4" d="M 0 2 
C 0.530406 2 1.03916 1.789267 1.414214 1.414214 
C 1.789267 1.03916 2 0.530406 2 0 
C 2 -0.530406 1.789267 -1.03916 1.414214 -1.414214 
C 1.03916 -1.789267 0.530406 -2 0 -2 
C -0.530406 -2 -1.03916 -1.789267 -1.414214 -1.414214 
C -1.789267 -1.03916 -2 -0.530406 -2 0 
C -2 0.530406 -1.789267 1.03916 -1.414214 1.414214 
C -1.03916 1.789267 -0.530406 2 0 2 
z
" style="stroke: #000000"/>
    </defs>
    <g clip-path="url(#p37848ed0bc)">
     <use xlink:href="#maf7208dbd4" x="115.8385" y="301.96" style="stroke: #000000"/>
     <use xlink:href="#maf7208dbd4" x="122.894591" y="301.96" style="stroke: #000000"/>
     <use xlink:href="#maf7208dbd4" x="129.950682" y="301.96" style="stroke: #000000"/>
     <use xlink:href="#maf7208dbd4" x="137.006773" y="301.96" style="stroke: #000000"/>
     <use xlink:href="#maf7208dbd4" x="144.062864" y="301.96" style="stroke: #000000"/>
     <use xlink:href="#maf7208dbd4" x="151.118955" y="301.96" style="stroke: #000000"/>
     <use xlink:href="#maf7208dbd4" x="158.175045" y="301.96" style="stroke: #000000"/>
     <use xlink:href="#maf7208dbd4" x="165.231136" y="301.96" style="stroke: #000000"/>
     <use xlink:href="#maf7208dbd4" x="172.287227" y="301.96" style="stroke: #000000"/>
     <use xlink:href="#maf7208dbd4" x="179.343318" y="301.96" style="stroke: #000000"/>
     <use xlink:href="#maf7208dbd4" x="186.399409" y="301.96" style="stroke: #000000"/>
     <use xlink:href="#maf7208dbd4" x="193.4555" y="301.96" style="stroke: #000000"/>
     <use xlink:href="#maf7208dbd4" x="200.511591" y="301.96" style="stroke: #000000"/>
     <use xlink:href="#maf7208dbd4" x="207.567682" y="301.96" style="stroke: #000000"/>
     <use xlink:href="#maf7208dbd4" x="214.623773" y="301.96" style="stroke: #000000"/>
     <use xlink:href="#maf7208dbd4" x="221.679864" y="301.96" style="stroke: #000000"/>
     <use xlink:href="#maf7208dbd4" x="228.735955" y="301.96" style="stroke: #000000"/>
     <use xlink:href="#maf7208dbd4" x="235.792045" y="301.96" style="stroke: #000000"/>
     <use xlink:href="#maf7208dbd4" x="242.848136" y="301.96" style="stroke: #000000"/>
     <use xlink:href="#maf7208dbd4" x="249.904227" y="301.96" style="stroke: #000000"/>
     <use xlink:href="#maf7208dbd4" x="256.960318" y="301.96" style="stroke: #000000"/>
     <use xlink:href="#maf7208dbd4" x="264.016409" y="301.96" style="stroke: #000000"/>
     <use xlink:href="#maf7208dbd4" x="271.0725" y="301.96" style="stroke: #000000"/>
     <use xlink:href="#maf7208dbd4" x="278.128591" y="301.96" style="stroke: #000000"/>
     <use xlink:href="#maf7208dbd4" x="285.184682" y="301.96" style="stroke: #000000"/>
     <use xlink:href="#maf7208dbd4" x="292.240773" y="301.96" style="stroke: #000000"/>
     <use xlink:href="#maf7208dbd4" x="299.296864" y="301.96" style="stroke: #000000"/>
     <use xlink:href="#maf7208dbd4" x="306.352955" y="301.96" style="stroke: #000000"/>
     <use xlink:href="#maf7208dbd4" x="313.409045" y="301.96" style="stroke: #000000"/>
     <use xlink:href="#maf7208dbd4" x="320.465136" y="301.96" style="stroke: #000000"/>
     <use xlink:href="#maf7208dbd4" x="327.521227" y="301.96" style="stroke: #000000"/>
     <use xlink:href="#maf7208dbd4" x="334.577318" y="301.96" style="stroke: #000000"/>
     <use xlink:href="#maf7208dbd4" x="341.633409" y="301.96" style="stroke: #000000"/>
     <use xlink:href="#maf7208dbd4" x="348.6895" y="301.96" style="stroke: #000000"/>
     <use xlink:href="#maf7208dbd4" x="355.745591" y="301.96" style="stroke: #000000"/>
     <use xlink:href="#maf7208dbd4" x="362.801682" y="301.96" style="stroke: #000000"/>
     <use xlink:href="#maf7208dbd4" x="369.857773" y="301.96" style="stroke: #000000"/>
     <use xlink:href="#maf7208dbd4" x="376.913864" y="301.96" style="stroke: #000000"/>
     <use xlink:href="#maf7208dbd4" x="383.969955" y="301.96" style="stroke: #000000"/>
     <use xlink:href="#maf7208dbd4" x="391.026045" y="301.96" style="stroke: #000000"/>
     <use xlink:href="#maf7208dbd4" x="398.082136" y="301.96" style="stroke: #000000"/>
     <use xlink:href="#maf7208dbd4" x="405.138227" y="301.96" style="stroke: #000000"/>
     <use xlink:href="#maf7208dbd4" x="412.194318" y="301.96" style="stroke: #000000"/>
     <use xlink:href="#maf7208dbd4" x="419.250409" y="301.96" style="stroke: #000000"/>
     <use xlink:href="#maf7208dbd4" x="426.3065" y="301.96" style="stroke: #000000"/>
     <use xlink:href="#maf7208dbd4" x="433.362591" y="301.857824" style="stroke: #000000"/>
     <use xlink:href="#maf7208dbd4" x="440.418682" y="301.244765" style="stroke: #000000"/>
     <use xlink:href="#maf7208dbd4" x="447.474773" y="301.449118" style="stroke: #000000"/>
     <use xlink:href="#maf7208dbd4" x="454.530864" y="301.449118" style="stroke: #000000"/>
     <use xlink:href="#maf7208dbd4" x="461.586955" y="299.71212" style="stroke: #000000"/>
     <use xlink:href="#maf7208dbd4" x="468.643045" y="298.58818" style="stroke: #000000"/>
     <use xlink:href="#maf7208dbd4" x="475.699136" y="298.077298" style="stroke: #000000"/>
     <use xlink:href="#maf7208dbd4" x="482.755227" y="295.012006" style="stroke: #000000"/>
     <use xlink:href="#maf7208dbd4" x="489.811318" y="293.172832" style="stroke: #000000"/>
     <use xlink:href="#maf7208dbd4" x="496.867409" y="291.027128" style="stroke: #000000"/>
     <use xlink:href="#maf7208dbd4" x="503.9235" y="286.429191" style="stroke: #000000"/>
     <use xlink:href="#maf7208dbd4" x="510.979591" y="288.370542" style="stroke: #000000"/>
     <use xlink:href="#maf7208dbd4" x="518.035682" y="283.466076" style="stroke: #000000"/>
     <use xlink:href="#maf7208dbd4" x="525.091773" y="274.781084" style="stroke: #000000"/>
     <use xlink:href="#maf7208dbd4" x="532.147864" y="274.270202" style="stroke: #000000"/>
     <use xlink:href="#maf7208dbd4" x="539.203955" y="270.3875" style="stroke: #000000"/>
     <use xlink:href="#maf7208dbd4" x="546.260045" y="272.226674" style="stroke: #000000"/>
     <use xlink:href="#maf7208dbd4" x="553.316136" y="274.985437" style="stroke: #000000"/>
     <use xlink:href="#maf7208dbd4" x="560.372227" y="277.539846" style="stroke: #000000"/>
     <use xlink:href="#maf7208dbd4" x="567.428318" y="274.270202" style="stroke: #000000"/>
     <use xlink:href="#maf7208dbd4" x="574.484409" y="277.13114" style="stroke: #000000"/>
     <use xlink:href="#maf7208dbd4" x="581.5405" y="274.270202" style="stroke: #000000"/>
     <use xlink:href="#maf7208dbd4" x="588.596591" y="265.278681" style="stroke: #000000"/>
     <use xlink:href="#maf7208dbd4" x="595.652682" y="265.789563" style="stroke: #000000"/>
     <use xlink:href="#maf7208dbd4" x="602.708773" y="256.389336" style="stroke: #000000"/>
     <use xlink:href="#maf7208dbd4" x="609.764864" y="251.382693" style="stroke: #000000"/>
     <use xlink:href="#maf7208dbd4" x="616.820955" y="238.304117" style="stroke: #000000"/>
     <use xlink:href="#maf7208dbd4" x="623.877045" y="231.049594" style="stroke: #000000"/>
     <use xlink:href="#maf7208dbd4" x="630.933136" y="219.197135" style="stroke: #000000"/>
     <use xlink:href="#maf7208dbd4" x="637.989227" y="199.272741" style="stroke: #000000"/>
     <use xlink:href="#maf7208dbd4" x="645.045318" y="193.142159" style="stroke: #000000"/>
     <use xlink:href="#maf7208dbd4" x="652.101409" y="174.750411" style="stroke: #000000"/>
     <use xlink:href="#maf7208dbd4" x="659.1575" y="156.767369" style="stroke: #000000"/>
     <use xlink:href="#maf7208dbd4" x="666.213591" y="135.821211" style="stroke: #000000"/>
     <use xlink:href="#maf7208dbd4" x="673.269682" y="115.181583" style="stroke: #000000"/>
     <use xlink:href="#maf7208dbd4" x="680.325773" y="95.155013" style="stroke: #000000"/>
     <use xlink:href="#maf7208dbd4" x="687.381864" y="85.959139" style="stroke: #000000"/>
     <use xlink:href="#maf7208dbd4" x="694.437955" y="60.823751" style="stroke: #000000"/>
     <use xlink:href="#maf7208dbd4" x="701.494045" y="48.664762" style="stroke: #000000"/>
     <use xlink:href="#maf7208dbd4" x="708.550136" y="55.510579" style="stroke: #000000"/>
     <use xlink:href="#maf7208dbd4" x="715.606227" y="56.838872" style="stroke: #000000"/>
     <use xlink:href="#maf7208dbd4" x="722.662318" y="75.741502" style="stroke: #000000"/>
     <use xlink:href="#maf7208dbd4" x="729.718409" y="83.915612" style="stroke: #000000"/>
     <use xlink:href="#maf7208dbd4" x="736.7745" y="119.268638" style="stroke: #000000"/>
     <use xlink:href="#maf7208dbd4" x="743.830591" y="142.871381" style="stroke: #000000"/>
     <use xlink:href="#maf7208dbd4" x="750.886682" y="157.58478" style="stroke: #000000"/>
     <use xlink:href="#maf7208dbd4" x="757.942773" y="190.383397" style="stroke: #000000"/>
     <use xlink:href="#maf7208dbd4" x="764.998864" y="214.394845" style="stroke: #000000"/>
     <use xlink:href="#maf7208dbd4" x="772.054955" y="242.902054" style="stroke: #000000"/>
     <use xlink:href="#maf7208dbd4" x="779.111045" y="265.176504" style="stroke: #000000"/>
     <use xlink:href="#maf7208dbd4" x="786.167136" y="290.209717" style="stroke: #000000"/>
     <use xlink:href="#maf7208dbd4" x="793.223227" y="301.755647" style="stroke: #000000"/>
     <use xlink:href="#maf7208dbd4" x="800.279318" y="301.96" style="stroke: #000000"/>
     <use xlink:href="#maf7208dbd4" x="807.335409" y="301.96" style="stroke: #000000"/>
     <use xlink:href="#maf7208dbd4" x="814.3915" y="301.96" style="stroke: #000000"/>
    </g>
   </g>
   <g id="patch_103">
    <path d="M 77.03 301.96 
L 77.03 36 
" style="fill: none; stroke: #000000; stroke-width: 0.8; stroke-linejoin: miter; stroke-linecap: square"/>
   </g>
   <g id="patch_104">
    <path d="M 853.2 301.96 
L 853.2 36 
" style="fill: none; stroke: #000000; stroke-width: 0.8; stroke-linejoin: miter; stroke-linecap: square"/>
   </g>
   <g id="patch_105">
    <path d="M 77.03 301.96 
L 853.2 301.96 
" style="fill: none; stroke: #000000; stroke-width: 0.8; stroke-linejoin: miter; stroke-linecap: square"/>
   </g>
   <g id="patch_106">
    <path d="M 77.03 36 
L 853.2 36 
" style="fill: none; stroke: #000000; stroke-width: 0.8; stroke-linejoin: miter; stroke-linecap: square"/>
   </g>
   <g id="legend_1">
    <g id="patch_107">
     <path d="M 87.53 92.034375 
L 207.701094 92.034375 
Q 210.701094 92.034375 210.701094 89.034375 
L 210.701094 46.5 
Q 210.701094 43.5 207.701094 43.5 
L 87.53 43.5 
Q 84.53 43.5 84.53 46.5 
L 84.53 89.034375 
Q 84.53 92.034375 87.53 92.034375 
z
" style="fill: #ffffff; opacity: 0.8; stroke: #cccccc; stroke-linejoin: miter"/>
    </g>
    <g id="patch_108">
     <path d="M 90.53 60.897656 
L 120.53 60.897656 
L 120.53 50.397656 
L 90.53 50.397656 
z
" style="fill: #ffffff; stroke: #0072b2; stroke-linejoin: miter"/>
    </g>
    <g id="text_15">
     <!-- Expected -->
     <g transform="translate(132.53 60.897656) scale(0.15 -0.15)">
      <defs>
       <path id="DejaVuSans-45" d="M 628 4666 
L 3578 4666 
L 3578 4134 
L 1259 4134 
L 1259 2753 
L 3481 2753 
L 3481 2222 
L 1259 2222 
L 1259 531 
L 3634 531 
L 3634 0 
L 628 0 
L 628 4666 
z
" transform="scale(0.015625)"/>
       <path id="DejaVuSans-78" d="M 3513 3500 
L 2247 1797 
L 3578 0 
L 2900 0 
L 1881 1375 
L 863 0 
L 184 0 
L 1544 1831 
L 300 3500 
L 978 3500 
L 1906 2253 
L 2834 3500 
L 3513 3500 
z
" transform="scale(0.015625)"/>
      </defs>
      <use xlink:href="#DejaVuSans-45"/>
      <use xlink:href="#DejaVuSans-78" x="63.183594"/>
      <use xlink:href="#DejaVuSans-70" x="122.363281"/>
      <use xlink:href="#DejaVuSans-65" x="185.839844"/>
      <use xlink:href="#DejaVuSans-63" x="247.363281"/>
      <use xlink:href="#DejaVuSans-74" x="302.34375"/>
      <use xlink:href="#DejaVuSans-65" x="341.552734"/>
      <use xlink:href="#DejaVuSans-64" x="403.076172"/>
     </g>
    </g>
    <g id="line2d_14">
     <path d="M 90.53 77.664844 
L 105.53 77.664844 
L 120.53 77.664844 
" style="fill: none"/>
     <g>
      <use xlink:href="#maf7208dbd4" x="105.53" y="77.664844" style="stroke: #000000"/>
     </g>
    </g>
    <g id="text_16">
     <!-- Observed -->
     <g transform="translate(132.53 82.914844) scale(0.15 -0.15)">
      <defs>
       <path id="DejaVuSans-4f" d="M 2522 4238 
Q 1834 4238 1429 3725 
Q 1025 3213 1025 2328 
Q 1025 1447 1429 934 
Q 1834 422 2522 422 
Q 3209 422 3611 934 
Q 4013 1447 4013 2328 
Q 4013 3213 3611 3725 
Q 3209 4238 2522 4238 
z
M 2522 4750 
Q 3503 4750 4090 4092 
Q 4678 3434 4678 2328 
Q 4678 1225 4090 567 
Q 3503 -91 2522 -91 
Q 1538 -91 948 565 
Q 359 1222 359 2328 
Q 359 3434 948 4092 
Q 1538 4750 2522 4750 
z
" transform="scale(0.015625)"/>
       <path id="DejaVuSans-76" d="M 191 3500 
L 800 3500 
L 1894 563 
L 2988 3500 
L 3597 3500 
L 2284 0 
L 1503 0 
L 191 3500 
z
" transform="scale(0.015625)"/>
      </defs>
      <use xlink:href="#DejaVuSans-4f"/>
      <use xlink:href="#DejaVuSans-62" x="78.710938"/>
      <use xlink:href="#DejaVuSans-73" x="142.1875"/>
      <use xlink:href="#DejaVuSans-65" x="194.287109"/>
      <use xlink:href="#DejaVuSans-72" x="255.810547"/>
      <use xlink:href="#DejaVuSans-76" x="296.923828"/>
      <use xlink:href="#DejaVuSans-65" x="356.103516"/>
      <use xlink:href="#DejaVuSans-64" x="417.626953"/>
     </g>
    </g>
   </g>
  </g>
  <g id="text_17">
   <!-- single on tang250 sampled 10k; overlap=0.926, residual=0.0254 -->
   <g transform="translate(169.38125 19.3575) scale(0.16 -0.16)">
    <defs>
     <path id="DejaVuSans-6b" d="M 581 4863 
L 1159 4863 
L 1159 1991 
L 2875 3500 
L 3609 3500 
L 1753 1863 
L 3688 0 
L 2938 0 
L 1159 1709 
L 1159 0 
L 581 0 
L 581 4863 
z
" transform="scale(0.015625)"/>
     <path id="DejaVuSans-3b" d="M 750 3309 
L 1409 3309 
L 1409 2516 
L 750 2516 
L 750 3309 
z
M 750 794 
L 1409 794 
L 1409 256 
L 897 -744 
L 494 -744 
L 750 256 
L 750 794 
z
" transform="scale(0.015625)"/>
     <path id="DejaVuSans-3d" d="M 678 2906 
L 4684 2906 
L 4684 2381 
L 678 2381 
L 678 2906 
z
M 678 1631 
L 4684 1631 
L 4684 1100 
L 678 1100 
L 678 1631 
z
" transform="scale(0.015625)"/>
     <path id="DejaVuSans-2e" d="M 684 794 
L 1344 794 
L 1344 0 
L 684 0 
L 684 794 
z
" transform="scale(0.015625)"/>
     <path id="DejaVuSans-39" d="M 703 97 
L 703 672 
Q 941 559 1184 500 
Q 1428 441 1663 441 
Q 2288 441 2617 861 
Q 2947 1281 2994 2138 
Q 2813 1869 2534 1725 
Q 2256 1581 1919 1581 
Q 1219 1581 811 2004 
Q 403 2428 403 3163 
Q 403 3881 828 4315 
Q 1253 4750 1959 4750 
Q 2769 4750 3195 4129 
Q 3622 3509 3622 2328 
Q 3622 1225 3098 567 
Q 2575 -91 1691 -91 
Q 1453 -91 1209 -44 
Q 966 3 703 97 
z
M 1959 2075 
Q 2384 2075 2632 2365 
Q 2881 2656 2881 3163 
Q 2881 3666 2632 3958 
Q 2384 4250 1959 4250 
Q 1534 4250 1286 3958 
Q 1038 3666 1038 3163 
Q 1038 2656 1286 2365 
Q 1534 2075 1959 2075 
z
" transform="scale(0.015625)"/>
     <path id="DejaVuSans-36" d="M 2113 2584 
Q 1688 2584 1439 2293 
Q 1191 2003 1191 1497 
Q 1191 994 1439 701 
Q 1688 409 2113 409 
Q 2538 409 2786 701 
Q 3034 994 3034 1497 
Q 3034 2003 2786 2293 
Q 2538 2584 2113 2584 
z
M 3366 4563 
L 3366 3988 
Q 3128 4100 2886 4159 
Q 2644 4219 2406 4219 
Q 1781 4219 1451 3797 
Q 1122 3375 1075 2522 
Q 1259 2794 1537 2939 
Q 1816 3084 2150 3084 
Q 2853 3084 3261 2657 
Q 3669 2231 3669 1497 
Q 3669 778 3244 343 
Q 2819 -91 2113 -91 
Q 1303 -91 875 529 
Q 447 1150 447 2328 
Q 447 3434 972 4092 
Q 1497 4750 2381 4750 
Q 2619 4750 2861 4703 
Q 3103 4656 3366 4563 
z
" transform="scale(0.015625)"/>
     <path id="DejaVuSans-2c" d="M 750 794 
L 1409 794 
L 1409 256 
L 897 -744 
L 494 -744 
L 750 256 
L 750 794 
z
" transform="scale(0.015625)"/>
    </defs>
    <use xlink:href="#DejaVuSans-73"/>
    <use xlink:href="#DejaVuSans-69" x="52.099609"/>
    <use xlink:href="#DejaVuSans-6e" x="79.882812"/>
    <use xlink:href="#DejaVuSans-67" x="143.261719"/>
    <use xlink:href="#DejaVuSans-6c" x="206.738281"/>
    <use xlink:href="#DejaVuSans-65" x="234.521484"/>
    <use xlink:href="#DejaVuSans-20" x="296.044922"/>
    <use xlink:href="#DejaVuSans-6f" x="327.832031"/>
    <use xlink:href="#DejaVuSans-6e" x="389.013672"/>
    <use xlink:href="#DejaVuSans-20" x="452.392578"/>
    <use xlink:href="#DejaVuSans-74" x="484.179688"/>
    <use xlink:href="#DejaVuSans-61" x="523.388672"/>
    <use xlink:href="#DejaVuSans-6e" x="584.667969"/>
    <use xlink:href="#DejaVuSans-67" x="648.046875"/>
    <use xlink:href="#DejaVuSans-32" x="711.523438"/>
    <use xlink:href="#DejaVuSans-35" x="775.146484"/>
    <use xlink:href="#DejaVuSans-30" x="838.769531"/>
    <use xlink:href="#DejaVuSans-20" x="902.392578"/>
    <use xlink:href="#DejaVuSans-73" x="934.179688"/>
    <use xlink:href="#DejaVuSans-61" x="986.279297"/>
    <use xlink:href="#DejaVuSans-6d" x="1047.558594"/>
    <use xlink:href="#DejaVuSans-70" x="1144.970703"/>
    <use xlink:href="#DejaVuSans-6c" x="1208.447266"/>
    <use xlink:href="#DejaVuSans-65" x="1236.230469"/>
    <use xlink:href="#DejaVuSans-64" x="1297.753906"/>
    <use xlink:href="#DejaVuSans-20" x="1361.230469"/>
    <use xlink:href="#DejaVuSans-31" x="1393.017578"/>
    <use xlink:href="#DejaVuSans-30" x="1456.640625"/>
    <use xlink:href="#DejaVuSans-6b" x="1520.263672"/>
    <use xlink:href="#DejaVuSans-3b" x="1578.173828"/>
    <use xlink:href="#DejaVuSans-20" x="1611.865234"/>
    <use xlink:href="#DejaVuSans-6f" x="1643.652344"/>
    <use xlink:href="#DejaVuSans-76" x="1704.833984"/>
    <use xlink:href="#DejaVuSans-65" x="1764.013672"/>
    <use xlink:href="#DejaVuSans-72" x="1825.537109"/>
    <use xlink:href="#DejaVuSans-6c" x="1866.650391"/>
    <use xlink:href="#DejaVuSans-61" x="1894.433594"/>
    <use xlink:href="#DejaVuSans-70" x="1955.712891"/>
    <use xlink:href="#DejaVuSans-3d" x="2019.189453"/>
    <use xlink:href="#DejaVuSans-30" x="2102.978516"/>
    <use xlink:href="#DejaVuSans-2e" x="2166.601562"/>
    <use xlink:href="#DejaVuSans-39" x="2198.388672"/>
    <use xlink:href="#DejaVuSans-32" x="2262.011719"/>
    <use xlink:href="#DejaVuSans-36" x="2325.634766"/>
    <use xlink:href="#DejaVuSans-2c" x="2389.257812"/>
    <use xlink:href="#DejaVuSans-20" x="2421.044922"/>
    <use xlink:href="#DejaVuSans-72" x="2452.832031"/>
    <use xlink:href="#DejaVuSans-65" x="2491.695312"/>
    <use xlink:href="#DejaVuSans-73" x="2553.21875"/>
    <use xlink:href="#DejaVuSans-69" x="2605.318359"/>
    <use xlink:href="#DejaVuSans-64" x="2633.101562"/>
    <use xlink:href="#DejaVuSans-75" x="2696.578125"/>
    <use xlink:href="#DejaVuSans-61" x="2759.957031"/>
    <use xlink:href="#DejaVuSans-6c" x="2821.236328"/>
    <use xlink:href="#DejaVuSans-3d" x="2849.019531"/>
    <use xlink:href="#DejaVuSans-30" x="2932.808594"/>
    <use xlink:href="#DejaVuSans-2e" x="2996.431641"/>
    <use xlink:href="#DejaVuSans-30" x="3028.21875"/>
    <use xlink:href="#DejaVuSans-32" x="3091.841797"/>
    <use xlink:href="#DejaVuSans-35" x="3155.464844"/>
    <use xlink:href="#DejaVuSans-34" x="3219.087891"/>
   </g>
  </g>
 </g>
 <defs>
  <clipPath id="p37848ed0bc">
   <rect x="77.03" y="36" width="776.17" height="265.96"/>
  </clipPath>
 </defs>
 <defs>
  <pattern id="h8937669feb" patternUnits="userSpaceOnUse" x="0" y="0" width="72" height="72">
   <rect x="0" y="0" width="73" height="73" fill="none"/>
   <path d="M -36 36 
L 36 -36 
M -34 38 
L 38 -34 
M -32 40 
L 40 -32 
M -30 42 
L 42 -30 
M -28 44 
L 44 -28 
M -26 46 
L 46 -26 
M -24 48 
L 48 -24 
M -22 50 
L 50 -22 
M -20 52 
L 52 -20 
M -18 54 
L 54 -18 
M -16 56 
L 56 -16 
M -14 58 
L 58 -14 
M -12 60 
L 60 -12 
M -10 62 
L 62 -10 
M -8 64 
L 64 -8 
M -6 66 
L 66 -6 
M -4 68 
L 68 -4 
M -2 70 
L 70 -2 
M 0 72 
L 72 0 
M 2 74 
L 74 2 
M 4 76 
L 76 4 
M 6 78 
L 78 6 
M 8 80 
L 80 8 
M 10 82 
L 82 10 
M 12 84 
L 84 12 
M 14 86 
L 86 14 
M 16 88 
L 88 16 
M 18 90 
L 90 18 
M 20 92 
L 92 20 
M 22 94 
L 94 22 
M 24 96 
L 96 24 
M 26 98 
L 98 26 
M 28 100 
L 100 28 
M 30 102 
L 102 30 
M 32 104 
L 104 32 
M 34 106 
L 106 34 
M 36 108 
L 108 36 
" style="fill: #808080; stroke: #808080; stroke-width: 1.0; stroke-linecap: butt; stroke-linejoin: miter"/>
  </pattern>
 </defs>
</svg>
