<?xml version="1.0" encoding="utf-8" standalone="no"?>
<!DOCTYPE svg PUBLIC "-//W3C//DTD SVG 1.1//EN"
  "http://www.w3.org/Graphics/SVG/1.1/DTD/svg11.dtd">
<svg xmlns:xlink="http://www.w3.org/1999/xlink" width="864pt" height="360pt" viewBox="0 0 864 360" xmlns="http://www.w3.org/2000/svg" version="1.1">
 <metadata>
  <rdf:RDF xmlns:dc="http://purl.org/dc/elements/1.1/" xmlns:cc="http://creativecommons.org/ns#" xmlns:rdf="http://www.w3.org/1999/02/22-rdf-syntax-ns#">
   <cc:Work>
    <dc:type rdf:resource="http://purl.org/dc/dcmitype/StillImage"/>
    <dc:date>2024-06-13T15:35:12.477243</dc:date>
    <dc:format>image/svg+xml</dc:format>
    <dc:creator>
     <cc:Agent>
      <dc:title>Matplotlib v3.9.0, https://matplotlib.org/</dc:title>
     </cc:Agent>
    </dc:creator>
   </cc:Work>
  </rdf:RDF>
 </metadata>
 <defs>
  <style type="text/css">*{stroke-linejoin: round; stroke-linecap: butt}</style>
 </defs>
 <g id="figure_1">
  <g id="patch_1">
   <path d="M 0 360 
L 864 360 
L 864 0 
L 0 0 
z
" style="fill: #ffffff"/>
  </g>
  <g id="axes_1">
   <g id="patch_2">
    <path d="M 88.91 332.12 
L 853.2 332.12 
L 853.2 36 
L 88.91 36 
z
" style="fill: #ffffff"/>
   </g>
   <g id="patch_3">
    <path d="M 123.650455 332.12 
L 130.598545 332.12 
L 130.598545 332.119993 
L 123.650455 332.119993 
z
" clip-path="url(#p9690874430)" style="fill: #ffffff; stroke: #0072b2; stroke-linejoin: miter"/>
   </g>
   <g id="patch_4">
    <path d="M 130.598545 332.12 
L 137.546636 332.12 
L 137.546636 332.119986 
L 130.598545 332.119986 
z
" clip-path="url(#p9690874430)" style="fill: #ffffff; stroke: #0072b2; stroke-linejoin: miter"/>
   </g>
   <g id="patch_5">
    <path d="M 137.546636 332.12 
L 144.494727 332.12 
L 144.494727 332.11996 
L 137.546636 332.11996 
z
" clip-path="url(#p9690874430)" style="fill: #ffffff; stroke: #0072b2; stroke-linejoin: miter"/>
   </g>
   <g id="patch_6">
    <path d="M 144.494727 332.12 
L 151.442818 332.12 
L 151.442818 332.11995 
L 144.494727 332.11995 
z
" clip-path="url(#p9690874430)" style="fill: #ffffff; stroke: #0072b2; stroke-linejoin: miter"/>
   </g>
   <g id="patch_7">
    <path d="M 151.442818 332.12 
L 158.390909 332.12 
L 158.390909 332.119863 
L 151.442818 332.119863 
z
" clip-path="url(#p9690874430)" style="fill: #ffffff; stroke: #0072b2; stroke-linejoin: miter"/>
   </g>
   <g id="patch_8">
    <path d="M 158.390909 332.12 
L 165.339 332.12 
L 165.339 332.119752 
L 158.390909 332.119752 
z
" clip-path="url(#p9690874430)" style="fill: #ffffff; stroke: #0072b2; stroke-linejoin: miter"/>
   </g>
   <g id="patch_9">
    <path d="M 165.339 332.12 
L 172.287091 332.12 
L 172.287091 332.119698 
L 165.339 332.119698 
z
" clip-path="url(#p9690874430)" style="fill: #ffffff; stroke: #0072b2; stroke-linejoin: miter"/>
   </g>
   <g id="patch_10">
    <path d="M 172.287091 332.12 
L 179.235182 332.12 
L 179.235182 332.119506 
L 172.287091 332.119506 
z
" clip-path="url(#p9690874430)" style="fill: #ffffff; stroke: #0072b2; stroke-linejoin: miter"/>
   </g>
   <g id="patch_11">
    <path d="M 179.235182 332.12 
L 186.183273 332.12 
L 186.183273 332.119532 
L 179.235182 332.119532 
z
" clip-path="url(#p9690874430)" style="fill: #ffffff; stroke: #0072b2; stroke-linejoin: miter"/>
   </g>
   <g id="patch_12">
    <path d="M 186.183273 332.12 
L 193.131364 332.12 
L 193.131364 332.119399 
L 186.183273 332.119399 
z
" clip-path="url(#p9690874430)" style="fill: #ffffff; stroke: #0072b2; stroke-linejoin: miter"/>
   </g>
   <g id="patch_13">
    <path d="M 193.131364 332.12 
L 200.079455 332.12 
L 200.079455 332.119329 
L 193.131364 332.119329 
z
" clip-path="url(#p9690874430)" style="fill: #ffffff; stroke: #0072b2; stroke-linejoin: miter"/>
   </g>
   <g id="patch_14">
    <path d="M 200.079455 332.12 
L 207.027545 332.12 
L 207.027545 332.119242 
L 200.079455 332.119242 
z
" clip-path="url(#p9690874430)" style="fill: #ffffff; stroke: #0072b2; stroke-linejoin: miter"/>
   </g>
   <g id="patch_15">
    <path d="M 207.027545 332.12 
L 213.975636 332.12 
L 213.975636 332.119196 
L 207.027545 332.119196 
z
" clip-path="url(#p9690874430)" style="fill: #ffffff; stroke: #0072b2; stroke-linejoin: miter"/>
   </g>
   <g id="patch_16">
    <path d="M 213.975636 332.12 
L 220.923727 332.12 
L 220.923727 332.119102 
L 213.975636 332.119102 
z
" clip-path="url(#p9690874430)" style="fill: #ffffff; stroke: #0072b2; stroke-linejoin: miter"/>
   </g>
   <g id="patch_17">
    <path d="M 220.923727 332.12 
L 227.871818 332.12 
L 227.871818 332.118803 
L 220.923727 332.118803 
z
" clip-path="url(#p9690874430)" style="fill: #ffffff; stroke: #0072b2; stroke-linejoin: miter"/>
   </g>
   <g id="patch_18">
    <path d="M 227.871818 332.12 
L 234.819909 332.12 
L 234.819909 332.118689 
L 227.871818 332.118689 
z
" clip-path="url(#p9690874430)" style="fill: #ffffff; stroke: #0072b2; stroke-linejoin: miter"/>
   </g>
   <g id="patch_19">
    <path d="M 234.819909 332.12 
L 241.768 332.12 
L 241.768 332.118321 
L 234.819909 332.118321 
z
" clip-path="url(#p9690874430)" style="fill: #ffffff; stroke: #0072b2; stroke-linejoin: miter"/>
   </g>
   <g id="patch_20">
    <path d="M 241.768 332.12 
L 248.716091 332.12 
L 248.716091 332.11796 
L 241.768 332.11796 
z
" clip-path="url(#p9690874430)" style="fill: #ffffff; stroke: #0072b2; stroke-linejoin: miter"/>
   </g>
   <g id="patch_21">
    <path d="M 248.716091 332.12 
L 255.664182 332.12 
L 255.664182 332.117459 
L 248.716091 332.117459 
z
" clip-path="url(#p9690874430)" style="fill: #ffffff; stroke: #0072b2; stroke-linejoin: miter"/>
   </g>
   <g id="patch_22">
    <path d="M 255.664182 332.12 
L 262.612273 332.12 
L 262.612273 332.116652 
L 255.664182 332.116652 
z
" clip-path="url(#p9690874430)" style="fill: #ffffff; stroke: #0072b2; stroke-linejoin: miter"/>
   </g>
   <g id="patch_23">
    <path d="M 262.612273 332.12 
L 269.560364 332.12 
L 269.560364 332.11596 
L 262.612273 332.11596 
z
" clip-path="url(#p9690874430)" style="fill: #ffffff; stroke: #0072b2; stroke-linejoin: miter"/>
   </g>
   <g id="patch_24">
    <path d="M 269.560364 332.12 
L 276.508455 332.12 
L 276.508455 332.114956 
L 269.560364 332.114956 
z
" clip-path="url(#p9690874430)" style="fill: #ffffff; stroke: #0072b2; stroke-linejoin: miter"/>
   </g>
   <g id="patch_25">
    <path d="M 276.508455 332.12 
L 283.456545 332.12 
L 283.456545 332.113738 
L 276.508455 332.113738 
z
" clip-path="url(#p9690874430)" style="fill: #ffffff; stroke: #0072b2; stroke-linejoin: miter"/>
   </g>
   <g id="patch_26">
    <path d="M 283.456545 332.12 
L 290.404636 332.12 
L 290.404636 332.111551 
L 283.456545 332.111551 
z
" clip-path="url(#p9690874430)" style="fill: #ffffff; stroke: #0072b2; stroke-linejoin: miter"/>
   </g>
   <g id="patch_27">
    <path d="M 290.404636 332.12 
L 297.352727 332.12 
L 297.352727 332.110189 
L 290.404636 332.110189 
z
" clip-path="url(#p9690874430)" style="fill: #ffffff; stroke: #0072b2; stroke-linejoin: miter"/>
   </g>
   <g id="patch_28">
    <path d="M 297.352727 332.12 
L 304.300818 332.12 
L 304.300818 332.107469 
L 297.352727 332.107469 
z
" clip-path="url(#p9690874430)" style="fill: #ffffff; stroke: #0072b2; stroke-linejoin: miter"/>
   </g>
   <g id="patch_29">
    <path d="M 304.300818 332.12 
L 311.248909 332.12 
L 311.248909 332.104008 
L 304.300818 332.104008 
z
" clip-path="url(#p9690874430)" style="fill: #ffffff; stroke: #0072b2; stroke-linejoin: miter"/>
   </g>
   <g id="patch_30">
    <path d="M 311.248909 332.12 
L 318.197 332.12 
L 318.197 332.099544 
L 311.248909 332.099544 
z
" clip-path="url(#p9690874430)" style="fill: #ffffff; stroke: #0072b2; stroke-linejoin: miter"/>
   </g>
   <g id="patch_31">
    <path d="M 318.197 332.12 
L 325.145091 332.12 
L 325.145091 332.095068 
L 318.197 332.095068 
z
" clip-path="url(#p9690874430)" style="fill: #ffffff; stroke: #0072b2; stroke-linejoin: miter"/>
   </g>
   <g id="patch_32">
    <path d="M 325.145091 332.12 
L 332.093182 332.12 
L 332.093182 332.090353 
L 325.145091 332.090353 
z
" clip-path="url(#p9690874430)" style="fill: #ffffff; stroke: #0072b2; stroke-linejoin: miter"/>
   </g>
   <g id="patch_33">
    <path d="M 332.093182 332.12 
L 339.041273 332.12 
L 339.041273 332.085408 
L 332.093182 332.085408 
z
" clip-path="url(#p9690874430)" style="fill: #ffffff; stroke: #0072b2; stroke-linejoin: miter"/>
   </g>
   <g id="patch_34">
    <path d="M 339.041273 332.12 
L 345.989364 332.12 
L 345.989364 332.073214 
L 339.041273 332.073214 
z
" clip-path="url(#p9690874430)" style="fill: #ffffff; stroke: #0072b2; stroke-linejoin: miter"/>
   </g>
   <g id="patch_35">
    <path d="M 345.989364 332.12 
L 352.937455 332.12 
L 352.937455 332.065205 
L 345.989364 332.065205 
z
" clip-path="url(#p9690874430)" style="fill: #ffffff; stroke: #0072b2; stroke-linejoin: miter"/>
   </g>
   <g id="patch_36">
    <path d="M 352.937455 332.12 
L 359.885545 332.12 
L 359.885545 332.05173 
L 352.937455 332.05173 
z
" clip-path="url(#p9690874430)" style="fill: #ffffff; stroke: #0072b2; stroke-linejoin: miter"/>
   </g>
   <g id="patch_37">
    <path d="M 359.885545 332.12 
L 366.833636 332.12 
L 366.833636 332.037243 
L 359.885545 332.037243 
z
" clip-path="url(#p9690874430)" style="fill: #ffffff; stroke: #0072b2; stroke-linejoin: miter"/>
   </g>
   <g id="patch_38">
    <path d="M 366.833636 332.12 
L 373.781727 332.12 
L 373.781727 332.011663 
L 366.833636 332.011663 
z
" clip-path="url(#p9690874430)" style="fill: #ffffff; stroke: #0072b2; stroke-linejoin: miter"/>
   </g>
   <g id="patch_39">
    <path d="M 373.781727 332.12 
L 380.729818 332.12 
L 380.729818 331.988921 
L 373.781727 331.988921 
z
" clip-path="url(#p9690874430)" style="fill: #ffffff; stroke: #0072b2; stroke-linejoin: miter"/>
   </g>
   <g id="patch_40">
    <path d="M 380.729818 332.12 
L 387.677909 332.12 
L 387.677909 331.953363 
L 380.729818 331.953363 
z
" clip-path="url(#p9690874430)" style="fill: #ffffff; stroke: #0072b2; stroke-linejoin: miter"/>
   </g>
   <g id="patch_41">
    <path d="M 387.677909 332.12 
L 394.626 332.12 
L 394.626 331.90741 
L 387.677909 331.90741 
z
" clip-path="url(#p9690874430)" style="fill: #ffffff; stroke: #0072b2; stroke-linejoin: miter"/>
   </g>
   <g id="patch_42">
    <path d="M 394.626 332.12 
L 401.574091 332.12 
L 401.574091 331.851979 
L 394.626 331.851979 
z
" clip-path="url(#p9690874430)" style="fill: #ffffff; stroke: #0072b2; stroke-linejoin: miter"/>
   </g>
   <g id="patch_43">
    <path d="M 401.574091 332.12 
L 408.522182 332.12 
L 408.522182 331.770579 
L 401.574091 331.770579 
z
" clip-path="url(#p9690874430)" style="fill: #ffffff; stroke: #0072b2; stroke-linejoin: miter"/>
   </g>
   <g id="patch_44">
    <path d="M 408.522182 332.12 
L 415.470273 332.12 
L 415.470273 331.684414 
L 408.522182 331.684414 
z
" clip-path="url(#p9690874430)" style="fill: #ffffff; stroke: #0072b2; stroke-linejoin: miter"/>
   </g>
   <g id="patch_45">
    <path d="M 415.470273 332.12 
L 422.418364 332.12 
L 422.418364 331.584207 
L 415.470273 331.584207 
z
" clip-path="url(#p9690874430)" style="fill: #ffffff; stroke: #0072b2; stroke-linejoin: miter"/>
   </g>
   <g id="patch_46">
    <path d="M 422.418364 332.12 
L 429.366455 332.12 
L 429.366455 331.446932 
L 422.418364 331.446932 
z
" clip-path="url(#p9690874430)" style="fill: #ffffff; stroke: #0072b2; stroke-linejoin: miter"/>
   </g>
   <g id="patch_47">
    <path d="M 429.366455 332.12 
L 436.314545 332.12 
L 436.314545 331.248887 
L 429.366455 331.248887 
z
" clip-path="url(#p9690874430)" style="fill: #ffffff; stroke: #0072b2; stroke-linejoin: miter"/>
   </g>
   <g id="patch_48">
    <path d="M 436.314545 332.12 
L 443.262636 332.12 
L 443.262636 331.048311 
L 436.314545 331.048311 
z
" clip-path="url(#p9690874430)" style="fill: #ffffff; stroke: #0072b2; stroke-linejoin: miter"/>
   </g>
   <g id="patch_49">
    <path d="M 443.262636 332.12 
L 450.210727 332.12 
L 450.210727 330.770122 
L 443.262636 330.770122 
z
" clip-path="url(#p9690874430)" style="fill: #ffffff; stroke: #0072b2; stroke-linejoin: miter"/>
   </g>
   <g id="patch_50">
    <path d="M 450.210727 332.12 
L 457.158818 332.12 
L 457.158818 330.444509 
L 450.210727 330.444509 
z
" clip-path="url(#p9690874430)" style="fill: #ffffff; stroke: #0072b2; stroke-linejoin: miter"/>
   </g>
   <g id="patch_51">
    <path d="M 457.158818 332.12 
L 464.106909 332.12 
L 464.106909 330.004521 
L 457.158818 330.004521 
z
" clip-path="url(#p9690874430)" style="fill: #ffffff; stroke: #0072b2; stroke-linejoin: miter"/>
   </g>
   <g id="patch_52">
    <path d="M 464.106909 332.12 
L 471.055 332.12 
L 471.055 329.509454 
L 464.106909 329.509454 
z
" clip-path="url(#p9690874430)" style="fill: #ffffff; stroke: #0072b2; stroke-linejoin: miter"/>
   </g>
   <g id="patch_53">
    <path d="M 471.055 332.12 
L 478.003091 332.12 
L 478.003091 328.830653 
L 471.055 328.830653 
z
" clip-path="url(#p9690874430)" style="fill: #ffffff; stroke: #0072b2; stroke-linejoin: miter"/>
   </g>
   <g id="patch_54">
    <path d="M 478.003091 332.12 
L 484.951182 332.12 
L 484.951182 328.085864 
L 478.003091 328.085864 
z
" clip-path="url(#p9690874430)" style="fill: #ffffff; stroke: #0072b2; stroke-linejoin: miter"/>
   </g>
   <g id="patch_55">
    <path d="M 484.951182 332.12 
L 491.899273 332.12 
L 491.899273 327.243863 
L 484.951182 327.243863 
z
" clip-path="url(#p9690874430)" style="fill: #ffffff; stroke: #0072b2; stroke-linejoin: miter"/>
   </g>
   <g id="patch_56">
    <path d="M 491.899273 332.12 
L 498.847364 332.12 
L 498.847364 326.162182 
L 491.899273 326.162182 
z
" clip-path="url(#p9690874430)" style="fill: #ffffff; stroke: #0072b2; stroke-linejoin: miter"/>
   </g>
   <g id="patch_57">
    <path d="M 498.847364 332.12 
L 505.795455 332.12 
L 505.795455 324.810074 
L 498.847364 324.810074 
z
" clip-path="url(#p9690874430)" style="fill: #ffffff; stroke: #0072b2; stroke-linejoin: miter"/>
   </g>
   <g id="patch_58">
    <path d="M 505.795455 332.12 
L 512.743545 332.12 
L 512.743545 322.999932 
L 505.795455 322.999932 
z
" clip-path="url(#p9690874430)" style="fill: #ffffff; stroke: #0072b2; stroke-linejoin: miter"/>
   </g>
   <g id="patch_59">
    <path d="M 512.743545 332.12 
L 519.691636 332.12 
L 519.691636 321.268731 
L 512.743545 321.268731 
z
" clip-path="url(#p9690874430)" style="fill: #ffffff; stroke: #0072b2; stroke-linejoin: miter"/>
   </g>
   <g id="patch_60">
    <path d="M 519.691636 332.12 
L 526.639727 332.12 
L 526.639727 318.735725 
L 519.691636 318.735725 
z
" clip-path="url(#p9690874430)" style="fill: #ffffff; stroke: #0072b2; stroke-linejoin: miter"/>
   </g>
   <g id="patch_61">
    <path d="M 526.639727 332.12 
L 533.587818 332.12 
L 533.587818 316.153197 
L 526.639727 316.153197 
z
" clip-path="url(#p9690874430)" style="fill: #ffffff; stroke: #0072b2; stroke-linejoin: miter"/>
   </g>
   <g id="patch_62">
    <path d="M 533.587818 332.12 
L 540.535909 332.12 
L 540.535909 313.177213 
L 533.587818 313.177213 
z
" clip-path="url(#p9690874430)" style="fill: #ffffff; stroke: #0072b2; stroke-linejoin: miter"/>
   </g>
   <g id="patch_63">
    <path d="M 540.535909 332.12 
L 547.484 332.12 
L 547.484 310.16415 
L 540.535909 310.16415 
z
" clip-path="url(#p9690874430)" style="fill: #ffffff; stroke: #0072b2; stroke-linejoin: miter"/>
   </g>
   <g id="patch_64">
    <path d="M 547.484 332.12 
L 554.432091 332.12 
L 554.432091 306.724356 
L 547.484 306.724356 
z
" clip-path="url(#p9690874430)" style="fill: #ffffff; stroke: #0072b2; stroke-linejoin: miter"/>
   </g>
   <g id="patch_65">
    <path d="M 554.432091 332.12 
L 561.380182 332.12 
L 561.380182 302.674258 
L 554.432091 302.674258 
z
" clip-path="url(#p9690874430)" style="fill: #ffffff; stroke: #0072b2; stroke-linejoin: miter"/>
   </g>
   <g id="patch_66">
    <path d="M 561.380182 332.12 
L 568.328273 332.12 
L 568.328273 297.762052 
L 561.380182 297.762052 
z
" clip-path="url(#p9690874430)" style="fill: #ffffff; stroke: #0072b2; stroke-linejoin: miter"/>
   </g>
   <g id="patch_67">
    <path d="M 568.328273 332.12 
L 575.276364 332.12 
L 575.276364 292.614767 
L 568.328273 292.614767 
z
" clip-path="url(#p9690874430)" style="fill: #ffffff; stroke: #0072b2; stroke-linejoin: miter"/>
   </g>
   <g id="patch_68">
    <path d="M 575.276364 332.12 
L 582.224455 332.12 
L 582.224455 285.918612 
L 575.276364 285.918612 
z
" clip-path="url(#p9690874430)" style="fill: #ffffff; stroke: #0072b2; stroke-linejoin: miter"/>
   </g>
   <g id="patch_69">
    <path d="M 582.224455 332.12 
L 589.172545 332.12 
L 589.172545 280.118762 
L 582.224455 280.118762 
z
" clip-path="url(#p9690874430)" style="fill: #ffffff; stroke: #0072b2; stroke-linejoin: miter"/>
   </g>
   <g id="patch_70">
    <path d="M 589.172545 332.12 
L 596.120636 332.12 
L 596.120636 272.820828 
L 589.172545 272.820828 
z
" clip-path="url(#p9690874430)" style="fill: #ffffff; stroke: #0072b2; stroke-linejoin: miter"/>
   </g>
   <g id="patch_71">
    <path d="M 596.120636 332.12 
L 603.068727 332.12 
L 603.068727 265.222787 
L 596.120636 265.222787 
z
" clip-path="url(#p9690874430)" style="fill: #ffffff; stroke: #0072b2; stroke-linejoin: miter"/>
   </g>
   <g id="patch_72">
    <path d="M 603.068727 332.12 
L 610.016818 332.12 
L 610.016818 256.092401 
L 603.068727 256.092401 
z
" clip-path="url(#p9690874430)" style="fill: #ffffff; stroke: #0072b2; stroke-linejoin: miter"/>
   </g>
   <g id="patch_73">
    <path d="M 610.016818 332.12 
L 616.964909 332.12 
L 616.964909 246.831287 
L 610.016818 246.831287 
z
" clip-path="url(#p9690874430)" style="fill: #ffffff; stroke: #0072b2; stroke-linejoin: miter"/>
   </g>
   <g id="patch_74">
    <path d="M 616.964909 332.12 
L 623.913 332.12 
L 623.913 234.212874 
L 616.964909 234.212874 
z
" clip-path="url(#p9690874430)" style="fill: #ffffff; stroke: #0072b2; stroke-linejoin: miter"/>
   </g>
   <g id="patch_75">
    <path d="M 623.913 332.12 
L 630.861091 332.12 
L 630.861091 222.429094 
L 623.913 222.429094 
z
" clip-path="url(#p9690874430)" style="fill: #ffffff; stroke: #0072b2; stroke-linejoin: miter"/>
   </g>
   <g id="patch_76">
    <path d="M 630.861091 332.12 
L 637.809182 332.12 
L 637.809182 208.697016 
L 630.861091 208.697016 
z
" clip-path="url(#p9690874430)" style="fill: #ffffff; stroke: #0072b2; stroke-linejoin: miter"/>
   </g>
   <g id="patch_77">
    <path d="M 637.809182 332.12 
L 644.757273 332.12 
L 644.757273 192.815256 
L 637.809182 192.815256 
z
" clip-path="url(#p9690874430)" style="fill: #ffffff; stroke: #0072b2; stroke-linejoin: miter"/>
   </g>
   <g id="patch_78">
    <path d="M 644.757273 332.12 
L 651.705364 332.12 
L 651.705364 179.930861 
L 644.757273 179.930861 
z
" clip-path="url(#p9690874430)" style="fill: #ffffff; stroke: #0072b2; stroke-linejoin: miter"/>
   </g>
   <g id="patch_79">
    <path d="M 651.705364 332.12 
L 658.653455 332.12 
L 658.653455 162.176769 
L 651.705364 162.176769 
z
" clip-path="url(#p9690874430)" style="fill: #ffffff; stroke: #0072b2; stroke-linejoin: miter"/>
   </g>
   <g id="patch_80">
    <path d="M 658.653455 332.12 
L 665.601545 332.12 
L 665.601545 144.868057 
L 658.653455 144.868057 
z
" clip-path="url(#p9690874430)" style="fill: #ffffff; stroke: #0072b2; stroke-linejoin: miter"/>
   </g>
   <g id="patch_81">
    <path d="M 665.601545 332.12 
L 672.549636 332.12 
L 672.549636 127.938317 
L 665.601545 127.938317 
z
" clip-path="url(#p9690874430)" style="fill: #ffffff; stroke: #0072b2; stroke-linejoin: miter"/>
   </g>
   <g id="patch_82">
    <path d="M 672.549636 332.12 
L 679.497727 332.12 
L 679.497727 110.860216 
L 672.549636 110.860216 
z
" clip-path="url(#p9690874430)" style="fill: #ffffff; stroke: #0072b2; stroke-linejoin: miter"/>
   </g>
   <g id="patch_83">
    <path d="M 679.497727 332.12 
L 686.445818 332.12 
L 686.445818 98.479604 
L 679.497727 98.479604 
z
" clip-path="url(#p9690874430)" style="fill: #ffffff; stroke: #0072b2; stroke-linejoin: miter"/>
   </g>
   <g id="patch_84">
    <path d="M 686.445818 332.12 
L 693.393909 332.12 
L 693.393909 83.949233 
L 686.445818 83.949233 
z
" clip-path="url(#p9690874430)" style="fill: #ffffff; stroke: #0072b2; stroke-linejoin: miter"/>
   </g>
   <g id="patch_85">
    <path d="M 693.393909 332.12 
L 700.342 332.12 
L 700.342 71.512623 
L 693.393909 71.512623 
z
" clip-path="url(#p9690874430)" style="fill: #ffffff; stroke: #0072b2; stroke-linejoin: miter"/>
   </g>
   <g id="patch_86">
    <path d="M 700.342 332.12 
L 707.290091 332.12 
L 707.290091 64.016929 
L 700.342 64.016929 
z
" clip-path="url(#p9690874430)" style="fill: #ffffff; stroke: #0072b2; stroke-linejoin: miter"/>
   </g>
   <g id="patch_87">
    <path d="M 707.290091 332.12 
L 714.238182 332.12 
L 714.238182 56.482594 
L 707.290091 56.482594 
z
" clip-path="url(#p9690874430)" style="fill: #ffffff; stroke: #0072b2; stroke-linejoin: miter"/>
   </g>
   <g id="patch_88">
    <path d="M 714.238182 332.12 
L 721.186273 332.12 
L 721.186273 53.0952 
L 714.238182 53.0952 
z
" clip-path="url(#p9690874430)" style="fill: #ffffff; stroke: #0072b2; stroke-linejoin: miter"/>
   </g>
   <g id="patch_89">
    <path d="M 721.186273 332.12 
L 728.134364 332.12 
L 728.134364 54.550306 
L 721.186273 54.550306 
z
" clip-path="url(#p9690874430)" style="fill: #ffffff; stroke: #0072b2; stroke-linejoin: miter"/>
   </g>
   <g id="patch_90">
    <path d="M 728.134364 332.12 
L 735.082455 332.12 
L 735.082455 58.659822 
L 728.134364 58.659822 
z
" clip-path="url(#p9690874430)" style="fill: #ffffff; stroke: #0072b2; stroke-linejoin: miter"/>
   </g>
   <g id="patch_91">
    <path d="M 735.082455 332.12 
L 742.030545 332.12 
L 742.030545 67.593266 
L 735.082455 67.593266 
z
" clip-path="url(#p9690874430)" style="fill: #ffffff; stroke: #0072b2; stroke-linejoin: miter"/>
   </g>
   <g id="patch_92">
    <path d="M 742.030545 332.12 
L 748.978636 332.12 
L 748.978636 72.516982 
L 742.030545 72.516982 
z
" clip-path="url(#p9690874430)" style="fill: #ffffff; stroke: #0072b2; stroke-linejoin: miter"/>
   </g>
   <g id="patch_93">
    <path d="M 748.978636 332.12 
L 755.926727 332.12 
L 755.926727 89.575982 
L 748.978636 89.575982 
z
" clip-path="url(#p9690874430)" style="fill: #ffffff; stroke: #0072b2; stroke-linejoin: miter"/>
   </g>
   <g id="patch_94">
    <path d="M 755.926727 332.12 
L 762.874818 332.12 
L 762.874818 100.563848 
L 755.926727 100.563848 
z
" clip-path="url(#p9690874430)" style="fill: #ffffff; stroke: #0072b2; stroke-linejoin: miter"/>
   </g>
   <g id="patch_95">
    <path d="M 762.874818 332.12 
L 769.822909 332.12 
L 769.822909 125.985221 
L 762.874818 125.985221 
z
" clip-path="url(#p9690874430)" style="fill: #ffffff; stroke: #0072b2; stroke-linejoin: miter"/>
   </g>
   <g id="patch_96">
    <path d="M 769.822909 332.12 
L 776.771 332.12 
L 776.771 146.999504 
L 769.822909 146.999504 
z
" clip-path="url(#p9690874430)" style="fill: #ffffff; stroke: #0072b2; stroke-linejoin: miter"/>
   </g>
   <g id="patch_97">
    <path d="M 776.771 332.12 
L 783.719091 332.12 
L 783.719091 166.912279 
L 776.771 166.912279 
z
" clip-path="url(#p9690874430)" style="fill: #ffffff; stroke: #0072b2; stroke-linejoin: miter"/>
   </g>
   <g id="patch_98">
    <path d="M 783.719091 332.12 
L 790.667182 332.12 
L 790.667182 198.418598 
L 783.719091 198.418598 
z
" clip-path="url(#p9690874430)" style="fill: #ffffff; stroke: #0072b2; stroke-linejoin: miter"/>
   </g>
   <g id="patch_99">
    <path d="M 790.667182 332.12 
L 797.615273 332.12 
L 797.615273 222.33126 
L 790.667182 222.33126 
z
" clip-path="url(#p9690874430)" style="fill: #ffffff; stroke: #0072b2; stroke-linejoin: miter"/>
   </g>
   <g id="patch_100">
    <path d="M 797.615273 332.12 
L 804.563364 332.12 
L 804.563364 256.545282 
L 797.615273 256.545282 
z
" clip-path="url(#p9690874430)" style="fill: #ffffff; stroke: #0072b2; stroke-linejoin: miter"/>
   </g>
   <g id="patch_101">
    <path d="M 804.563364 332.12 
L 811.511455 332.12 
L 811.511455 289.315935 
L 804.563364 289.315935 
z
" clip-path="url(#p9690874430)" style="fill: #ffffff; stroke: #0072b2; stroke-linejoin: miter"/>
   </g>
   <g id="patch_102">
    <path d="M 811.511455 332.12 
L 818.459545 332.12 
L 818.459545 280.517889 
L 811.511455 280.517889 
z
" clip-path="url(#p9690874430)" style="fill: #ffffff; stroke: #0072b2; stroke-linejoin: miter"/>
   </g>
   <g id="PatchCollection_1">
    <path d="M 123.650455 332.120834 
L 130.598545 332.120834 
L 130.598545 332.119152 
L 123.650455 332.119152 
z
" clip-path="url(#p9690874430)" style="fill: url(#hac500e063a)"/>
    <path d="M 130.598545 332.121195 
L 137.546636 332.121195 
L 137.546636 332.118777 
L 130.598545 332.118777 
z
" clip-path="url(#p9690874430)" style="fill: url(#hac500e063a)"/>
    <path d="M 137.546636 332.122025 
L 144.494727 332.122025 
L 144.494727 332.117894 
L 137.546636 332.117894 
z
" clip-path="url(#p9690874430)" style="fill: url(#hac500e063a)"/>
    <path d="M 144.494727 332.122257 
L 151.442818 332.122257 
L 151.442818 332.117642 
L 144.494727 332.117642 
z
" clip-path="url(#p9690874430)" style="fill: url(#hac500e063a)"/>
    <path d="M 151.442818 332.123675 
L 158.390909 332.123675 
L 158.390909 332.116051 
L 151.442818 332.116051 
z
" clip-path="url(#p9690874430)" style="fill: url(#hac500e063a)"/>
    <path d="M 158.390909 332.124874 
L 165.339 332.124874 
L 165.339 332.114631 
L 158.390909 332.114631 
z
" clip-path="url(#p9690874430)" style="fill: url(#hac500e063a)"/>
    <path d="M 165.339 332.125356 
L 172.287091 332.125356 
L 172.287091 332.11404 
L 165.339 332.11404 
z
" clip-path="url(#p9690874430)" style="fill: url(#hac500e063a)"/>
    <path d="M 172.287091 332.126741 
L 179.235182 332.126741 
L 179.235182 332.112271 
L 172.287091 332.112271 
z
" clip-path="url(#p9690874430)" style="fill: url(#hac500e063a)"/>
    <path d="M 179.235182 332.126576 
L 186.183273 332.126576 
L 186.183273 332.112488 
L 179.235182 332.112488 
z
" clip-path="url(#p9690874430)" style="fill: url(#hac500e063a)"/>
    <path d="M 186.183273 332.127379 
L 193.131364 332.127379 
L 193.131364 332.111419 
L 186.183273 332.111419 
z
" clip-path="url(#p9690874430)" style="fill: url(#hac500e063a)"/>
    <path d="M 193.131364 332.127759 
L 200.079455 332.127759 
L 200.079455 332.1109 
L 193.131364 332.1109 
z
" clip-path="url(#p9690874430)" style="fill: url(#hac500e063a)"/>
    <path d="M 200.079455 332.128205 
L 207.027545 332.128205 
L 207.027545 332.110279 
L 200.079455 332.110279 
z
" clip-path="url(#p9690874430)" style="fill: url(#hac500e063a)"/>
    <path d="M 207.027545 332.128426 
L 213.975636 332.128426 
L 213.975636 332.109966 
L 207.027545 332.109966 
z
" clip-path="url(#p9690874430)" style="fill: url(#hac500e063a)"/>
    <path d="M 213.975636 332.128856 
L 220.923727 332.128856 
L 220.923727 332.109347 
L 213.975636 332.109347 
z
" clip-path="url(#p9690874430)" style="fill: url(#hac500e063a)"/>
    <path d="M 220.923727 332.130065 
L 227.871818 332.130065 
L 227.871818 332.107541 
L 220.923727 332.107541 
z
" clip-path="url(#p9690874430)" style="fill: url(#hac500e063a)"/>
    <path d="M 227.871818 332.130475 
L 234.819909 332.130475 
L 234.819909 332.106902 
L 227.871818 332.106902 
z
" clip-path="url(#p9690874430)" style="fill: url(#hac500e063a)"/>
    <path d="M 234.819909 332.131659 
L 241.768 332.131659 
L 241.768 332.104983 
L 234.819909 332.104983 
z
" clip-path="url(#p9690874430)" style="fill: url(#hac500e063a)"/>
    <path d="M 241.768 332.132661 
L 248.716091 332.132661 
L 248.716091 332.103259 
L 241.768 332.103259 
z
" clip-path="url(#p9690874430)" style="fill: url(#hac500e063a)"/>
    <path d="M 248.716091 332.133865 
L 255.664182 332.133865 
L 255.664182 332.101053 
L 248.716091 332.101053 
z
" clip-path="url(#p9690874430)" style="fill: url(#hac500e063a)"/>
    <path d="M 255.664182 332.135485 
L 262.612273 332.135485 
L 262.612273 332.09782 
L 255.664182 332.09782 
z
" clip-path="url(#p9690874430)" style="fill: url(#hac500e063a)"/>
    <path d="M 262.612273 332.136648 
L 269.560364 332.136648 
L 269.560364 332.095271 
L 262.612273 332.095271 
z
" clip-path="url(#p9690874430)" style="fill: url(#hac500e063a)"/>
    <path d="M 269.560364 332.138072 
L 276.508455 332.138072 
L 276.508455 332.091841 
L 269.560364 332.091841 
z
" clip-path="url(#p9690874430)" style="fill: url(#hac500e063a)"/>
    <path d="M 276.508455 332.139494 
L 283.456545 332.139494 
L 283.456545 332.087983 
L 276.508455 332.087983 
z
" clip-path="url(#p9690874430)" style="fill: url(#hac500e063a)"/>
    <path d="M 283.456545 332.141468 
L 290.404636 332.141468 
L 290.404636 332.081634 
L 283.456545 332.081634 
z
" clip-path="url(#p9690874430)" style="fill: url(#hac500e063a)"/>
    <path d="M 290.404636 332.142428 
L 297.352727 332.142428 
L 297.352727 332.07795 
L 290.404636 332.07795 
z
" clip-path="url(#p9690874430)" style="fill: url(#hac500e063a)"/>
    <path d="M 297.352727 332.143903 
L 304.300818 332.143903 
L 304.300818 332.071034 
L 297.352727 332.071034 
z
" clip-path="url(#p9690874430)" style="fill: url(#hac500e063a)"/>
    <path d="M 304.300818 332.145167 
L 311.248909 332.145167 
L 311.248909 332.062848 
L 304.300818 332.062848 
z
" clip-path="url(#p9690874430)" style="fill: url(#hac500e063a)"/>
    <path d="M 311.248909 332.146094 
L 318.197 332.146094 
L 318.197 332.052994 
L 311.248909 332.052994 
z
" clip-path="url(#p9690874430)" style="fill: url(#hac500e063a)"/>
    <path d="M 318.197 332.146459 
L 325.145091 332.146459 
L 325.145091 332.043676 
L 318.197 332.043676 
z
" clip-path="url(#p9690874430)" style="fill: url(#hac500e063a)"/>
    <path d="M 325.145091 332.146393 
L 332.093182 332.146393 
L 332.093182 332.034314 
L 325.145091 332.034314 
z
" clip-path="url(#p9690874430)" style="fill: url(#hac500e063a)"/>
    <path d="M 332.093182 332.14594 
L 339.041273 332.14594 
L 339.041273 332.024875 
L 332.093182 332.024875 
z
" clip-path="url(#p9690874430)" style="fill: url(#hac500e063a)"/>
    <path d="M 339.041273 332.143611 
L 345.989364 332.143611 
L 345.989364 332.002817 
L 339.041273 332.002817 
z
" clip-path="url(#p9690874430)" style="fill: url(#hac500e063a)"/>
    <path d="M 345.989364 332.141388 
L 352.937455 332.141388 
L 352.937455 331.989021 
L 345.989364 331.989021 
z
" clip-path="url(#p9690874430)" style="fill: url(#hac500e063a)"/>
    <path d="M 352.937455 332.136765 
L 359.885545 332.136765 
L 359.885545 331.966694 
L 352.937455 331.966694 
z
" clip-path="url(#p9690874430)" style="fill: url(#hac500e063a)"/>
    <path d="M 359.885545 332.130866 
L 366.833636 332.130866 
L 366.833636 331.943621 
L 359.885545 331.943621 
z
" clip-path="url(#p9690874430)" style="fill: url(#hac500e063a)"/>
    <path d="M 366.833636 332.11878 
L 373.781727 332.11878 
L 373.781727 331.904546 
L 366.833636 331.904546 
z
" clip-path="url(#p9690874430)" style="fill: url(#hac500e063a)"/>
    <path d="M 373.781727 332.106743 
L 380.729818 332.106743 
L 380.729818 331.871098 
L 373.781727 331.871098 
z
" clip-path="url(#p9690874430)" style="fill: url(#hac500e063a)"/>
    <path d="M 380.729818 332.086205 
L 387.677909 332.086205 
L 387.677909 331.82052 
L 380.729818 331.82052 
z
" clip-path="url(#p9690874430)" style="fill: url(#hac500e063a)"/>
    <path d="M 387.677909 332.057452 
L 394.626 332.057452 
L 394.626 331.757368 
L 387.677909 331.757368 
z
" clip-path="url(#p9690874430)" style="fill: url(#hac500e063a)"/>
    <path d="M 394.626 332.020445 
L 401.574091 332.020445 
L 401.574091 331.683514 
L 394.626 331.683514 
z
" clip-path="url(#p9690874430)" style="fill: url(#hac500e063a)"/>
    <path d="M 401.574091 331.962927 
L 408.522182 331.962927 
L 408.522182 331.57823 
L 401.574091 331.57823 
z
" clip-path="url(#p9690874430)" style="fill: url(#hac500e063a)"/>
    <path d="M 408.522182 331.899164 
L 415.470273 331.899164 
L 415.470273 331.469663 
L 408.522182 331.469663 
z
" clip-path="url(#p9690874430)" style="fill: url(#hac500e063a)"/>
    <path d="M 415.470273 331.822371 
L 422.418364 331.822371 
L 422.418364 331.346042 
L 415.470273 331.346042 
z
" clip-path="url(#p9690874430)" style="fill: url(#hac500e063a)"/>
    <path d="M 422.418364 331.713856 
L 429.366455 331.713856 
L 429.366455 331.180008 
L 422.418364 331.180008 
z
" clip-path="url(#p9690874430)" style="fill: url(#hac500e063a)"/>
    <path d="M 429.366455 331.552535 
L 436.314545 331.552535 
L 436.314545 330.945239 
L 429.366455 330.945239 
z
" clip-path="url(#p9690874430)" style="fill: url(#hac500e063a)"/>
    <path d="M 436.314545 331.385087 
L 443.262636 331.385087 
L 443.262636 330.711536 
L 436.314545 330.711536 
z
" clip-path="url(#p9690874430)" style="fill: url(#hac500e063a)"/>
    <path d="M 443.262636 331.148062 
L 450.210727 331.148062 
L 450.210727 330.392182 
L 443.262636 330.392182 
z
" clip-path="url(#p9690874430)" style="fill: url(#hac500e063a)"/>
    <path d="M 450.210727 330.865538 
L 457.158818 330.865538 
L 457.158818 330.02348 
L 450.210727 330.02348 
z
" clip-path="url(#p9690874430)" style="fill: url(#hac500e063a)"/>
    <path d="M 457.158818 330.47757 
L 464.106909 330.47757 
L 464.106909 329.531473 
L 457.158818 329.531473 
z
" clip-path="url(#p9690874430)" style="fill: url(#hac500e063a)"/>
    <path d="M 464.106909 330.034893 
L 471.055 330.034893 
L 471.055 328.984014 
L 464.106909 328.984014 
z
" clip-path="url(#p9690874430)" style="fill: url(#hac500e063a)"/>
    <path d="M 471.055 329.420393 
L 478.003091 329.420393 
L 478.003091 328.240913 
L 471.055 328.240913 
z
" clip-path="url(#p9690874430)" style="fill: url(#hac500e063a)"/>
    <path d="M 478.003091 328.73888 
L 484.951182 328.73888 
L 484.951182 327.432848 
L 478.003091 327.432848 
z
" clip-path="url(#p9690874430)" style="fill: url(#hac500e063a)"/>
    <path d="M 484.951182 327.961692 
L 491.899273 327.961692 
L 491.899273 326.526034 
L 484.951182 326.526034 
z
" clip-path="url(#p9690874430)" style="fill: url(#hac500e063a)"/>
    <path d="M 491.899273 326.955509 
L 498.847364 326.955509 
L 498.847364 325.368855 
L 491.899273 325.368855 
z
" clip-path="url(#p9690874430)" style="fill: url(#hac500e063a)"/>
    <path d="M 498.847364 325.688653 
L 505.795455 325.688653 
L 505.795455 323.931494 
L 498.847364 323.931494 
z
" clip-path="url(#p9690874430)" style="fill: url(#hac500e063a)"/>
    <path d="M 505.795455 323.981066 
L 512.743545 323.981066 
L 512.743545 322.0188 
L 505.795455 322.0188 
z
" clip-path="url(#p9690874430)" style="fill: url(#hac500e063a)"/>
    <path d="M 512.743545 322.338675 
L 519.691636 322.338675 
L 519.691636 320.198787 
L 512.743545 320.198787 
z
" clip-path="url(#p9690874430)" style="fill: url(#hac500e063a)"/>
    <path d="M 519.691636 319.923668 
L 526.639727 319.923668 
L 526.639727 317.547782 
L 519.691636 317.547782 
z
" clip-path="url(#p9690874430)" style="fill: url(#hac500e063a)"/>
    <path d="M 526.639727 317.450278 
L 533.587818 317.450278 
L 533.587818 314.856114 
L 526.639727 314.856114 
z
" clip-path="url(#p9690874430)" style="fill: url(#hac500e063a)"/>
    <path d="M 533.587818 314.5895 
L 540.535909 314.5895 
L 540.535909 311.764927 
L 533.587818 311.764927 
z
" clip-path="url(#p9690874430)" style="fill: url(#hac500e063a)"/>
    <path d="M 540.535909 311.683987 
L 547.484 311.683987 
L 547.484 308.644314 
L 540.535909 308.644314 
z
" clip-path="url(#p9690874430)" style="fill: url(#hac500e063a)"/>
    <path d="M 547.484 308.358148 
L 554.432091 308.358148 
L 554.432091 305.090564 
L 547.484 305.090564 
z
" clip-path="url(#p9690874430)" style="fill: url(#hac500e063a)"/>
    <path d="M 554.432091 304.432575 
L 561.380182 304.432575 
L 561.380182 300.915943 
L 554.432091 300.915943 
z
" clip-path="url(#p9690874430)" style="fill: url(#hac500e063a)"/>
    <path d="M 561.380182 299.660227 
L 568.328273 299.660227 
L 568.328273 295.863879 
L 561.380182 295.863879 
z
" clip-path="url(#p9690874430)" style="fill: url(#hac500e063a)"/>
    <path d="M 568.328273 294.648775 
L 575.276364 294.648775 
L 575.276364 290.58076 
L 568.328273 290.58076 
z
" clip-path="url(#p9690874430)" style="fill: url(#hac500e063a)"/>
    <path d="M 575.276364 288.116532 
L 582.224455 288.116532 
L 582.224455 283.72069 
L 575.276364 283.72069 
z
" clip-path="url(#p9690874430)" style="fill: url(#hac500e063a)"/>
    <path d="M 582.224455 282.448499 
L 589.172545 282.448499 
L 589.172545 277.789027 
L 582.224455 277.789027 
z
" clip-path="url(#p9690874430)" style="fill: url(#hac500e063a)"/>
    <path d="M 589.172545 275.306184 
L 596.120636 275.306184 
L 596.120636 270.335472 
L 589.172545 270.335472 
z
" clip-path="url(#p9690874430)" style="fill: url(#hac500e063a)"/>
    <path d="M 596.120636 267.85955 
L 603.068727 267.85955 
L 603.068727 262.586021 
L 596.120636 262.586021 
z
" clip-path="url(#p9690874430)" style="fill: url(#hac500e063a)"/>
    <path d="M 603.068727 258.899672 
L 610.016818 258.899672 
L 610.016818 253.285127 
L 603.068727 253.285127 
z
" clip-path="url(#p9690874430)" style="fill: url(#hac500e063a)"/>
    <path d="M 610.016818 249.800252 
L 616.964909 249.800252 
L 616.964909 243.862324 
L 610.016818 243.862324 
z
" clip-path="url(#p9690874430)" style="fill: url(#hac500e063a)"/>
    <path d="M 616.964909 237.388538 
L 623.913 237.388538 
L 623.913 231.037214 
L 616.964909 231.037214 
z
" clip-path="url(#p9690874430)" style="fill: url(#hac500e063a)"/>
    <path d="M 623.913 225.783988 
L 630.861091 225.783988 
L 630.861091 219.074194 
L 623.913 219.074194 
z
" clip-path="url(#p9690874430)" style="fill: url(#hac500e063a)"/>
    <path d="M 630.861091 212.247953 
L 637.809182 212.247953 
L 637.809182 205.146075 
L 630.861091 205.146075 
z
" clip-path="url(#p9690874430)" style="fill: url(#hac500e063a)"/>
    <path d="M 637.809182 196.578402 
L 644.757273 196.578402 
L 644.757273 189.052122 
L 637.809182 189.052122 
z
" clip-path="url(#p9690874430)" style="fill: url(#hac500e063a)"/>
    <path d="M 644.757273 183.853063 
L 651.705364 183.853063 
L 651.705364 176.008654 
L 644.757273 176.008654 
z
" clip-path="url(#p9690874430)" style="fill: url(#hac500e063a)"/>
    <path d="M 651.705364 166.308088 
L 658.653455 166.308088 
L 658.653455 158.045458 
L 651.705364 158.045458 
z
" clip-path="url(#p9690874430)" style="fill: url(#hac500e063a)"/>
    <path d="M 658.653455 149.188668 
L 665.601545 149.188668 
L 665.601545 140.547448 
L 658.653455 140.547448 
z
" clip-path="url(#p9690874430)" style="fill: url(#hac500e063a)"/>
    <path d="M 665.601545 132.430917 
L 672.549636 132.430917 
L 672.549636 123.445709 
L 665.601545 123.445709 
z
" clip-path="url(#p9690874430)" style="fill: url(#hac500e063a)"/>
    <path d="M 672.549636 115.514472 
L 679.497727 115.514472 
L 679.497727 106.205969 
L 672.549636 106.205969 
z
" clip-path="url(#p9690874430)" style="fill: url(#hac500e063a)"/>
    <path d="M 679.497727 103.235974 
L 686.445818 103.235974 
L 686.445818 93.723218 
L 679.497727 93.723218 
z
" clip-path="url(#p9690874430)" style="fill: url(#hac500e063a)"/>
    <path d="M 686.445818 88.820184 
L 693.393909 88.820184 
L 693.393909 79.078266 
L 686.445818 79.078266 
z
" clip-path="url(#p9690874430)" style="fill: url(#hac500e063a)"/>
    <path d="M 693.393909 76.467972 
L 700.342 76.467972 
L 700.342 66.557282 
L 693.393909 66.557282 
z
" clip-path="url(#p9690874430)" style="fill: url(#hac500e063a)"/>
    <path d="M 700.342 69.000781 
L 707.290091 69.000781 
L 707.290091 59.033104 
L 700.342 59.033104 
z
" clip-path="url(#p9690874430)" style="fill: url(#hac500e063a)"/>
    <path d="M 707.290091 61.487293 
L 714.238182 61.487293 
L 714.238182 51.477887 
L 707.290091 51.477887 
z
" clip-path="url(#p9690874430)" style="fill: url(#hac500e063a)"/>
    <path d="M 714.238182 58.074241 
L 721.186273 58.074241 
L 721.186273 48.11616 
L 714.238182 48.11616 
z
" clip-path="url(#p9690874430)" style="fill: url(#hac500e063a)"/>
    <path d="M 721.186273 59.452037 
L 728.134364 59.452037 
L 728.134364 49.648568 
L 721.186273 49.648568 
z
" clip-path="url(#p9690874430)" style="fill: url(#hac500e063a)"/>
    <path d="M 728.134364 63.45142 
L 735.082455 63.45142 
L 735.082455 53.868224 
L 728.134364 53.868224 
z
" clip-path="url(#p9690874430)" style="fill: url(#hac500e063a)"/>
    <path d="M 735.082455 72.222666 
L 742.030545 72.222666 
L 742.030545 62.963881 
L 735.082455 62.963881 
z
" clip-path="url(#p9690874430)" style="fill: url(#hac500e063a)"/>
    <path d="M 742.030545 77.007591 
L 748.978636 77.007591 
L 748.978636 68.026349 
L 742.030545 68.026349 
z
" clip-path="url(#p9690874430)" style="fill: url(#hac500e063a)"/>
    <path d="M 748.978636 93.809597 
L 755.926727 93.809597 
L 755.926727 85.342347 
L 748.978636 85.342347 
z
" clip-path="url(#p9690874430)" style="fill: url(#hac500e063a)"/>
    <path d="M 755.926727 104.578853 
L 762.874818 104.578853 
L 762.874818 96.548827 
L 755.926727 96.548827 
z
" clip-path="url(#p9690874430)" style="fill: url(#hac500e063a)"/>
    <path d="M 762.874818 129.639152 
L 769.822909 129.639152 
L 769.822909 122.331293 
L 762.874818 122.331293 
z
" clip-path="url(#p9690874430)" style="fill: url(#hac500e063a)"/>
    <path d="M 769.822909 150.311113 
L 776.771 150.311113 
L 776.771 143.687886 
L 769.822909 143.687886 
z
" clip-path="url(#p9690874430)" style="fill: url(#hac500e063a)"/>
    <path d="M 776.771 169.869656 
L 783.719091 169.869656 
L 783.719091 163.954903 
L 776.771 163.954903 
z
" clip-path="url(#p9690874430)" style="fill: url(#hac500e063a)"/>
    <path d="M 783.719091 200.894668 
L 790.667182 200.894668 
L 790.667182 195.942527 
L 783.719091 195.942527 
z
" clip-path="url(#p9690874430)" style="fill: url(#hac500e063a)"/>
    <path d="M 790.667182 224.3681 
L 797.615273 224.3681 
L 797.615273 220.29442 
L 790.667182 220.29442 
z
" clip-path="url(#p9690874430)" style="fill: url(#hac500e063a)"/>
    <path d="M 797.615273 258.02474 
L 804.563364 258.02474 
L 804.563364 255.065822 
L 797.615273 255.065822 
z
" clip-path="url(#p9690874430)" style="fill: url(#hac500e063a)"/>
    <path d="M 804.563364 290.209391 
L 811.511455 290.209391 
L 811.511455 288.422477 
L 804.563364 288.422477 
z
" clip-path="url(#p9690874430)" style="fill: url(#hac500e063a)"/>
    <path d="M 811.511455 280.909506 
L 818.459545 280.909506 
L 818.459545 280.12627 
L 811.511455 280.12627 
z
" clip-path="url(#p9690874430)" style="fill: url(#hac500e063a)"/>
   </g>
   <g id="matplotlib.axis_1">
    <g id="xtick_1">
     <g id="line2d_1">
      <defs>
       <path id="mac2e3b38da" d="M 0 0 
L 0 3.5 
" style="stroke: #000000; stroke-width: 0.8"/>
      </defs>
      <g>
       <use xlink:href="#mac2e3b38da" x="182.879661" y="332.12" style="stroke: #000000; stroke-width: 0.8"/>
      </g>
     </g>
     <g id="text_1">
      <!-- −5 -->
      <g transform="translate(175.508567 346.718437) scale(0.1 -0.1)">
       <defs>
        <path id="DejaVuSans-2212" d="M 678 2272 
L 4684 2272 
L 4684 1741 
L 678 1741 
L 678 2272 
z
" transform="scale(0.015625)"/>
        <path id="DejaVuSans-35" d="M 691 4666 
L 3169 4666 
L 3169 4134 
L 1269 4134 
L 1269 2991 
Q 1406 3038 1543 3061 
Q 1681 3084 1819 3084 
Q 2600 3084 3056 2656 
Q 3513 2228 3513 1497 
Q 3513 744 3044 326 
Q 2575 -91 1722 -91 
Q 1428 -91 1123 -41 
Q 819 9 494 109 
L 494 744 
Q 775 591 1075 516 
Q 1375 441 1709 441 
Q 2250 441 2565 725 
Q 2881 1009 2881 1497 
Q 2881 1984 2565 2268 
Q 2250 2553 1709 2553 
Q 1456 2553 1204 2497 
Q 953 2441 691 2322 
L 691 4666 
z
" transform="scale(0.015625)"/>
       </defs>
       <use xlink:href="#DejaVuSans-2212"/>
       <use xlink:href="#DejaVuSans-35" x="83.789062"/>
      </g>
     </g>
    </g>
    <g id="xtick_2">
     <g id="line2d_2">
      <g>
       <use xlink:href="#mac2e3b38da" x="309.995638" y="332.12" style="stroke: #000000; stroke-width: 0.8"/>
      </g>
     </g>
     <g id="text_2">
      <!-- −4 -->
      <g transform="translate(302.624544 346.718437) scale(0.1 -0.1)">
       <defs>
        <path id="DejaVuSans-34" d="M 2419 4116 
L 825 1625 
L 2419 1625 
L 2419 4116 
z
M 2253 4666 
L 3047 4666 
L 3047 1625 
L 3713 1625 
L 3713 1100 
L 3047 1100 
L 3047 0 
L 2419 0 
L 2419 1100 
L 313 1100 
L 313 1709 
L 2253 4666 
z
" transform="scale(0.015625)"/>
       </defs>
       <use xlink:href="#DejaVuSans-2212"/>
       <use xlink:href="#DejaVuSans-34" x="83.789062"/>
      </g>
     </g>
    </g>
    <g id="xtick_3">
     <g id="line2d_3">
      <g>
       <use xlink:href="#mac2e3b38da" x="437.111615" y="332.12" style="stroke: #000000; stroke-width: 0.8"/>
      </g>
     </g>
     <g id="text_3">
      <!-- −3 -->
      <g transform="translate(429.740521 346.718437) scale(0.1 -0.1)">
       <defs>
        <path id="DejaVuSans-33" d="M 2597 2516 
Q 3050 2419 3304 2112 
Q 3559 1806 3559 1356 
Q 3559 666 3084 287 
Q 2609 -91 1734 -91 
Q 1441 -91 1130 -33 
Q 819 25 488 141 
L 488 750 
Q 750 597 1062 519 
Q 1375 441 1716 441 
Q 2309 441 2620 675 
Q 2931 909 2931 1356 
Q 2931 1769 2642 2001 
Q 2353 2234 1838 2234 
L 1294 2234 
L 1294 2753 
L 1863 2753 
Q 2328 2753 2575 2939 
Q 2822 3125 2822 3475 
Q 2822 3834 2567 4026 
Q 2313 4219 1838 4219 
Q 1578 4219 1281 4162 
Q 984 4106 628 3988 
L 628 4550 
Q 988 4650 1302 4700 
Q 1616 4750 1894 4750 
Q 2613 4750 3031 4423 
Q 3450 4097 3450 3541 
Q 3450 3153 3228 2886 
Q 3006 2619 2597 2516 
z
" transform="scale(0.015625)"/>
       </defs>
       <use xlink:href="#DejaVuSans-2212"/>
       <use xlink:href="#DejaVuSans-33" x="83.789062"/>
      </g>
     </g>
    </g>
    <g id="xtick_4">
     <g id="line2d_4">
      <g>
       <use xlink:href="#mac2e3b38da" x="564.227592" y="332.12" style="stroke: #000000; stroke-width: 0.8"/>
      </g>
     </g>
     <g id="text_4">
      <!-- −2 -->
      <g transform="translate(556.856498 346.718437) scale(0.1 -0.1)">
       <defs>
        <path id="DejaVuSans-32" d="M 1228 531 
L 3431 531 
L 3431 0 
L 469 0 
L 469 531 
Q 828 903 1448 1529 
Q 2069 2156 2228 2338 
Q 2531 2678 2651 2914 
Q 2772 3150 2772 3378 
Q 2772 3750 2511 3984 
Q 2250 4219 1831 4219 
Q 1534 4219 1204 4116 
Q 875 4013 500 3803 
L 500 4441 
Q 881 4594 1212 4672 
Q 1544 4750 1819 4750 
Q 2544 4750 2975 4387 
Q 3406 4025 3406 3419 
Q 3406 3131 3298 2873 
Q 3191 2616 2906 2266 
Q 2828 2175 2409 1742 
Q 1991 1309 1228 531 
z
" transform="scale(0.015625)"/>
       </defs>
       <use xlink:href="#DejaVuSans-2212"/>
       <use xlink:href="#DejaVuSans-32" x="83.789062"/>
      </g>
     </g>
    </g>
    <g id="xtick_5">
     <g id="line2d_5">
      <g>
       <use xlink:href="#mac2e3b38da" x="691.343568" y="332.12" style="stroke: #000000; stroke-width: 0.8"/>
      </g>
     </g>
     <g id="text_5">
      <!-- −1 -->
      <g transform="translate(683.972475 346.718437) scale(0.1 -0.1)">
       <defs>
        <path id="DejaVuSans-31" d="M 794 531 
L 1825 531 
L 1825 4091 
L 703 3866 
L 703 4441 
L 1819 4666 
L 2450 4666 
L 2450 531 
L 3481 531 
L 3481 0 
L 794 0 
L 794 531 
z
" transform="scale(0.015625)"/>
       </defs>
       <use xlink:href="#DejaVuSans-2212"/>
       <use xlink:href="#DejaVuSans-31" x="83.789062"/>
      </g>
     </g>
    </g>
    <g id="xtick_6">
     <g id="line2d_6">
      <g>
       <use xlink:href="#mac2e3b38da" x="818.459545" y="332.12" style="stroke: #000000; stroke-width: 0.8"/>
      </g>
     </g>
     <g id="text_6">
      <!-- 0 -->
      <g transform="translate(815.278295 346.718437) scale(0.1 -0.1)">
       <defs>
        <path id="DejaVuSans-30" d="M 2034 4250 
Q 1547 4250 1301 3770 
Q 1056 3291 1056 2328 
Q 1056 1369 1301 889 
Q 1547 409 2034 409 
Q 2525 409 2770 889 
Q 3016 1369 3016 2328 
Q 3016 3291 2770 3770 
Q 2525 4250 2034 4250 
z
M 2034 4750 
Q 2819 4750 3233 4129 
Q 3647 3509 3647 2328 
Q 3647 1150 3233 529 
Q 2819 -91 2034 -91 
Q 1250 -91 836 529 
Q 422 1150 422 2328 
Q 422 3509 836 4129 
Q 1250 4750 2034 4750 
z
" transform="scale(0.015625)"/>
       </defs>
       <use xlink:href="#DejaVuSans-30"/>
      </g>
     </g>
    </g>
   </g>
   <g id="matplotlib.axis_2">
    <g id="ytick_1">
     <g id="line2d_7">
      <defs>
       <path id="m7d05976eb4" d="M 0 0 
L -3.5 0 
" style="stroke: #000000; stroke-width: 0.8"/>
      </defs>
      <g>
       <use xlink:href="#m7d05976eb4" x="88.91" y="332.12" style="stroke: #000000; stroke-width: 0.8"/>
      </g>
     </g>
     <g id="text_7">
      <!-- 0 -->
      <g transform="translate(71.73 338.19875) scale(0.16 -0.16)">
       <use xlink:href="#DejaVuSans-30"/>
      </g>
     </g>
    </g>
    <g id="ytick_2">
     <g id="line2d_8">
      <g>
       <use xlink:href="#m7d05976eb4" x="88.91" y="279.148729" style="stroke: #000000; stroke-width: 0.8"/>
      </g>
     </g>
     <g id="text_8">
      <!-- 500 -->
      <g transform="translate(51.37 285.227479) scale(0.16 -0.16)">
       <use xlink:href="#DejaVuSans-35"/>
       <use xlink:href="#DejaVuSans-30" x="63.623047"/>
       <use xlink:href="#DejaVuSans-30" x="127.246094"/>
      </g>
     </g>
    </g>
    <g id="ytick_3">
     <g id="line2d_9">
      <g>
       <use xlink:href="#m7d05976eb4" x="88.91" y="226.177458" style="stroke: #000000; stroke-width: 0.8"/>
      </g>
     </g>
     <g id="text_9">
      <!-- 1000 -->
      <g transform="translate(41.19 232.256208) scale(0.16 -0.16)">
       <use xlink:href="#DejaVuSans-31"/>
       <use xlink:href="#DejaVuSans-30" x="63.623047"/>
       <use xlink:href="#DejaVuSans-30" x="127.246094"/>
       <use xlink:href="#DejaVuSans-30" x="190.869141"/>
      </g>
     </g>
    </g>
    <g id="ytick_4">
     <g id="line2d_10">
      <g>
       <use xlink:href="#m7d05976eb4" x="88.91" y="173.206187" style="stroke: #000000; stroke-width: 0.8"/>
      </g>
     </g>
     <g id="text_10">
      <!-- 1500 -->
      <g transform="translate(41.19 179.284937) scale(0.16 -0.16)">
       <use xlink:href="#DejaVuSans-31"/>
       <use xlink:href="#DejaVuSans-35" x="63.623047"/>
       <use xlink:href="#DejaVuSans-30" x="127.246094"/>
       <use xlink:href="#DejaVuSans-30" x="190.869141"/>
      </g>
     </g>
    </g>
    <g id="ytick_5">
     <g id="line2d_11">
      <g>
       <use xlink:href="#m7d05976eb4" x="88.91" y="120.234915" style="stroke: #000000; stroke-width: 0.8"/>
      </g>
     </g>
     <g id="text_11">
      <!-- 2000 -->
      <g transform="translate(41.19 126.313665) scale(0.16 -0.16)">
       <use xlink:href="#DejaVuSans-32"/>
       <use xlink:href="#DejaVuSans-30" x="63.623047"/>
       <use xlink:href="#DejaVuSans-30" x="127.246094"/>
       <use xlink:href="#DejaVuSans-30" x="190.869141"/>
      </g>
     </g>
    </g>
    <g id="ytick_6">
     <g id="line2d_12">
      <g>
       <use xlink:href="#m7d05976eb4" x="88.91" y="67.263644" style="stroke: #000000; stroke-width: 0.8"/>
      </g>
     </g>
     <g id="text_12">
      <!-- 2500 -->
      <g transform="translate(41.19 73.342394) scale(0.16 -0.16)">
       <use xlink:href="#DejaVuSans-32"/>
       <use xlink:href="#DejaVuSans-35" x="63.623047"/>
       <use xlink:href="#DejaVuSans-30" x="127.246094"/>
       <use xlink:href="#DejaVuSans-30" x="190.869141"/>
      </g>
     </g>
    </g>
    <g id="text_13">
     <!-- number of mutations -->
     <g transform="translate(27.030625 289.574062) rotate(-90) scale(0.2 -0.2)">
      <defs>
       <path id="DejaVuSans-6e" d="M 3513 2113 
L 3513 0 
L 2938 0 
L 2938 2094 
Q 2938 2591 2744 2837 
Q 2550 3084 2163 3084 
Q 1697 3084 1428 2787 
Q 1159 2491 1159 1978 
L 1159 0 
L 581 0 
L 581 3500 
L 1159 3500 
L 1159 2956 
Q 1366 3272 1645 3428 
Q 1925 3584 2291 3584 
Q 2894 3584 3203 3211 
Q 3513 2838 3513 2113 
z
" transform="scale(0.015625)"/>
       <path id="DejaVuSans-75" d="M 544 1381 
L 544 3500 
L 1119 3500 
L 1119 1403 
Q 1119 906 1312 657 
Q 1506 409 1894 409 
Q 2359 409 2629 706 
Q 2900 1003 2900 1516 
L 2900 3500 
L 3475 3500 
L 3475 0 
L 2900 0 
L 2900 538 
Q 2691 219 2414 64 
Q 2138 -91 1772 -91 
Q 1169 -91 856 284 
Q 544 659 544 1381 
z
M 1991 3584 
L 1991 3584 
z
" transform="scale(0.015625)"/>
       <path id="DejaVuSans-6d" d="M 3328 2828 
Q 3544 3216 3844 3400 
Q 4144 3584 4550 3584 
Q 5097 3584 5394 3201 
Q 5691 2819 5691 2113 
L 5691 0 
L 5113 0 
L 5113 2094 
Q 5113 2597 4934 2840 
Q 4756 3084 4391 3084 
Q 3944 3084 3684 2787 
Q 3425 2491 3425 1978 
L 3425 0 
L 2847 0 
L 2847 2094 
Q 2847 2600 2669 2842 
Q 2491 3084 2119 3084 
Q 1678 3084 1418 2786 
Q 1159 2488 1159 1978 
L 1159 0 
L 581 0 
L 581 3500 
L 1159 3500 
L 1159 2956 
Q 1356 3278 1631 3431 
Q 1906 3584 2284 3584 
Q 2666 3584 2933 3390 
Q 3200 3197 3328 2828 
z
" transform="scale(0.015625)"/>
       <path id="DejaVuSans-62" d="M 3116 1747 
Q 3116 2381 2855 2742 
Q 2594 3103 2138 3103 
Q 1681 3103 1420 2742 
Q 1159 2381 1159 1747 
Q 1159 1113 1420 752 
Q 1681 391 2138 391 
Q 2594 391 2855 752 
Q 3116 1113 3116 1747 
z
M 1159 2969 
Q 1341 3281 1617 3432 
Q 1894 3584 2278 3584 
Q 2916 3584 3314 3078 
Q 3713 2572 3713 1747 
Q 3713 922 3314 415 
Q 2916 -91 2278 -91 
Q 1894 -91 1617 61 
Q 1341 213 1159 525 
L 1159 0 
L 581 0 
L 581 4863 
L 1159 4863 
L 1159 2969 
z
" transform="scale(0.015625)"/>
       <path id="DejaVuSans-65" d="M 3597 1894 
L 3597 1613 
L 953 1613 
Q 991 1019 1311 708 
Q 1631 397 2203 397 
Q 2534 397 2845 478 
Q 3156 559 3463 722 
L 3463 178 
Q 3153 47 2828 -22 
Q 2503 -91 2169 -91 
Q 1331 -91 842 396 
Q 353 884 353 1716 
Q 353 2575 817 3079 
Q 1281 3584 2069 3584 
Q 2775 3584 3186 3129 
Q 3597 2675 3597 1894 
z
M 3022 2063 
Q 3016 2534 2758 2815 
Q 2500 3097 2075 3097 
Q 1594 3097 1305 2825 
Q 1016 2553 972 2059 
L 3022 2063 
z
" transform="scale(0.015625)"/>
       <path id="DejaVuSans-72" d="M 2631 2963 
Q 2534 3019 2420 3045 
Q 2306 3072 2169 3072 
Q 1681 3072 1420 2755 
Q 1159 2438 1159 1844 
L 1159 0 
L 581 0 
L 581 3500 
L 1159 3500 
L 1159 2956 
Q 1341 3275 1631 3429 
Q 1922 3584 2338 3584 
Q 2397 3584 2469 3576 
Q 2541 3569 2628 3553 
L 2631 2963 
z
" transform="scale(0.015625)"/>
       <path id="DejaVuSans-20" transform="scale(0.015625)"/>
       <path id="DejaVuSans-6f" d="M 1959 3097 
Q 1497 3097 1228 2736 
Q 959 2375 959 1747 
Q 959 1119 1226 758 
Q 1494 397 1959 397 
Q 2419 397 2687 759 
Q 2956 1122 2956 1747 
Q 2956 2369 2687 2733 
Q 2419 3097 1959 3097 
z
M 1959 3584 
Q 2709 3584 3137 3096 
Q 3566 2609 3566 1747 
Q 3566 888 3137 398 
Q 2709 -91 1959 -91 
Q 1206 -91 779 398 
Q 353 888 353 1747 
Q 353 2609 779 3096 
Q 1206 3584 1959 3584 
z
" transform="scale(0.015625)"/>
       <path id="DejaVuSans-66" d="M 2375 4863 
L 2375 4384 
L 1825 4384 
Q 1516 4384 1395 4259 
Q 1275 4134 1275 3809 
L 1275 3500 
L 2222 3500 
L 2222 3053 
L 1275 3053 
L 1275 0 
L 697 0 
L 697 3053 
L 147 3053 
L 147 3500 
L 697 3500 
L 697 3744 
Q 697 4328 969 4595 
Q 1241 4863 1831 4863 
L 2375 4863 
z
" transform="scale(0.015625)"/>
       <path id="DejaVuSans-74" d="M 1172 4494 
L 1172 3500 
L 2356 3500 
L 2356 3053 
L 1172 3053 
L 1172 1153 
Q 1172 725 1289 603 
Q 1406 481 1766 481 
L 2356 481 
L 2356 0 
L 1766 0 
Q 1100 0 847 248 
Q 594 497 594 1153 
L 594 3053 
L 172 3053 
L 172 3500 
L 594 3500 
L 594 4494 
L 1172 4494 
z
" transform="scale(0.015625)"/>
       <path id="DejaVuSans-61" d="M 2194 1759 
Q 1497 1759 1228 1600 
Q 959 1441 959 1056 
Q 959 750 1161 570 
Q 1363 391 1709 391 
Q 2188 391 2477 730 
Q 2766 1069 2766 1631 
L 2766 1759 
L 2194 1759 
z
M 3341 1997 
L 3341 0 
L 2766 0 
L 2766 531 
Q 2569 213 2275 61 
Q 1981 -91 1556 -91 
Q 1019 -91 701 211 
Q 384 513 384 1019 
Q 384 1609 779 1909 
Q 1175 2209 1959 2209 
L 2766 2209 
L 2766 2266 
Q 2766 2663 2505 2880 
Q 2244 3097 1772 3097 
Q 1472 3097 1187 3025 
Q 903 2953 641 2809 
L 641 3341 
Q 956 3463 1253 3523 
Q 1550 3584 1831 3584 
Q 2591 3584 2966 3190 
Q 3341 2797 3341 1997 
z
" transform="scale(0.015625)"/>
       <path id="DejaVuSans-69" d="M 603 3500 
L 1178 3500 
L 1178 0 
L 603 0 
L 603 3500 
z
M 603 4863 
L 1178 4863 
L 1178 4134 
L 603 4134 
L 603 4863 
z
" transform="scale(0.015625)"/>
       <path id="DejaVuSans-73" d="M 2834 3397 
L 2834 2853 
Q 2591 2978 2328 3040 
Q 2066 3103 1784 3103 
Q 1356 3103 1142 2972 
Q 928 2841 928 2578 
Q 928 2378 1081 2264 
Q 1234 2150 1697 2047 
L 1894 2003 
Q 2506 1872 2764 1633 
Q 3022 1394 3022 966 
Q 3022 478 2636 193 
Q 2250 -91 1575 -91 
Q 1294 -91 989 -36 
Q 684 19 347 128 
L 347 722 
Q 666 556 975 473 
Q 1284 391 1588 391 
Q 1994 391 2212 530 
Q 2431 669 2431 922 
Q 2431 1156 2273 1281 
Q 2116 1406 1581 1522 
L 1381 1569 
Q 847 1681 609 1914 
Q 372 2147 372 2553 
Q 372 3047 722 3315 
Q 1072 3584 1716 3584 
Q 2034 3584 2315 3537 
Q 2597 3491 2834 3397 
z
" transform="scale(0.015625)"/>
      </defs>
      <use xlink:href="#DejaVuSans-6e"/>
      <use xlink:href="#DejaVuSans-75" x="63.378906"/>
      <use xlink:href="#DejaVuSans-6d" x="126.757812"/>
      <use xlink:href="#DejaVuSans-62" x="224.169922"/>
      <use xlink:href="#DejaVuSans-65" x="287.646484"/>
      <use xlink:href="#DejaVuSans-72" x="349.169922"/>
      <use xlink:href="#DejaVuSans-20" x="390.283203"/>
      <use xlink:href="#DejaVuSans-6f" x="422.070312"/>
      <use xlink:href="#DejaVuSans-66" x="483.251953"/>
      <use xlink:href="#DejaVuSans-20" x="518.457031"/>
      <use xlink:href="#DejaVuSans-6d" x="550.244141"/>
      <use xlink:href="#DejaVuSans-75" x="647.65625"/>
      <use xlink:href="#DejaVuSans-74" x="711.035156"/>
      <use xlink:href="#DejaVuSans-61" x="750.244141"/>
      <use xlink:href="#DejaVuSans-74" x="811.523438"/>
      <use xlink:href="#DejaVuSans-69" x="850.732422"/>
      <use xlink:href="#DejaVuSans-6f" x="878.515625"/>
      <use xlink:href="#DejaVuSans-6e" x="939.697266"/>
      <use xlink:href="#DejaVuSans-73" x="1003.076172"/>
     </g>
    </g>
   </g>
   <g id="line2d_13">
    <path d="M 127.1245 332.12 
L 134.072591 332.12 
L 141.020682 332.12 
L 147.968773 332.12 
L 154.916864 332.12 
L 161.864955 332.12 
L 168.813045 332.12 
L 175.761136 332.12 
L 182.709227 332.12 
L 189.657318 332.12 
L 196.605409 332.12 
L 203.5535 332.12 
L 210.501591 332.12 
L 217.449682 332.12 
L 224.397773 332.12 
L 231.345864 332.12 
L 238.293955 332.12 
L 245.242045 332.12 
L 252.190136 332.12 
L 259.138227 332.12 
L 266.086318 332.014057 
L 273.034409 332.12 
L 279.9825 332.12 
L 286.930591 331.802172 
L 293.878682 332.12 
L 300.826773 332.12 
L 307.774864 331.69623 
L 314.722955 331.802172 
L 321.671045 332.014057 
L 328.619136 331.69623 
L 335.567227 331.378402 
L 342.515318 331.484345 
L 349.463409 331.908115 
L 356.4115 331.27246 
L 363.359591 331.69623 
L 370.307682 331.590287 
L 377.255773 331.802172 
L 384.203864 331.378402 
L 391.151955 331.166517 
L 398.100045 330.954632 
L 405.048136 330.954632 
L 411.996227 330.848689 
L 418.944318 330.424919 
L 425.892409 330.001149 
L 432.8405 330.213034 
L 439.788591 328.517954 
L 446.736682 330.424919 
L 453.684773 329.895207 
L 460.632864 328.835781 
L 467.580955 327.988241 
L 474.529045 327.670413 
L 481.477136 325.86939 
L 488.425227 325.233735 
L 495.373318 324.280252 
L 502.321409 323.644597 
L 509.2695 324.704022 
L 516.217591 322.902999 
L 523.165682 319.19501 
L 530.113773 319.19501 
L 537.061864 314.745423 
L 544.009955 313.897883 
L 550.958045 309.872066 
L 557.906136 306.27002 
L 564.854227 301.396663 
L 571.802318 299.171869 
L 578.750409 292.179662 
L 585.6985 289.319213 
L 592.646591 277.771476 
L 599.594682 270.143613 
L 606.542773 260.820669 
L 613.490864 251.815553 
L 620.438955 236.136057 
L 627.387045 224.376434 
L 634.335136 215.265376 
L 641.283227 199.903707 
L 648.231318 180.83405 
L 655.179409 168.120945 
L 662.1275 140.469941 
L 669.075591 127.227123 
L 676.023682 108.687178 
L 682.971773 88.76998 
L 689.919864 82.731255 
L 696.867955 66.839874 
L 703.816045 52.219803 
L 710.764136 58.152586 
L 717.712227 53.491114 
L 724.660318 50.100952 
L 731.608409 59.529839 
L 738.5565 73.408312 
L 745.504591 74.149909 
L 752.452682 91.312601 
L 759.400773 100.635545 
L 766.348864 131.041055 
L 773.296955 157.95046 
L 780.245045 178.185486 
L 787.193136 206.26026 
L 794.141227 234.970689 
L 801.089318 264.422715 
L 808.037409 295.04011 
L 814.9855 292.709374 
" clip-path="url(#p9690874430)" style="fill: none"/>
    <defs>
     <path id="m8556ec66fe" d="M 0 2 
C 0.530406 2 1.03916 1.789267 1.414214 1.414214 
C 1.789267 1.03916 2 0.530406 2 0 
C 2 -0.530406 1.789267 -1.03916 1.414214 -1.414214 
C 1.03916 -1.789267 0.530406 -2 0 -2 
C -0.530406 -2 -1.03916 -1.789267 -1.414214 -1.414214 
C -1.789267 -1.03916 -2 -0.530406 -2 0 
C -2 0.530406 -1.789267 1.03916 -1.414214 1.414214 
C -1.03916 1.789267 -0.530406 2 0 2 
z
" style="stroke: #000000"/>
    </defs>
    <g clip-path="url(#p9690874430)">
     <use xlink:href="#m8556ec66fe" x="127.1245" y="332.12" style="stroke: #000000"/>
     <use xlink:href="#m8556ec66fe" x="134.072591" y="332.12" style="stroke: #000000"/>
     <use xlink:href="#m8556ec66fe" x="141.020682" y="332.12" style="stroke: #000000"/>
     <use xlink:href="#m8556ec66fe" x="147.968773" y="332.12" style="stroke: #000000"/>
     <use xlink:href="#m8556ec66fe" x="154.916864" y="332.12" style="stroke: #000000"/>
     <use xlink:href="#m8556ec66fe" x="161.864955" y="332.12" style="stroke: #000000"/>
     <use xlink:href="#m8556ec66fe" x="168.813045" y="332.12" style="stroke: #000000"/>
     <use xlink:href="#m8556ec66fe" x="175.761136" y="332.12" style="stroke: #000000"/>
     <use xlink:href="#m8556ec66fe" x="182.709227" y="332.12" style="stroke: #000000"/>
     <use xlink:href="#m8556ec66fe" x="189.657318" y="332.12" style="stroke: #000000"/>
     <use xlink:href="#m8556ec66fe" x="196.605409" y="332.12" style="stroke: #000000"/>
     <use xlink:href="#m8556ec66fe" x="203.5535" y="332.12" style="stroke: #000000"/>
     <use xlink:href="#m8556ec66fe" x="210.501591" y="332.12" style="stroke: #000000"/>
     <use xlink:href="#m8556ec66fe" x="217.449682" y="332.12" style="stroke: #000000"/>
     <use xlink:href="#m8556ec66fe" x="224.397773" y="332.12" style="stroke: #000000"/>
     <use xlink:href="#m8556ec66fe" x="231.345864" y="332.12" style="stroke: #000000"/>
     <use xlink:href="#m8556ec66fe" x="238.293955" y="332.12" style="stroke: #000000"/>
     <use xlink:href="#m8556ec66fe" x="245.242045" y="332.12" style="stroke: #000000"/>
     <use xlink:href="#m8556ec66fe" x="252.190136" y="332.12" style="stroke: #000000"/>
     <use xlink:href="#m8556ec66fe" x="259.138227" y="332.12" style="stroke: #000000"/>
     <use xlink:href="#m8556ec66fe" x="266.086318" y="332.014057" style="stroke: #000000"/>
     <use xlink:href="#m8556ec66fe" x="273.034409" y="332.12" style="stroke: #000000"/>
     <use xlink:href="#m8556ec66fe" x="279.9825" y="332.12" style="stroke: #000000"/>
     <use xlink:href="#m8556ec66fe" x="286.930591" y="331.802172" style="stroke: #000000"/>
     <use xlink:href="#m8556ec66fe" x="293.878682" y="332.12" style="stroke: #000000"/>
     <use xlink:href="#m8556ec66fe" x="300.826773" y="332.12" style="stroke: #000000"/>
     <use xlink:href="#m8556ec66fe" x="307.774864" y="331.69623" style="stroke: #000000"/>
     <use xlink:href="#m8556ec66fe" x="314.722955" y="331.802172" style="stroke: #000000"/>
     <use xlink:href="#m8556ec66fe" x="321.671045" y="332.014057" style="stroke: #000000"/>
     <use xlink:href="#m8556ec66fe" x="328.619136" y="331.69623" style="stroke: #000000"/>
     <use xlink:href="#m8556ec66fe" x="335.567227" y="331.378402" style="stroke: #000000"/>
     <use xlink:href="#m8556ec66fe" x="342.515318" y="331.484345" style="stroke: #000000"/>
     <use xlink:href="#m8556ec66fe" x="349.463409" y="331.908115" style="stroke: #000000"/>
     <use xlink:href="#m8556ec66fe" x="356.4115" y="331.27246" style="stroke: #000000"/>
     <use xlink:href="#m8556ec66fe" x="363.359591" y="331.69623" style="stroke: #000000"/>
     <use xlink:href="#m8556ec66fe" x="370.307682" y="331.590287" style="stroke: #000000"/>
     <use xlink:href="#m8556ec66fe" x="377.255773" y="331.802172" style="stroke: #000000"/>
     <use xlink:href="#m8556ec66fe" x="384.203864" y="331.378402" style="stroke: #000000"/>
     <use xlink:href="#m8556ec66fe" x="391.151955" y="331.166517" style="stroke: #000000"/>
     <use xlink:href="#m8556ec66fe" x="398.100045" y="330.954632" style="stroke: #000000"/>
     <use xlink:href="#m8556ec66fe" x="405.048136" y="330.954632" style="stroke: #000000"/>
     <use xlink:href="#m8556ec66fe" x="411.996227" y="330.848689" style="stroke: #000000"/>
     <use xlink:href="#m8556ec66fe" x="418.944318" y="330.424919" style="stroke: #000000"/>
     <use xlink:href="#m8556ec66fe" x="425.892409" y="330.001149" style="stroke: #000000"/>
     <use xlink:href="#m8556ec66fe" x="432.8405" y="330.213034" style="stroke: #000000"/>
     <use xlink:href="#m8556ec66fe" x="439.788591" y="328.517954" style="stroke: #000000"/>
     <use xlink:href="#m8556ec66fe" x="446.736682" y="330.424919" style="stroke: #000000"/>
     <use xlink:href="#m8556ec66fe" x="453.684773" y="329.895207" style="stroke: #000000"/>
     <use xlink:href="#m8556ec66fe" x="460.632864" y="328.835781" style="stroke: #000000"/>
     <use xlink:href="#m8556ec66fe" x="467.580955" y="327.988241" style="stroke: #000000"/>
     <use xlink:href="#m8556ec66fe" x="474.529045" y="327.670413" style="stroke: #000000"/>
     <use xlink:href="#m8556ec66fe" x="481.477136" y="325.86939" style="stroke: #000000"/>
     <use xlink:href="#m8556ec66fe" x="488.425227" y="325.233735" style="stroke: #000000"/>
     <use xlink:href="#m8556ec66fe" x="495.373318" y="324.280252" style="stroke: #000000"/>
     <use xlink:href="#m8556ec66fe" x="502.321409" y="323.644597" style="stroke: #000000"/>
     <use xlink:href="#m8556ec66fe" x="509.2695" y="324.704022" style="stroke: #000000"/>
     <use xlink:href="#m8556ec66fe" x="516.217591" y="322.902999" style="stroke: #000000"/>
     <use xlink:href="#m8556ec66fe" x="523.165682" y="319.19501" style="stroke: #000000"/>
     <use xlink:href="#m8556ec66fe" x="530.113773" y="319.19501" style="stroke: #000000"/>
     <use xlink:href="#m8556ec66fe" x="537.061864" y="314.745423" style="stroke: #000000"/>
     <use xlink:href="#m8556ec66fe" x="544.009955" y="313.897883" style="stroke: #000000"/>
     <use xlink:href="#m8556ec66fe" x="550.958045" y="309.872066" style="stroke: #000000"/>
     <use xlink:href="#m8556ec66fe" x="557.906136" y="306.27002" style="stroke: #000000"/>
     <use xlink:href="#m8556ec66fe" x="564.854227" y="301.396663" style="stroke: #000000"/>
     <use xlink:href="#m8556ec66fe" x="571.802318" y="299.171869" style="stroke: #000000"/>
     <use xlink:href="#m8556ec66fe" x="578.750409" y="292.179662" style="stroke: #000000"/>
     <use xlink:href="#m8556ec66fe" x="585.6985" y="289.319213" style="stroke: #000000"/>
     <use xlink:href="#m8556ec66fe" x="592.646591" y="277.771476" style="stroke: #000000"/>
     <use xlink:href="#m8556ec66fe" x="599.594682" y="270.143613" style="stroke: #000000"/>
     <use xlink:href="#m8556ec66fe" x="606.542773" y="260.820669" style="stroke: #000000"/>
     <use xlink:href="#m8556ec66fe" x="613.490864" y="251.815553" style="stroke: #000000"/>
     <use xlink:href="#m8556ec66fe" x="620.438955" y="236.136057" style="stroke: #000000"/>
     <use xlink:href="#m8556ec66fe" x="627.387045" y="224.376434" style="stroke: #000000"/>
     <use xlink:href="#m8556ec66fe" x="634.335136" y="215.265376" style="stroke: #000000"/>
     <use xlink:href="#m8556ec66fe" x="641.283227" y="199.903707" style="stroke: #000000"/>
     <use xlink:href="#m8556ec66fe" x="648.231318" y="180.83405" style="stroke: #000000"/>
     <use xlink:href="#m8556ec66fe" x="655.179409" y="168.120945" style="stroke: #000000"/>
     <use xlink:href="#m8556ec66fe" x="662.1275" y="140.469941" style="stroke: #000000"/>
     <use xlink:href="#m8556ec66fe" x="669.075591" y="127.227123" style="stroke: #000000"/>
     <use xlink:href="#m8556ec66fe" x="676.023682" y="108.687178" style="stroke: #000000"/>
     <use xlink:href="#m8556ec66fe" x="682.971773" y="88.76998" style="stroke: #000000"/>
     <use xlink:href="#m8556ec66fe" x="689.919864" y="82.731255" style="stroke: #000000"/>
     <use xlink:href="#m8556ec66fe" x="696.867955" y="66.839874" style="stroke: #000000"/>
     <use xlink:href="#m8556ec66fe" x="703.816045" y="52.219803" style="stroke: #000000"/>
     <use xlink:href="#m8556ec66fe" x="710.764136" y="58.152586" style="stroke: #000000"/>
     <use xlink:href="#m8556ec66fe" x="717.712227" y="53.491114" style="stroke: #000000"/>
     <use xlink:href="#m8556ec66fe" x="724.660318" y="50.100952" style="stroke: #000000"/>
     <use xlink:href="#m8556ec66fe" x="731.608409" y="59.529839" style="stroke: #000000"/>
     <use xlink:href="#m8556ec66fe" x="738.5565" y="73.408312" style="stroke: #000000"/>
     <use xlink:href="#m8556ec66fe" x="745.504591" y="74.149909" style="stroke: #000000"/>
     <use xlink:href="#m8556ec66fe" x="752.452682" y="91.312601" style="stroke: #000000"/>
     <use xlink:href="#m8556ec66fe" x="759.400773" y="100.635545" style="stroke: #000000"/>
     <use xlink:href="#m8556ec66fe" x="766.348864" y="131.041055" style="stroke: #000000"/>
     <use xlink:href="#m8556ec66fe" x="773.296955" y="157.95046" style="stroke: #000000"/>
     <use xlink:href="#m8556ec66fe" x="780.245045" y="178.185486" style="stroke: #000000"/>
     <use xlink:href="#m8556ec66fe" x="787.193136" y="206.26026" style="stroke: #000000"/>
     <use xlink:href="#m8556ec66fe" x="794.141227" y="234.970689" style="stroke: #000000"/>
     <use xlink:href="#m8556ec66fe" x="801.089318" y="264.422715" style="stroke: #000000"/>
     <use xlink:href="#m8556ec66fe" x="808.037409" y="295.04011" style="stroke: #000000"/>
     <use xlink:href="#m8556ec66fe" x="814.9855" y="292.709374" style="stroke: #000000"/>
    </g>
   </g>
   <g id="patch_103">
    <path d="M 88.91 332.12 
L 88.91 36 
" style="fill: none; stroke: #000000; stroke-width: 0.8; stroke-linejoin: miter; stroke-linecap: square"/>
   </g>
   <g id="patch_104">
    <path d="M 853.2 332.12 
L 853.2 36 
" style="fill: none; stroke: #000000; stroke-width: 0.8; stroke-linejoin: miter; stroke-linecap: square"/>
   </g>
   <g id="patch_105">
    <path d="M 88.91 332.12 
L 853.2 332.12 
" style="fill: none; stroke: #000000; stroke-width: 0.8; stroke-linejoin: miter; stroke-linecap: square"/>
   </g>
   <g id="patch_106">
    <path d="M 88.91 36 
L 853.2 36 
" style="fill: none; stroke: #000000; stroke-width: 0.8; stroke-linejoin: miter; stroke-linecap: square"/>
   </g>
   <g id="legend_1">
    <g id="patch_107">
     <path d="M 99.41 92.034375 
L 219.581094 92.034375 
Q 222.581094 92.034375 222.581094 89.034375 
L 222.581094 46.5 
Q 222.581094 43.5 219.581094 43.5 
L 99.41 43.5 
Q 96.41 43.5 96.41 46.5 
L 96.41 89.034375 
Q 96.41 92.034375 99.41 92.034375 
z
" style="fill: #ffffff; opacity: 0.8; stroke: #cccccc; stroke-linejoin: miter"/>
    </g>
    <g id="patch_108">
     <path d="M 102.41 60.897656 
L 132.41 60.897656 
L 132.41 50.397656 
L 102.41 50.397656 
z
" style="fill: #ffffff; stroke: #0072b2; stroke-linejoin: miter"/>
    </g>
    <g id="text_14">
     <!-- Expected -->
     <g transform="translate(144.41 60.897656) scale(0.15 -0.15)">
      <defs>
       <path id="DejaVuSans-45" d="M 628 4666 
L 3578 4666 
L 3578 4134 
L 1259 4134 
L 1259 2753 
L 3481 2753 
L 3481 2222 
L 1259 2222 
L 1259 531 
L 3634 531 
L 3634 0 
L 628 0 
L 628 4666 
z
" transform="scale(0.015625)"/>
       <path id="DejaVuSans-78" d="M 3513 3500 
L 2247 1797 
L 3578 0 
L 2900 0 
L 1881 1375 
L 863 0 
L 184 0 
L 1544 1831 
L 300 3500 
L 978 3500 
L 1906 2253 
L 2834 3500 
L 3513 3500 
z
" transform="scale(0.015625)"/>
       <path id="DejaVuSans-70" d="M 1159 525 
L 1159 -1331 
L 581 -1331 
L 581 3500 
L 1159 3500 
L 1159 2969 
Q 1341 3281 1617 3432 
Q 1894 3584 2278 3584 
Q 2916 3584 3314 3078 
Q 3713 2572 3713 1747 
Q 3713 922 3314 415 
Q 2916 -91 2278 -91 
Q 1894 -91 1617 61 
Q 1341 213 1159 525 
z
M 3116 1747 
Q 3116 2381 2855 2742 
Q 2594 3103 2138 3103 
Q 1681 3103 1420 2742 
Q 1159 2381 1159 1747 
Q 1159 1113 1420 752 
Q 1681 391 2138 391 
Q 2594 391 2855 752 
Q 3116 1113 3116 1747 
z
" transform="scale(0.015625)"/>
       <path id="DejaVuSans-63" d="M 3122 3366 
L 3122 2828 
Q 2878 2963 2633 3030 
Q 2388 3097 2138 3097 
Q 1578 3097 1268 2742 
Q 959 2388 959 1747 
Q 959 1106 1268 751 
Q 1578 397 2138 397 
Q 2388 397 2633 464 
Q 2878 531 3122 666 
L 3122 134 
Q 2881 22 2623 -34 
Q 2366 -91 2075 -91 
Q 1284 -91 818 406 
Q 353 903 353 1747 
Q 353 2603 823 3093 
Q 1294 3584 2113 3584 
Q 2378 3584 2631 3529 
Q 2884 3475 3122 3366 
z
" transform="scale(0.015625)"/>
       <path id="DejaVuSans-64" d="M 2906 2969 
L 2906 4863 
L 3481 4863 
L 3481 0 
L 2906 0 
L 2906 525 
Q 2725 213 2448 61 
Q 2172 -91 1784 -91 
Q 1150 -91 751 415 
Q 353 922 353 1747 
Q 353 2572 751 3078 
Q 1150 3584 1784 3584 
Q 2172 3584 2448 3432 
Q 2725 3281 2906 2969 
z
M 947 1747 
Q 947 1113 1208 752 
Q 1469 391 1925 391 
Q 2381 391 2643 752 
Q 2906 1113 2906 1747 
Q 2906 2381 2643 2742 
Q 2381 3103 1925 3103 
Q 1469 3103 1208 2742 
Q 947 2381 947 1747 
z
" transform="scale(0.015625)"/>
      </defs>
      <use xlink:href="#DejaVuSans-45"/>
      <use xlink:href="#DejaVuSans-78" x="63.183594"/>
      <use xlink:href="#DejaVuSans-70" x="122.363281"/>
      <use xlink:href="#DejaVuSans-65" x="185.839844"/>
      <use xlink:href="#DejaVuSans-63" x="247.363281"/>
      <use xlink:href="#DejaVuSans-74" x="302.34375"/>
      <use xlink:href="#DejaVuSans-65" x="341.552734"/>
      <use xlink:href="#DejaVuSans-64" x="403.076172"/>
     </g>
    </g>
    <g id="line2d_14">
     <path d="M 102.41 77.664844 
L 117.41 77.664844 
L 132.41 77.664844 
" style="fill: none"/>
     <g>
      <use xlink:href="#m8556ec66fe" x="117.41" y="77.664844" style="stroke: #000000"/>
     </g>
    </g>
    <g id="text_15">
     <!-- Observed -->
     <g transform="translate(144.41 82.914844) scale(0.15 -0.15)">
      <defs>
       <path id="DejaVuSans-4f" d="M 2522 4238 
Q 1834 4238 1429 3725 
Q 1025 3213 1025 2328 
Q 1025 1447 1429 934 
Q 1834 422 2522 422 
Q 3209 422 3611 934 
Q 4013 1447 4013 2328 
Q 4013 3213 3611 3725 
Q 3209 4238 2522 4238 
z
M 2522 4750 
Q 3503 4750 4090 4092 
Q 4678 3434 4678 2328 
Q 4678 1225 4090 567 
Q 3503 -91 2522 -91 
Q 1538 -91 948 565 
Q 359 1222 359 2328 
Q 359 3434 948 4092 
Q 1538 4750 2522 4750 
z
" transform="scale(0.015625)"/>
       <path id="DejaVuSans-76" d="M 191 3500 
L 800 3500 
L 1894 563 
L 2988 3500 
L 3597 3500 
L 2284 0 
L 1503 0 
L 191 3500 
z
" transform="scale(0.015625)"/>
      </defs>
      <use xlink:href="#DejaVuSans-4f"/>
      <use xlink:href="#DejaVuSans-62" x="78.710938"/>
      <use xlink:href="#DejaVuSans-73" x="142.1875"/>
      <use xlink:href="#DejaVuSans-65" x="194.287109"/>
      <use xlink:href="#DejaVuSans-72" x="255.810547"/>
      <use xlink:href="#DejaVuSans-76" x="296.923828"/>
      <use xlink:href="#DejaVuSans-65" x="356.103516"/>
      <use xlink:href="#DejaVuSans-64" x="417.626953"/>
     </g>
    </g>
   </g>
  </g>
  <g id="text_16">
   <!-- 1m-tang250 on v1rodriguezV34 sampled 10k; overlap=0.98, residual=0.00649 -->
   <g transform="translate(113.955 19.3575) scale(0.16 -0.16)">
    <defs>
     <path id="DejaVuSans-2d" d="M 313 2009 
L 1997 2009 
L 1997 1497 
L 313 1497 
L 313 2009 
z
" transform="scale(0.015625)"/>
     <path id="DejaVuSans-67" d="M 2906 1791 
Q 2906 2416 2648 2759 
Q 2391 3103 1925 3103 
Q 1463 3103 1205 2759 
Q 947 2416 947 1791 
Q 947 1169 1205 825 
Q 1463 481 1925 481 
Q 2391 481 2648 825 
Q 2906 1169 2906 1791 
z
M 3481 434 
Q 3481 -459 3084 -895 
Q 2688 -1331 1869 -1331 
Q 1566 -1331 1297 -1286 
Q 1028 -1241 775 -1147 
L 775 -588 
Q 1028 -725 1275 -790 
Q 1522 -856 1778 -856 
Q 2344 -856 2625 -561 
Q 2906 -266 2906 331 
L 2906 616 
Q 2728 306 2450 153 
Q 2172 0 1784 0 
Q 1141 0 747 490 
Q 353 981 353 1791 
Q 353 2603 747 3093 
Q 1141 3584 1784 3584 
Q 2172 3584 2450 3431 
Q 2728 3278 2906 2969 
L 2906 3500 
L 3481 3500 
L 3481 434 
z
" transform="scale(0.015625)"/>
     <path id="DejaVuSans-7a" d="M 353 3500 
L 3084 3500 
L 3084 2975 
L 922 459 
L 3084 459 
L 3084 0 
L 275 0 
L 275 525 
L 2438 3041 
L 353 3041 
L 353 3500 
z
" transform="scale(0.015625)"/>
     <path id="DejaVuSans-56" d="M 1831 0 
L 50 4666 
L 709 4666 
L 2188 738 
L 3669 4666 
L 4325 4666 
L 2547 0 
L 1831 0 
z
" transform="scale(0.015625)"/>
     <path id="DejaVuSans-6c" d="M 603 4863 
L 1178 4863 
L 1178 0 
L 603 0 
L 603 4863 
z
" transform="scale(0.015625)"/>
     <path id="DejaVuSans-6b" d="M 581 4863 
L 1159 4863 
L 1159 1991 
L 2875 3500 
L 3609 3500 
L 1753 1863 
L 3688 0 
L 2938 0 
L 1159 1709 
L 1159 0 
L 581 0 
L 581 4863 
z
" transform="scale(0.015625)"/>
     <path id="DejaVuSans-3b" d="M 750 3309 
L 1409 3309 
L 1409 2516 
L 750 2516 
L 750 3309 
z
M 750 794 
L 1409 794 
L 1409 256 
L 897 -744 
L 494 -744 
L 750 256 
L 750 794 
z
" transform="scale(0.015625)"/>
     <path id="DejaVuSans-3d" d="M 678 2906 
L 4684 2906 
L 4684 2381 
L 678 2381 
L 678 2906 
z
M 678 1631 
L 4684 1631 
L 4684 1100 
L 678 1100 
L 678 1631 
z
" transform="scale(0.015625)"/>
     <path id="DejaVuSans-2e" d="M 684 794 
L 1344 794 
L 1344 0 
L 684 0 
L 684 794 
z
" transform="scale(0.015625)"/>
     <path id="DejaVuSans-39" d="M 703 97 
L 703 672 
Q 941 559 1184 500 
Q 1428 441 1663 441 
Q 2288 441 2617 861 
Q 2947 1281 2994 2138 
Q 2813 1869 2534 1725 
Q 2256 1581 1919 1581 
Q 1219 1581 811 2004 
Q 403 2428 403 3163 
Q 403 3881 828 4315 
Q 1253 4750 1959 4750 
Q 2769 4750 3195 4129 
Q 3622 3509 3622 2328 
Q 3622 1225 3098 567 
Q 2575 -91 1691 -91 
Q 1453 -91 1209 -44 
Q 966 3 703 97 
z
M 1959 2075 
Q 2384 2075 2632 2365 
Q 2881 2656 2881 3163 
Q 2881 3666 2632 3958 
Q 2384 4250 1959 4250 
Q 1534 4250 1286 3958 
Q 1038 3666 1038 3163 
Q 1038 2656 1286 2365 
Q 1534 2075 1959 2075 
z
" transform="scale(0.015625)"/>
     <path id="DejaVuSans-38" d="M 2034 2216 
Q 1584 2216 1326 1975 
Q 1069 1734 1069 1313 
Q 1069 891 1326 650 
Q 1584 409 2034 409 
Q 2484 409 2743 651 
Q 3003 894 3003 1313 
Q 3003 1734 2745 1975 
Q 2488 2216 2034 2216 
z
M 1403 2484 
Q 997 2584 770 2862 
Q 544 3141 544 3541 
Q 544 4100 942 4425 
Q 1341 4750 2034 4750 
Q 2731 4750 3128 4425 
Q 3525 4100 3525 3541 
Q 3525 3141 3298 2862 
Q 3072 2584 2669 2484 
Q 3125 2378 3379 2068 
Q 3634 1759 3634 1313 
Q 3634 634 3220 271 
Q 2806 -91 2034 -91 
Q 1263 -91 848 271 
Q 434 634 434 1313 
Q 434 1759 690 2068 
Q 947 2378 1403 2484 
z
M 1172 3481 
Q 1172 3119 1398 2916 
Q 1625 2713 2034 2713 
Q 2441 2713 2670 2916 
Q 2900 3119 2900 3481 
Q 2900 3844 2670 4047 
Q 2441 4250 2034 4250 
Q 1625 4250 1398 4047 
Q 1172 3844 1172 3481 
z
" transform="scale(0.015625)"/>
     <path id="DejaVuSans-2c" d="M 750 794 
L 1409 794 
L 1409 256 
L 897 -744 
L 494 -744 
L 750 256 
L 750 794 
z
" transform="scale(0.015625)"/>
     <path id="DejaVuSans-36" d="M 2113 2584 
Q 1688 2584 1439 2293 
Q 1191 2003 1191 1497 
Q 1191 994 1439 701 
Q 1688 409 2113 409 
Q 2538 409 2786 701 
Q 3034 994 3034 1497 
Q 3034 2003 2786 2293 
Q 2538 2584 2113 2584 
z
M 3366 4563 
L 3366 3988 
Q 3128 4100 2886 4159 
Q 2644 4219 2406 4219 
Q 1781 4219 1451 3797 
Q 1122 3375 1075 2522 
Q 1259 2794 1537 2939 
Q 1816 3084 2150 3084 
Q 2853 3084 3261 2657 
Q 3669 2231 3669 1497 
Q 3669 778 3244 343 
Q 2819 -91 2113 -91 
Q 1303 -91 875 529 
Q 447 1150 447 2328 
Q 447 3434 972 4092 
Q 1497 4750 2381 4750 
Q 2619 4750 2861 4703 
Q 3103 4656 3366 4563 
z
" transform="scale(0.015625)"/>
    </defs>
    <use xlink:href="#DejaVuSans-31"/>
    <use xlink:href="#DejaVuSans-6d" x="63.623047"/>
    <use xlink:href="#DejaVuSans-2d" x="161.035156"/>
    <use xlink:href="#DejaVuSans-74" x="197.119141"/>
    <use xlink:href="#DejaVuSans-61" x="236.328125"/>
    <use xlink:href="#DejaVuSans-6e" x="297.607422"/>
    <use xlink:href="#DejaVuSans-67" x="360.986328"/>
    <use xlink:href="#DejaVuSans-32" x="424.462891"/>
    <use xlink:href="#DejaVuSans-35" x="488.085938"/>
    <use xlink:href="#DejaVuSans-30" x="551.708984"/>
    <use xlink:href="#DejaVuSans-20" x="615.332031"/>
    <use xlink:href="#DejaVuSans-6f" x="647.119141"/>
    <use xlink:href="#DejaVuSans-6e" x="708.300781"/>
    <use xlink:href="#DejaVuSans-20" x="771.679688"/>
    <use xlink:href="#DejaVuSans-76" x="803.466797"/>
    <use xlink:href="#DejaVuSans-31" x="862.646484"/>
    <use xlink:href="#DejaVuSans-72" x="926.269531"/>
    <use xlink:href="#DejaVuSans-6f" x="965.132812"/>
    <use xlink:href="#DejaVuSans-64" x="1026.314453"/>
    <use xlink:href="#DejaVuSans-72" x="1089.791016"/>
    <use xlink:href="#DejaVuSans-69" x="1130.904297"/>
    <use xlink:href="#DejaVuSans-67" x="1158.6875"/>
    <use xlink:href="#DejaVuSans-75" x="1222.164062"/>
    <use xlink:href="#DejaVuSans-65" x="1285.542969"/>
    <use xlink:href="#DejaVuSans-7a" x="1347.066406"/>
    <use xlink:href="#DejaVuSans-56" x="1399.556641"/>
    <use xlink:href="#DejaVuSans-33" x="1467.964844"/>
    <use xlink:href="#DejaVuSans-34" x="1531.587891"/>
    <use xlink:href="#DejaVuSans-20" x="1595.210938"/>
    <use xlink:href="#DejaVuSans-73" x="1626.998047"/>
    <use xlink:href="#DejaVuSans-61" x="1679.097656"/>
    <use xlink:href="#DejaVuSans-6d" x="1740.376953"/>
    <use xlink:href="#DejaVuSans-70" x="1837.789062"/>
    <use xlink:href="#DejaVuSans-6c" x="1901.265625"/>
    <use xlink:href="#DejaVuSans-65" x="1929.048828"/>
    <use xlink:href="#DejaVuSans-64" x="1990.572266"/>
    <use xlink:href="#DejaVuSans-20" x="2054.048828"/>
    <use xlink:href="#DejaVuSans-31" x="2085.835938"/>
    <use xlink:href="#DejaVuSans-30" x="2149.458984"/>
    <use xlink:href="#DejaVuSans-6b" x="2213.082031"/>
    <use xlink:href="#DejaVuSans-3b" x="2270.992188"/>
    <use xlink:href="#DejaVuSans-20" x="2304.683594"/>
    <use xlink:href="#DejaVuSans-6f" x="2336.470703"/>
    <use xlink:href="#DejaVuSans-76" x="2397.652344"/>
    <use xlink:href="#DejaVuSans-65" x="2456.832031"/>
    <use xlink:href="#DejaVuSans-72" x="2518.355469"/>
    <use xlink:href="#DejaVuSans-6c" x="2559.46875"/>
    <use xlink:href="#DejaVuSans-61" x="2587.251953"/>
    <use xlink:href="#DejaVuSans-70" x="2648.53125"/>
    <use xlink:href="#DejaVuSans-3d" x="2712.007812"/>
    <use xlink:href="#DejaVuSans-30" x="2795.796875"/>
    <use xlink:href="#DejaVuSans-2e" x="2859.419922"/>
    <use xlink:href="#DejaVuSans-39" x="2891.207031"/>
    <use xlink:href="#DejaVuSans-38" x="2954.830078"/>
    <use xlink:href="#DejaVuSans-2c" x="3018.453125"/>
    <use xlink:href="#DejaVuSans-20" x="3050.240234"/>
    <use xlink:href="#DejaVuSans-72" x="3082.027344"/>
    <use xlink:href="#DejaVuSans-65" x="3120.890625"/>
    <use xlink:href="#DejaVuSans-73" x="3182.414062"/>
    <use xlink:href="#DejaVuSans-69" x="3234.513672"/>
    <use xlink:href="#DejaVuSans-64" x="3262.296875"/>
    <use xlink:href="#DejaVuSans-75" x="3325.773438"/>
    <use xlink:href="#DejaVuSans-61" x="3389.152344"/>
    <use xlink:href="#DejaVuSans-6c" x="3450.431641"/>
    <use xlink:href="#DejaVuSans-3d" x="3478.214844"/>
    <use xlink:href="#DejaVuSans-30" x="3562.003906"/>
    <use xlink:href="#DejaVuSans-2e" x="3625.626953"/>
    <use xlink:href="#DejaVuSans-30" x="3657.414062"/>
    <use xlink:href="#DejaVuSans-30" x="3721.037109"/>
    <use xlink:href="#DejaVuSans-36" x="3784.660156"/>
    <use xlink:href="#DejaVuSans-34" x="3848.283203"/>
    <use xlink:href="#DejaVuSans-39" x="3911.90625"/>
   </g>
  </g>
 </g>
 <defs>
  <clipPath id="p9690874430">
   <rect x="88.91" y="36" width="764.29" height="296.12"/>
  </clipPath>
 </defs>
 <defs>
  <pattern id="hac500e063a" patternUnits="userSpaceOnUse" x="0" y="0" width="72" height="72">
   <rect x="0" y="0" width="73" height="73" fill="none"/>
   <path d="M -36 36 
L 36 -36 
M -34 38 
L 38 -34 
M -32 40 
L 40 -32 
M -30 42 
L 42 -30 
M -28 44 
L 44 -28 
M -26 46 
L 46 -26 
M -24 48 
L 48 -24 
M -22 50 
L 50 -22 
M -20 52 
L 52 -20 
M -18 54 
L 54 -18 
M -16 56 
L 56 -16 
M -14 58 
L 58 -14 
M -12 60 
L 60 -12 
M -10 62 
L 62 -10 
M -8 64 
L 64 -8 
M -6 66 
L 66 -6 
M -4 68 
L 68 -4 
M -2 70 
L 70 -2 
M 0 72 
L 72 0 
M 2 74 
L 74 2 
M 4 76 
L 76 4 
M 6 78 
L 78 6 
M 8 80 
L 80 8 
M 10 82 
L 82 10 
M 12 84 
L 84 12 
M 14 86 
L 86 14 
M 16 88 
L 88 16 
M 18 90 
L 90 18 
M 20 92 
L 92 20 
M 22 94 
L 94 22 
M 24 96 
L 96 24 
M 26 98 
L 98 26 
M 28 100 
L 100 28 
M 30 102 
L 102 30 
M 32 104 
L 104 32 
M 34 106 
L 106 34 
M 36 108 
L 108 36 
" style="fill: #808080; stroke: #808080; stroke-width: 1.0; stroke-linecap: butt; stroke-linejoin: miter"/>
  </pattern>
 </defs>
</svg>
