<?xml version="1.0" encoding="utf-8" standalone="no"?>
<!DOCTYPE svg PUBLIC "-//W3C//DTD SVG 1.1//EN"
  "http://www.w3.org/Graphics/SVG/1.1/DTD/svg11.dtd">
<svg xmlns:xlink="http://www.w3.org/1999/xlink" width="864pt" height="360pt" viewBox="0 0 864 360" xmlns="http://www.w3.org/2000/svg" version="1.1">
 <metadata>
  <rdf:RDF xmlns:dc="http://purl.org/dc/elements/1.1/" xmlns:cc="http://creativecommons.org/ns#" xmlns:rdf="http://www.w3.org/1999/02/22-rdf-syntax-ns#">
   <cc:Work>
    <dc:type rdf:resource="http://purl.org/dc/dcmitype/StillImage"/>
    <dc:date>2024-06-17T05:12:25.720280</dc:date>
    <dc:format>image/svg+xml</dc:format>
    <dc:creator>
     <cc:Agent>
      <dc:title>Matplotlib v3.9.0, https://matplotlib.org/</dc:title>
     </cc:Agent>
    </dc:creator>
   </cc:Work>
  </rdf:RDF>
 </metadata>
 <defs>
  <style type="text/css">*{stroke-linejoin: round; stroke-linecap: butt}</style>
 </defs>
 <g id="figure_1">
  <g id="patch_1">
   <path d="M 0 360 
L 864 360 
L 864 0 
L 0 0 
z
" style="fill: #ffffff"/>
  </g>
  <g id="axes_1">
   <g id="patch_2">
    <path d="M 50.48 301.96 
L 853.2 301.96 
L 853.2 36 
L 50.48 36 
z
" style="fill: #ffffff"/>
   </g>
   <g id="patch_3">
    <path d="M 86.967273 301.96 
L 94.264727 301.96 
L 94.264727 301.96 
L 86.967273 301.96 
z
" clip-path="url(#p940ba059d2)" style="fill: #ffffff; stroke: #0072b2; stroke-linejoin: miter"/>
   </g>
   <g id="patch_4">
    <path d="M 94.264727 301.96 
L 101.562182 301.96 
L 101.562182 301.96 
L 94.264727 301.96 
z
" clip-path="url(#p940ba059d2)" style="fill: #ffffff; stroke: #0072b2; stroke-linejoin: miter"/>
   </g>
   <g id="patch_5">
    <path d="M 101.562182 301.96 
L 108.859636 301.96 
L 108.859636 301.96 
L 101.562182 301.96 
z
" clip-path="url(#p940ba059d2)" style="fill: #ffffff; stroke: #0072b2; stroke-linejoin: miter"/>
   </g>
   <g id="patch_6">
    <path d="M 108.859636 301.96 
L 116.157091 301.96 
L 116.157091 301.96 
L 108.859636 301.96 
z
" clip-path="url(#p940ba059d2)" style="fill: #ffffff; stroke: #0072b2; stroke-linejoin: miter"/>
   </g>
   <g id="patch_7">
    <path d="M 116.157091 301.96 
L 123.454545 301.96 
L 123.454545 301.96 
L 116.157091 301.96 
z
" clip-path="url(#p940ba059d2)" style="fill: #ffffff; stroke: #0072b2; stroke-linejoin: miter"/>
   </g>
   <g id="patch_8">
    <path d="M 123.454545 301.96 
L 130.752 301.96 
L 130.752 301.959654 
L 123.454545 301.959654 
z
" clip-path="url(#p940ba059d2)" style="fill: #ffffff; stroke: #0072b2; stroke-linejoin: miter"/>
   </g>
   <g id="patch_9">
    <path d="M 130.752 301.96 
L 138.049455 301.96 
L 138.049455 301.959806 
L 130.752 301.959806 
z
" clip-path="url(#p940ba059d2)" style="fill: #ffffff; stroke: #0072b2; stroke-linejoin: miter"/>
   </g>
   <g id="patch_10">
    <path d="M 138.049455 301.96 
L 145.346909 301.96 
L 145.346909 301.959778 
L 138.049455 301.959778 
z
" clip-path="url(#p940ba059d2)" style="fill: #ffffff; stroke: #0072b2; stroke-linejoin: miter"/>
   </g>
   <g id="patch_11">
    <path d="M 145.346909 301.96 
L 152.644364 301.96 
L 152.644364 301.96 
L 145.346909 301.96 
z
" clip-path="url(#p940ba059d2)" style="fill: #ffffff; stroke: #0072b2; stroke-linejoin: miter"/>
   </g>
   <g id="patch_12">
    <path d="M 152.644364 301.96 
L 159.941818 301.96 
L 159.941818 301.96 
L 152.644364 301.96 
z
" clip-path="url(#p940ba059d2)" style="fill: #ffffff; stroke: #0072b2; stroke-linejoin: miter"/>
   </g>
   <g id="patch_13">
    <path d="M 159.941818 301.96 
L 167.239273 301.96 
L 167.239273 301.96 
L 159.941818 301.96 
z
" clip-path="url(#p940ba059d2)" style="fill: #ffffff; stroke: #0072b2; stroke-linejoin: miter"/>
   </g>
   <g id="patch_14">
    <path d="M 167.239273 301.96 
L 174.536727 301.96 
L 174.536727 301.959606 
L 167.239273 301.959606 
z
" clip-path="url(#p940ba059d2)" style="fill: #ffffff; stroke: #0072b2; stroke-linejoin: miter"/>
   </g>
   <g id="patch_15">
    <path d="M 174.536727 301.96 
L 181.834182 301.96 
L 181.834182 301.96 
L 174.536727 301.96 
z
" clip-path="url(#p940ba059d2)" style="fill: #ffffff; stroke: #0072b2; stroke-linejoin: miter"/>
   </g>
   <g id="patch_16">
    <path d="M 181.834182 301.96 
L 189.131636 301.96 
L 189.131636 301.959521 
L 181.834182 301.959521 
z
" clip-path="url(#p940ba059d2)" style="fill: #ffffff; stroke: #0072b2; stroke-linejoin: miter"/>
   </g>
   <g id="patch_17">
    <path d="M 189.131636 301.96 
L 196.429091 301.96 
L 196.429091 301.959446 
L 189.131636 301.959446 
z
" clip-path="url(#p940ba059d2)" style="fill: #ffffff; stroke: #0072b2; stroke-linejoin: miter"/>
   </g>
   <g id="patch_18">
    <path d="M 196.429091 301.96 
L 203.726545 301.96 
L 203.726545 301.959366 
L 196.429091 301.959366 
z
" clip-path="url(#p940ba059d2)" style="fill: #ffffff; stroke: #0072b2; stroke-linejoin: miter"/>
   </g>
   <g id="patch_19">
    <path d="M 203.726545 301.96 
L 211.024 301.96 
L 211.024 301.96 
L 203.726545 301.96 
z
" clip-path="url(#p940ba059d2)" style="fill: #ffffff; stroke: #0072b2; stroke-linejoin: miter"/>
   </g>
   <g id="patch_20">
    <path d="M 211.024 301.96 
L 218.321455 301.96 
L 218.321455 301.959144 
L 211.024 301.959144 
z
" clip-path="url(#p940ba059d2)" style="fill: #ffffff; stroke: #0072b2; stroke-linejoin: miter"/>
   </g>
   <g id="patch_21">
    <path d="M 218.321455 301.96 
L 225.618909 301.96 
L 225.618909 301.958103 
L 218.321455 301.958103 
z
" clip-path="url(#p940ba059d2)" style="fill: #ffffff; stroke: #0072b2; stroke-linejoin: miter"/>
   </g>
   <g id="patch_22">
    <path d="M 225.618909 301.96 
L 232.916364 301.96 
L 232.916364 301.96 
L 225.618909 301.96 
z
" clip-path="url(#p940ba059d2)" style="fill: #ffffff; stroke: #0072b2; stroke-linejoin: miter"/>
   </g>
   <g id="patch_23">
    <path d="M 232.916364 301.96 
L 240.213818 301.96 
L 240.213818 301.958866 
L 232.916364 301.958866 
z
" clip-path="url(#p940ba059d2)" style="fill: #ffffff; stroke: #0072b2; stroke-linejoin: miter"/>
   </g>
   <g id="patch_24">
    <path d="M 240.213818 301.96 
L 247.511273 301.96 
L 247.511273 301.95871 
L 240.213818 301.95871 
z
" clip-path="url(#p940ba059d2)" style="fill: #ffffff; stroke: #0072b2; stroke-linejoin: miter"/>
   </g>
   <g id="patch_25">
    <path d="M 247.511273 301.96 
L 254.808727 301.96 
L 254.808727 301.958447 
L 247.511273 301.958447 
z
" clip-path="url(#p940ba059d2)" style="fill: #ffffff; stroke: #0072b2; stroke-linejoin: miter"/>
   </g>
   <g id="patch_26">
    <path d="M 254.808727 301.96 
L 262.106182 301.96 
L 262.106182 301.958126 
L 254.808727 301.958126 
z
" clip-path="url(#p940ba059d2)" style="fill: #ffffff; stroke: #0072b2; stroke-linejoin: miter"/>
   </g>
   <g id="patch_27">
    <path d="M 262.106182 301.96 
L 269.403636 301.96 
L 269.403636 301.95405 
L 262.106182 301.95405 
z
" clip-path="url(#p940ba059d2)" style="fill: #ffffff; stroke: #0072b2; stroke-linejoin: miter"/>
   </g>
   <g id="patch_28">
    <path d="M 269.403636 301.96 
L 276.701091 301.96 
L 276.701091 301.953124 
L 269.403636 301.953124 
z
" clip-path="url(#p940ba059d2)" style="fill: #ffffff; stroke: #0072b2; stroke-linejoin: miter"/>
   </g>
   <g id="patch_29">
    <path d="M 276.701091 301.96 
L 283.998545 301.96 
L 283.998545 301.957356 
L 276.701091 301.957356 
z
" clip-path="url(#p940ba059d2)" style="fill: #ffffff; stroke: #0072b2; stroke-linejoin: miter"/>
   </g>
   <g id="patch_30">
    <path d="M 283.998545 301.96 
L 291.296 301.96 
L 291.296 301.956805 
L 283.998545 301.956805 
z
" clip-path="url(#p940ba059d2)" style="fill: #ffffff; stroke: #0072b2; stroke-linejoin: miter"/>
   </g>
   <g id="patch_31">
    <path d="M 291.296 301.96 
L 298.593455 301.96 
L 298.593455 301.956383 
L 291.296 301.956383 
z
" clip-path="url(#p940ba059d2)" style="fill: #ffffff; stroke: #0072b2; stroke-linejoin: miter"/>
   </g>
   <g id="patch_32">
    <path d="M 298.593455 301.96 
L 305.890909 301.96 
L 305.890909 301.944043 
L 298.593455 301.944043 
z
" clip-path="url(#p940ba059d2)" style="fill: #ffffff; stroke: #0072b2; stroke-linejoin: miter"/>
   </g>
   <g id="patch_33">
    <path d="M 305.890909 301.96 
L 313.188364 301.96 
L 313.188364 301.933113 
L 305.890909 301.933113 
z
" clip-path="url(#p940ba059d2)" style="fill: #ffffff; stroke: #0072b2; stroke-linejoin: miter"/>
   </g>
   <g id="patch_34">
    <path d="M 313.188364 301.96 
L 320.485818 301.96 
L 320.485818 301.944837 
L 313.188364 301.944837 
z
" clip-path="url(#p940ba059d2)" style="fill: #ffffff; stroke: #0072b2; stroke-linejoin: miter"/>
   </g>
   <g id="patch_35">
    <path d="M 320.485818 301.96 
L 327.783273 301.96 
L 327.783273 301.942471 
L 320.485818 301.942471 
z
" clip-path="url(#p940ba059d2)" style="fill: #ffffff; stroke: #0072b2; stroke-linejoin: miter"/>
   </g>
   <g id="patch_36">
    <path d="M 327.783273 301.96 
L 335.080727 301.96 
L 335.080727 301.946713 
L 327.783273 301.946713 
z
" clip-path="url(#p940ba059d2)" style="fill: #ffffff; stroke: #0072b2; stroke-linejoin: miter"/>
   </g>
   <g id="patch_37">
    <path d="M 335.080727 301.96 
L 342.378182 301.96 
L 342.378182 301.928786 
L 335.080727 301.928786 
z
" clip-path="url(#p940ba059d2)" style="fill: #ffffff; stroke: #0072b2; stroke-linejoin: miter"/>
   </g>
   <g id="patch_38">
    <path d="M 342.378182 301.96 
L 349.675636 301.96 
L 349.675636 301.933745 
L 342.378182 301.933745 
z
" clip-path="url(#p940ba059d2)" style="fill: #ffffff; stroke: #0072b2; stroke-linejoin: miter"/>
   </g>
   <g id="patch_39">
    <path d="M 349.675636 301.96 
L 356.973091 301.96 
L 356.973091 301.920625 
L 349.675636 301.920625 
z
" clip-path="url(#p940ba059d2)" style="fill: #ffffff; stroke: #0072b2; stroke-linejoin: miter"/>
   </g>
   <g id="patch_40">
    <path d="M 356.973091 301.96 
L 364.270545 301.96 
L 364.270545 301.925564 
L 356.973091 301.925564 
z
" clip-path="url(#p940ba059d2)" style="fill: #ffffff; stroke: #0072b2; stroke-linejoin: miter"/>
   </g>
   <g id="patch_41">
    <path d="M 364.270545 301.96 
L 371.568 301.96 
L 371.568 301.908802 
L 364.270545 301.908802 
z
" clip-path="url(#p940ba059d2)" style="fill: #ffffff; stroke: #0072b2; stroke-linejoin: miter"/>
   </g>
   <g id="patch_42">
    <path d="M 371.568 301.96 
L 378.865455 301.96 
L 378.865455 301.85847 
L 371.568 301.85847 
z
" clip-path="url(#p940ba059d2)" style="fill: #ffffff; stroke: #0072b2; stroke-linejoin: miter"/>
   </g>
   <g id="patch_43">
    <path d="M 378.865455 301.96 
L 386.162909 301.96 
L 386.162909 301.823873 
L 378.865455 301.823873 
z
" clip-path="url(#p940ba059d2)" style="fill: #ffffff; stroke: #0072b2; stroke-linejoin: miter"/>
   </g>
   <g id="patch_44">
    <path d="M 386.162909 301.96 
L 393.460364 301.96 
L 393.460364 301.732037 
L 386.162909 301.732037 
z
" clip-path="url(#p940ba059d2)" style="fill: #ffffff; stroke: #0072b2; stroke-linejoin: miter"/>
   </g>
   <g id="patch_45">
    <path d="M 393.460364 301.96 
L 400.757818 301.96 
L 400.757818 301.783011 
L 393.460364 301.783011 
z
" clip-path="url(#p940ba059d2)" style="fill: #ffffff; stroke: #0072b2; stroke-linejoin: miter"/>
   </g>
   <g id="patch_46">
    <path d="M 400.757818 301.96 
L 408.055273 301.96 
L 408.055273 301.833928 
L 400.757818 301.833928 
z
" clip-path="url(#p940ba059d2)" style="fill: #ffffff; stroke: #0072b2; stroke-linejoin: miter"/>
   </g>
   <g id="patch_47">
    <path d="M 408.055273 301.96 
L 415.352727 301.96 
L 415.352727 301.757048 
L 408.055273 301.757048 
z
" clip-path="url(#p940ba059d2)" style="fill: #ffffff; stroke: #0072b2; stroke-linejoin: miter"/>
   </g>
   <g id="patch_48">
    <path d="M 415.352727 301.96 
L 422.650182 301.96 
L 422.650182 301.410846 
L 415.352727 301.410846 
z
" clip-path="url(#p940ba059d2)" style="fill: #ffffff; stroke: #0072b2; stroke-linejoin: miter"/>
   </g>
   <g id="patch_49">
    <path d="M 422.650182 301.96 
L 429.947636 301.96 
L 429.947636 301.699603 
L 422.650182 301.699603 
z
" clip-path="url(#p940ba059d2)" style="fill: #ffffff; stroke: #0072b2; stroke-linejoin: miter"/>
   </g>
   <g id="patch_50">
    <path d="M 429.947636 301.96 
L 437.245091 301.96 
L 437.245091 301.48959 
L 429.947636 301.48959 
z
" clip-path="url(#p940ba059d2)" style="fill: #ffffff; stroke: #0072b2; stroke-linejoin: miter"/>
   </g>
   <g id="patch_51">
    <path d="M 437.245091 301.96 
L 444.542545 301.96 
L 444.542545 301.429817 
L 437.245091 301.429817 
z
" clip-path="url(#p940ba059d2)" style="fill: #ffffff; stroke: #0072b2; stroke-linejoin: miter"/>
   </g>
   <g id="patch_52">
    <path d="M 444.542545 301.96 
L 451.84 301.96 
L 451.84 300.857004 
L 444.542545 300.857004 
z
" clip-path="url(#p940ba059d2)" style="fill: #ffffff; stroke: #0072b2; stroke-linejoin: miter"/>
   </g>
   <g id="patch_53">
    <path d="M 451.84 301.96 
L 459.137455 301.96 
L 459.137455 300.820064 
L 451.84 300.820064 
z
" clip-path="url(#p940ba059d2)" style="fill: #ffffff; stroke: #0072b2; stroke-linejoin: miter"/>
   </g>
   <g id="patch_54">
    <path d="M 459.137455 301.96 
L 466.434909 301.96 
L 466.434909 300.67782 
L 459.137455 300.67782 
z
" clip-path="url(#p940ba059d2)" style="fill: #ffffff; stroke: #0072b2; stroke-linejoin: miter"/>
   </g>
   <g id="patch_55">
    <path d="M 466.434909 301.96 
L 473.732364 301.96 
L 473.732364 300.644064 
L 466.434909 300.644064 
z
" clip-path="url(#p940ba059d2)" style="fill: #ffffff; stroke: #0072b2; stroke-linejoin: miter"/>
   </g>
   <g id="patch_56">
    <path d="M 473.732364 301.96 
L 481.029818 301.96 
L 481.029818 300.575593 
L 473.732364 300.575593 
z
" clip-path="url(#p940ba059d2)" style="fill: #ffffff; stroke: #0072b2; stroke-linejoin: miter"/>
   </g>
   <g id="patch_57">
    <path d="M 481.029818 301.96 
L 488.327273 301.96 
L 488.327273 299.30336 
L 481.029818 299.30336 
z
" clip-path="url(#p940ba059d2)" style="fill: #ffffff; stroke: #0072b2; stroke-linejoin: miter"/>
   </g>
   <g id="patch_58">
    <path d="M 488.327273 301.96 
L 495.624727 301.96 
L 495.624727 299.181658 
L 488.327273 299.181658 
z
" clip-path="url(#p940ba059d2)" style="fill: #ffffff; stroke: #0072b2; stroke-linejoin: miter"/>
   </g>
   <g id="patch_59">
    <path d="M 495.624727 301.96 
L 502.922182 301.96 
L 502.922182 297.942712 
L 495.624727 297.942712 
z
" clip-path="url(#p940ba059d2)" style="fill: #ffffff; stroke: #0072b2; stroke-linejoin: miter"/>
   </g>
   <g id="patch_60">
    <path d="M 502.922182 301.96 
L 510.219636 301.96 
L 510.219636 298.460051 
L 502.922182 298.460051 
z
" clip-path="url(#p940ba059d2)" style="fill: #ffffff; stroke: #0072b2; stroke-linejoin: miter"/>
   </g>
   <g id="patch_61">
    <path d="M 510.219636 301.96 
L 517.517091 301.96 
L 517.517091 298.528878 
L 510.219636 298.528878 
z
" clip-path="url(#p940ba059d2)" style="fill: #ffffff; stroke: #0072b2; stroke-linejoin: miter"/>
   </g>
   <g id="patch_62">
    <path d="M 517.517091 301.96 
L 524.814545 301.96 
L 524.814545 294.414378 
L 517.517091 294.414378 
z
" clip-path="url(#p940ba059d2)" style="fill: #ffffff; stroke: #0072b2; stroke-linejoin: miter"/>
   </g>
   <g id="patch_63">
    <path d="M 524.814545 301.96 
L 532.112 301.96 
L 532.112 297.281779 
L 524.814545 297.281779 
z
" clip-path="url(#p940ba059d2)" style="fill: #ffffff; stroke: #0072b2; stroke-linejoin: miter"/>
   </g>
   <g id="patch_64">
    <path d="M 532.112 301.96 
L 539.409455 301.96 
L 539.409455 292.866388 
L 532.112 292.866388 
z
" clip-path="url(#p940ba059d2)" style="fill: #ffffff; stroke: #0072b2; stroke-linejoin: miter"/>
   </g>
   <g id="patch_65">
    <path d="M 539.409455 301.96 
L 546.706909 301.96 
L 546.706909 293.487033 
L 539.409455 293.487033 
z
" clip-path="url(#p940ba059d2)" style="fill: #ffffff; stroke: #0072b2; stroke-linejoin: miter"/>
   </g>
   <g id="patch_66">
    <path d="M 546.706909 301.96 
L 554.004364 301.96 
L 554.004364 294.377962 
L 546.706909 294.377962 
z
" clip-path="url(#p940ba059d2)" style="fill: #ffffff; stroke: #0072b2; stroke-linejoin: miter"/>
   </g>
   <g id="patch_67">
    <path d="M 554.004364 301.96 
L 561.301818 301.96 
L 561.301818 287.596854 
L 554.004364 287.596854 
z
" clip-path="url(#p940ba059d2)" style="fill: #ffffff; stroke: #0072b2; stroke-linejoin: miter"/>
   </g>
   <g id="patch_68">
    <path d="M 561.301818 301.96 
L 568.599273 301.96 
L 568.599273 286.299669 
L 561.301818 286.299669 
z
" clip-path="url(#p940ba059d2)" style="fill: #ffffff; stroke: #0072b2; stroke-linejoin: miter"/>
   </g>
   <g id="patch_69">
    <path d="M 568.599273 301.96 
L 575.896727 301.96 
L 575.896727 281.963446 
L 568.599273 281.963446 
z
" clip-path="url(#p940ba059d2)" style="fill: #ffffff; stroke: #0072b2; stroke-linejoin: miter"/>
   </g>
   <g id="patch_70">
    <path d="M 575.896727 301.96 
L 583.194182 301.96 
L 583.194182 287.266708 
L 575.896727 287.266708 
z
" clip-path="url(#p940ba059d2)" style="fill: #ffffff; stroke: #0072b2; stroke-linejoin: miter"/>
   </g>
   <g id="patch_71">
    <path d="M 583.194182 301.96 
L 590.491636 301.96 
L 590.491636 278.654546 
L 583.194182 278.654546 
z
" clip-path="url(#p940ba059d2)" style="fill: #ffffff; stroke: #0072b2; stroke-linejoin: miter"/>
   </g>
   <g id="patch_72">
    <path d="M 590.491636 301.96 
L 597.789091 301.96 
L 597.789091 279.174748 
L 590.491636 279.174748 
z
" clip-path="url(#p940ba059d2)" style="fill: #ffffff; stroke: #0072b2; stroke-linejoin: miter"/>
   </g>
   <g id="patch_73">
    <path d="M 597.789091 301.96 
L 605.086545 301.96 
L 605.086545 279.179741 
L 597.789091 279.179741 
z
" clip-path="url(#p940ba059d2)" style="fill: #ffffff; stroke: #0072b2; stroke-linejoin: miter"/>
   </g>
   <g id="patch_74">
    <path d="M 605.086545 301.96 
L 612.384 301.96 
L 612.384 269.495654 
L 605.086545 269.495654 
z
" clip-path="url(#p940ba059d2)" style="fill: #ffffff; stroke: #0072b2; stroke-linejoin: miter"/>
   </g>
   <g id="patch_75">
    <path d="M 612.384 301.96 
L 619.681455 301.96 
L 619.681455 271.30424 
L 612.384 271.30424 
z
" clip-path="url(#p940ba059d2)" style="fill: #ffffff; stroke: #0072b2; stroke-linejoin: miter"/>
   </g>
   <g id="patch_76">
    <path d="M 619.681455 301.96 
L 626.978909 301.96 
L 626.978909 250.220518 
L 619.681455 250.220518 
z
" clip-path="url(#p940ba059d2)" style="fill: #ffffff; stroke: #0072b2; stroke-linejoin: miter"/>
   </g>
   <g id="patch_77">
    <path d="M 626.978909 301.96 
L 634.276364 301.96 
L 634.276364 263.196041 
L 626.978909 263.196041 
z
" clip-path="url(#p940ba059d2)" style="fill: #ffffff; stroke: #0072b2; stroke-linejoin: miter"/>
   </g>
   <g id="patch_78">
    <path d="M 634.276364 301.96 
L 641.573818 301.96 
L 641.573818 264.748434 
L 634.276364 264.748434 
z
" clip-path="url(#p940ba059d2)" style="fill: #ffffff; stroke: #0072b2; stroke-linejoin: miter"/>
   </g>
   <g id="patch_79">
    <path d="M 641.573818 301.96 
L 648.871273 301.96 
L 648.871273 257.737951 
L 641.573818 257.737951 
z
" clip-path="url(#p940ba059d2)" style="fill: #ffffff; stroke: #0072b2; stroke-linejoin: miter"/>
   </g>
   <g id="patch_80">
    <path d="M 648.871273 301.96 
L 656.168727 301.96 
L 656.168727 245.558619 
L 648.871273 245.558619 
z
" clip-path="url(#p940ba059d2)" style="fill: #ffffff; stroke: #0072b2; stroke-linejoin: miter"/>
   </g>
   <g id="patch_81">
    <path d="M 656.168727 301.96 
L 663.466182 301.96 
L 663.466182 239.952437 
L 656.168727 239.952437 
z
" clip-path="url(#p940ba059d2)" style="fill: #ffffff; stroke: #0072b2; stroke-linejoin: miter"/>
   </g>
   <g id="patch_82">
    <path d="M 663.466182 301.96 
L 670.763636 301.96 
L 670.763636 224.520654 
L 663.466182 224.520654 
z
" clip-path="url(#p940ba059d2)" style="fill: #ffffff; stroke: #0072b2; stroke-linejoin: miter"/>
   </g>
   <g id="patch_83">
    <path d="M 670.763636 301.96 
L 678.061091 301.96 
L 678.061091 213.61599 
L 670.763636 213.61599 
z
" clip-path="url(#p940ba059d2)" style="fill: #ffffff; stroke: #0072b2; stroke-linejoin: miter"/>
   </g>
   <g id="patch_84">
    <path d="M 678.061091 301.96 
L 685.358545 301.96 
L 685.358545 224.334854 
L 678.061091 224.334854 
z
" clip-path="url(#p940ba059d2)" style="fill: #ffffff; stroke: #0072b2; stroke-linejoin: miter"/>
   </g>
   <g id="patch_85">
    <path d="M 685.358545 301.96 
L 692.656 301.96 
L 692.656 183.545651 
L 685.358545 183.545651 
z
" clip-path="url(#p940ba059d2)" style="fill: #ffffff; stroke: #0072b2; stroke-linejoin: miter"/>
   </g>
   <g id="patch_86">
    <path d="M 692.656 301.96 
L 699.953455 301.96 
L 699.953455 215.339509 
L 692.656 215.339509 
z
" clip-path="url(#p940ba059d2)" style="fill: #ffffff; stroke: #0072b2; stroke-linejoin: miter"/>
   </g>
   <g id="patch_87">
    <path d="M 699.953455 301.96 
L 707.250909 301.96 
L 707.250909 199.051462 
L 699.953455 199.051462 
z
" clip-path="url(#p940ba059d2)" style="fill: #ffffff; stroke: #0072b2; stroke-linejoin: miter"/>
   </g>
   <g id="patch_88">
    <path d="M 707.250909 301.96 
L 714.548364 301.96 
L 714.548364 202.415704 
L 707.250909 202.415704 
z
" clip-path="url(#p940ba059d2)" style="fill: #ffffff; stroke: #0072b2; stroke-linejoin: miter"/>
   </g>
   <g id="patch_89">
    <path d="M 714.548364 301.96 
L 721.845818 301.96 
L 721.845818 163.927764 
L 714.548364 163.927764 
z
" clip-path="url(#p940ba059d2)" style="fill: #ffffff; stroke: #0072b2; stroke-linejoin: miter"/>
   </g>
   <g id="patch_90">
    <path d="M 721.845818 301.96 
L 729.143273 301.96 
L 729.143273 168.875098 
L 721.845818 168.875098 
z
" clip-path="url(#p940ba059d2)" style="fill: #ffffff; stroke: #0072b2; stroke-linejoin: miter"/>
   </g>
   <g id="patch_91">
    <path d="M 729.143273 301.96 
L 736.440727 301.96 
L 736.440727 162.632091 
L 729.143273 162.632091 
z
" clip-path="url(#p940ba059d2)" style="fill: #ffffff; stroke: #0072b2; stroke-linejoin: miter"/>
   </g>
   <g id="patch_92">
    <path d="M 736.440727 301.96 
L 743.738182 301.96 
L 743.738182 175.924739 
L 736.440727 175.924739 
z
" clip-path="url(#p940ba059d2)" style="fill: #ffffff; stroke: #0072b2; stroke-linejoin: miter"/>
   </g>
   <g id="patch_93">
    <path d="M 743.738182 301.96 
L 751.035636 301.96 
L 751.035636 130.762383 
L 743.738182 130.762383 
z
" clip-path="url(#p940ba059d2)" style="fill: #ffffff; stroke: #0072b2; stroke-linejoin: miter"/>
   </g>
   <g id="patch_94">
    <path d="M 751.035636 301.96 
L 758.333091 301.96 
L 758.333091 165.309947 
L 751.035636 165.309947 
z
" clip-path="url(#p940ba059d2)" style="fill: #ffffff; stroke: #0072b2; stroke-linejoin: miter"/>
   </g>
   <g id="patch_95">
    <path d="M 758.333091 301.96 
L 765.630545 301.96 
L 765.630545 189.606572 
L 758.333091 189.606572 
z
" clip-path="url(#p940ba059d2)" style="fill: #ffffff; stroke: #0072b2; stroke-linejoin: miter"/>
   </g>
   <g id="patch_96">
    <path d="M 765.630545 301.96 
L 772.928 301.96 
L 772.928 213.678222 
L 765.630545 213.678222 
z
" clip-path="url(#p940ba059d2)" style="fill: #ffffff; stroke: #0072b2; stroke-linejoin: miter"/>
   </g>
   <g id="patch_97">
    <path d="M 772.928 301.96 
L 780.225455 301.96 
L 780.225455 261.730761 
L 772.928 261.730761 
z
" clip-path="url(#p940ba059d2)" style="fill: #ffffff; stroke: #0072b2; stroke-linejoin: miter"/>
   </g>
   <g id="patch_98">
    <path d="M 780.225455 301.96 
L 787.522909 301.96 
L 787.522909 254.186811 
L 780.225455 254.186811 
z
" clip-path="url(#p940ba059d2)" style="fill: #ffffff; stroke: #0072b2; stroke-linejoin: miter"/>
   </g>
   <g id="patch_99">
    <path d="M 787.522909 301.96 
L 794.820364 301.96 
L 794.820364 248.109449 
L 787.522909 248.109449 
z
" clip-path="url(#p940ba059d2)" style="fill: #ffffff; stroke: #0072b2; stroke-linejoin: miter"/>
   </g>
   <g id="patch_100">
    <path d="M 794.820364 301.96 
L 802.117818 301.96 
L 802.117818 242.076258 
L 794.820364 242.076258 
z
" clip-path="url(#p940ba059d2)" style="fill: #ffffff; stroke: #0072b2; stroke-linejoin: miter"/>
   </g>
   <g id="patch_101">
    <path d="M 802.117818 301.96 
L 809.415273 301.96 
L 809.415273 266.910104 
L 802.117818 266.910104 
z
" clip-path="url(#p940ba059d2)" style="fill: #ffffff; stroke: #0072b2; stroke-linejoin: miter"/>
   </g>
   <g id="patch_102">
    <path d="M 809.415273 301.96 
L 816.712727 301.96 
L 816.712727 301.96 
L 809.415273 301.96 
z
" clip-path="url(#p940ba059d2)" style="fill: #ffffff; stroke: #0072b2; stroke-linejoin: miter"/>
   </g>
   <g id="PatchCollection_1">
    <path d="M 86.967273 301.96 
L 94.264727 301.96 
L 94.264727 301.96 
L 86.967273 301.96 
z
" clip-path="url(#p940ba059d2)" style="fill: url(#hac32fc42af)"/>
    <path d="M 94.264727 301.96 
L 101.562182 301.96 
L 101.562182 301.96 
L 94.264727 301.96 
z
" clip-path="url(#p940ba059d2)" style="fill: url(#hac32fc42af)"/>
    <path d="M 101.562182 301.96 
L 108.859636 301.96 
L 108.859636 301.96 
L 101.562182 301.96 
z
" clip-path="url(#p940ba059d2)" style="fill: url(#hac32fc42af)"/>
    <path d="M 108.859636 301.96 
L 116.157091 301.96 
L 116.157091 301.96 
L 108.859636 301.96 
z
" clip-path="url(#p940ba059d2)" style="fill: url(#hac32fc42af)"/>
    <path d="M 116.157091 301.96 
L 123.454545 301.96 
L 123.454545 301.96 
L 116.157091 301.96 
z
" clip-path="url(#p940ba059d2)" style="fill: url(#hac32fc42af)"/>
    <path d="M 123.454545 302.080518 
L 130.752 302.080518 
L 130.752 301.83879 
L 123.454545 301.83879 
z
" clip-path="url(#p940ba059d2)" style="fill: url(#hac32fc42af)"/>
    <path d="M 130.752 302.050214 
L 138.049455 302.050214 
L 138.049455 301.869398 
L 130.752 301.869398 
z
" clip-path="url(#p940ba059d2)" style="fill: url(#hac32fc42af)"/>
    <path d="M 138.049455 302.056607 
L 145.346909 302.056607 
L 145.346909 301.862949 
L 138.049455 301.862949 
z
" clip-path="url(#p940ba059d2)" style="fill: url(#hac32fc42af)"/>
    <path d="M 145.346909 301.96 
L 152.644364 301.96 
L 152.644364 301.96 
L 145.346909 301.96 
z
" clip-path="url(#p940ba059d2)" style="fill: url(#hac32fc42af)"/>
    <path d="M 152.644364 301.96 
L 159.941818 301.96 
L 159.941818 301.96 
L 152.644364 301.96 
z
" clip-path="url(#p940ba059d2)" style="fill: url(#hac32fc42af)"/>
    <path d="M 159.941818 301.96 
L 167.239273 301.96 
L 167.239273 301.96 
L 159.941818 301.96 
z
" clip-path="url(#p940ba059d2)" style="fill: url(#hac32fc42af)"/>
    <path d="M 167.239273 302.088617 
L 174.536727 302.088617 
L 174.536727 301.830595 
L 167.239273 301.830595 
z
" clip-path="url(#p940ba059d2)" style="fill: url(#hac32fc42af)"/>
    <path d="M 174.536727 301.96 
L 181.834182 301.96 
L 181.834182 301.96 
L 174.536727 301.96 
z
" clip-path="url(#p940ba059d2)" style="fill: url(#hac32fc42af)"/>
    <path d="M 181.834182 302.101696 
L 189.131636 302.101696 
L 189.131636 301.817347 
L 181.834182 301.817347 
z
" clip-path="url(#p940ba059d2)" style="fill: url(#hac32fc42af)"/>
    <path d="M 189.131636 302.112348 
L 196.429091 302.112348 
L 196.429091 301.806544 
L 189.131636 301.806544 
z
" clip-path="url(#p940ba059d2)" style="fill: url(#hac32fc42af)"/>
    <path d="M 196.429091 302.12294 
L 203.726545 302.12294 
L 203.726545 301.795793 
L 196.429091 301.795793 
z
" clip-path="url(#p940ba059d2)" style="fill: url(#hac32fc42af)"/>
    <path d="M 203.726545 301.96 
L 211.024 301.96 
L 211.024 301.96 
L 203.726545 301.96 
z
" clip-path="url(#p940ba059d2)" style="fill: url(#hac32fc42af)"/>
    <path d="M 211.024 302.149251 
L 218.321455 302.149251 
L 218.321455 301.769036 
L 211.024 301.769036 
z
" clip-path="url(#p940ba059d2)" style="fill: url(#hac32fc42af)"/>
    <path d="M 218.321455 302.241119 
L 225.618909 302.241119 
L 225.618909 301.675087 
L 218.321455 301.675087 
z
" clip-path="url(#p940ba059d2)" style="fill: url(#hac32fc42af)"/>
    <path d="M 225.618909 301.96 
L 232.916364 301.96 
L 232.916364 301.96 
L 225.618909 301.96 
z
" clip-path="url(#p940ba059d2)" style="fill: url(#hac32fc42af)"/>
    <path d="M 232.916364 302.177655 
L 240.213818 302.177655 
L 240.213818 301.740077 
L 232.916364 301.740077 
z
" clip-path="url(#p940ba059d2)" style="fill: url(#hac32fc42af)"/>
    <path d="M 240.213818 302.192068 
L 247.511273 302.192068 
L 247.511273 301.725352 
L 240.213818 301.725352 
z
" clip-path="url(#p940ba059d2)" style="fill: url(#hac32fc42af)"/>
    <path d="M 247.511273 302.214464 
L 254.808727 302.214464 
L 254.808727 301.702431 
L 247.511273 301.702431 
z
" clip-path="url(#p940ba059d2)" style="fill: url(#hac32fc42af)"/>
    <path d="M 254.808727 302.239387 
L 262.106182 302.239387 
L 262.106182 301.676865 
L 254.808727 301.676865 
z
" clip-path="url(#p940ba059d2)" style="fill: url(#hac32fc42af)"/>
    <path d="M 262.106182 302.455231 
L 269.403636 302.455231 
L 269.403636 301.452869 
L 262.106182 301.452869 
z
" clip-path="url(#p940ba059d2)" style="fill: url(#hac32fc42af)"/>
    <path d="M 269.403636 302.491886 
L 276.701091 302.491886 
L 276.701091 301.414362 
L 269.403636 301.414362 
z
" clip-path="url(#p940ba059d2)" style="fill: url(#hac32fc42af)"/>
    <path d="M 276.701091 302.291437 
L 283.998545 302.291437 
L 283.998545 301.623275 
L 276.701091 301.623275 
z
" clip-path="url(#p940ba059d2)" style="fill: url(#hac32fc42af)"/>
    <path d="M 283.998545 302.324035 
L 291.296 302.324035 
L 291.296 301.589575 
L 283.998545 301.589575 
z
" clip-path="url(#p940ba059d2)" style="fill: url(#hac32fc42af)"/>
    <path d="M 291.296 302.347151 
L 298.593455 302.347151 
L 298.593455 301.565614 
L 291.296 301.565614 
z
" clip-path="url(#p940ba059d2)" style="fill: url(#hac32fc42af)"/>
    <path d="M 298.593455 302.764752 
L 305.890909 302.764752 
L 305.890909 301.123335 
L 298.593455 301.123335 
z
" clip-path="url(#p940ba059d2)" style="fill: url(#hac32fc42af)"/>
    <path d="M 305.890909 302.998457 
L 313.188364 302.998457 
L 313.188364 300.867768 
L 305.890909 300.867768 
z
" clip-path="url(#p940ba059d2)" style="fill: url(#hac32fc42af)"/>
    <path d="M 313.188364 302.744861 
L 320.485818 302.744861 
L 320.485818 301.144813 
L 313.188364 301.144813 
z
" clip-path="url(#p940ba059d2)" style="fill: url(#hac32fc42af)"/>
    <path d="M 320.485818 302.802637 
L 327.783273 302.802637 
L 327.783273 301.082306 
L 320.485818 301.082306 
z
" clip-path="url(#p940ba059d2)" style="fill: url(#hac32fc42af)"/>
    <path d="M 327.783273 302.695594 
L 335.080727 302.695594 
L 335.080727 301.197833 
L 327.783273 301.197833 
z
" clip-path="url(#p940ba059d2)" style="fill: url(#hac32fc42af)"/>
    <path d="M 335.080727 303.076599 
L 342.378182 303.076599 
L 342.378182 300.780973 
L 335.080727 300.780973 
z
" clip-path="url(#p940ba059d2)" style="fill: url(#hac32fc42af)"/>
    <path d="M 342.378182 302.98643 
L 349.675636 302.98643 
L 349.675636 300.88106 
L 342.378182 300.88106 
z
" clip-path="url(#p940ba059d2)" style="fill: url(#hac32fc42af)"/>
    <path d="M 349.675636 303.209762 
L 356.973091 303.209762 
L 356.973091 300.631487 
L 349.675636 300.631487 
z
" clip-path="url(#p940ba059d2)" style="fill: url(#hac32fc42af)"/>
    <path d="M 356.973091 303.131109 
L 364.270545 303.131109 
L 364.270545 300.72002 
L 356.973091 300.72002 
z
" clip-path="url(#p940ba059d2)" style="fill: url(#hac32fc42af)"/>
    <path d="M 364.270545 303.378744 
L 371.568 303.378744 
L 371.568 300.43886 
L 364.270545 300.43886 
z
" clip-path="url(#p940ba059d2)" style="fill: url(#hac32fc42af)"/>
    <path d="M 371.568 303.92842 
L 378.865455 303.92842 
L 378.865455 299.788521 
L 371.568 299.788521 
z
" clip-path="url(#p940ba059d2)" style="fill: url(#hac32fc42af)"/>
    <path d="M 378.865455 304.220624 
L 386.162909 304.220624 
L 386.162909 299.427121 
L 378.865455 299.427121 
z
" clip-path="url(#p940ba059d2)" style="fill: url(#hac32fc42af)"/>
    <path d="M 386.162909 304.833538 
L 393.460364 304.833538 
L 393.460364 298.630536 
L 386.162909 298.630536 
z
" clip-path="url(#p940ba059d2)" style="fill: url(#hac32fc42af)"/>
    <path d="M 393.460364 304.515743 
L 400.757818 304.515743 
L 400.757818 299.050279 
L 393.460364 299.050279 
z
" clip-path="url(#p940ba059d2)" style="fill: url(#hac32fc42af)"/>
    <path d="M 400.757818 304.140234 
L 408.055273 304.140234 
L 408.055273 299.527622 
L 400.757818 299.527622 
z
" clip-path="url(#p940ba059d2)" style="fill: url(#hac32fc42af)"/>
    <path d="M 408.055273 304.683118 
L 415.352727 304.683118 
L 415.352727 298.830978 
L 408.055273 298.830978 
z
" clip-path="url(#p940ba059d2)" style="fill: url(#hac32fc42af)"/>
    <path d="M 415.352727 306.223874 
L 422.650182 306.223874 
L 422.650182 296.597819 
L 415.352727 296.597819 
z
" clip-path="url(#p940ba059d2)" style="fill: url(#hac32fc42af)"/>
    <path d="M 422.650182 305.013691 
L 429.947636 305.013691 
L 429.947636 298.385515 
L 422.650182 298.385515 
z
" clip-path="url(#p940ba059d2)" style="fill: url(#hac32fc42af)"/>
    <path d="M 429.947636 305.943649 
L 437.245091 305.943649 
L 437.245091 297.035531 
L 429.947636 297.035531 
z
" clip-path="url(#p940ba059d2)" style="fill: url(#hac32fc42af)"/>
    <path d="M 437.245091 306.158089 
L 444.542545 306.158089 
L 444.542545 296.701545 
L 437.245091 296.701545 
z
" clip-path="url(#p940ba059d2)" style="fill: url(#hac32fc42af)"/>
    <path d="M 444.542545 307.676317 
L 451.84 307.676317 
L 451.84 294.03769 
L 444.542545 294.03769 
z
" clip-path="url(#p940ba059d2)" style="fill: url(#hac32fc42af)"/>
    <path d="M 451.84 307.751957 
L 459.137455 307.751957 
L 459.137455 293.888171 
L 451.84 293.888171 
z
" clip-path="url(#p940ba059d2)" style="fill: url(#hac32fc42af)"/>
    <path d="M 459.137455 308.028801 
L 466.434909 308.028801 
L 466.434909 293.326839 
L 459.137455 293.326839 
z
" clip-path="url(#p940ba059d2)" style="fill: url(#hac32fc42af)"/>
    <path d="M 466.434909 308.090206 
L 473.732364 308.090206 
L 473.732364 293.197922 
L 466.434909 293.197922 
z
" clip-path="url(#p940ba059d2)" style="fill: url(#hac32fc42af)"/>
    <path d="M 473.732364 308.212081 
L 481.029818 308.212081 
L 481.029818 292.939103 
L 473.732364 292.939103 
z
" clip-path="url(#p940ba059d2)" style="fill: url(#hac32fc42af)"/>
    <path d="M 481.029818 309.88021 
L 488.327273 309.88021 
L 488.327273 288.72651 
L 481.029818 288.72651 
z
" clip-path="url(#p940ba059d2)" style="fill: url(#hac32fc42af)"/>
    <path d="M 488.327273 309.996181 
L 495.624727 309.996181 
L 495.624727 288.367136 
L 488.327273 288.367136 
z
" clip-path="url(#p940ba059d2)" style="fill: url(#hac32fc42af)"/>
    <path d="M 495.624727 310.944094 
L 502.922182 310.944094 
L 502.922182 284.94133 
L 495.624727 284.94133 
z
" clip-path="url(#p940ba059d2)" style="fill: url(#hac32fc42af)"/>
    <path d="M 502.922182 310.592481 
L 510.219636 310.592481 
L 510.219636 286.32762 
L 502.922182 286.32762 
z
" clip-path="url(#p940ba059d2)" style="fill: url(#hac32fc42af)"/>
    <path d="M 510.219636 310.538355 
L 517.517091 310.538355 
L 517.517091 286.5194 
L 510.219636 286.5194 
z
" clip-path="url(#p940ba059d2)" style="fill: url(#hac32fc42af)"/>
    <path d="M 517.517091 312.218977 
L 524.814545 312.218977 
L 524.814545 276.609779 
L 517.517091 276.609779 
z
" clip-path="url(#p940ba059d2)" style="fill: url(#hac32fc42af)"/>
    <path d="M 524.814545 311.296015 
L 532.112 311.296015 
L 532.112 283.267542 
L 524.814545 283.267542 
z
" clip-path="url(#p940ba059d2)" style="fill: url(#hac32fc42af)"/>
    <path d="M 532.112 312.39737 
L 539.409455 312.39737 
L 539.409455 273.335405 
L 532.112 273.335405 
z
" clip-path="url(#p940ba059d2)" style="fill: url(#hac32fc42af)"/>
    <path d="M 539.409455 312.331845 
L 546.706909 312.331845 
L 546.706909 274.642222 
L 539.409455 274.642222 
z
" clip-path="url(#p940ba059d2)" style="fill: url(#hac32fc42af)"/>
    <path d="M 546.706909 312.195528 
L 554.004364 312.195528 
L 554.004364 276.560395 
L 546.706909 276.560395 
z
" clip-path="url(#p940ba059d2)" style="fill: url(#hac32fc42af)"/>
    <path d="M 554.004364 312.104308 
L 561.301818 312.104308 
L 561.301818 263.089399 
L 554.004364 263.089399 
z
" clip-path="url(#p940ba059d2)" style="fill: url(#hac32fc42af)"/>
    <path d="M 561.301818 311.875005 
L 568.599273 311.875005 
L 568.599273 260.724333 
L 561.301818 260.724333 
z
" clip-path="url(#p940ba059d2)" style="fill: url(#hac32fc42af)"/>
    <path d="M 568.599273 310.840787 
L 575.896727 310.840787 
L 575.896727 253.086105 
L 568.599273 253.086105 
z
" clip-path="url(#p940ba059d2)" style="fill: url(#hac32fc42af)"/>
    <path d="M 575.896727 311.998102 
L 583.194182 311.998102 
L 583.194182 262.535313 
L 575.896727 262.535313 
z
" clip-path="url(#p940ba059d2)" style="fill: url(#hac32fc42af)"/>
    <path d="M 583.194182 309.77242 
L 590.491636 309.77242 
L 590.491636 247.536673 
L 583.194182 247.536673 
z
" clip-path="url(#p940ba059d2)" style="fill: url(#hac32fc42af)"/>
    <path d="M 590.491636 309.908651 
L 597.789091 309.908651 
L 597.789091 248.440846 
L 590.491636 248.440846 
z
" clip-path="url(#p940ba059d2)" style="fill: url(#hac32fc42af)"/>
    <path d="M 597.789091 309.866949 
L 605.086545 309.866949 
L 605.086545 248.492533 
L 597.789091 248.492533 
z
" clip-path="url(#p940ba059d2)" style="fill: url(#hac32fc42af)"/>
    <path d="M 605.086545 306.081663 
L 612.384 306.081663 
L 612.384 232.909646 
L 605.086545 232.909646 
z
" clip-path="url(#p940ba059d2)" style="fill: url(#hac32fc42af)"/>
    <path d="M 612.384 306.791133 
L 619.681455 306.791133 
L 619.681455 235.817348 
L 612.384 235.817348 
z
" clip-path="url(#p940ba059d2)" style="fill: url(#hac32fc42af)"/>
    <path d="M 619.681455 296.233647 
L 626.978909 296.233647 
L 626.978909 204.207389 
L 619.681455 204.207389 
z
" clip-path="url(#p940ba059d2)" style="fill: url(#hac32fc42af)"/>
    <path d="M 626.978909 302.927543 
L 634.276364 302.927543 
L 634.276364 223.464539 
L 626.978909 223.464539 
z
" clip-path="url(#p940ba059d2)" style="fill: url(#hac32fc42af)"/>
    <path d="M 634.276364 303.57998 
L 641.573818 303.57998 
L 641.573818 225.916888 
L 634.276364 225.916888 
z
" clip-path="url(#p940ba059d2)" style="fill: url(#hac32fc42af)"/>
    <path d="M 641.573818 299.948613 
L 648.871273 299.948613 
L 648.871273 215.52729 
L 641.573818 215.52729 
z
" clip-path="url(#p940ba059d2)" style="fill: url(#hac32fc42af)"/>
    <path d="M 648.871273 293.082698 
L 656.168727 293.082698 
L 656.168727 198.03454 
L 648.871273 198.03454 
z
" clip-path="url(#p940ba059d2)" style="fill: url(#hac32fc42af)"/>
    <path d="M 656.168727 289.588143 
L 663.466182 289.588143 
L 663.466182 190.316731 
L 656.168727 190.316731 
z
" clip-path="url(#p940ba059d2)" style="fill: url(#hac32fc42af)"/>
    <path d="M 663.466182 279.718432 
L 670.763636 279.718432 
L 670.763636 169.322877 
L 663.466182 169.322877 
z
" clip-path="url(#p940ba059d2)" style="fill: url(#hac32fc42af)"/>
    <path d="M 670.763636 272.268072 
L 678.061091 272.268072 
L 678.061091 154.963908 
L 670.763636 154.963908 
z
" clip-path="url(#p940ba059d2)" style="fill: url(#hac32fc42af)"/>
    <path d="M 678.061091 279.012852 
L 685.358545 279.012852 
L 685.358545 169.656855 
L 678.061091 169.656855 
z
" clip-path="url(#p940ba059d2)" style="fill: url(#hac32fc42af)"/>
    <path d="M 685.358545 250.607011 
L 692.656 250.607011 
L 692.656 116.484291 
L 685.358545 116.484291 
z
" clip-path="url(#p940ba059d2)" style="fill: url(#hac32fc42af)"/>
    <path d="M 692.656 272.253437 
L 699.953455 272.253437 
L 699.953455 158.42558 
L 692.656 158.42558 
z
" clip-path="url(#p940ba059d2)" style="fill: url(#hac32fc42af)"/>
    <path d="M 699.953455 260.582505 
L 707.250909 260.582505 
L 707.250909 137.520419 
L 699.953455 137.520419 
z
" clip-path="url(#p940ba059d2)" style="fill: url(#hac32fc42af)"/>
    <path d="M 707.250909 262.26901 
L 714.548364 262.26901 
L 714.548364 142.562399 
L 707.250909 142.562399 
z
" clip-path="url(#p940ba059d2)" style="fill: url(#hac32fc42af)"/>
    <path d="M 714.548364 233.373333 
L 721.845818 233.373333 
L 721.845818 94.482196 
L 714.548364 94.482196 
z
" clip-path="url(#p940ba059d2)" style="fill: url(#hac32fc42af)"/>
    <path d="M 721.845818 236.032262 
L 729.143273 236.032262 
L 729.143273 101.717934 
L 721.845818 101.717934 
z
" clip-path="url(#p940ba059d2)" style="fill: url(#hac32fc42af)"/>
    <path d="M 729.143273 230.349017 
L 736.440727 230.349017 
L 736.440727 94.915164 
L 729.143273 94.915164 
z
" clip-path="url(#p940ba059d2)" style="fill: url(#hac32fc42af)"/>
    <path d="M 736.440727 239.129926 
L 743.738182 239.129926 
L 743.738182 112.719551 
L 736.440727 112.719551 
z
" clip-path="url(#p940ba059d2)" style="fill: url(#hac32fc42af)"/>
    <path d="M 743.738182 202.390763 
L 751.035636 202.390763 
L 751.035636 59.133993 
L 743.738182 59.133993 
z
" clip-path="url(#p940ba059d2)" style="fill: url(#hac32fc42af)"/>
    <path d="M 751.035636 227.759502 
L 758.333091 227.759502 
L 758.333091 102.860393 
L 751.035636 102.860393 
z
" clip-path="url(#p940ba059d2)" style="fill: url(#hac32fc42af)"/>
    <path d="M 758.333091 243.795454 
L 765.630545 243.795454 
L 765.630545 135.417689 
L 758.333091 135.417689 
z
" clip-path="url(#p940ba059d2)" style="fill: url(#hac32fc42af)"/>
    <path d="M 765.630545 260.218025 
L 772.928 260.218025 
L 772.928 167.138419 
L 765.630545 167.138419 
z
" clip-path="url(#p940ba059d2)" style="fill: url(#hac32fc42af)"/>
    <path d="M 772.928 291.542708 
L 780.225455 291.542708 
L 780.225455 231.918815 
L 772.928 231.918815 
z
" clip-path="url(#p940ba059d2)" style="fill: url(#hac32fc42af)"/>
    <path d="M 780.225455 283.77329 
L 787.522909 283.77329 
L 787.522909 224.600332 
L 780.225455 224.600332 
z
" clip-path="url(#p940ba059d2)" style="fill: url(#hac32fc42af)"/>
    <path d="M 787.522909 276.724523 
L 794.820364 276.724523 
L 794.820364 219.494376 
L 787.522909 219.494376 
z
" clip-path="url(#p940ba059d2)" style="fill: url(#hac32fc42af)"/>
    <path d="M 794.820364 269.162494 
L 802.117818 269.162494 
L 802.117818 214.990022 
L 794.820364 214.990022 
z
" clip-path="url(#p940ba059d2)" style="fill: url(#hac32fc42af)"/>
    <path d="M 802.117818 282.758346 
L 809.415273 282.758346 
L 809.415273 251.061863 
L 802.117818 251.061863 
z
" clip-path="url(#p940ba059d2)" style="fill: url(#hac32fc42af)"/>
    <path d="M 809.415273 301.96 
L 816.712727 301.96 
L 816.712727 301.96 
L 809.415273 301.96 
z
" clip-path="url(#p940ba059d2)" style="fill: url(#hac32fc42af)"/>
   </g>
   <g id="matplotlib.axis_1">
    <g id="xtick_1">
     <g id="line2d_1">
      <defs>
       <path id="m4446e5f2f8" d="M 0 0 
L 0 3.5 
" style="stroke: #000000; stroke-width: 0.8"/>
      </defs>
      <g>
       <use xlink:href="#m4446e5f2f8" x="50.607492" y="301.96" style="stroke: #000000; stroke-width: 0.8"/>
      </g>
     </g>
     <g id="text_1">
      <!-- −6 -->
      <g transform="translate(40.287961 319.597813) scale(0.14 -0.14)">
       <defs>
        <path id="DejaVuSans-2212" d="M 678 2272 
L 4684 2272 
L 4684 1741 
L 678 1741 
L 678 2272 
z
" transform="scale(0.015625)"/>
        <path id="DejaVuSans-36" d="M 2113 2584 
Q 1688 2584 1439 2293 
Q 1191 2003 1191 1497 
Q 1191 994 1439 701 
Q 1688 409 2113 409 
Q 2538 409 2786 701 
Q 3034 994 3034 1497 
Q 3034 2003 2786 2293 
Q 2538 2584 2113 2584 
z
M 3366 4563 
L 3366 3988 
Q 3128 4100 2886 4159 
Q 2644 4219 2406 4219 
Q 1781 4219 1451 3797 
Q 1122 3375 1075 2522 
Q 1259 2794 1537 2939 
Q 1816 3084 2150 3084 
Q 2853 3084 3261 2657 
Q 3669 2231 3669 1497 
Q 3669 778 3244 343 
Q 2819 -91 2113 -91 
Q 1303 -91 875 529 
Q 447 1150 447 2328 
Q 447 3434 972 4092 
Q 1497 4750 2381 4750 
Q 2619 4750 2861 4703 
Q 3103 4656 3366 4563 
z
" transform="scale(0.015625)"/>
       </defs>
       <use xlink:href="#DejaVuSans-2212"/>
       <use xlink:href="#DejaVuSans-36" x="83.789062"/>
      </g>
     </g>
    </g>
    <g id="xtick_2">
     <g id="line2d_2">
      <g>
       <use xlink:href="#m4446e5f2f8" x="178.291698" y="301.96" style="stroke: #000000; stroke-width: 0.8"/>
      </g>
     </g>
     <g id="text_2">
      <!-- −5 -->
      <g transform="translate(167.972167 319.597813) scale(0.14 -0.14)">
       <defs>
        <path id="DejaVuSans-35" d="M 691 4666 
L 3169 4666 
L 3169 4134 
L 1269 4134 
L 1269 2991 
Q 1406 3038 1543 3061 
Q 1681 3084 1819 3084 
Q 2600 3084 3056 2656 
Q 3513 2228 3513 1497 
Q 3513 744 3044 326 
Q 2575 -91 1722 -91 
Q 1428 -91 1123 -41 
Q 819 9 494 109 
L 494 744 
Q 775 591 1075 516 
Q 1375 441 1709 441 
Q 2250 441 2565 725 
Q 2881 1009 2881 1497 
Q 2881 1984 2565 2268 
Q 2250 2553 1709 2553 
Q 1456 2553 1204 2497 
Q 953 2441 691 2322 
L 691 4666 
z
" transform="scale(0.015625)"/>
       </defs>
       <use xlink:href="#DejaVuSans-2212"/>
       <use xlink:href="#DejaVuSans-35" x="83.789062"/>
      </g>
     </g>
    </g>
    <g id="xtick_3">
     <g id="line2d_3">
      <g>
       <use xlink:href="#m4446e5f2f8" x="305.975904" y="301.96" style="stroke: #000000; stroke-width: 0.8"/>
      </g>
     </g>
     <g id="text_3">
      <!-- −4 -->
      <g transform="translate(295.656373 319.597813) scale(0.14 -0.14)">
       <defs>
        <path id="DejaVuSans-34" d="M 2419 4116 
L 825 1625 
L 2419 1625 
L 2419 4116 
z
M 2253 4666 
L 3047 4666 
L 3047 1625 
L 3713 1625 
L 3713 1100 
L 3047 1100 
L 3047 0 
L 2419 0 
L 2419 1100 
L 313 1100 
L 313 1709 
L 2253 4666 
z
" transform="scale(0.015625)"/>
       </defs>
       <use xlink:href="#DejaVuSans-2212"/>
       <use xlink:href="#DejaVuSans-34" x="83.789062"/>
      </g>
     </g>
    </g>
    <g id="xtick_4">
     <g id="line2d_4">
      <g>
       <use xlink:href="#m4446e5f2f8" x="433.66011" y="301.96" style="stroke: #000000; stroke-width: 0.8"/>
      </g>
     </g>
     <g id="text_4">
      <!-- −3 -->
      <g transform="translate(423.340579 319.597813) scale(0.14 -0.14)">
       <defs>
        <path id="DejaVuSans-33" d="M 2597 2516 
Q 3050 2419 3304 2112 
Q 3559 1806 3559 1356 
Q 3559 666 3084 287 
Q 2609 -91 1734 -91 
Q 1441 -91 1130 -33 
Q 819 25 488 141 
L 488 750 
Q 750 597 1062 519 
Q 1375 441 1716 441 
Q 2309 441 2620 675 
Q 2931 909 2931 1356 
Q 2931 1769 2642 2001 
Q 2353 2234 1838 2234 
L 1294 2234 
L 1294 2753 
L 1863 2753 
Q 2328 2753 2575 2939 
Q 2822 3125 2822 3475 
Q 2822 3834 2567 4026 
Q 2313 4219 1838 4219 
Q 1578 4219 1281 4162 
Q 984 4106 628 3988 
L 628 4550 
Q 988 4650 1302 4700 
Q 1616 4750 1894 4750 
Q 2613 4750 3031 4423 
Q 3450 4097 3450 3541 
Q 3450 3153 3228 2886 
Q 3006 2619 2597 2516 
z
" transform="scale(0.015625)"/>
       </defs>
       <use xlink:href="#DejaVuSans-2212"/>
       <use xlink:href="#DejaVuSans-33" x="83.789062"/>
      </g>
     </g>
    </g>
    <g id="xtick_5">
     <g id="line2d_5">
      <g>
       <use xlink:href="#m4446e5f2f8" x="561.344316" y="301.96" style="stroke: #000000; stroke-width: 0.8"/>
      </g>
     </g>
     <g id="text_5">
      <!-- −2 -->
      <g transform="translate(551.024784 319.597813) scale(0.14 -0.14)">
       <defs>
        <path id="DejaVuSans-32" d="M 1228 531 
L 3431 531 
L 3431 0 
L 469 0 
L 469 531 
Q 828 903 1448 1529 
Q 2069 2156 2228 2338 
Q 2531 2678 2651 2914 
Q 2772 3150 2772 3378 
Q 2772 3750 2511 3984 
Q 2250 4219 1831 4219 
Q 1534 4219 1204 4116 
Q 875 4013 500 3803 
L 500 4441 
Q 881 4594 1212 4672 
Q 1544 4750 1819 4750 
Q 2544 4750 2975 4387 
Q 3406 4025 3406 3419 
Q 3406 3131 3298 2873 
Q 3191 2616 2906 2266 
Q 2828 2175 2409 1742 
Q 1991 1309 1228 531 
z
" transform="scale(0.015625)"/>
       </defs>
       <use xlink:href="#DejaVuSans-2212"/>
       <use xlink:href="#DejaVuSans-32" x="83.789062"/>
      </g>
     </g>
    </g>
    <g id="xtick_6">
     <g id="line2d_6">
      <g>
       <use xlink:href="#m4446e5f2f8" x="689.028521" y="301.96" style="stroke: #000000; stroke-width: 0.8"/>
      </g>
     </g>
     <g id="text_6">
      <!-- −1 -->
      <g transform="translate(678.70899 319.597813) scale(0.14 -0.14)">
       <defs>
        <path id="DejaVuSans-31" d="M 794 531 
L 1825 531 
L 1825 4091 
L 703 3866 
L 703 4441 
L 1819 4666 
L 2450 4666 
L 2450 531 
L 3481 531 
L 3481 0 
L 794 0 
L 794 531 
z
" transform="scale(0.015625)"/>
       </defs>
       <use xlink:href="#DejaVuSans-2212"/>
       <use xlink:href="#DejaVuSans-31" x="83.789062"/>
      </g>
     </g>
    </g>
    <g id="xtick_7">
     <g id="line2d_7">
      <g>
       <use xlink:href="#m4446e5f2f8" x="816.712727" y="301.96" style="stroke: #000000; stroke-width: 0.8"/>
      </g>
     </g>
     <g id="text_7">
      <!-- 0 -->
      <g transform="translate(812.258977 319.597813) scale(0.14 -0.14)">
       <defs>
        <path id="DejaVuSans-30" d="M 2034 4250 
Q 1547 4250 1301 3770 
Q 1056 3291 1056 2328 
Q 1056 1369 1301 889 
Q 1547 409 2034 409 
Q 2525 409 2770 889 
Q 3016 1369 3016 2328 
Q 3016 3291 2770 3770 
Q 2525 4250 2034 4250 
z
M 2034 4750 
Q 2819 4750 3233 4129 
Q 3647 3509 3647 2328 
Q 3647 1150 3233 529 
Q 2819 -91 2034 -91 
Q 1250 -91 836 529 
Q 422 1150 422 2328 
Q 422 3509 836 4129 
Q 1250 4750 2034 4750 
z
" transform="scale(0.015625)"/>
       </defs>
       <use xlink:href="#DejaVuSans-30"/>
      </g>
     </g>
    </g>
    <g id="text_8">
     <!-- $\log_{10}$(amino acid substitution probability) -->
     <g transform="translate(306.1 343.149375) scale(0.14 -0.14)">
      <defs>
       <path id="DejaVuSans-6c" d="M 603 4863 
L 1178 4863 
L 1178 0 
L 603 0 
L 603 4863 
z
" transform="scale(0.015625)"/>
       <path id="DejaVuSans-6f" d="M 1959 3097 
Q 1497 3097 1228 2736 
Q 959 2375 959 1747 
Q 959 1119 1226 758 
Q 1494 397 1959 397 
Q 2419 397 2687 759 
Q 2956 1122 2956 1747 
Q 2956 2369 2687 2733 
Q 2419 3097 1959 3097 
z
M 1959 3584 
Q 2709 3584 3137 3096 
Q 3566 2609 3566 1747 
Q 3566 888 3137 398 
Q 2709 -91 1959 -91 
Q 1206 -91 779 398 
Q 353 888 353 1747 
Q 353 2609 779 3096 
Q 1206 3584 1959 3584 
z
" transform="scale(0.015625)"/>
       <path id="DejaVuSans-67" d="M 2906 1791 
Q 2906 2416 2648 2759 
Q 2391 3103 1925 3103 
Q 1463 3103 1205 2759 
Q 947 2416 947 1791 
Q 947 1169 1205 825 
Q 1463 481 1925 481 
Q 2391 481 2648 825 
Q 2906 1169 2906 1791 
z
M 3481 434 
Q 3481 -459 3084 -895 
Q 2688 -1331 1869 -1331 
Q 1566 -1331 1297 -1286 
Q 1028 -1241 775 -1147 
L 775 -588 
Q 1028 -725 1275 -790 
Q 1522 -856 1778 -856 
Q 2344 -856 2625 -561 
Q 2906 -266 2906 331 
L 2906 616 
Q 2728 306 2450 153 
Q 2172 0 1784 0 
Q 1141 0 747 490 
Q 353 981 353 1791 
Q 353 2603 747 3093 
Q 1141 3584 1784 3584 
Q 2172 3584 2450 3431 
Q 2728 3278 2906 2969 
L 2906 3500 
L 3481 3500 
L 3481 434 
z
" transform="scale(0.015625)"/>
       <path id="DejaVuSans-28" d="M 1984 4856 
Q 1566 4138 1362 3434 
Q 1159 2731 1159 2009 
Q 1159 1288 1364 580 
Q 1569 -128 1984 -844 
L 1484 -844 
Q 1016 -109 783 600 
Q 550 1309 550 2009 
Q 550 2706 781 3412 
Q 1013 4119 1484 4856 
L 1984 4856 
z
" transform="scale(0.015625)"/>
       <path id="DejaVuSans-61" d="M 2194 1759 
Q 1497 1759 1228 1600 
Q 959 1441 959 1056 
Q 959 750 1161 570 
Q 1363 391 1709 391 
Q 2188 391 2477 730 
Q 2766 1069 2766 1631 
L 2766 1759 
L 2194 1759 
z
M 3341 1997 
L 3341 0 
L 2766 0 
L 2766 531 
Q 2569 213 2275 61 
Q 1981 -91 1556 -91 
Q 1019 -91 701 211 
Q 384 513 384 1019 
Q 384 1609 779 1909 
Q 1175 2209 1959 2209 
L 2766 2209 
L 2766 2266 
Q 2766 2663 2505 2880 
Q 2244 3097 1772 3097 
Q 1472 3097 1187 3025 
Q 903 2953 641 2809 
L 641 3341 
Q 956 3463 1253 3523 
Q 1550 3584 1831 3584 
Q 2591 3584 2966 3190 
Q 3341 2797 3341 1997 
z
" transform="scale(0.015625)"/>
       <path id="DejaVuSans-6d" d="M 3328 2828 
Q 3544 3216 3844 3400 
Q 4144 3584 4550 3584 
Q 5097 3584 5394 3201 
Q 5691 2819 5691 2113 
L 5691 0 
L 5113 0 
L 5113 2094 
Q 5113 2597 4934 2840 
Q 4756 3084 4391 3084 
Q 3944 3084 3684 2787 
Q 3425 2491 3425 1978 
L 3425 0 
L 2847 0 
L 2847 2094 
Q 2847 2600 2669 2842 
Q 2491 3084 2119 3084 
Q 1678 3084 1418 2786 
Q 1159 2488 1159 1978 
L 1159 0 
L 581 0 
L 581 3500 
L 1159 3500 
L 1159 2956 
Q 1356 3278 1631 3431 
Q 1906 3584 2284 3584 
Q 2666 3584 2933 3390 
Q 3200 3197 3328 2828 
z
" transform="scale(0.015625)"/>
       <path id="DejaVuSans-69" d="M 603 3500 
L 1178 3500 
L 1178 0 
L 603 0 
L 603 3500 
z
M 603 4863 
L 1178 4863 
L 1178 4134 
L 603 4134 
L 603 4863 
z
" transform="scale(0.015625)"/>
       <path id="DejaVuSans-6e" d="M 3513 2113 
L 3513 0 
L 2938 0 
L 2938 2094 
Q 2938 2591 2744 2837 
Q 2550 3084 2163 3084 
Q 1697 3084 1428 2787 
Q 1159 2491 1159 1978 
L 1159 0 
L 581 0 
L 581 3500 
L 1159 3500 
L 1159 2956 
Q 1366 3272 1645 3428 
Q 1925 3584 2291 3584 
Q 2894 3584 3203 3211 
Q 3513 2838 3513 2113 
z
" transform="scale(0.015625)"/>
       <path id="DejaVuSans-20" transform="scale(0.015625)"/>
       <path id="DejaVuSans-63" d="M 3122 3366 
L 3122 2828 
Q 2878 2963 2633 3030 
Q 2388 3097 2138 3097 
Q 1578 3097 1268 2742 
Q 959 2388 959 1747 
Q 959 1106 1268 751 
Q 1578 397 2138 397 
Q 2388 397 2633 464 
Q 2878 531 3122 666 
L 3122 134 
Q 2881 22 2623 -34 
Q 2366 -91 2075 -91 
Q 1284 -91 818 406 
Q 353 903 353 1747 
Q 353 2603 823 3093 
Q 1294 3584 2113 3584 
Q 2378 3584 2631 3529 
Q 2884 3475 3122 3366 
z
" transform="scale(0.015625)"/>
       <path id="DejaVuSans-64" d="M 2906 2969 
L 2906 4863 
L 3481 4863 
L 3481 0 
L 2906 0 
L 2906 525 
Q 2725 213 2448 61 
Q 2172 -91 1784 -91 
Q 1150 -91 751 415 
Q 353 922 353 1747 
Q 353 2572 751 3078 
Q 1150 3584 1784 3584 
Q 2172 3584 2448 3432 
Q 2725 3281 2906 2969 
z
M 947 1747 
Q 947 1113 1208 752 
Q 1469 391 1925 391 
Q 2381 391 2643 752 
Q 2906 1113 2906 1747 
Q 2906 2381 2643 2742 
Q 2381 3103 1925 3103 
Q 1469 3103 1208 2742 
Q 947 2381 947 1747 
z
" transform="scale(0.015625)"/>
       <path id="DejaVuSans-73" d="M 2834 3397 
L 2834 2853 
Q 2591 2978 2328 3040 
Q 2066 3103 1784 3103 
Q 1356 3103 1142 2972 
Q 928 2841 928 2578 
Q 928 2378 1081 2264 
Q 1234 2150 1697 2047 
L 1894 2003 
Q 2506 1872 2764 1633 
Q 3022 1394 3022 966 
Q 3022 478 2636 193 
Q 2250 -91 1575 -91 
Q 1294 -91 989 -36 
Q 684 19 347 128 
L 347 722 
Q 666 556 975 473 
Q 1284 391 1588 391 
Q 1994 391 2212 530 
Q 2431 669 2431 922 
Q 2431 1156 2273 1281 
Q 2116 1406 1581 1522 
L 1381 1569 
Q 847 1681 609 1914 
Q 372 2147 372 2553 
Q 372 3047 722 3315 
Q 1072 3584 1716 3584 
Q 2034 3584 2315 3537 
Q 2597 3491 2834 3397 
z
" transform="scale(0.015625)"/>
       <path id="DejaVuSans-75" d="M 544 1381 
L 544 3500 
L 1119 3500 
L 1119 1403 
Q 1119 906 1312 657 
Q 1506 409 1894 409 
Q 2359 409 2629 706 
Q 2900 1003 2900 1516 
L 2900 3500 
L 3475 3500 
L 3475 0 
L 2900 0 
L 2900 538 
Q 2691 219 2414 64 
Q 2138 -91 1772 -91 
Q 1169 -91 856 284 
Q 544 659 544 1381 
z
M 1991 3584 
L 1991 3584 
z
" transform="scale(0.015625)"/>
       <path id="DejaVuSans-62" d="M 3116 1747 
Q 3116 2381 2855 2742 
Q 2594 3103 2138 3103 
Q 1681 3103 1420 2742 
Q 1159 2381 1159 1747 
Q 1159 1113 1420 752 
Q 1681 391 2138 391 
Q 2594 391 2855 752 
Q 3116 1113 3116 1747 
z
M 1159 2969 
Q 1341 3281 1617 3432 
Q 1894 3584 2278 3584 
Q 2916 3584 3314 3078 
Q 3713 2572 3713 1747 
Q 3713 922 3314 415 
Q 2916 -91 2278 -91 
Q 1894 -91 1617 61 
Q 1341 213 1159 525 
L 1159 0 
L 581 0 
L 581 4863 
L 1159 4863 
L 1159 2969 
z
" transform="scale(0.015625)"/>
       <path id="DejaVuSans-74" d="M 1172 4494 
L 1172 3500 
L 2356 3500 
L 2356 3053 
L 1172 3053 
L 1172 1153 
Q 1172 725 1289 603 
Q 1406 481 1766 481 
L 2356 481 
L 2356 0 
L 1766 0 
Q 1100 0 847 248 
Q 594 497 594 1153 
L 594 3053 
L 172 3053 
L 172 3500 
L 594 3500 
L 594 4494 
L 1172 4494 
z
" transform="scale(0.015625)"/>
       <path id="DejaVuSans-70" d="M 1159 525 
L 1159 -1331 
L 581 -1331 
L 581 3500 
L 1159 3500 
L 1159 2969 
Q 1341 3281 1617 3432 
Q 1894 3584 2278 3584 
Q 2916 3584 3314 3078 
Q 3713 2572 3713 1747 
Q 3713 922 3314 415 
Q 2916 -91 2278 -91 
Q 1894 -91 1617 61 
Q 1341 213 1159 525 
z
M 3116 1747 
Q 3116 2381 2855 2742 
Q 2594 3103 2138 3103 
Q 1681 3103 1420 2742 
Q 1159 2381 1159 1747 
Q 1159 1113 1420 752 
Q 1681 391 2138 391 
Q 2594 391 2855 752 
Q 3116 1113 3116 1747 
z
" transform="scale(0.015625)"/>
       <path id="DejaVuSans-72" d="M 2631 2963 
Q 2534 3019 2420 3045 
Q 2306 3072 2169 3072 
Q 1681 3072 1420 2755 
Q 1159 2438 1159 1844 
L 1159 0 
L 581 0 
L 581 3500 
L 1159 3500 
L 1159 2956 
Q 1341 3275 1631 3429 
Q 1922 3584 2338 3584 
Q 2397 3584 2469 3576 
Q 2541 3569 2628 3553 
L 2631 2963 
z
" transform="scale(0.015625)"/>
       <path id="DejaVuSans-79" d="M 2059 -325 
Q 1816 -950 1584 -1140 
Q 1353 -1331 966 -1331 
L 506 -1331 
L 506 -850 
L 844 -850 
Q 1081 -850 1212 -737 
Q 1344 -625 1503 -206 
L 1606 56 
L 191 3500 
L 800 3500 
L 1894 763 
L 2988 3500 
L 3597 3500 
L 2059 -325 
z
" transform="scale(0.015625)"/>
       <path id="DejaVuSans-29" d="M 513 4856 
L 1013 4856 
Q 1481 4119 1714 3412 
Q 1947 2706 1947 2009 
Q 1947 1309 1714 600 
Q 1481 -109 1013 -844 
L 513 -844 
Q 928 -128 1133 580 
Q 1338 1288 1338 2009 
Q 1338 2731 1133 3434 
Q 928 4138 513 4856 
z
" transform="scale(0.015625)"/>
      </defs>
      <use xlink:href="#DejaVuSans-6c" transform="translate(0 0.015625)"/>
      <use xlink:href="#DejaVuSans-6f" transform="translate(27.783203 0.015625)"/>
      <use xlink:href="#DejaVuSans-67" transform="translate(88.964844 0.015625)"/>
      <use xlink:href="#DejaVuSans-31" transform="translate(153.398438 -16.390625) scale(0.7)"/>
      <use xlink:href="#DejaVuSans-30" transform="translate(197.93457 -16.390625) scale(0.7)"/>
      <use xlink:href="#DejaVuSans-28" transform="translate(261.440754 0.015625)"/>
      <use xlink:href="#DejaVuSans-61" transform="translate(300.454426 0.015625)"/>
      <use xlink:href="#DejaVuSans-6d" transform="translate(361.733723 0.015625)"/>
      <use xlink:href="#DejaVuSans-69" transform="translate(459.145833 0.015625)"/>
      <use xlink:href="#DejaVuSans-6e" transform="translate(486.929036 0.015625)"/>
      <use xlink:href="#DejaVuSans-6f" transform="translate(550.307942 0.015625)"/>
      <use xlink:href="#DejaVuSans-20" transform="translate(611.489583 0.015625)"/>
      <use xlink:href="#DejaVuSans-61" transform="translate(643.276692 0.015625)"/>
      <use xlink:href="#DejaVuSans-63" transform="translate(704.555989 0.015625)"/>
      <use xlink:href="#DejaVuSans-69" transform="translate(759.536458 0.015625)"/>
      <use xlink:href="#DejaVuSans-64" transform="translate(787.319661 0.015625)"/>
      <use xlink:href="#DejaVuSans-20" transform="translate(850.796223 0.015625)"/>
      <use xlink:href="#DejaVuSans-73" transform="translate(882.583333 0.015625)"/>
      <use xlink:href="#DejaVuSans-75" transform="translate(934.682942 0.015625)"/>
      <use xlink:href="#DejaVuSans-62" transform="translate(998.061848 0.015625)"/>
      <use xlink:href="#DejaVuSans-73" transform="translate(1061.538411 0.015625)"/>
      <use xlink:href="#DejaVuSans-74" transform="translate(1113.63802 0.015625)"/>
      <use xlink:href="#DejaVuSans-69" transform="translate(1152.847004 0.015625)"/>
      <use xlink:href="#DejaVuSans-74" transform="translate(1180.630208 0.015625)"/>
      <use xlink:href="#DejaVuSans-75" transform="translate(1219.839192 0.015625)"/>
      <use xlink:href="#DejaVuSans-74" transform="translate(1283.218098 0.015625)"/>
      <use xlink:href="#DejaVuSans-69" transform="translate(1322.427083 0.015625)"/>
      <use xlink:href="#DejaVuSans-6f" transform="translate(1350.210286 0.015625)"/>
      <use xlink:href="#DejaVuSans-6e" transform="translate(1411.391926 0.015625)"/>
      <use xlink:href="#DejaVuSans-20" transform="translate(1474.770833 0.015625)"/>
      <use xlink:href="#DejaVuSans-70" transform="translate(1506.557942 0.015625)"/>
      <use xlink:href="#DejaVuSans-72" transform="translate(1570.034504 0.015625)"/>
      <use xlink:href="#DejaVuSans-6f" transform="translate(1611.147786 0.015625)"/>
      <use xlink:href="#DejaVuSans-62" transform="translate(1672.329426 0.015625)"/>
      <use xlink:href="#DejaVuSans-61" transform="translate(1735.805989 0.015625)"/>
      <use xlink:href="#DejaVuSans-62" transform="translate(1797.085286 0.015625)"/>
      <use xlink:href="#DejaVuSans-69" transform="translate(1860.561848 0.015625)"/>
      <use xlink:href="#DejaVuSans-6c" transform="translate(1888.345051 0.015625)"/>
      <use xlink:href="#DejaVuSans-69" transform="translate(1916.128254 0.015625)"/>
      <use xlink:href="#DejaVuSans-74" transform="translate(1943.911458 0.015625)"/>
      <use xlink:href="#DejaVuSans-79" transform="translate(1983.120442 0.015625)"/>
      <use xlink:href="#DejaVuSans-29" transform="translate(2042.300129 0.015625)"/>
     </g>
    </g>
   </g>
   <g id="matplotlib.axis_2">
    <g id="ytick_1">
     <g id="line2d_8">
      <defs>
       <path id="m824fb108ed" d="M 0 0 
L -3.5 0 
" style="stroke: #000000; stroke-width: 0.8"/>
      </defs>
      <g>
       <use xlink:href="#m824fb108ed" x="50.48" y="301.96" style="stroke: #000000; stroke-width: 0.8"/>
      </g>
     </g>
     <g id="text_9">
      <!-- 0 -->
      <g transform="translate(34.5725 307.278906) scale(0.14 -0.14)">
       <use xlink:href="#DejaVuSans-30"/>
      </g>
     </g>
    </g>
    <g id="ytick_2">
     <g id="line2d_9">
      <g>
       <use xlink:href="#m824fb108ed" x="50.48" y="259.744127" style="stroke: #000000; stroke-width: 0.8"/>
      </g>
     </g>
     <g id="text_10">
      <!-- 1 -->
      <g transform="translate(34.5725 265.063033) scale(0.14 -0.14)">
       <use xlink:href="#DejaVuSans-31"/>
      </g>
     </g>
    </g>
    <g id="ytick_3">
     <g id="line2d_10">
      <g>
       <use xlink:href="#m824fb108ed" x="50.48" y="217.528254" style="stroke: #000000; stroke-width: 0.8"/>
      </g>
     </g>
     <g id="text_11">
      <!-- 2 -->
      <g transform="translate(34.5725 222.84716) scale(0.14 -0.14)">
       <use xlink:href="#DejaVuSans-32"/>
      </g>
     </g>
    </g>
    <g id="ytick_4">
     <g id="line2d_11">
      <g>
       <use xlink:href="#m824fb108ed" x="50.48" y="175.312381" style="stroke: #000000; stroke-width: 0.8"/>
      </g>
     </g>
     <g id="text_12">
      <!-- 3 -->
      <g transform="translate(34.5725 180.631287) scale(0.14 -0.14)">
       <use xlink:href="#DejaVuSans-33"/>
      </g>
     </g>
    </g>
    <g id="ytick_5">
     <g id="line2d_12">
      <g>
       <use xlink:href="#m824fb108ed" x="50.48" y="133.096508" style="stroke: #000000; stroke-width: 0.8"/>
      </g>
     </g>
     <g id="text_13">
      <!-- 4 -->
      <g transform="translate(34.5725 138.415414) scale(0.14 -0.14)">
       <use xlink:href="#DejaVuSans-34"/>
      </g>
     </g>
    </g>
    <g id="ytick_6">
     <g id="line2d_13">
      <g>
       <use xlink:href="#m824fb108ed" x="50.48" y="90.880635" style="stroke: #000000; stroke-width: 0.8"/>
      </g>
     </g>
     <g id="text_14">
      <!-- 5 -->
      <g transform="translate(34.5725 96.199541) scale(0.14 -0.14)">
       <use xlink:href="#DejaVuSans-35"/>
      </g>
     </g>
    </g>
    <g id="ytick_7">
     <g id="line2d_14">
      <g>
       <use xlink:href="#m824fb108ed" x="50.48" y="48.664762" style="stroke: #000000; stroke-width: 0.8"/>
      </g>
     </g>
     <g id="text_15">
      <!-- 6 -->
      <g transform="translate(34.5725 53.983668) scale(0.14 -0.14)">
       <use xlink:href="#DejaVuSans-36"/>
      </g>
     </g>
    </g>
    <g id="text_16">
     <!-- number of mutations -->
     <g transform="translate(21.660937 242.839844) rotate(-90) scale(0.14 -0.14)">
      <defs>
       <path id="DejaVuSans-65" d="M 3597 1894 
L 3597 1613 
L 953 1613 
Q 991 1019 1311 708 
Q 1631 397 2203 397 
Q 2534 397 2845 478 
Q 3156 559 3463 722 
L 3463 178 
Q 3153 47 2828 -22 
Q 2503 -91 2169 -91 
Q 1331 -91 842 396 
Q 353 884 353 1716 
Q 353 2575 817 3079 
Q 1281 3584 2069 3584 
Q 2775 3584 3186 3129 
Q 3597 2675 3597 1894 
z
M 3022 2063 
Q 3016 2534 2758 2815 
Q 2500 3097 2075 3097 
Q 1594 3097 1305 2825 
Q 1016 2553 972 2059 
L 3022 2063 
z
" transform="scale(0.015625)"/>
       <path id="DejaVuSans-66" d="M 2375 4863 
L 2375 4384 
L 1825 4384 
Q 1516 4384 1395 4259 
Q 1275 4134 1275 3809 
L 1275 3500 
L 2222 3500 
L 2222 3053 
L 1275 3053 
L 1275 0 
L 697 0 
L 697 3053 
L 147 3053 
L 147 3500 
L 697 3500 
L 697 3744 
Q 697 4328 969 4595 
Q 1241 4863 1831 4863 
L 2375 4863 
z
" transform="scale(0.015625)"/>
      </defs>
      <use xlink:href="#DejaVuSans-6e"/>
      <use xlink:href="#DejaVuSans-75" x="63.378906"/>
      <use xlink:href="#DejaVuSans-6d" x="126.757812"/>
      <use xlink:href="#DejaVuSans-62" x="224.169922"/>
      <use xlink:href="#DejaVuSans-65" x="287.646484"/>
      <use xlink:href="#DejaVuSans-72" x="349.169922"/>
      <use xlink:href="#DejaVuSans-20" x="390.283203"/>
      <use xlink:href="#DejaVuSans-6f" x="422.070312"/>
      <use xlink:href="#DejaVuSans-66" x="483.251953"/>
      <use xlink:href="#DejaVuSans-20" x="518.457031"/>
      <use xlink:href="#DejaVuSans-6d" x="550.244141"/>
      <use xlink:href="#DejaVuSans-75" x="647.65625"/>
      <use xlink:href="#DejaVuSans-74" x="711.035156"/>
      <use xlink:href="#DejaVuSans-61" x="750.244141"/>
      <use xlink:href="#DejaVuSans-74" x="811.523438"/>
      <use xlink:href="#DejaVuSans-69" x="850.732422"/>
      <use xlink:href="#DejaVuSans-6f" x="878.515625"/>
      <use xlink:href="#DejaVuSans-6e" x="939.697266"/>
      <use xlink:href="#DejaVuSans-73" x="1003.076172"/>
     </g>
    </g>
   </g>
   <g id="line2d_15">
    <path d="M 90.616 301.96 
L 97.913455 301.96 
L 105.210909 301.96 
L 112.508364 301.96 
L 119.805818 301.96 
L 127.103273 301.96 
L 134.400727 301.96 
L 141.698182 301.96 
L 148.995636 301.96 
L 156.293091 301.96 
L 163.590545 301.96 
L 170.888 301.96 
L 178.185455 301.96 
L 185.482909 301.96 
L 192.780364 301.96 
L 200.077818 301.96 
L 207.375273 301.96 
L 214.672727 301.96 
L 221.970182 301.96 
L 229.267636 301.96 
L 236.565091 301.96 
L 243.862545 301.96 
L 251.16 301.96 
L 258.457455 301.96 
L 265.754909 301.96 
L 273.052364 301.96 
L 280.349818 301.96 
L 287.647273 301.96 
L 294.944727 301.96 
L 302.242182 301.96 
L 309.539636 301.96 
L 316.837091 301.96 
L 324.134545 301.96 
L 331.432 301.96 
L 338.729455 301.96 
L 346.026909 301.96 
L 353.324364 301.96 
L 360.621818 301.96 
L 367.919273 301.96 
L 375.216727 301.96 
L 382.514182 301.96 
L 389.811636 301.96 
L 397.109091 301.96 
L 404.406545 301.96 
L 411.704 301.96 
L 419.001455 301.96 
L 426.298909 301.96 
L 433.596364 301.96 
L 440.893818 301.96 
L 448.191273 301.96 
L 455.488727 301.96 
L 462.786182 301.96 
L 470.083636 301.96 
L 477.381091 301.96 
L 484.678545 259.744127 
L 491.976 301.96 
L 499.273455 301.96 
L 506.570909 301.96 
L 513.868364 301.96 
L 521.165818 301.96 
L 528.463273 301.96 
L 535.760727 301.96 
L 543.058182 301.96 
L 550.355636 301.96 
L 557.653091 259.744127 
L 564.950545 259.744127 
L 572.248 259.744127 
L 579.545455 301.96 
L 586.842909 217.528254 
L 594.140364 301.96 
L 601.437818 301.96 
L 608.735273 259.744127 
L 616.032727 217.528254 
L 623.330182 259.744127 
L 630.627636 301.96 
L 637.925091 259.744127 
L 645.222545 301.96 
L 652.52 217.528254 
L 659.817455 217.528254 
L 667.114909 259.744127 
L 674.412364 217.528254 
L 681.709818 217.528254 
L 689.007273 259.744127 
L 696.304727 217.528254 
L 703.602182 259.744127 
L 710.899636 175.312381 
L 718.197091 175.312381 
L 725.494545 48.664762 
L 732.792 175.312381 
L 740.089455 259.744127 
L 747.386909 133.096508 
L 754.684364 133.096508 
L 761.981818 259.744127 
L 769.279273 175.312381 
L 776.576727 301.96 
L 783.874182 301.96 
L 791.171636 217.528254 
L 798.469091 217.528254 
L 805.766545 259.744127 
L 813.064 301.96 
" clip-path="url(#p940ba059d2)" style="fill: none"/>
    <defs>
     <path id="m0e6b2caf09" d="M 0 2 
C 0.530406 2 1.03916 1.789267 1.414214 1.414214 
C 1.789267 1.03916 2 0.530406 2 0 
C 2 -0.530406 1.789267 -1.03916 1.414214 -1.414214 
C 1.03916 -1.789267 0.530406 -2 0 -2 
C -0.530406 -2 -1.03916 -1.789267 -1.414214 -1.414214 
C -1.789267 -1.03916 -2 -0.530406 -2 0 
C -2 0.530406 -1.789267 1.03916 -1.414214 1.414214 
C -1.03916 1.789267 -0.530406 2 0 2 
z
" style="stroke: #000000"/>
    </defs>
    <g clip-path="url(#p940ba059d2)">
     <use xlink:href="#m0e6b2caf09" x="90.616" y="301.96" style="stroke: #000000"/>
     <use xlink:href="#m0e6b2caf09" x="97.913455" y="301.96" style="stroke: #000000"/>
     <use xlink:href="#m0e6b2caf09" x="105.210909" y="301.96" style="stroke: #000000"/>
     <use xlink:href="#m0e6b2caf09" x="112.508364" y="301.96" style="stroke: #000000"/>
     <use xlink:href="#m0e6b2caf09" x="119.805818" y="301.96" style="stroke: #000000"/>
     <use xlink:href="#m0e6b2caf09" x="127.103273" y="301.96" style="stroke: #000000"/>
     <use xlink:href="#m0e6b2caf09" x="134.400727" y="301.96" style="stroke: #000000"/>
     <use xlink:href="#m0e6b2caf09" x="141.698182" y="301.96" style="stroke: #000000"/>
     <use xlink:href="#m0e6b2caf09" x="148.995636" y="301.96" style="stroke: #000000"/>
     <use xlink:href="#m0e6b2caf09" x="156.293091" y="301.96" style="stroke: #000000"/>
     <use xlink:href="#m0e6b2caf09" x="163.590545" y="301.96" style="stroke: #000000"/>
     <use xlink:href="#m0e6b2caf09" x="170.888" y="301.96" style="stroke: #000000"/>
     <use xlink:href="#m0e6b2caf09" x="178.185455" y="301.96" style="stroke: #000000"/>
     <use xlink:href="#m0e6b2caf09" x="185.482909" y="301.96" style="stroke: #000000"/>
     <use xlink:href="#m0e6b2caf09" x="192.780364" y="301.96" style="stroke: #000000"/>
     <use xlink:href="#m0e6b2caf09" x="200.077818" y="301.96" style="stroke: #000000"/>
     <use xlink:href="#m0e6b2caf09" x="207.375273" y="301.96" style="stroke: #000000"/>
     <use xlink:href="#m0e6b2caf09" x="214.672727" y="301.96" style="stroke: #000000"/>
     <use xlink:href="#m0e6b2caf09" x="221.970182" y="301.96" style="stroke: #000000"/>
     <use xlink:href="#m0e6b2caf09" x="229.267636" y="301.96" style="stroke: #000000"/>
     <use xlink:href="#m0e6b2caf09" x="236.565091" y="301.96" style="stroke: #000000"/>
     <use xlink:href="#m0e6b2caf09" x="243.862545" y="301.96" style="stroke: #000000"/>
     <use xlink:href="#m0e6b2caf09" x="251.16" y="301.96" style="stroke: #000000"/>
     <use xlink:href="#m0e6b2caf09" x="258.457455" y="301.96" style="stroke: #000000"/>
     <use xlink:href="#m0e6b2caf09" x="265.754909" y="301.96" style="stroke: #000000"/>
     <use xlink:href="#m0e6b2caf09" x="273.052364" y="301.96" style="stroke: #000000"/>
     <use xlink:href="#m0e6b2caf09" x="280.349818" y="301.96" style="stroke: #000000"/>
     <use xlink:href="#m0e6b2caf09" x="287.647273" y="301.96" style="stroke: #000000"/>
     <use xlink:href="#m0e6b2caf09" x="294.944727" y="301.96" style="stroke: #000000"/>
     <use xlink:href="#m0e6b2caf09" x="302.242182" y="301.96" style="stroke: #000000"/>
     <use xlink:href="#m0e6b2caf09" x="309.539636" y="301.96" style="stroke: #000000"/>
     <use xlink:href="#m0e6b2caf09" x="316.837091" y="301.96" style="stroke: #000000"/>
     <use xlink:href="#m0e6b2caf09" x="324.134545" y="301.96" style="stroke: #000000"/>
     <use xlink:href="#m0e6b2caf09" x="331.432" y="301.96" style="stroke: #000000"/>
     <use xlink:href="#m0e6b2caf09" x="338.729455" y="301.96" style="stroke: #000000"/>
     <use xlink:href="#m0e6b2caf09" x="346.026909" y="301.96" style="stroke: #000000"/>
     <use xlink:href="#m0e6b2caf09" x="353.324364" y="301.96" style="stroke: #000000"/>
     <use xlink:href="#m0e6b2caf09" x="360.621818" y="301.96" style="stroke: #000000"/>
     <use xlink:href="#m0e6b2caf09" x="367.919273" y="301.96" style="stroke: #000000"/>
     <use xlink:href="#m0e6b2caf09" x="375.216727" y="301.96" style="stroke: #000000"/>
     <use xlink:href="#m0e6b2caf09" x="382.514182" y="301.96" style="stroke: #000000"/>
     <use xlink:href="#m0e6b2caf09" x="389.811636" y="301.96" style="stroke: #000000"/>
     <use xlink:href="#m0e6b2caf09" x="397.109091" y="301.96" style="stroke: #000000"/>
     <use xlink:href="#m0e6b2caf09" x="404.406545" y="301.96" style="stroke: #000000"/>
     <use xlink:href="#m0e6b2caf09" x="411.704" y="301.96" style="stroke: #000000"/>
     <use xlink:href="#m0e6b2caf09" x="419.001455" y="301.96" style="stroke: #000000"/>
     <use xlink:href="#m0e6b2caf09" x="426.298909" y="301.96" style="stroke: #000000"/>
     <use xlink:href="#m0e6b2caf09" x="433.596364" y="301.96" style="stroke: #000000"/>
     <use xlink:href="#m0e6b2caf09" x="440.893818" y="301.96" style="stroke: #000000"/>
     <use xlink:href="#m0e6b2caf09" x="448.191273" y="301.96" style="stroke: #000000"/>
     <use xlink:href="#m0e6b2caf09" x="455.488727" y="301.96" style="stroke: #000000"/>
     <use xlink:href="#m0e6b2caf09" x="462.786182" y="301.96" style="stroke: #000000"/>
     <use xlink:href="#m0e6b2caf09" x="470.083636" y="301.96" style="stroke: #000000"/>
     <use xlink:href="#m0e6b2caf09" x="477.381091" y="301.96" style="stroke: #000000"/>
     <use xlink:href="#m0e6b2caf09" x="484.678545" y="259.744127" style="stroke: #000000"/>
     <use xlink:href="#m0e6b2caf09" x="491.976" y="301.96" style="stroke: #000000"/>
     <use xlink:href="#m0e6b2caf09" x="499.273455" y="301.96" style="stroke: #000000"/>
     <use xlink:href="#m0e6b2caf09" x="506.570909" y="301.96" style="stroke: #000000"/>
     <use xlink:href="#m0e6b2caf09" x="513.868364" y="301.96" style="stroke: #000000"/>
     <use xlink:href="#m0e6b2caf09" x="521.165818" y="301.96" style="stroke: #000000"/>
     <use xlink:href="#m0e6b2caf09" x="528.463273" y="301.96" style="stroke: #000000"/>
     <use xlink:href="#m0e6b2caf09" x="535.760727" y="301.96" style="stroke: #000000"/>
     <use xlink:href="#m0e6b2caf09" x="543.058182" y="301.96" style="stroke: #000000"/>
     <use xlink:href="#m0e6b2caf09" x="550.355636" y="301.96" style="stroke: #000000"/>
     <use xlink:href="#m0e6b2caf09" x="557.653091" y="259.744127" style="stroke: #000000"/>
     <use xlink:href="#m0e6b2caf09" x="564.950545" y="259.744127" style="stroke: #000000"/>
     <use xlink:href="#m0e6b2caf09" x="572.248" y="259.744127" style="stroke: #000000"/>
     <use xlink:href="#m0e6b2caf09" x="579.545455" y="301.96" style="stroke: #000000"/>
     <use xlink:href="#m0e6b2caf09" x="586.842909" y="217.528254" style="stroke: #000000"/>
     <use xlink:href="#m0e6b2caf09" x="594.140364" y="301.96" style="stroke: #000000"/>
     <use xlink:href="#m0e6b2caf09" x="601.437818" y="301.96" style="stroke: #000000"/>
     <use xlink:href="#m0e6b2caf09" x="608.735273" y="259.744127" style="stroke: #000000"/>
     <use xlink:href="#m0e6b2caf09" x="616.032727" y="217.528254" style="stroke: #000000"/>
     <use xlink:href="#m0e6b2caf09" x="623.330182" y="259.744127" style="stroke: #000000"/>
     <use xlink:href="#m0e6b2caf09" x="630.627636" y="301.96" style="stroke: #000000"/>
     <use xlink:href="#m0e6b2caf09" x="637.925091" y="259.744127" style="stroke: #000000"/>
     <use xlink:href="#m0e6b2caf09" x="645.222545" y="301.96" style="stroke: #000000"/>
     <use xlink:href="#m0e6b2caf09" x="652.52" y="217.528254" style="stroke: #000000"/>
     <use xlink:href="#m0e6b2caf09" x="659.817455" y="217.528254" style="stroke: #000000"/>
     <use xlink:href="#m0e6b2caf09" x="667.114909" y="259.744127" style="stroke: #000000"/>
     <use xlink:href="#m0e6b2caf09" x="674.412364" y="217.528254" style="stroke: #000000"/>
     <use xlink:href="#m0e6b2caf09" x="681.709818" y="217.528254" style="stroke: #000000"/>
     <use xlink:href="#m0e6b2caf09" x="689.007273" y="259.744127" style="stroke: #000000"/>
     <use xlink:href="#m0e6b2caf09" x="696.304727" y="217.528254" style="stroke: #000000"/>
     <use xlink:href="#m0e6b2caf09" x="703.602182" y="259.744127" style="stroke: #000000"/>
     <use xlink:href="#m0e6b2caf09" x="710.899636" y="175.312381" style="stroke: #000000"/>
     <use xlink:href="#m0e6b2caf09" x="718.197091" y="175.312381" style="stroke: #000000"/>
     <use xlink:href="#m0e6b2caf09" x="725.494545" y="48.664762" style="stroke: #000000"/>
     <use xlink:href="#m0e6b2caf09" x="732.792" y="175.312381" style="stroke: #000000"/>
     <use xlink:href="#m0e6b2caf09" x="740.089455" y="259.744127" style="stroke: #000000"/>
     <use xlink:href="#m0e6b2caf09" x="747.386909" y="133.096508" style="stroke: #000000"/>
     <use xlink:href="#m0e6b2caf09" x="754.684364" y="133.096508" style="stroke: #000000"/>
     <use xlink:href="#m0e6b2caf09" x="761.981818" y="259.744127" style="stroke: #000000"/>
     <use xlink:href="#m0e6b2caf09" x="769.279273" y="175.312381" style="stroke: #000000"/>
     <use xlink:href="#m0e6b2caf09" x="776.576727" y="301.96" style="stroke: #000000"/>
     <use xlink:href="#m0e6b2caf09" x="783.874182" y="301.96" style="stroke: #000000"/>
     <use xlink:href="#m0e6b2caf09" x="791.171636" y="217.528254" style="stroke: #000000"/>
     <use xlink:href="#m0e6b2caf09" x="798.469091" y="217.528254" style="stroke: #000000"/>
     <use xlink:href="#m0e6b2caf09" x="805.766545" y="259.744127" style="stroke: #000000"/>
     <use xlink:href="#m0e6b2caf09" x="813.064" y="301.96" style="stroke: #000000"/>
    </g>
   </g>
   <g id="patch_103">
    <path d="M 50.48 301.96 
L 50.48 36 
" style="fill: none; stroke: #000000; stroke-width: 0.8; stroke-linejoin: miter; stroke-linecap: square"/>
   </g>
   <g id="patch_104">
    <path d="M 853.2 301.96 
L 853.2 36 
" style="fill: none; stroke: #000000; stroke-width: 0.8; stroke-linejoin: miter; stroke-linecap: square"/>
   </g>
   <g id="patch_105">
    <path d="M 50.48 301.96 
L 853.2 301.96 
" style="fill: none; stroke: #000000; stroke-width: 0.8; stroke-linejoin: miter; stroke-linecap: square"/>
   </g>
   <g id="patch_106">
    <path d="M 50.48 36 
L 853.2 36 
" style="fill: none; stroke: #000000; stroke-width: 0.8; stroke-linejoin: miter; stroke-linecap: square"/>
   </g>
   <g id="legend_1">
    <g id="patch_107">
     <path d="M 60.98 92.034375 
L 181.151094 92.034375 
Q 184.151094 92.034375 184.151094 89.034375 
L 184.151094 46.5 
Q 184.151094 43.5 181.151094 43.5 
L 60.98 43.5 
Q 57.98 43.5 57.98 46.5 
L 57.98 89.034375 
Q 57.98 92.034375 60.98 92.034375 
z
" style="fill: #ffffff; opacity: 0.8; stroke: #cccccc; stroke-linejoin: miter"/>
    </g>
    <g id="patch_108">
     <path d="M 63.98 60.897656 
L 93.98 60.897656 
L 93.98 50.397656 
L 63.98 50.397656 
z
" style="fill: #ffffff; stroke: #0072b2; stroke-linejoin: miter"/>
    </g>
    <g id="text_17">
     <!-- Expected -->
     <g transform="translate(105.98 60.897656) scale(0.15 -0.15)">
      <defs>
       <path id="DejaVuSans-45" d="M 628 4666 
L 3578 4666 
L 3578 4134 
L 1259 4134 
L 1259 2753 
L 3481 2753 
L 3481 2222 
L 1259 2222 
L 1259 531 
L 3634 531 
L 3634 0 
L 628 0 
L 628 4666 
z
" transform="scale(0.015625)"/>
       <path id="DejaVuSans-78" d="M 3513 3500 
L 2247 1797 
L 3578 0 
L 2900 0 
L 1881 1375 
L 863 0 
L 184 0 
L 1544 1831 
L 300 3500 
L 978 3500 
L 1906 2253 
L 2834 3500 
L 3513 3500 
z
" transform="scale(0.015625)"/>
      </defs>
      <use xlink:href="#DejaVuSans-45"/>
      <use xlink:href="#DejaVuSans-78" x="63.183594"/>
      <use xlink:href="#DejaVuSans-70" x="122.363281"/>
      <use xlink:href="#DejaVuSans-65" x="185.839844"/>
      <use xlink:href="#DejaVuSans-63" x="247.363281"/>
      <use xlink:href="#DejaVuSans-74" x="302.34375"/>
      <use xlink:href="#DejaVuSans-65" x="341.552734"/>
      <use xlink:href="#DejaVuSans-64" x="403.076172"/>
     </g>
    </g>
    <g id="line2d_16">
     <path d="M 63.98 77.664844 
L 78.98 77.664844 
L 93.98 77.664844 
" style="fill: none"/>
     <g>
      <use xlink:href="#m0e6b2caf09" x="78.98" y="77.664844" style="stroke: #000000"/>
     </g>
    </g>
    <g id="text_18">
     <!-- Observed -->
     <g transform="translate(105.98 82.914844) scale(0.15 -0.15)">
      <defs>
       <path id="DejaVuSans-4f" d="M 2522 4238 
Q 1834 4238 1429 3725 
Q 1025 3213 1025 2328 
Q 1025 1447 1429 934 
Q 1834 422 2522 422 
Q 3209 422 3611 934 
Q 4013 1447 4013 2328 
Q 4013 3213 3611 3725 
Q 3209 4238 2522 4238 
z
M 2522 4750 
Q 3503 4750 4090 4092 
Q 4678 3434 4678 2328 
Q 4678 1225 4090 567 
Q 3503 -91 2522 -91 
Q 1538 -91 948 565 
Q 359 1222 359 2328 
Q 359 3434 948 4092 
Q 1538 4750 2522 4750 
z
" transform="scale(0.015625)"/>
       <path id="DejaVuSans-76" d="M 191 3500 
L 800 3500 
L 1894 563 
L 2988 3500 
L 3597 3500 
L 2284 0 
L 1503 0 
L 191 3500 
z
" transform="scale(0.015625)"/>
      </defs>
      <use xlink:href="#DejaVuSans-4f"/>
      <use xlink:href="#DejaVuSans-62" x="78.710938"/>
      <use xlink:href="#DejaVuSans-73" x="142.1875"/>
      <use xlink:href="#DejaVuSans-65" x="194.287109"/>
      <use xlink:href="#DejaVuSans-72" x="255.810547"/>
      <use xlink:href="#DejaVuSans-76" x="296.923828"/>
      <use xlink:href="#DejaVuSans-65" x="356.103516"/>
      <use xlink:href="#DejaVuSans-64" x="417.626953"/>
     </g>
    </g>
   </g>
  </g>
  <g id="text_19">
   <!-- 7m-+2 on v1rodriguezV34 sampled 0k; overlap=0.746, residual=0.101 -->
   <g transform="translate(145.79875 19.3575) scale(0.16 -0.16)">
    <defs>
     <path id="DejaVuSans-37" d="M 525 4666 
L 3525 4666 
L 3525 4397 
L 1831 0 
L 1172 0 
L 2766 4134 
L 525 4134 
L 525 4666 
z
" transform="scale(0.015625)"/>
     <path id="DejaVuSans-2d" d="M 313 2009 
L 1997 2009 
L 1997 1497 
L 313 1497 
L 313 2009 
z
" transform="scale(0.015625)"/>
     <path id="DejaVuSans-2b" d="M 2944 4013 
L 2944 2272 
L 4684 2272 
L 4684 1741 
L 2944 1741 
L 2944 0 
L 2419 0 
L 2419 1741 
L 678 1741 
L 678 2272 
L 2419 2272 
L 2419 4013 
L 2944 4013 
z
" transform="scale(0.015625)"/>
     <path id="DejaVuSans-7a" d="M 353 3500 
L 3084 3500 
L 3084 2975 
L 922 459 
L 3084 459 
L 3084 0 
L 275 0 
L 275 525 
L 2438 3041 
L 353 3041 
L 353 3500 
z
" transform="scale(0.015625)"/>
     <path id="DejaVuSans-56" d="M 1831 0 
L 50 4666 
L 709 4666 
L 2188 738 
L 3669 4666 
L 4325 4666 
L 2547 0 
L 1831 0 
z
" transform="scale(0.015625)"/>
     <path id="DejaVuSans-6b" d="M 581 4863 
L 1159 4863 
L 1159 1991 
L 2875 3500 
L 3609 3500 
L 1753 1863 
L 3688 0 
L 2938 0 
L 1159 1709 
L 1159 0 
L 581 0 
L 581 4863 
z
" transform="scale(0.015625)"/>
     <path id="DejaVuSans-3b" d="M 750 3309 
L 1409 3309 
L 1409 2516 
L 750 2516 
L 750 3309 
z
M 750 794 
L 1409 794 
L 1409 256 
L 897 -744 
L 494 -744 
L 750 256 
L 750 794 
z
" transform="scale(0.015625)"/>
     <path id="DejaVuSans-3d" d="M 678 2906 
L 4684 2906 
L 4684 2381 
L 678 2381 
L 678 2906 
z
M 678 1631 
L 4684 1631 
L 4684 1100 
L 678 1100 
L 678 1631 
z
" transform="scale(0.015625)"/>
     <path id="DejaVuSans-2e" d="M 684 794 
L 1344 794 
L 1344 0 
L 684 0 
L 684 794 
z
" transform="scale(0.015625)"/>
     <path id="DejaVuSans-2c" d="M 750 794 
L 1409 794 
L 1409 256 
L 897 -744 
L 494 -744 
L 750 256 
L 750 794 
z
" transform="scale(0.015625)"/>
    </defs>
    <use xlink:href="#DejaVuSans-37"/>
    <use xlink:href="#DejaVuSans-6d" x="63.623047"/>
    <use xlink:href="#DejaVuSans-2d" x="161.035156"/>
    <use xlink:href="#DejaVuSans-2b" x="197.119141"/>
    <use xlink:href="#DejaVuSans-32" x="280.908203"/>
    <use xlink:href="#DejaVuSans-20" x="344.53125"/>
    <use xlink:href="#DejaVuSans-6f" x="376.318359"/>
    <use xlink:href="#DejaVuSans-6e" x="437.5"/>
    <use xlink:href="#DejaVuSans-20" x="500.878906"/>
    <use xlink:href="#DejaVuSans-76" x="532.666016"/>
    <use xlink:href="#DejaVuSans-31" x="591.845703"/>
    <use xlink:href="#DejaVuSans-72" x="655.46875"/>
    <use xlink:href="#DejaVuSans-6f" x="694.332031"/>
    <use xlink:href="#DejaVuSans-64" x="755.513672"/>
    <use xlink:href="#DejaVuSans-72" x="818.990234"/>
    <use xlink:href="#DejaVuSans-69" x="860.103516"/>
    <use xlink:href="#DejaVuSans-67" x="887.886719"/>
    <use xlink:href="#DejaVuSans-75" x="951.363281"/>
    <use xlink:href="#DejaVuSans-65" x="1014.742188"/>
    <use xlink:href="#DejaVuSans-7a" x="1076.265625"/>
    <use xlink:href="#DejaVuSans-56" x="1128.755859"/>
    <use xlink:href="#DejaVuSans-33" x="1197.164062"/>
    <use xlink:href="#DejaVuSans-34" x="1260.787109"/>
    <use xlink:href="#DejaVuSans-20" x="1324.410156"/>
    <use xlink:href="#DejaVuSans-73" x="1356.197266"/>
    <use xlink:href="#DejaVuSans-61" x="1408.296875"/>
    <use xlink:href="#DejaVuSans-6d" x="1469.576172"/>
    <use xlink:href="#DejaVuSans-70" x="1566.988281"/>
    <use xlink:href="#DejaVuSans-6c" x="1630.464844"/>
    <use xlink:href="#DejaVuSans-65" x="1658.248047"/>
    <use xlink:href="#DejaVuSans-64" x="1719.771484"/>
    <use xlink:href="#DejaVuSans-20" x="1783.248047"/>
    <use xlink:href="#DejaVuSans-30" x="1815.035156"/>
    <use xlink:href="#DejaVuSans-6b" x="1878.658203"/>
    <use xlink:href="#DejaVuSans-3b" x="1936.568359"/>
    <use xlink:href="#DejaVuSans-20" x="1970.259766"/>
    <use xlink:href="#DejaVuSans-6f" x="2002.046875"/>
    <use xlink:href="#DejaVuSans-76" x="2063.228516"/>
    <use xlink:href="#DejaVuSans-65" x="2122.408203"/>
    <use xlink:href="#DejaVuSans-72" x="2183.931641"/>
    <use xlink:href="#DejaVuSans-6c" x="2225.044922"/>
    <use xlink:href="#DejaVuSans-61" x="2252.828125"/>
    <use xlink:href="#DejaVuSans-70" x="2314.107422"/>
    <use xlink:href="#DejaVuSans-3d" x="2377.583984"/>
    <use xlink:href="#DejaVuSans-30" x="2461.373047"/>
    <use xlink:href="#DejaVuSans-2e" x="2524.996094"/>
    <use xlink:href="#DejaVuSans-37" x="2556.783203"/>
    <use xlink:href="#DejaVuSans-34" x="2620.40625"/>
    <use xlink:href="#DejaVuSans-36" x="2684.029297"/>
    <use xlink:href="#DejaVuSans-2c" x="2747.652344"/>
    <use xlink:href="#DejaVuSans-20" x="2779.439453"/>
    <use xlink:href="#DejaVuSans-72" x="2811.226562"/>
    <use xlink:href="#DejaVuSans-65" x="2850.089844"/>
    <use xlink:href="#DejaVuSans-73" x="2911.613281"/>
    <use xlink:href="#DejaVuSans-69" x="2963.712891"/>
    <use xlink:href="#DejaVuSans-64" x="2991.496094"/>
    <use xlink:href="#DejaVuSans-75" x="3054.972656"/>
    <use xlink:href="#DejaVuSans-61" x="3118.351562"/>
    <use xlink:href="#DejaVuSans-6c" x="3179.630859"/>
    <use xlink:href="#DejaVuSans-3d" x="3207.414062"/>
    <use xlink:href="#DejaVuSans-30" x="3291.203125"/>
    <use xlink:href="#DejaVuSans-2e" x="3354.826172"/>
    <use xlink:href="#DejaVuSans-31" x="3386.613281"/>
    <use xlink:href="#DejaVuSans-30" x="3450.236328"/>
    <use xlink:href="#DejaVuSans-31" x="3513.859375"/>
   </g>
  </g>
 </g>
 <defs>
  <clipPath id="p940ba059d2">
   <rect x="50.48" y="36" width="802.72" height="265.96"/>
  </clipPath>
 </defs>
 <defs>
  <pattern id="hac32fc42af" patternUnits="userSpaceOnUse" x="0" y="0" width="72" height="72">
   <rect x="0" y="0" width="73" height="73" fill="none"/>
   <path d="M -36 36 
L 36 -36 
M -34 38 
L 38 -34 
M -32 40 
L 40 -32 
M -30 42 
L 42 -30 
M -28 44 
L 44 -28 
M -26 46 
L 46 -26 
M -24 48 
L 48 -24 
M -22 50 
L 50 -22 
M -20 52 
L 52 -20 
M -18 54 
L 54 -18 
M -16 56 
L 56 -16 
M -14 58 
L 58 -14 
M -12 60 
L 60 -12 
M -10 62 
L 62 -10 
M -8 64 
L 64 -8 
M -6 66 
L 66 -6 
M -4 68 
L 68 -4 
M -2 70 
L 70 -2 
M 0 72 
L 72 0 
M 2 74 
L 74 2 
M 4 76 
L 76 4 
M 6 78 
L 78 6 
M 8 80 
L 80 8 
M 10 82 
L 82 10 
M 12 84 
L 84 12 
M 14 86 
L 86 14 
M 16 88 
L 88 16 
M 18 90 
L 90 18 
M 20 92 
L 92 20 
M 22 94 
L 94 22 
M 24 96 
L 96 24 
M 26 98 
L 98 26 
M 28 100 
L 100 28 
M 30 102 
L 102 30 
M 32 104 
L 104 32 
M 34 106 
L 106 34 
M 36 108 
L 108 36 
" style="fill: #808080; stroke: #808080; stroke-width: 1.0; stroke-linecap: butt; stroke-linejoin: miter"/>
  </pattern>
 </defs>
</svg>
