<?xml version="1.0" encoding="utf-8" standalone="no"?>
<!DOCTYPE svg PUBLIC "-//W3C//DTD SVG 1.1//EN"
  "http://www.w3.org/Graphics/SVG/1.1/DTD/svg11.dtd">
<svg xmlns:xlink="http://www.w3.org/1999/xlink" width="864pt" height="360pt" viewBox="0 0 864 360" xmlns="http://www.w3.org/2000/svg" version="1.1">
 <metadata>
  <rdf:RDF xmlns:dc="http://purl.org/dc/elements/1.1/" xmlns:cc="http://creativecommons.org/ns#" xmlns:rdf="http://www.w3.org/1999/02/22-rdf-syntax-ns#">
   <cc:Work>
    <dc:type rdf:resource="http://purl.org/dc/dcmitype/StillImage"/>
    <dc:date>2024-06-15T04:01:58.363300</dc:date>
    <dc:format>image/svg+xml</dc:format>
    <dc:creator>
     <cc:Agent>
      <dc:title>Matplotlib v3.9.0, https://matplotlib.org/</dc:title>
     </cc:Agent>
    </dc:creator>
   </cc:Work>
  </rdf:RDF>
 </metadata>
 <defs>
  <style type="text/css">*{stroke-linejoin: round; stroke-linecap: butt}</style>
 </defs>
 <g id="figure_1">
  <g id="patch_1">
   <path d="M 0 360 
L 864 360 
L 864 0 
L 0 0 
z
" style="fill: #ffffff"/>
  </g>
  <g id="axes_1">
   <g id="patch_2">
    <path d="M 77.03 301.96 
L 853.2 301.96 
L 853.2 36 
L 77.03 36 
z
" style="fill: #ffffff"/>
   </g>
   <g id="patch_3">
    <path d="M 112.310455 301.96 
L 119.366545 301.96 
L 119.366545 301.959996 
L 112.310455 301.959996 
z
" clip-path="url(#p14e13c7f5f)" style="fill: #ffffff; stroke: #0072b2; stroke-linejoin: miter"/>
   </g>
   <g id="patch_4">
    <path d="M 119.366545 301.96 
L 126.422636 301.96 
L 126.422636 301.959987 
L 119.366545 301.959987 
z
" clip-path="url(#p14e13c7f5f)" style="fill: #ffffff; stroke: #0072b2; stroke-linejoin: miter"/>
   </g>
   <g id="patch_5">
    <path d="M 126.422636 301.96 
L 133.478727 301.96 
L 133.478727 301.959974 
L 126.422636 301.959974 
z
" clip-path="url(#p14e13c7f5f)" style="fill: #ffffff; stroke: #0072b2; stroke-linejoin: miter"/>
   </g>
   <g id="patch_6">
    <path d="M 133.478727 301.96 
L 140.534818 301.96 
L 140.534818 301.959954 
L 133.478727 301.959954 
z
" clip-path="url(#p14e13c7f5f)" style="fill: #ffffff; stroke: #0072b2; stroke-linejoin: miter"/>
   </g>
   <g id="patch_7">
    <path d="M 140.534818 301.96 
L 147.590909 301.96 
L 147.590909 301.959918 
L 140.534818 301.959918 
z
" clip-path="url(#p14e13c7f5f)" style="fill: #ffffff; stroke: #0072b2; stroke-linejoin: miter"/>
   </g>
   <g id="patch_8">
    <path d="M 147.590909 301.96 
L 154.647 301.96 
L 154.647 301.959846 
L 147.590909 301.959846 
z
" clip-path="url(#p14e13c7f5f)" style="fill: #ffffff; stroke: #0072b2; stroke-linejoin: miter"/>
   </g>
   <g id="patch_9">
    <path d="M 154.647 301.96 
L 161.703091 301.96 
L 161.703091 301.959785 
L 154.647 301.959785 
z
" clip-path="url(#p14e13c7f5f)" style="fill: #ffffff; stroke: #0072b2; stroke-linejoin: miter"/>
   </g>
   <g id="patch_10">
    <path d="M 161.703091 301.96 
L 168.759182 301.96 
L 168.759182 301.959728 
L 161.703091 301.959728 
z
" clip-path="url(#p14e13c7f5f)" style="fill: #ffffff; stroke: #0072b2; stroke-linejoin: miter"/>
   </g>
   <g id="patch_11">
    <path d="M 168.759182 301.96 
L 175.815273 301.96 
L 175.815273 301.959665 
L 168.759182 301.959665 
z
" clip-path="url(#p14e13c7f5f)" style="fill: #ffffff; stroke: #0072b2; stroke-linejoin: miter"/>
   </g>
   <g id="patch_12">
    <path d="M 175.815273 301.96 
L 182.871364 301.96 
L 182.871364 301.959645 
L 175.815273 301.959645 
z
" clip-path="url(#p14e13c7f5f)" style="fill: #ffffff; stroke: #0072b2; stroke-linejoin: miter"/>
   </g>
   <g id="patch_13">
    <path d="M 182.871364 301.96 
L 189.927455 301.96 
L 189.927455 301.959594 
L 182.871364 301.959594 
z
" clip-path="url(#p14e13c7f5f)" style="fill: #ffffff; stroke: #0072b2; stroke-linejoin: miter"/>
   </g>
   <g id="patch_14">
    <path d="M 189.927455 301.96 
L 196.983545 301.96 
L 196.983545 301.95955 
L 189.927455 301.95955 
z
" clip-path="url(#p14e13c7f5f)" style="fill: #ffffff; stroke: #0072b2; stroke-linejoin: miter"/>
   </g>
   <g id="patch_15">
    <path d="M 196.983545 301.96 
L 204.039636 301.96 
L 204.039636 301.959509 
L 196.983545 301.959509 
z
" clip-path="url(#p14e13c7f5f)" style="fill: #ffffff; stroke: #0072b2; stroke-linejoin: miter"/>
   </g>
   <g id="patch_16">
    <path d="M 204.039636 301.96 
L 211.095727 301.96 
L 211.095727 301.959418 
L 204.039636 301.959418 
z
" clip-path="url(#p14e13c7f5f)" style="fill: #ffffff; stroke: #0072b2; stroke-linejoin: miter"/>
   </g>
   <g id="patch_17">
    <path d="M 211.095727 301.96 
L 218.151818 301.96 
L 218.151818 301.959251 
L 211.095727 301.959251 
z
" clip-path="url(#p14e13c7f5f)" style="fill: #ffffff; stroke: #0072b2; stroke-linejoin: miter"/>
   </g>
   <g id="patch_18">
    <path d="M 218.151818 301.96 
L 225.207909 301.96 
L 225.207909 301.959252 
L 218.151818 301.959252 
z
" clip-path="url(#p14e13c7f5f)" style="fill: #ffffff; stroke: #0072b2; stroke-linejoin: miter"/>
   </g>
   <g id="patch_19">
    <path d="M 225.207909 301.96 
L 232.264 301.96 
L 232.264 301.958965 
L 225.207909 301.958965 
z
" clip-path="url(#p14e13c7f5f)" style="fill: #ffffff; stroke: #0072b2; stroke-linejoin: miter"/>
   </g>
   <g id="patch_20">
    <path d="M 232.264 301.96 
L 239.320091 301.96 
L 239.320091 301.958713 
L 232.264 301.958713 
z
" clip-path="url(#p14e13c7f5f)" style="fill: #ffffff; stroke: #0072b2; stroke-linejoin: miter"/>
   </g>
   <g id="patch_21">
    <path d="M 239.320091 301.96 
L 246.376182 301.96 
L 246.376182 301.958443 
L 239.320091 301.958443 
z
" clip-path="url(#p14e13c7f5f)" style="fill: #ffffff; stroke: #0072b2; stroke-linejoin: miter"/>
   </g>
   <g id="patch_22">
    <path d="M 246.376182 301.96 
L 253.432273 301.96 
L 253.432273 301.957994 
L 246.376182 301.957994 
z
" clip-path="url(#p14e13c7f5f)" style="fill: #ffffff; stroke: #0072b2; stroke-linejoin: miter"/>
   </g>
   <g id="patch_23">
    <path d="M 253.432273 301.96 
L 260.488364 301.96 
L 260.488364 301.957492 
L 253.432273 301.957492 
z
" clip-path="url(#p14e13c7f5f)" style="fill: #ffffff; stroke: #0072b2; stroke-linejoin: miter"/>
   </g>
   <g id="patch_24">
    <path d="M 260.488364 301.96 
L 267.544455 301.96 
L 267.544455 301.957064 
L 260.488364 301.957064 
z
" clip-path="url(#p14e13c7f5f)" style="fill: #ffffff; stroke: #0072b2; stroke-linejoin: miter"/>
   </g>
   <g id="patch_25">
    <path d="M 267.544455 301.96 
L 274.600545 301.96 
L 274.600545 301.956147 
L 267.544455 301.956147 
z
" clip-path="url(#p14e13c7f5f)" style="fill: #ffffff; stroke: #0072b2; stroke-linejoin: miter"/>
   </g>
   <g id="patch_26">
    <path d="M 274.600545 301.96 
L 281.656636 301.96 
L 281.656636 301.955231 
L 274.600545 301.955231 
z
" clip-path="url(#p14e13c7f5f)" style="fill: #ffffff; stroke: #0072b2; stroke-linejoin: miter"/>
   </g>
   <g id="patch_27">
    <path d="M 281.656636 301.96 
L 288.712727 301.96 
L 288.712727 301.95367 
L 281.656636 301.95367 
z
" clip-path="url(#p14e13c7f5f)" style="fill: #ffffff; stroke: #0072b2; stroke-linejoin: miter"/>
   </g>
   <g id="patch_28">
    <path d="M 288.712727 301.96 
L 295.768818 301.96 
L 295.768818 301.951963 
L 288.712727 301.951963 
z
" clip-path="url(#p14e13c7f5f)" style="fill: #ffffff; stroke: #0072b2; stroke-linejoin: miter"/>
   </g>
   <g id="patch_29">
    <path d="M 295.768818 301.96 
L 302.824909 301.96 
L 302.824909 301.950008 
L 295.768818 301.950008 
z
" clip-path="url(#p14e13c7f5f)" style="fill: #ffffff; stroke: #0072b2; stroke-linejoin: miter"/>
   </g>
   <g id="patch_30">
    <path d="M 302.824909 301.96 
L 309.881 301.96 
L 309.881 301.94729 
L 302.824909 301.94729 
z
" clip-path="url(#p14e13c7f5f)" style="fill: #ffffff; stroke: #0072b2; stroke-linejoin: miter"/>
   </g>
   <g id="patch_31">
    <path d="M 309.881 301.96 
L 316.937091 301.96 
L 316.937091 301.944377 
L 309.881 301.944377 
z
" clip-path="url(#p14e13c7f5f)" style="fill: #ffffff; stroke: #0072b2; stroke-linejoin: miter"/>
   </g>
   <g id="patch_32">
    <path d="M 316.937091 301.96 
L 323.993182 301.96 
L 323.993182 301.939379 
L 316.937091 301.939379 
z
" clip-path="url(#p14e13c7f5f)" style="fill: #ffffff; stroke: #0072b2; stroke-linejoin: miter"/>
   </g>
   <g id="patch_33">
    <path d="M 323.993182 301.96 
L 331.049273 301.96 
L 331.049273 301.935153 
L 323.993182 301.935153 
z
" clip-path="url(#p14e13c7f5f)" style="fill: #ffffff; stroke: #0072b2; stroke-linejoin: miter"/>
   </g>
   <g id="patch_34">
    <path d="M 331.049273 301.96 
L 338.105364 301.96 
L 338.105364 301.930038 
L 331.049273 301.930038 
z
" clip-path="url(#p14e13c7f5f)" style="fill: #ffffff; stroke: #0072b2; stroke-linejoin: miter"/>
   </g>
   <g id="patch_35">
    <path d="M 338.105364 301.96 
L 345.161455 301.96 
L 345.161455 301.926042 
L 338.105364 301.926042 
z
" clip-path="url(#p14e13c7f5f)" style="fill: #ffffff; stroke: #0072b2; stroke-linejoin: miter"/>
   </g>
   <g id="patch_36">
    <path d="M 345.161455 301.96 
L 352.217545 301.96 
L 352.217545 301.921338 
L 345.161455 301.921338 
z
" clip-path="url(#p14e13c7f5f)" style="fill: #ffffff; stroke: #0072b2; stroke-linejoin: miter"/>
   </g>
   <g id="patch_37">
    <path d="M 352.217545 301.96 
L 359.273636 301.96 
L 359.273636 301.912748 
L 352.217545 301.912748 
z
" clip-path="url(#p14e13c7f5f)" style="fill: #ffffff; stroke: #0072b2; stroke-linejoin: miter"/>
   </g>
   <g id="patch_38">
    <path d="M 359.273636 301.96 
L 366.329727 301.96 
L 366.329727 301.900176 
L 359.273636 301.900176 
z
" clip-path="url(#p14e13c7f5f)" style="fill: #ffffff; stroke: #0072b2; stroke-linejoin: miter"/>
   </g>
   <g id="patch_39">
    <path d="M 366.329727 301.96 
L 373.385818 301.96 
L 373.385818 301.882876 
L 366.329727 301.882876 
z
" clip-path="url(#p14e13c7f5f)" style="fill: #ffffff; stroke: #0072b2; stroke-linejoin: miter"/>
   </g>
   <g id="patch_40">
    <path d="M 373.385818 301.96 
L 380.441909 301.96 
L 380.441909 301.858472 
L 373.385818 301.858472 
z
" clip-path="url(#p14e13c7f5f)" style="fill: #ffffff; stroke: #0072b2; stroke-linejoin: miter"/>
   </g>
   <g id="patch_41">
    <path d="M 380.441909 301.96 
L 387.498 301.96 
L 387.498 301.823134 
L 380.441909 301.823134 
z
" clip-path="url(#p14e13c7f5f)" style="fill: #ffffff; stroke: #0072b2; stroke-linejoin: miter"/>
   </g>
   <g id="patch_42">
    <path d="M 387.498 301.96 
L 394.554091 301.96 
L 394.554091 301.789238 
L 387.498 301.789238 
z
" clip-path="url(#p14e13c7f5f)" style="fill: #ffffff; stroke: #0072b2; stroke-linejoin: miter"/>
   </g>
   <g id="patch_43">
    <path d="M 394.554091 301.96 
L 401.610182 301.96 
L 401.610182 301.738781 
L 394.554091 301.738781 
z
" clip-path="url(#p14e13c7f5f)" style="fill: #ffffff; stroke: #0072b2; stroke-linejoin: miter"/>
   </g>
   <g id="patch_44">
    <path d="M 401.610182 301.96 
L 408.666273 301.96 
L 408.666273 301.688245 
L 401.610182 301.688245 
z
" clip-path="url(#p14e13c7f5f)" style="fill: #ffffff; stroke: #0072b2; stroke-linejoin: miter"/>
   </g>
   <g id="patch_45">
    <path d="M 408.666273 301.96 
L 415.722364 301.96 
L 415.722364 301.612215 
L 408.666273 301.612215 
z
" clip-path="url(#p14e13c7f5f)" style="fill: #ffffff; stroke: #0072b2; stroke-linejoin: miter"/>
   </g>
   <g id="patch_46">
    <path d="M 415.722364 301.96 
L 422.778455 301.96 
L 422.778455 301.526217 
L 415.722364 301.526217 
z
" clip-path="url(#p14e13c7f5f)" style="fill: #ffffff; stroke: #0072b2; stroke-linejoin: miter"/>
   </g>
   <g id="patch_47">
    <path d="M 422.778455 301.96 
L 429.834545 301.96 
L 429.834545 301.397405 
L 422.778455 301.397405 
z
" clip-path="url(#p14e13c7f5f)" style="fill: #ffffff; stroke: #0072b2; stroke-linejoin: miter"/>
   </g>
   <g id="patch_48">
    <path d="M 429.834545 301.96 
L 436.890636 301.96 
L 436.890636 301.239492 
L 429.834545 301.239492 
z
" clip-path="url(#p14e13c7f5f)" style="fill: #ffffff; stroke: #0072b2; stroke-linejoin: miter"/>
   </g>
   <g id="patch_49">
    <path d="M 436.890636 301.96 
L 443.946727 301.96 
L 443.946727 301.067812 
L 436.890636 301.067812 
z
" clip-path="url(#p14e13c7f5f)" style="fill: #ffffff; stroke: #0072b2; stroke-linejoin: miter"/>
   </g>
   <g id="patch_50">
    <path d="M 443.946727 301.96 
L 451.002818 301.96 
L 451.002818 300.848955 
L 443.946727 300.848955 
z
" clip-path="url(#p14e13c7f5f)" style="fill: #ffffff; stroke: #0072b2; stroke-linejoin: miter"/>
   </g>
   <g id="patch_51">
    <path d="M 451.002818 301.96 
L 458.058909 301.96 
L 458.058909 300.569095 
L 451.002818 300.569095 
z
" clip-path="url(#p14e13c7f5f)" style="fill: #ffffff; stroke: #0072b2; stroke-linejoin: miter"/>
   </g>
   <g id="patch_52">
    <path d="M 458.058909 301.96 
L 465.115 301.96 
L 465.115 300.198501 
L 458.058909 300.198501 
z
" clip-path="url(#p14e13c7f5f)" style="fill: #ffffff; stroke: #0072b2; stroke-linejoin: miter"/>
   </g>
   <g id="patch_53">
    <path d="M 465.115 301.96 
L 472.171091 301.96 
L 472.171091 299.836055 
L 465.115 299.836055 
z
" clip-path="url(#p14e13c7f5f)" style="fill: #ffffff; stroke: #0072b2; stroke-linejoin: miter"/>
   </g>
   <g id="patch_54">
    <path d="M 472.171091 301.96 
L 479.227182 301.96 
L 479.227182 299.247609 
L 472.171091 299.247609 
z
" clip-path="url(#p14e13c7f5f)" style="fill: #ffffff; stroke: #0072b2; stroke-linejoin: miter"/>
   </g>
   <g id="patch_55">
    <path d="M 479.227182 301.96 
L 486.283273 301.96 
L 486.283273 298.60999 
L 479.227182 298.60999 
z
" clip-path="url(#p14e13c7f5f)" style="fill: #ffffff; stroke: #0072b2; stroke-linejoin: miter"/>
   </g>
   <g id="patch_56">
    <path d="M 486.283273 301.96 
L 493.339364 301.96 
L 493.339364 297.873327 
L 486.283273 297.873327 
z
" clip-path="url(#p14e13c7f5f)" style="fill: #ffffff; stroke: #0072b2; stroke-linejoin: miter"/>
   </g>
   <g id="patch_57">
    <path d="M 493.339364 301.96 
L 500.395455 301.96 
L 500.395455 297.036706 
L 493.339364 297.036706 
z
" clip-path="url(#p14e13c7f5f)" style="fill: #ffffff; stroke: #0072b2; stroke-linejoin: miter"/>
   </g>
   <g id="patch_58">
    <path d="M 500.395455 301.96 
L 507.451545 301.96 
L 507.451545 296.072829 
L 500.395455 296.072829 
z
" clip-path="url(#p14e13c7f5f)" style="fill: #ffffff; stroke: #0072b2; stroke-linejoin: miter"/>
   </g>
   <g id="patch_59">
    <path d="M 507.451545 301.96 
L 514.507636 301.96 
L 514.507636 294.822179 
L 507.451545 294.822179 
z
" clip-path="url(#p14e13c7f5f)" style="fill: #ffffff; stroke: #0072b2; stroke-linejoin: miter"/>
   </g>
   <g id="patch_60">
    <path d="M 514.507636 301.96 
L 521.563727 301.96 
L 521.563727 293.076109 
L 514.507636 293.076109 
z
" clip-path="url(#p14e13c7f5f)" style="fill: #ffffff; stroke: #0072b2; stroke-linejoin: miter"/>
   </g>
   <g id="patch_61">
    <path d="M 521.563727 301.96 
L 528.619818 301.96 
L 528.619818 290.811378 
L 521.563727 290.811378 
z
" clip-path="url(#p14e13c7f5f)" style="fill: #ffffff; stroke: #0072b2; stroke-linejoin: miter"/>
   </g>
   <g id="patch_62">
    <path d="M 528.619818 301.96 
L 535.675909 301.96 
L 535.675909 288.561443 
L 528.619818 288.561443 
z
" clip-path="url(#p14e13c7f5f)" style="fill: #ffffff; stroke: #0072b2; stroke-linejoin: miter"/>
   </g>
   <g id="patch_63">
    <path d="M 535.675909 301.96 
L 542.732 301.96 
L 542.732 285.979415 
L 535.675909 285.979415 
z
" clip-path="url(#p14e13c7f5f)" style="fill: #ffffff; stroke: #0072b2; stroke-linejoin: miter"/>
   </g>
   <g id="patch_64">
    <path d="M 542.732 301.96 
L 549.788091 301.96 
L 549.788091 283.197304 
L 542.732 283.197304 
z
" clip-path="url(#p14e13c7f5f)" style="fill: #ffffff; stroke: #0072b2; stroke-linejoin: miter"/>
   </g>
   <g id="patch_65">
    <path d="M 549.788091 301.96 
L 556.844182 301.96 
L 556.844182 280.358749 
L 549.788091 280.358749 
z
" clip-path="url(#p14e13c7f5f)" style="fill: #ffffff; stroke: #0072b2; stroke-linejoin: miter"/>
   </g>
   <g id="patch_66">
    <path d="M 556.844182 301.96 
L 563.900273 301.96 
L 563.900273 276.592816 
L 556.844182 276.592816 
z
" clip-path="url(#p14e13c7f5f)" style="fill: #ffffff; stroke: #0072b2; stroke-linejoin: miter"/>
   </g>
   <g id="patch_67">
    <path d="M 563.900273 301.96 
L 570.956364 301.96 
L 570.956364 272.760478 
L 563.900273 272.760478 
z
" clip-path="url(#p14e13c7f5f)" style="fill: #ffffff; stroke: #0072b2; stroke-linejoin: miter"/>
   </g>
   <g id="patch_68">
    <path d="M 570.956364 301.96 
L 578.012455 301.96 
L 578.012455 268.392834 
L 570.956364 268.392834 
z
" clip-path="url(#p14e13c7f5f)" style="fill: #ffffff; stroke: #0072b2; stroke-linejoin: miter"/>
   </g>
   <g id="patch_69">
    <path d="M 578.012455 301.96 
L 585.068545 301.96 
L 585.068545 262.608938 
L 578.012455 262.608938 
z
" clip-path="url(#p14e13c7f5f)" style="fill: #ffffff; stroke: #0072b2; stroke-linejoin: miter"/>
   </g>
   <g id="patch_70">
    <path d="M 585.068545 301.96 
L 592.124636 301.96 
L 592.124636 257.311609 
L 585.068545 257.311609 
z
" clip-path="url(#p14e13c7f5f)" style="fill: #ffffff; stroke: #0072b2; stroke-linejoin: miter"/>
   </g>
   <g id="patch_71">
    <path d="M 592.124636 301.96 
L 599.180727 301.96 
L 599.180727 250.319884 
L 592.124636 250.319884 
z
" clip-path="url(#p14e13c7f5f)" style="fill: #ffffff; stroke: #0072b2; stroke-linejoin: miter"/>
   </g>
   <g id="patch_72">
    <path d="M 599.180727 301.96 
L 606.236818 301.96 
L 606.236818 243.538506 
L 599.180727 243.538506 
z
" clip-path="url(#p14e13c7f5f)" style="fill: #ffffff; stroke: #0072b2; stroke-linejoin: miter"/>
   </g>
   <g id="patch_73">
    <path d="M 606.236818 301.96 
L 613.292909 301.96 
L 613.292909 235.442719 
L 606.236818 235.442719 
z
" clip-path="url(#p14e13c7f5f)" style="fill: #ffffff; stroke: #0072b2; stroke-linejoin: miter"/>
   </g>
   <g id="patch_74">
    <path d="M 613.292909 301.96 
L 620.349 301.96 
L 620.349 227.016307 
L 613.292909 227.016307 
z
" clip-path="url(#p14e13c7f5f)" style="fill: #ffffff; stroke: #0072b2; stroke-linejoin: miter"/>
   </g>
   <g id="patch_75">
    <path d="M 620.349 301.96 
L 627.405091 301.96 
L 627.405091 217.372575 
L 620.349 217.372575 
z
" clip-path="url(#p14e13c7f5f)" style="fill: #ffffff; stroke: #0072b2; stroke-linejoin: miter"/>
   </g>
   <g id="patch_76">
    <path d="M 627.405091 301.96 
L 634.461182 301.96 
L 634.461182 205.645763 
L 627.405091 205.645763 
z
" clip-path="url(#p14e13c7f5f)" style="fill: #ffffff; stroke: #0072b2; stroke-linejoin: miter"/>
   </g>
   <g id="patch_77">
    <path d="M 634.461182 301.96 
L 641.517273 301.96 
L 641.517273 194.08406 
L 634.461182 194.08406 
z
" clip-path="url(#p14e13c7f5f)" style="fill: #ffffff; stroke: #0072b2; stroke-linejoin: miter"/>
   </g>
   <g id="patch_78">
    <path d="M 641.517273 301.96 
L 648.573364 301.96 
L 648.573364 180.722609 
L 641.517273 180.722609 
z
" clip-path="url(#p14e13c7f5f)" style="fill: #ffffff; stroke: #0072b2; stroke-linejoin: miter"/>
   </g>
   <g id="patch_79">
    <path d="M 648.573364 301.96 
L 655.629455 301.96 
L 655.629455 169.000972 
L 648.573364 169.000972 
z
" clip-path="url(#p14e13c7f5f)" style="fill: #ffffff; stroke: #0072b2; stroke-linejoin: miter"/>
   </g>
   <g id="patch_80">
    <path d="M 655.629455 301.96 
L 662.685545 301.96 
L 662.685545 153.68132 
L 655.629455 153.68132 
z
" clip-path="url(#p14e13c7f5f)" style="fill: #ffffff; stroke: #0072b2; stroke-linejoin: miter"/>
   </g>
   <g id="patch_81">
    <path d="M 662.685545 301.96 
L 669.741636 301.96 
L 669.741636 138.234148 
L 662.685545 138.234148 
z
" clip-path="url(#p14e13c7f5f)" style="fill: #ffffff; stroke: #0072b2; stroke-linejoin: miter"/>
   </g>
   <g id="patch_82">
    <path d="M 669.741636 301.96 
L 676.797727 301.96 
L 676.797727 123.763712 
L 669.741636 123.763712 
z
" clip-path="url(#p14e13c7f5f)" style="fill: #ffffff; stroke: #0072b2; stroke-linejoin: miter"/>
   </g>
   <g id="patch_83">
    <path d="M 676.797727 301.96 
L 683.853818 301.96 
L 683.853818 109.202488 
L 676.797727 109.202488 
z
" clip-path="url(#p14e13c7f5f)" style="fill: #ffffff; stroke: #0072b2; stroke-linejoin: miter"/>
   </g>
   <g id="patch_84">
    <path d="M 683.853818 301.96 
L 690.909909 301.96 
L 690.909909 96.187111 
L 683.853818 96.187111 
z
" clip-path="url(#p14e13c7f5f)" style="fill: #ffffff; stroke: #0072b2; stroke-linejoin: miter"/>
   </g>
   <g id="patch_85">
    <path d="M 690.909909 301.96 
L 697.966 301.96 
L 697.966 85.79103 
L 690.909909 85.79103 
z
" clip-path="url(#p14e13c7f5f)" style="fill: #ffffff; stroke: #0072b2; stroke-linejoin: miter"/>
   </g>
   <g id="patch_86">
    <path d="M 697.966 301.96 
L 705.022091 301.96 
L 705.022091 74.593358 
L 697.966 74.593358 
z
" clip-path="url(#p14e13c7f5f)" style="fill: #ffffff; stroke: #0072b2; stroke-linejoin: miter"/>
   </g>
   <g id="patch_87">
    <path d="M 705.022091 301.96 
L 712.078182 301.96 
L 712.078182 63.679001 
L 705.022091 63.679001 
z
" clip-path="url(#p14e13c7f5f)" style="fill: #ffffff; stroke: #0072b2; stroke-linejoin: miter"/>
   </g>
   <g id="patch_88">
    <path d="M 712.078182 301.96 
L 719.134273 301.96 
L 719.134273 62.12174 
L 712.078182 62.12174 
z
" clip-path="url(#p14e13c7f5f)" style="fill: #ffffff; stroke: #0072b2; stroke-linejoin: miter"/>
   </g>
   <g id="patch_89">
    <path d="M 719.134273 301.96 
L 726.190364 301.96 
L 726.190364 53.030713 
L 719.134273 53.030713 
z
" clip-path="url(#p14e13c7f5f)" style="fill: #ffffff; stroke: #0072b2; stroke-linejoin: miter"/>
   </g>
   <g id="patch_90">
    <path d="M 726.190364 301.96 
L 733.246455 301.96 
L 733.246455 58.228786 
L 726.190364 58.228786 
z
" clip-path="url(#p14e13c7f5f)" style="fill: #ffffff; stroke: #0072b2; stroke-linejoin: miter"/>
   </g>
   <g id="patch_91">
    <path d="M 733.246455 301.96 
L 740.302545 301.96 
L 740.302545 61.626381 
L 733.246455 61.626381 
z
" clip-path="url(#p14e13c7f5f)" style="fill: #ffffff; stroke: #0072b2; stroke-linejoin: miter"/>
   </g>
   <g id="patch_92">
    <path d="M 740.302545 301.96 
L 747.358636 301.96 
L 747.358636 70.627671 
L 740.302545 70.627671 
z
" clip-path="url(#p14e13c7f5f)" style="fill: #ffffff; stroke: #0072b2; stroke-linejoin: miter"/>
   </g>
   <g id="patch_93">
    <path d="M 747.358636 301.96 
L 754.414727 301.96 
L 754.414727 71.564543 
L 747.358636 71.564543 
z
" clip-path="url(#p14e13c7f5f)" style="fill: #ffffff; stroke: #0072b2; stroke-linejoin: miter"/>
   </g>
   <g id="patch_94">
    <path d="M 754.414727 301.96 
L 761.470818 301.96 
L 761.470818 88.17944 
L 754.414727 88.17944 
z
" clip-path="url(#p14e13c7f5f)" style="fill: #ffffff; stroke: #0072b2; stroke-linejoin: miter"/>
   </g>
   <g id="patch_95">
    <path d="M 761.470818 301.96 
L 768.526909 301.96 
L 768.526909 104.300173 
L 761.470818 104.300173 
z
" clip-path="url(#p14e13c7f5f)" style="fill: #ffffff; stroke: #0072b2; stroke-linejoin: miter"/>
   </g>
   <g id="patch_96">
    <path d="M 768.526909 301.96 
L 775.583 301.96 
L 775.583 124.01551 
L 768.526909 124.01551 
z
" clip-path="url(#p14e13c7f5f)" style="fill: #ffffff; stroke: #0072b2; stroke-linejoin: miter"/>
   </g>
   <g id="patch_97">
    <path d="M 775.583 301.96 
L 782.639091 301.96 
L 782.639091 146.503326 
L 775.583 146.503326 
z
" clip-path="url(#p14e13c7f5f)" style="fill: #ffffff; stroke: #0072b2; stroke-linejoin: miter"/>
   </g>
   <g id="patch_98">
    <path d="M 782.639091 301.96 
L 789.695182 301.96 
L 789.695182 171.94771 
L 782.639091 171.94771 
z
" clip-path="url(#p14e13c7f5f)" style="fill: #ffffff; stroke: #0072b2; stroke-linejoin: miter"/>
   </g>
   <g id="patch_99">
    <path d="M 789.695182 301.96 
L 796.751273 301.96 
L 796.751273 191.818787 
L 789.695182 191.818787 
z
" clip-path="url(#p14e13c7f5f)" style="fill: #ffffff; stroke: #0072b2; stroke-linejoin: miter"/>
   </g>
   <g id="patch_100">
    <path d="M 796.751273 301.96 
L 803.807364 301.96 
L 803.807364 218.461644 
L 796.751273 218.461644 
z
" clip-path="url(#p14e13c7f5f)" style="fill: #ffffff; stroke: #0072b2; stroke-linejoin: miter"/>
   </g>
   <g id="patch_101">
    <path d="M 803.807364 301.96 
L 810.863455 301.96 
L 810.863455 252.211053 
L 803.807364 252.211053 
z
" clip-path="url(#p14e13c7f5f)" style="fill: #ffffff; stroke: #0072b2; stroke-linejoin: miter"/>
   </g>
   <g id="patch_102">
    <path d="M 810.863455 301.96 
L 817.919545 301.96 
L 817.919545 251.816307 
L 810.863455 251.816307 
z
" clip-path="url(#p14e13c7f5f)" style="fill: #ffffff; stroke: #0072b2; stroke-linejoin: miter"/>
   </g>
   <g id="PatchCollection_1">
    <path d="M 112.310455 301.960601 
L 119.366545 301.960601 
L 119.366545 301.95939 
L 112.310455 301.95939 
z
" clip-path="url(#p14e13c7f5f)" style="fill: url(#h863523f555)"/>
    <path d="M 119.366545 301.961079 
L 126.422636 301.961079 
L 126.422636 301.958895 
L 119.366545 301.958895 
z
" clip-path="url(#p14e13c7f5f)" style="fill: url(#h863523f555)"/>
    <path d="M 126.422636 301.961516 
L 133.478727 301.961516 
L 133.478727 301.958432 
L 126.422636 301.958432 
z
" clip-path="url(#p14e13c7f5f)" style="fill: url(#h863523f555)"/>
    <path d="M 133.478727 301.962005 
L 140.534818 301.962005 
L 140.534818 301.957902 
L 133.478727 301.957902 
z
" clip-path="url(#p14e13c7f5f)" style="fill: url(#h863523f555)"/>
    <path d="M 140.534818 301.962641 
L 147.590909 301.962641 
L 147.590909 301.957195 
L 140.534818 301.957195 
z
" clip-path="url(#p14e13c7f5f)" style="fill: url(#h863523f555)"/>
    <path d="M 147.590909 301.963588 
L 154.647 301.963588 
L 154.647 301.956103 
L 147.590909 301.956103 
z
" clip-path="url(#p14e13c7f5f)" style="fill: url(#h863523f555)"/>
    <path d="M 154.647 301.964201 
L 161.703091 301.964201 
L 161.703091 301.955369 
L 154.647 301.955369 
z
" clip-path="url(#p14e13c7f5f)" style="fill: url(#h863523f555)"/>
    <path d="M 161.703091 301.964693 
L 168.759182 301.964693 
L 168.759182 301.954763 
L 161.703091 301.954763 
z
" clip-path="url(#p14e13c7f5f)" style="fill: url(#h863523f555)"/>
    <path d="M 168.759182 301.965174 
L 175.815273 301.965174 
L 175.815273 301.954156 
L 168.759182 301.954156 
z
" clip-path="url(#p14e13c7f5f)" style="fill: url(#h863523f555)"/>
    <path d="M 175.815273 301.965316 
L 182.871364 301.965316 
L 182.871364 301.953975 
L 175.815273 301.953975 
z
" clip-path="url(#p14e13c7f5f)" style="fill: url(#h863523f555)"/>
    <path d="M 182.871364 301.965664 
L 189.927455 301.965664 
L 189.927455 301.953523 
L 182.871364 301.953523 
z
" clip-path="url(#p14e13c7f5f)" style="fill: url(#h863523f555)"/>
    <path d="M 189.927455 301.965935 
L 196.983545 301.965935 
L 196.983545 301.953166 
L 189.927455 301.953166 
z
" clip-path="url(#p14e13c7f5f)" style="fill: url(#h863523f555)"/>
    <path d="M 196.983545 301.966183 
L 204.039636 301.966183 
L 204.039636 301.952834 
L 196.983545 301.952834 
z
" clip-path="url(#p14e13c7f5f)" style="fill: url(#h863523f555)"/>
    <path d="M 204.039636 301.966684 
L 211.095727 301.966684 
L 211.095727 301.952152 
L 204.039636 301.952152 
z
" clip-path="url(#p14e13c7f5f)" style="fill: url(#h863523f555)"/>
    <path d="M 211.095727 301.967495 
L 218.151818 301.967495 
L 218.151818 301.951006 
L 211.095727 301.951006 
z
" clip-path="url(#p14e13c7f5f)" style="fill: url(#h863523f555)"/>
    <path d="M 218.151818 301.96749 
L 225.207909 301.96749 
L 225.207909 301.951013 
L 218.151818 301.951013 
z
" clip-path="url(#p14e13c7f5f)" style="fill: url(#h863523f555)"/>
    <path d="M 225.207909 301.968652 
L 232.264 301.968652 
L 232.264 301.949279 
L 225.207909 301.949279 
z
" clip-path="url(#p14e13c7f5f)" style="fill: url(#h863523f555)"/>
    <path d="M 232.264 301.969515 
L 239.320091 301.969515 
L 239.320091 301.947911 
L 232.264 301.947911 
z
" clip-path="url(#p14e13c7f5f)" style="fill: url(#h863523f555)"/>
    <path d="M 239.320091 301.970325 
L 246.376182 301.970325 
L 246.376182 301.946561 
L 239.320091 301.946561 
z
" clip-path="url(#p14e13c7f5f)" style="fill: url(#h863523f555)"/>
    <path d="M 246.376182 301.971482 
L 253.432273 301.971482 
L 253.432273 301.944505 
L 246.376182 301.944505 
z
" clip-path="url(#p14e13c7f5f)" style="fill: url(#h863523f555)"/>
    <path d="M 253.432273 301.972574 
L 260.488364 301.972574 
L 260.488364 301.942409 
L 253.432273 301.942409 
z
" clip-path="url(#p14e13c7f5f)" style="fill: url(#h863523f555)"/>
    <path d="M 260.488364 301.973381 
L 267.544455 301.973381 
L 267.544455 301.940748 
L 260.488364 301.940748 
z
" clip-path="url(#p14e13c7f5f)" style="fill: url(#h863523f555)"/>
    <path d="M 267.544455 301.97484 
L 274.600545 301.97484 
L 274.600545 301.937453 
L 267.544455 301.937453 
z
" clip-path="url(#p14e13c7f5f)" style="fill: url(#h863523f555)"/>
    <path d="M 274.600545 301.976027 
L 281.656636 301.976027 
L 281.656636 301.934435 
L 274.600545 301.934435 
z
" clip-path="url(#p14e13c7f5f)" style="fill: url(#h863523f555)"/>
    <path d="M 281.656636 301.977629 
L 288.712727 301.977629 
L 288.712727 301.929711 
L 281.656636 301.929711 
z
" clip-path="url(#p14e13c7f5f)" style="fill: url(#h863523f555)"/>
    <path d="M 288.712727 301.97896 
L 295.768818 301.97896 
L 295.768818 301.924965 
L 288.712727 301.924965 
z
" clip-path="url(#p14e13c7f5f)" style="fill: url(#h863523f555)"/>
    <path d="M 295.768818 301.980109 
L 302.824909 301.980109 
L 302.824909 301.919907 
L 295.768818 301.919907 
z
" clip-path="url(#p14e13c7f5f)" style="fill: url(#h863523f555)"/>
    <path d="M 302.824909 301.981239 
L 309.881 301.981239 
L 309.881 301.913341 
L 302.824909 301.913341 
z
" clip-path="url(#p14e13c7f5f)" style="fill: url(#h863523f555)"/>
    <path d="M 309.881 301.982016 
L 316.937091 301.982016 
L 316.937091 301.906739 
L 309.881 301.906739 
z
" clip-path="url(#p14e13c7f5f)" style="fill: url(#h863523f555)"/>
    <path d="M 316.937091 301.982621 
L 323.993182 301.982621 
L 323.993182 301.896136 
L 316.937091 301.896136 
z
" clip-path="url(#p14e13c7f5f)" style="fill: url(#h863523f555)"/>
    <path d="M 323.993182 301.98262 
L 331.049273 301.98262 
L 331.049273 301.887686 
L 323.993182 301.887686 
z
" clip-path="url(#p14e13c7f5f)" style="fill: url(#h863523f555)"/>
    <path d="M 331.049273 301.982162 
L 338.105364 301.982162 
L 338.105364 301.877915 
L 331.049273 301.877915 
z
" clip-path="url(#p14e13c7f5f)" style="fill: url(#h863523f555)"/>
    <path d="M 338.105364 301.981532 
L 345.161455 301.981532 
L 345.161455 301.870553 
L 338.105364 301.870553 
z
" clip-path="url(#p14e13c7f5f)" style="fill: url(#h863523f555)"/>
    <path d="M 345.161455 301.980546 
L 352.217545 301.980546 
L 352.217545 301.86213 
L 345.161455 301.86213 
z
" clip-path="url(#p14e13c7f5f)" style="fill: url(#h863523f555)"/>
    <path d="M 352.217545 301.978203 
L 359.273636 301.978203 
L 359.273636 301.847294 
L 352.217545 301.847294 
z
" clip-path="url(#p14e13c7f5f)" style="fill: url(#h863523f555)"/>
    <path d="M 359.273636 301.973825 
L 366.329727 301.973825 
L 366.329727 301.826527 
L 359.273636 301.826527 
z
" clip-path="url(#p14e13c7f5f)" style="fill: url(#h863523f555)"/>
    <path d="M 366.329727 301.966497 
L 373.385818 301.966497 
L 373.385818 301.799255 
L 366.329727 301.799255 
z
" clip-path="url(#p14e13c7f5f)" style="fill: url(#h863523f555)"/>
    <path d="M 373.385818 301.954413 
L 380.441909 301.954413 
L 380.441909 301.76253 
L 373.385818 301.76253 
z
" clip-path="url(#p14e13c7f5f)" style="fill: url(#h863523f555)"/>
    <path d="M 380.441909 301.934525 
L 387.498 301.934525 
L 387.498 301.711743 
L 380.441909 301.711743 
z
" clip-path="url(#p14e13c7f5f)" style="fill: url(#h863523f555)"/>
    <path d="M 387.498 301.913658 
L 394.554091 301.913658 
L 394.554091 301.664818 
L 387.498 301.664818 
z
" clip-path="url(#p14e13c7f5f)" style="fill: url(#h863523f555)"/>
    <path d="M 394.554091 301.880391 
L 401.610182 301.880391 
L 401.610182 301.597172 
L 394.554091 301.597172 
z
" clip-path="url(#p14e13c7f5f)" style="fill: url(#h863523f555)"/>
    <path d="M 401.610182 301.845194 
L 408.666273 301.845194 
L 408.666273 301.531297 
L 401.610182 301.531297 
z
" clip-path="url(#p14e13c7f5f)" style="fill: url(#h863523f555)"/>
    <path d="M 408.666273 301.78976 
L 415.722364 301.78976 
L 415.722364 301.43467 
L 408.666273 301.43467 
z
" clip-path="url(#p14e13c7f5f)" style="fill: url(#h863523f555)"/>
    <path d="M 415.722364 301.724494 
L 422.778455 301.724494 
L 422.778455 301.32794 
L 415.722364 301.32794 
z
" clip-path="url(#p14e13c7f5f)" style="fill: url(#h863523f555)"/>
    <path d="M 422.778455 301.6232 
L 429.834545 301.6232 
L 429.834545 301.17161 
L 422.778455 301.17161 
z
" clip-path="url(#p14e13c7f5f)" style="fill: url(#h863523f555)"/>
    <path d="M 429.834545 301.495005 
L 436.890636 301.495005 
L 436.890636 300.983979 
L 429.834545 300.983979 
z
" clip-path="url(#p14e13c7f5f)" style="fill: url(#h863523f555)"/>
    <path d="M 436.890636 301.352125 
L 443.946727 301.352125 
L 443.946727 300.783499 
L 436.890636 300.783499 
z
" clip-path="url(#p14e13c7f5f)" style="fill: url(#h863523f555)"/>
    <path d="M 443.946727 301.166207 
L 451.002818 301.166207 
L 451.002818 300.531702 
L 443.946727 300.531702 
z
" clip-path="url(#p14e13c7f5f)" style="fill: url(#h863523f555)"/>
    <path d="M 451.002818 300.924035 
L 458.058909 300.924035 
L 458.058909 300.214155 
L 451.002818 300.214155 
z
" clip-path="url(#p14e13c7f5f)" style="fill: url(#h863523f555)"/>
    <path d="M 458.058909 300.597903 
L 465.115 300.597903 
L 465.115 299.7991 
L 458.058909 299.7991 
z
" clip-path="url(#p14e13c7f5f)" style="fill: url(#h863523f555)"/>
    <path d="M 465.115 300.274582 
L 472.171091 300.274582 
L 472.171091 299.397527 
L 465.115 299.397527 
z
" clip-path="url(#p14e13c7f5f)" style="fill: url(#h863523f555)"/>
    <path d="M 472.171091 299.74312 
L 479.227182 299.74312 
L 479.227182 298.752099 
L 472.171091 298.752099 
z
" clip-path="url(#p14e13c7f5f)" style="fill: url(#h863523f555)"/>
    <path d="M 479.227182 299.1606 
L 486.283273 299.1606 
L 486.283273 298.059381 
L 479.227182 298.059381 
z
" clip-path="url(#p14e13c7f5f)" style="fill: url(#h863523f555)"/>
    <path d="M 486.283273 298.481382 
L 493.339364 298.481382 
L 493.339364 297.265273 
L 486.283273 297.265273 
z
" clip-path="url(#p14e13c7f5f)" style="fill: url(#h863523f555)"/>
    <path d="M 493.339364 297.703994 
L 500.395455 297.703994 
L 500.395455 296.369418 
L 493.339364 296.369418 
z
" clip-path="url(#p14e13c7f5f)" style="fill: url(#h863523f555)"/>
    <path d="M 500.395455 296.802381 
L 507.451545 296.802381 
L 507.451545 295.343278 
L 500.395455 295.343278 
z
" clip-path="url(#p14e13c7f5f)" style="fill: url(#h863523f555)"/>
    <path d="M 507.451545 295.62532 
L 514.507636 295.62532 
L 514.507636 294.019038 
L 507.451545 294.019038 
z
" clip-path="url(#p14e13c7f5f)" style="fill: url(#h863523f555)"/>
    <path d="M 514.507636 293.971893 
L 521.563727 293.971893 
L 521.563727 292.180325 
L 514.507636 292.180325 
z
" clip-path="url(#p14e13c7f5f)" style="fill: url(#h863523f555)"/>
    <path d="M 521.563727 291.814585 
L 528.619818 291.814585 
L 528.619818 289.808172 
L 521.563727 289.808172 
z
" clip-path="url(#p14e13c7f5f)" style="fill: url(#h863523f555)"/>
    <path d="M 528.619818 289.660881 
L 535.675909 289.660881 
L 535.675909 287.462005 
L 528.619818 287.462005 
z
" clip-path="url(#p14e13c7f5f)" style="fill: url(#h863523f555)"/>
    <path d="M 535.675909 287.179688 
L 542.732 287.179688 
L 542.732 284.779141 
L 535.675909 284.779141 
z
" clip-path="url(#p14e13c7f5f)" style="fill: url(#h863523f555)"/>
    <path d="M 542.732 284.497331 
L 549.788091 284.497331 
L 549.788091 281.897277 
L 542.732 281.897277 
z
" clip-path="url(#p14e13c7f5f)" style="fill: url(#h863523f555)"/>
    <path d="M 549.788091 281.75299 
L 556.844182 281.75299 
L 556.844182 278.964508 
L 549.788091 278.964508 
z
" clip-path="url(#p14e13c7f5f)" style="fill: url(#h863523f555)"/>
    <path d="M 556.844182 278.102903 
L 563.900273 278.102903 
L 563.900273 275.08273 
L 556.844182 275.08273 
z
" clip-path="url(#p14e13c7f5f)" style="fill: url(#h863523f555)"/>
    <path d="M 563.900273 274.379629 
L 570.956364 274.379629 
L 570.956364 271.141329 
L 563.900273 271.141329 
z
" clip-path="url(#p14e13c7f5f)" style="fill: url(#h863523f555)"/>
    <path d="M 570.956364 270.127643 
L 578.012455 270.127643 
L 578.012455 266.658023 
L 570.956364 266.658023 
z
" clip-path="url(#p14e13c7f5f)" style="fill: url(#h863523f555)"/>
    <path d="M 578.012455 264.485776 
L 585.068545 264.485776 
L 585.068545 260.732098 
L 578.012455 260.732098 
z
" clip-path="url(#p14e13c7f5f)" style="fill: url(#h863523f555)"/>
    <path d="M 585.068545 259.308969 
L 592.124636 259.308969 
L 592.124636 255.314248 
L 585.068545 255.314248 
z
" clip-path="url(#p14e13c7f5f)" style="fill: url(#h863523f555)"/>
    <path d="M 592.124636 252.465718 
L 599.180727 252.465718 
L 599.180727 248.17405 
L 592.124636 248.17405 
z
" clip-path="url(#p14e13c7f5f)" style="fill: url(#h863523f555)"/>
    <path d="M 599.180727 245.818198 
L 606.236818 245.818198 
L 606.236818 241.258813 
L 599.180727 241.258813 
z
" clip-path="url(#p14e13c7f5f)" style="fill: url(#h863523f555)"/>
    <path d="M 606.236818 237.871946 
L 613.292909 237.871946 
L 613.292909 233.01349 
L 606.236818 233.01349 
z
" clip-path="url(#p14e13c7f5f)" style="fill: url(#h863523f555)"/>
    <path d="M 613.292909 229.59084 
L 620.349 229.59084 
L 620.349 224.441771 
L 613.292909 224.441771 
z
" clip-path="url(#p14e13c7f5f)" style="fill: url(#h863523f555)"/>
    <path d="M 620.349 220.102914 
L 627.405091 220.102914 
L 627.405091 214.642235 
L 620.349 214.642235 
z
" clip-path="url(#p14e13c7f5f)" style="fill: url(#h863523f555)"/>
    <path d="M 627.405091 208.553367 
L 634.461182 208.553367 
L 634.461182 202.738149 
L 627.405091 202.738149 
z
" clip-path="url(#p14e13c7f5f)" style="fill: url(#h863523f555)"/>
    <path d="M 634.461182 197.154168 
L 641.517273 197.154168 
L 641.517273 191.01396 
L 634.461182 191.01396 
z
" clip-path="url(#p14e13c7f5f)" style="fill: url(#h863523f555)"/>
    <path d="M 641.517273 183.968715 
L 648.573364 183.968715 
L 648.573364 177.476502 
L 641.517273 177.476502 
z
" clip-path="url(#p14e13c7f5f)" style="fill: url(#h863523f555)"/>
    <path d="M 648.573364 172.390153 
L 655.629455 172.390153 
L 655.629455 165.611795 
L 648.573364 165.611795 
z
" clip-path="url(#p14e13c7f5f)" style="fill: url(#h863523f555)"/>
    <path d="M 655.629455 157.24806 
L 662.685545 157.24806 
L 662.685545 150.114577 
L 655.629455 150.114577 
z
" clip-path="url(#p14e13c7f5f)" style="fill: url(#h863523f555)"/>
    <path d="M 662.685545 141.967222 
L 669.741636 141.967222 
L 669.741636 134.501073 
L 662.685545 134.501073 
z
" clip-path="url(#p14e13c7f5f)" style="fill: url(#h863523f555)"/>
    <path d="M 669.741636 127.640581 
L 676.797727 127.640581 
L 676.797727 119.886852 
L 669.741636 119.886852 
z
" clip-path="url(#p14e13c7f5f)" style="fill: url(#h863523f555)"/>
    <path d="M 676.797727 113.213586 
L 683.853818 113.213586 
L 683.853818 105.191373 
L 676.797727 105.191373 
z
" clip-path="url(#p14e13c7f5f)" style="fill: url(#h863523f555)"/>
    <path d="M 683.853818 100.306478 
L 690.909909 100.306478 
L 690.909909 92.067727 
L 683.853818 92.067727 
z
" clip-path="url(#p14e13c7f5f)" style="fill: url(#h863523f555)"/>
    <path d="M 690.909909 89.983882 
L 697.966 89.983882 
L 697.966 81.598165 
L 690.909909 81.598165 
z
" clip-path="url(#p14e13c7f5f)" style="fill: url(#h863523f555)"/>
    <path d="M 697.966 78.858988 
L 705.022091 78.858988 
L 705.022091 70.327708 
L 697.966 70.327708 
z
" clip-path="url(#p14e13c7f5f)" style="fill: url(#h863523f555)"/>
    <path d="M 705.022091 68.005364 
L 712.078182 68.005364 
L 712.078182 59.352629 
L 705.022091 59.352629 
z
" clip-path="url(#p14e13c7f5f)" style="fill: url(#h863523f555)"/>
    <path d="M 712.078182 66.4156 
L 719.134273 66.4156 
L 719.134273 57.827877 
L 712.078182 57.827877 
z
" clip-path="url(#p14e13c7f5f)" style="fill: url(#h863523f555)"/>
    <path d="M 719.134273 57.350566 
L 726.190364 57.350566 
L 726.190364 48.710839 
L 719.134273 48.710839 
z
" clip-path="url(#p14e13c7f5f)" style="fill: url(#h863523f555)"/>
    <path d="M 726.190364 62.440924 
L 733.246455 62.440924 
L 733.246455 54.016634 
L 726.190364 54.016634 
z
" clip-path="url(#p14e13c7f5f)" style="fill: url(#h863523f555)"/>
    <path d="M 733.246455 65.736604 
L 740.302545 65.736604 
L 740.302545 57.516172 
L 733.246455 57.516172 
z
" clip-path="url(#p14e13c7f5f)" style="fill: url(#h863523f555)"/>
    <path d="M 740.302545 74.578568 
L 747.358636 74.578568 
L 747.358636 66.676774 
L 740.302545 66.676774 
z
" clip-path="url(#p14e13c7f5f)" style="fill: url(#h863523f555)"/>
    <path d="M 747.358636 75.41275 
L 754.414727 75.41275 
L 754.414727 67.716315 
L 747.358636 67.716315 
z
" clip-path="url(#p14e13c7f5f)" style="fill: url(#h863523f555)"/>
    <path d="M 754.414727 91.779535 
L 761.470818 91.779535 
L 761.470818 84.579364 
L 754.414727 84.579364 
z
" clip-path="url(#p14e13c7f5f)" style="fill: url(#h863523f555)"/>
    <path d="M 761.470818 107.640511 
L 768.526909 107.640511 
L 768.526909 100.959826 
L 761.470818 100.959826 
z
" clip-path="url(#p14e13c7f5f)" style="fill: url(#h863523f555)"/>
    <path d="M 768.526909 127.049041 
L 775.583 127.049041 
L 775.583 120.981983 
L 768.526909 120.981983 
z
" clip-path="url(#p14e13c7f5f)" style="fill: url(#h863523f555)"/>
    <path d="M 775.583 149.186543 
L 782.639091 149.186543 
L 782.639091 143.820115 
L 775.583 143.820115 
z
" clip-path="url(#p14e13c7f5f)" style="fill: url(#h863523f555)"/>
    <path d="M 782.639091 174.234571 
L 789.695182 174.234571 
L 789.695182 169.660843 
L 782.639091 169.660843 
z
" clip-path="url(#p14e13c7f5f)" style="fill: url(#h863523f555)"/>
    <path d="M 789.695182 193.731499 
L 796.751273 193.731499 
L 796.751273 189.906078 
L 789.695182 189.906078 
z
" clip-path="url(#p14e13c7f5f)" style="fill: url(#h863523f555)"/>
    <path d="M 796.751273 219.918369 
L 803.807364 219.918369 
L 803.807364 217.004919 
L 796.751273 217.004919 
z
" clip-path="url(#p14e13c7f5f)" style="fill: url(#h863523f555)"/>
    <path d="M 803.807364 253.118853 
L 810.863455 253.118853 
L 810.863455 251.303251 
L 803.807364 251.303251 
z
" clip-path="url(#p14e13c7f5f)" style="fill: url(#h863523f555)"/>
    <path d="M 810.863455 252.184899 
L 817.919545 252.184899 
L 817.919545 251.447716 
L 810.863455 251.447716 
z
" clip-path="url(#p14e13c7f5f)" style="fill: url(#h863523f555)"/>
   </g>
   <g id="matplotlib.axis_1">
    <g id="xtick_1">
     <g id="line2d_1">
      <defs>
       <path id="mccdb53e93c" d="M 0 0 
L 0 3.5 
" style="stroke: #000000; stroke-width: 0.8"/>
      </defs>
      <g>
       <use xlink:href="#mccdb53e93c" x="192.201172" y="301.96" style="stroke: #000000; stroke-width: 0.8"/>
      </g>
     </g>
     <g id="text_1">
      <!-- −5 -->
      <g transform="translate(181.881641 319.597813) scale(0.14 -0.14)">
       <defs>
        <path id="DejaVuSans-2212" d="M 678 2272 
L 4684 2272 
L 4684 1741 
L 678 1741 
L 678 2272 
z
" transform="scale(0.015625)"/>
        <path id="DejaVuSans-35" d="M 691 4666 
L 3169 4666 
L 3169 4134 
L 1269 4134 
L 1269 2991 
Q 1406 3038 1543 3061 
Q 1681 3084 1819 3084 
Q 2600 3084 3056 2656 
Q 3513 2228 3513 1497 
Q 3513 744 3044 326 
Q 2575 -91 1722 -91 
Q 1428 -91 1123 -41 
Q 819 9 494 109 
L 494 744 
Q 775 591 1075 516 
Q 1375 441 1709 441 
Q 2250 441 2565 725 
Q 2881 1009 2881 1497 
Q 2881 1984 2565 2268 
Q 2250 2553 1709 2553 
Q 1456 2553 1204 2497 
Q 953 2441 691 2322 
L 691 4666 
z
" transform="scale(0.015625)"/>
       </defs>
       <use xlink:href="#DejaVuSans-2212"/>
       <use xlink:href="#DejaVuSans-35" x="83.789062"/>
      </g>
     </g>
    </g>
    <g id="xtick_2">
     <g id="line2d_2">
      <g>
       <use xlink:href="#mccdb53e93c" x="317.344847" y="301.96" style="stroke: #000000; stroke-width: 0.8"/>
      </g>
     </g>
     <g id="text_2">
      <!-- −4 -->
      <g transform="translate(307.025315 319.597813) scale(0.14 -0.14)">
       <defs>
        <path id="DejaVuSans-34" d="M 2419 4116 
L 825 1625 
L 2419 1625 
L 2419 4116 
z
M 2253 4666 
L 3047 4666 
L 3047 1625 
L 3713 1625 
L 3713 1100 
L 3047 1100 
L 3047 0 
L 2419 0 
L 2419 1100 
L 313 1100 
L 313 1709 
L 2253 4666 
z
" transform="scale(0.015625)"/>
       </defs>
       <use xlink:href="#DejaVuSans-2212"/>
       <use xlink:href="#DejaVuSans-34" x="83.789062"/>
      </g>
     </g>
    </g>
    <g id="xtick_3">
     <g id="line2d_3">
      <g>
       <use xlink:href="#mccdb53e93c" x="442.488521" y="301.96" style="stroke: #000000; stroke-width: 0.8"/>
      </g>
     </g>
     <g id="text_3">
      <!-- −3 -->
      <g transform="translate(432.16899 319.597813) scale(0.14 -0.14)">
       <defs>
        <path id="DejaVuSans-33" d="M 2597 2516 
Q 3050 2419 3304 2112 
Q 3559 1806 3559 1356 
Q 3559 666 3084 287 
Q 2609 -91 1734 -91 
Q 1441 -91 1130 -33 
Q 819 25 488 141 
L 488 750 
Q 750 597 1062 519 
Q 1375 441 1716 441 
Q 2309 441 2620 675 
Q 2931 909 2931 1356 
Q 2931 1769 2642 2001 
Q 2353 2234 1838 2234 
L 1294 2234 
L 1294 2753 
L 1863 2753 
Q 2328 2753 2575 2939 
Q 2822 3125 2822 3475 
Q 2822 3834 2567 4026 
Q 2313 4219 1838 4219 
Q 1578 4219 1281 4162 
Q 984 4106 628 3988 
L 628 4550 
Q 988 4650 1302 4700 
Q 1616 4750 1894 4750 
Q 2613 4750 3031 4423 
Q 3450 4097 3450 3541 
Q 3450 3153 3228 2886 
Q 3006 2619 2597 2516 
z
" transform="scale(0.015625)"/>
       </defs>
       <use xlink:href="#DejaVuSans-2212"/>
       <use xlink:href="#DejaVuSans-33" x="83.789062"/>
      </g>
     </g>
    </g>
    <g id="xtick_4">
     <g id="line2d_4">
      <g>
       <use xlink:href="#mccdb53e93c" x="567.632196" y="301.96" style="stroke: #000000; stroke-width: 0.8"/>
      </g>
     </g>
     <g id="text_4">
      <!-- −2 -->
      <g transform="translate(557.312665 319.597813) scale(0.14 -0.14)">
       <defs>
        <path id="DejaVuSans-32" d="M 1228 531 
L 3431 531 
L 3431 0 
L 469 0 
L 469 531 
Q 828 903 1448 1529 
Q 2069 2156 2228 2338 
Q 2531 2678 2651 2914 
Q 2772 3150 2772 3378 
Q 2772 3750 2511 3984 
Q 2250 4219 1831 4219 
Q 1534 4219 1204 4116 
Q 875 4013 500 3803 
L 500 4441 
Q 881 4594 1212 4672 
Q 1544 4750 1819 4750 
Q 2544 4750 2975 4387 
Q 3406 4025 3406 3419 
Q 3406 3131 3298 2873 
Q 3191 2616 2906 2266 
Q 2828 2175 2409 1742 
Q 1991 1309 1228 531 
z
" transform="scale(0.015625)"/>
       </defs>
       <use xlink:href="#DejaVuSans-2212"/>
       <use xlink:href="#DejaVuSans-32" x="83.789062"/>
      </g>
     </g>
    </g>
    <g id="xtick_5">
     <g id="line2d_5">
      <g>
       <use xlink:href="#mccdb53e93c" x="692.775871" y="301.96" style="stroke: #000000; stroke-width: 0.8"/>
      </g>
     </g>
     <g id="text_5">
      <!-- −1 -->
      <g transform="translate(682.456339 319.597813) scale(0.14 -0.14)">
       <defs>
        <path id="DejaVuSans-31" d="M 794 531 
L 1825 531 
L 1825 4091 
L 703 3866 
L 703 4441 
L 1819 4666 
L 2450 4666 
L 2450 531 
L 3481 531 
L 3481 0 
L 794 0 
L 794 531 
z
" transform="scale(0.015625)"/>
       </defs>
       <use xlink:href="#DejaVuSans-2212"/>
       <use xlink:href="#DejaVuSans-31" x="83.789062"/>
      </g>
     </g>
    </g>
    <g id="xtick_6">
     <g id="line2d_6">
      <g>
       <use xlink:href="#mccdb53e93c" x="817.919545" y="301.96" style="stroke: #000000; stroke-width: 0.8"/>
      </g>
     </g>
     <g id="text_6">
      <!-- 0 -->
      <g transform="translate(813.465795 319.597813) scale(0.14 -0.14)">
       <defs>
        <path id="DejaVuSans-30" d="M 2034 4250 
Q 1547 4250 1301 3770 
Q 1056 3291 1056 2328 
Q 1056 1369 1301 889 
Q 1547 409 2034 409 
Q 2525 409 2770 889 
Q 3016 1369 3016 2328 
Q 3016 3291 2770 3770 
Q 2525 4250 2034 4250 
z
M 2034 4750 
Q 2819 4750 3233 4129 
Q 3647 3509 3647 2328 
Q 3647 1150 3233 529 
Q 2819 -91 2034 -91 
Q 1250 -91 836 529 
Q 422 1150 422 2328 
Q 422 3509 836 4129 
Q 1250 4750 2034 4750 
z
" transform="scale(0.015625)"/>
       </defs>
       <use xlink:href="#DejaVuSans-30"/>
      </g>
     </g>
    </g>
    <g id="text_7">
     <!-- $\log_{10}$(amino acid substitution probability) -->
     <g transform="translate(319.375 343.149375) scale(0.14 -0.14)">
      <defs>
       <path id="DejaVuSans-6c" d="M 603 4863 
L 1178 4863 
L 1178 0 
L 603 0 
L 603 4863 
z
" transform="scale(0.015625)"/>
       <path id="DejaVuSans-6f" d="M 1959 3097 
Q 1497 3097 1228 2736 
Q 959 2375 959 1747 
Q 959 1119 1226 758 
Q 1494 397 1959 397 
Q 2419 397 2687 759 
Q 2956 1122 2956 1747 
Q 2956 2369 2687 2733 
Q 2419 3097 1959 3097 
z
M 1959 3584 
Q 2709 3584 3137 3096 
Q 3566 2609 3566 1747 
Q 3566 888 3137 398 
Q 2709 -91 1959 -91 
Q 1206 -91 779 398 
Q 353 888 353 1747 
Q 353 2609 779 3096 
Q 1206 3584 1959 3584 
z
" transform="scale(0.015625)"/>
       <path id="DejaVuSans-67" d="M 2906 1791 
Q 2906 2416 2648 2759 
Q 2391 3103 1925 3103 
Q 1463 3103 1205 2759 
Q 947 2416 947 1791 
Q 947 1169 1205 825 
Q 1463 481 1925 481 
Q 2391 481 2648 825 
Q 2906 1169 2906 1791 
z
M 3481 434 
Q 3481 -459 3084 -895 
Q 2688 -1331 1869 -1331 
Q 1566 -1331 1297 -1286 
Q 1028 -1241 775 -1147 
L 775 -588 
Q 1028 -725 1275 -790 
Q 1522 -856 1778 -856 
Q 2344 -856 2625 -561 
Q 2906 -266 2906 331 
L 2906 616 
Q 2728 306 2450 153 
Q 2172 0 1784 0 
Q 1141 0 747 490 
Q 353 981 353 1791 
Q 353 2603 747 3093 
Q 1141 3584 1784 3584 
Q 2172 3584 2450 3431 
Q 2728 3278 2906 2969 
L 2906 3500 
L 3481 3500 
L 3481 434 
z
" transform="scale(0.015625)"/>
       <path id="DejaVuSans-28" d="M 1984 4856 
Q 1566 4138 1362 3434 
Q 1159 2731 1159 2009 
Q 1159 1288 1364 580 
Q 1569 -128 1984 -844 
L 1484 -844 
Q 1016 -109 783 600 
Q 550 1309 550 2009 
Q 550 2706 781 3412 
Q 1013 4119 1484 4856 
L 1984 4856 
z
" transform="scale(0.015625)"/>
       <path id="DejaVuSans-61" d="M 2194 1759 
Q 1497 1759 1228 1600 
Q 959 1441 959 1056 
Q 959 750 1161 570 
Q 1363 391 1709 391 
Q 2188 391 2477 730 
Q 2766 1069 2766 1631 
L 2766 1759 
L 2194 1759 
z
M 3341 1997 
L 3341 0 
L 2766 0 
L 2766 531 
Q 2569 213 2275 61 
Q 1981 -91 1556 -91 
Q 1019 -91 701 211 
Q 384 513 384 1019 
Q 384 1609 779 1909 
Q 1175 2209 1959 2209 
L 2766 2209 
L 2766 2266 
Q 2766 2663 2505 2880 
Q 2244 3097 1772 3097 
Q 1472 3097 1187 3025 
Q 903 2953 641 2809 
L 641 3341 
Q 956 3463 1253 3523 
Q 1550 3584 1831 3584 
Q 2591 3584 2966 3190 
Q 3341 2797 3341 1997 
z
" transform="scale(0.015625)"/>
       <path id="DejaVuSans-6d" d="M 3328 2828 
Q 3544 3216 3844 3400 
Q 4144 3584 4550 3584 
Q 5097 3584 5394 3201 
Q 5691 2819 5691 2113 
L 5691 0 
L 5113 0 
L 5113 2094 
Q 5113 2597 4934 2840 
Q 4756 3084 4391 3084 
Q 3944 3084 3684 2787 
Q 3425 2491 3425 1978 
L 3425 0 
L 2847 0 
L 2847 2094 
Q 2847 2600 2669 2842 
Q 2491 3084 2119 3084 
Q 1678 3084 1418 2786 
Q 1159 2488 1159 1978 
L 1159 0 
L 581 0 
L 581 3500 
L 1159 3500 
L 1159 2956 
Q 1356 3278 1631 3431 
Q 1906 3584 2284 3584 
Q 2666 3584 2933 3390 
Q 3200 3197 3328 2828 
z
" transform="scale(0.015625)"/>
       <path id="DejaVuSans-69" d="M 603 3500 
L 1178 3500 
L 1178 0 
L 603 0 
L 603 3500 
z
M 603 4863 
L 1178 4863 
L 1178 4134 
L 603 4134 
L 603 4863 
z
" transform="scale(0.015625)"/>
       <path id="DejaVuSans-6e" d="M 3513 2113 
L 3513 0 
L 2938 0 
L 2938 2094 
Q 2938 2591 2744 2837 
Q 2550 3084 2163 3084 
Q 1697 3084 1428 2787 
Q 1159 2491 1159 1978 
L 1159 0 
L 581 0 
L 581 3500 
L 1159 3500 
L 1159 2956 
Q 1366 3272 1645 3428 
Q 1925 3584 2291 3584 
Q 2894 3584 3203 3211 
Q 3513 2838 3513 2113 
z
" transform="scale(0.015625)"/>
       <path id="DejaVuSans-20" transform="scale(0.015625)"/>
       <path id="DejaVuSans-63" d="M 3122 3366 
L 3122 2828 
Q 2878 2963 2633 3030 
Q 2388 3097 2138 3097 
Q 1578 3097 1268 2742 
Q 959 2388 959 1747 
Q 959 1106 1268 751 
Q 1578 397 2138 397 
Q 2388 397 2633 464 
Q 2878 531 3122 666 
L 3122 134 
Q 2881 22 2623 -34 
Q 2366 -91 2075 -91 
Q 1284 -91 818 406 
Q 353 903 353 1747 
Q 353 2603 823 3093 
Q 1294 3584 2113 3584 
Q 2378 3584 2631 3529 
Q 2884 3475 3122 3366 
z
" transform="scale(0.015625)"/>
       <path id="DejaVuSans-64" d="M 2906 2969 
L 2906 4863 
L 3481 4863 
L 3481 0 
L 2906 0 
L 2906 525 
Q 2725 213 2448 61 
Q 2172 -91 1784 -91 
Q 1150 -91 751 415 
Q 353 922 353 1747 
Q 353 2572 751 3078 
Q 1150 3584 1784 3584 
Q 2172 3584 2448 3432 
Q 2725 3281 2906 2969 
z
M 947 1747 
Q 947 1113 1208 752 
Q 1469 391 1925 391 
Q 2381 391 2643 752 
Q 2906 1113 2906 1747 
Q 2906 2381 2643 2742 
Q 2381 3103 1925 3103 
Q 1469 3103 1208 2742 
Q 947 2381 947 1747 
z
" transform="scale(0.015625)"/>
       <path id="DejaVuSans-73" d="M 2834 3397 
L 2834 2853 
Q 2591 2978 2328 3040 
Q 2066 3103 1784 3103 
Q 1356 3103 1142 2972 
Q 928 2841 928 2578 
Q 928 2378 1081 2264 
Q 1234 2150 1697 2047 
L 1894 2003 
Q 2506 1872 2764 1633 
Q 3022 1394 3022 966 
Q 3022 478 2636 193 
Q 2250 -91 1575 -91 
Q 1294 -91 989 -36 
Q 684 19 347 128 
L 347 722 
Q 666 556 975 473 
Q 1284 391 1588 391 
Q 1994 391 2212 530 
Q 2431 669 2431 922 
Q 2431 1156 2273 1281 
Q 2116 1406 1581 1522 
L 1381 1569 
Q 847 1681 609 1914 
Q 372 2147 372 2553 
Q 372 3047 722 3315 
Q 1072 3584 1716 3584 
Q 2034 3584 2315 3537 
Q 2597 3491 2834 3397 
z
" transform="scale(0.015625)"/>
       <path id="DejaVuSans-75" d="M 544 1381 
L 544 3500 
L 1119 3500 
L 1119 1403 
Q 1119 906 1312 657 
Q 1506 409 1894 409 
Q 2359 409 2629 706 
Q 2900 1003 2900 1516 
L 2900 3500 
L 3475 3500 
L 3475 0 
L 2900 0 
L 2900 538 
Q 2691 219 2414 64 
Q 2138 -91 1772 -91 
Q 1169 -91 856 284 
Q 544 659 544 1381 
z
M 1991 3584 
L 1991 3584 
z
" transform="scale(0.015625)"/>
       <path id="DejaVuSans-62" d="M 3116 1747 
Q 3116 2381 2855 2742 
Q 2594 3103 2138 3103 
Q 1681 3103 1420 2742 
Q 1159 2381 1159 1747 
Q 1159 1113 1420 752 
Q 1681 391 2138 391 
Q 2594 391 2855 752 
Q 3116 1113 3116 1747 
z
M 1159 2969 
Q 1341 3281 1617 3432 
Q 1894 3584 2278 3584 
Q 2916 3584 3314 3078 
Q 3713 2572 3713 1747 
Q 3713 922 3314 415 
Q 2916 -91 2278 -91 
Q 1894 -91 1617 61 
Q 1341 213 1159 525 
L 1159 0 
L 581 0 
L 581 4863 
L 1159 4863 
L 1159 2969 
z
" transform="scale(0.015625)"/>
       <path id="DejaVuSans-74" d="M 1172 4494 
L 1172 3500 
L 2356 3500 
L 2356 3053 
L 1172 3053 
L 1172 1153 
Q 1172 725 1289 603 
Q 1406 481 1766 481 
L 2356 481 
L 2356 0 
L 1766 0 
Q 1100 0 847 248 
Q 594 497 594 1153 
L 594 3053 
L 172 3053 
L 172 3500 
L 594 3500 
L 594 4494 
L 1172 4494 
z
" transform="scale(0.015625)"/>
       <path id="DejaVuSans-70" d="M 1159 525 
L 1159 -1331 
L 581 -1331 
L 581 3500 
L 1159 3500 
L 1159 2969 
Q 1341 3281 1617 3432 
Q 1894 3584 2278 3584 
Q 2916 3584 3314 3078 
Q 3713 2572 3713 1747 
Q 3713 922 3314 415 
Q 2916 -91 2278 -91 
Q 1894 -91 1617 61 
Q 1341 213 1159 525 
z
M 3116 1747 
Q 3116 2381 2855 2742 
Q 2594 3103 2138 3103 
Q 1681 3103 1420 2742 
Q 1159 2381 1159 1747 
Q 1159 1113 1420 752 
Q 1681 391 2138 391 
Q 2594 391 2855 752 
Q 3116 1113 3116 1747 
z
" transform="scale(0.015625)"/>
       <path id="DejaVuSans-72" d="M 2631 2963 
Q 2534 3019 2420 3045 
Q 2306 3072 2169 3072 
Q 1681 3072 1420 2755 
Q 1159 2438 1159 1844 
L 1159 0 
L 581 0 
L 581 3500 
L 1159 3500 
L 1159 2956 
Q 1341 3275 1631 3429 
Q 1922 3584 2338 3584 
Q 2397 3584 2469 3576 
Q 2541 3569 2628 3553 
L 2631 2963 
z
" transform="scale(0.015625)"/>
       <path id="DejaVuSans-79" d="M 2059 -325 
Q 1816 -950 1584 -1140 
Q 1353 -1331 966 -1331 
L 506 -1331 
L 506 -850 
L 844 -850 
Q 1081 -850 1212 -737 
Q 1344 -625 1503 -206 
L 1606 56 
L 191 3500 
L 800 3500 
L 1894 763 
L 2988 3500 
L 3597 3500 
L 2059 -325 
z
" transform="scale(0.015625)"/>
       <path id="DejaVuSans-29" d="M 513 4856 
L 1013 4856 
Q 1481 4119 1714 3412 
Q 1947 2706 1947 2009 
Q 1947 1309 1714 600 
Q 1481 -109 1013 -844 
L 513 -844 
Q 928 -128 1133 580 
Q 1338 1288 1338 2009 
Q 1338 2731 1133 3434 
Q 928 4138 513 4856 
z
" transform="scale(0.015625)"/>
      </defs>
      <use xlink:href="#DejaVuSans-6c" transform="translate(0 0.015625)"/>
      <use xlink:href="#DejaVuSans-6f" transform="translate(27.783203 0.015625)"/>
      <use xlink:href="#DejaVuSans-67" transform="translate(88.964844 0.015625)"/>
      <use xlink:href="#DejaVuSans-31" transform="translate(153.398438 -16.390625) scale(0.7)"/>
      <use xlink:href="#DejaVuSans-30" transform="translate(197.93457 -16.390625) scale(0.7)"/>
      <use xlink:href="#DejaVuSans-28" transform="translate(261.440754 0.015625)"/>
      <use xlink:href="#DejaVuSans-61" transform="translate(300.454426 0.015625)"/>
      <use xlink:href="#DejaVuSans-6d" transform="translate(361.733723 0.015625)"/>
      <use xlink:href="#DejaVuSans-69" transform="translate(459.145833 0.015625)"/>
      <use xlink:href="#DejaVuSans-6e" transform="translate(486.929036 0.015625)"/>
      <use xlink:href="#DejaVuSans-6f" transform="translate(550.307942 0.015625)"/>
      <use xlink:href="#DejaVuSans-20" transform="translate(611.489583 0.015625)"/>
      <use xlink:href="#DejaVuSans-61" transform="translate(643.276692 0.015625)"/>
      <use xlink:href="#DejaVuSans-63" transform="translate(704.555989 0.015625)"/>
      <use xlink:href="#DejaVuSans-69" transform="translate(759.536458 0.015625)"/>
      <use xlink:href="#DejaVuSans-64" transform="translate(787.319661 0.015625)"/>
      <use xlink:href="#DejaVuSans-20" transform="translate(850.796223 0.015625)"/>
      <use xlink:href="#DejaVuSans-73" transform="translate(882.583333 0.015625)"/>
      <use xlink:href="#DejaVuSans-75" transform="translate(934.682942 0.015625)"/>
      <use xlink:href="#DejaVuSans-62" transform="translate(998.061848 0.015625)"/>
      <use xlink:href="#DejaVuSans-73" transform="translate(1061.538411 0.015625)"/>
      <use xlink:href="#DejaVuSans-74" transform="translate(1113.63802 0.015625)"/>
      <use xlink:href="#DejaVuSans-69" transform="translate(1152.847004 0.015625)"/>
      <use xlink:href="#DejaVuSans-74" transform="translate(1180.630208 0.015625)"/>
      <use xlink:href="#DejaVuSans-75" transform="translate(1219.839192 0.015625)"/>
      <use xlink:href="#DejaVuSans-74" transform="translate(1283.218098 0.015625)"/>
      <use xlink:href="#DejaVuSans-69" transform="translate(1322.427083 0.015625)"/>
      <use xlink:href="#DejaVuSans-6f" transform="translate(1350.210286 0.015625)"/>
      <use xlink:href="#DejaVuSans-6e" transform="translate(1411.391926 0.015625)"/>
      <use xlink:href="#DejaVuSans-20" transform="translate(1474.770833 0.015625)"/>
      <use xlink:href="#DejaVuSans-70" transform="translate(1506.557942 0.015625)"/>
      <use xlink:href="#DejaVuSans-72" transform="translate(1570.034504 0.015625)"/>
      <use xlink:href="#DejaVuSans-6f" transform="translate(1611.147786 0.015625)"/>
      <use xlink:href="#DejaVuSans-62" transform="translate(1672.329426 0.015625)"/>
      <use xlink:href="#DejaVuSans-61" transform="translate(1735.805989 0.015625)"/>
      <use xlink:href="#DejaVuSans-62" transform="translate(1797.085286 0.015625)"/>
      <use xlink:href="#DejaVuSans-69" transform="translate(1860.561848 0.015625)"/>
      <use xlink:href="#DejaVuSans-6c" transform="translate(1888.345051 0.015625)"/>
      <use xlink:href="#DejaVuSans-69" transform="translate(1916.128254 0.015625)"/>
      <use xlink:href="#DejaVuSans-74" transform="translate(1943.911458 0.015625)"/>
      <use xlink:href="#DejaVuSans-79" transform="translate(1983.120442 0.015625)"/>
      <use xlink:href="#DejaVuSans-29" transform="translate(2042.300129 0.015625)"/>
     </g>
    </g>
   </g>
   <g id="matplotlib.axis_2">
    <g id="ytick_1">
     <g id="line2d_7">
      <defs>
       <path id="mbfab489096" d="M 0 0 
L -3.5 0 
" style="stroke: #000000; stroke-width: 0.8"/>
      </defs>
      <g>
       <use xlink:href="#mbfab489096" x="77.03" y="301.96" style="stroke: #000000; stroke-width: 0.8"/>
      </g>
     </g>
     <g id="text_8">
      <!-- 0 -->
      <g transform="translate(61.1225 307.278906) scale(0.14 -0.14)">
       <use xlink:href="#DejaVuSans-30"/>
      </g>
     </g>
    </g>
    <g id="ytick_2">
     <g id="line2d_8">
      <g>
       <use xlink:href="#mbfab489096" x="77.03" y="256.615346" style="stroke: #000000; stroke-width: 0.8"/>
      </g>
     </g>
     <g id="text_9">
      <!-- 500 -->
      <g transform="translate(43.3075 261.934252) scale(0.14 -0.14)">
       <use xlink:href="#DejaVuSans-35"/>
       <use xlink:href="#DejaVuSans-30" x="63.623047"/>
       <use xlink:href="#DejaVuSans-30" x="127.246094"/>
      </g>
     </g>
    </g>
    <g id="ytick_3">
     <g id="line2d_9">
      <g>
       <use xlink:href="#mbfab489096" x="77.03" y="211.270692" style="stroke: #000000; stroke-width: 0.8"/>
      </g>
     </g>
     <g id="text_10">
      <!-- 1000 -->
      <g transform="translate(34.4 216.589598) scale(0.14 -0.14)">
       <use xlink:href="#DejaVuSans-31"/>
       <use xlink:href="#DejaVuSans-30" x="63.623047"/>
       <use xlink:href="#DejaVuSans-30" x="127.246094"/>
       <use xlink:href="#DejaVuSans-30" x="190.869141"/>
      </g>
     </g>
    </g>
    <g id="ytick_4">
     <g id="line2d_10">
      <g>
       <use xlink:href="#mbfab489096" x="77.03" y="165.926038" style="stroke: #000000; stroke-width: 0.8"/>
      </g>
     </g>
     <g id="text_11">
      <!-- 1500 -->
      <g transform="translate(34.4 171.244944) scale(0.14 -0.14)">
       <use xlink:href="#DejaVuSans-31"/>
       <use xlink:href="#DejaVuSans-35" x="63.623047"/>
       <use xlink:href="#DejaVuSans-30" x="127.246094"/>
       <use xlink:href="#DejaVuSans-30" x="190.869141"/>
      </g>
     </g>
    </g>
    <g id="ytick_5">
     <g id="line2d_11">
      <g>
       <use xlink:href="#mbfab489096" x="77.03" y="120.581383" style="stroke: #000000; stroke-width: 0.8"/>
      </g>
     </g>
     <g id="text_12">
      <!-- 2000 -->
      <g transform="translate(34.4 125.90029) scale(0.14 -0.14)">
       <use xlink:href="#DejaVuSans-32"/>
       <use xlink:href="#DejaVuSans-30" x="63.623047"/>
       <use xlink:href="#DejaVuSans-30" x="127.246094"/>
       <use xlink:href="#DejaVuSans-30" x="190.869141"/>
      </g>
     </g>
    </g>
    <g id="ytick_6">
     <g id="line2d_12">
      <g>
       <use xlink:href="#mbfab489096" x="77.03" y="75.236729" style="stroke: #000000; stroke-width: 0.8"/>
      </g>
     </g>
     <g id="text_13">
      <!-- 2500 -->
      <g transform="translate(34.4 80.555635) scale(0.14 -0.14)">
       <use xlink:href="#DejaVuSans-32"/>
       <use xlink:href="#DejaVuSans-35" x="63.623047"/>
       <use xlink:href="#DejaVuSans-30" x="127.246094"/>
       <use xlink:href="#DejaVuSans-30" x="190.869141"/>
      </g>
     </g>
    </g>
    <g id="text_14">
     <!-- number of mutations -->
     <g transform="translate(21.488437 242.839844) rotate(-90) scale(0.14 -0.14)">
      <defs>
       <path id="DejaVuSans-65" d="M 3597 1894 
L 3597 1613 
L 953 1613 
Q 991 1019 1311 708 
Q 1631 397 2203 397 
Q 2534 397 2845 478 
Q 3156 559 3463 722 
L 3463 178 
Q 3153 47 2828 -22 
Q 2503 -91 2169 -91 
Q 1331 -91 842 396 
Q 353 884 353 1716 
Q 353 2575 817 3079 
Q 1281 3584 2069 3584 
Q 2775 3584 3186 3129 
Q 3597 2675 3597 1894 
z
M 3022 2063 
Q 3016 2534 2758 2815 
Q 2500 3097 2075 3097 
Q 1594 3097 1305 2825 
Q 1016 2553 972 2059 
L 3022 2063 
z
" transform="scale(0.015625)"/>
       <path id="DejaVuSans-66" d="M 2375 4863 
L 2375 4384 
L 1825 4384 
Q 1516 4384 1395 4259 
Q 1275 4134 1275 3809 
L 1275 3500 
L 2222 3500 
L 2222 3053 
L 1275 3053 
L 1275 0 
L 697 0 
L 697 3053 
L 147 3053 
L 147 3500 
L 697 3500 
L 697 3744 
Q 697 4328 969 4595 
Q 1241 4863 1831 4863 
L 2375 4863 
z
" transform="scale(0.015625)"/>
      </defs>
      <use xlink:href="#DejaVuSans-6e"/>
      <use xlink:href="#DejaVuSans-75" x="63.378906"/>
      <use xlink:href="#DejaVuSans-6d" x="126.757812"/>
      <use xlink:href="#DejaVuSans-62" x="224.169922"/>
      <use xlink:href="#DejaVuSans-65" x="287.646484"/>
      <use xlink:href="#DejaVuSans-72" x="349.169922"/>
      <use xlink:href="#DejaVuSans-20" x="390.283203"/>
      <use xlink:href="#DejaVuSans-6f" x="422.070312"/>
      <use xlink:href="#DejaVuSans-66" x="483.251953"/>
      <use xlink:href="#DejaVuSans-20" x="518.457031"/>
      <use xlink:href="#DejaVuSans-6d" x="550.244141"/>
      <use xlink:href="#DejaVuSans-75" x="647.65625"/>
      <use xlink:href="#DejaVuSans-74" x="711.035156"/>
      <use xlink:href="#DejaVuSans-61" x="750.244141"/>
      <use xlink:href="#DejaVuSans-74" x="811.523438"/>
      <use xlink:href="#DejaVuSans-69" x="850.732422"/>
      <use xlink:href="#DejaVuSans-6f" x="878.515625"/>
      <use xlink:href="#DejaVuSans-6e" x="939.697266"/>
      <use xlink:href="#DejaVuSans-73" x="1003.076172"/>
     </g>
    </g>
   </g>
   <g id="line2d_13">
    <path d="M 115.8385 301.96 
L 122.894591 301.96 
L 129.950682 301.96 
L 137.006773 301.96 
L 144.062864 301.96 
L 151.118955 301.96 
L 158.175045 301.96 
L 165.231136 301.96 
L 172.287227 301.96 
L 179.343318 301.96 
L 186.399409 301.96 
L 193.4555 301.96 
L 200.511591 301.96 
L 207.567682 301.96 
L 214.623773 301.96 
L 221.679864 301.96 
L 228.735955 301.96 
L 235.792045 301.96 
L 242.848136 301.96 
L 249.904227 301.96 
L 256.960318 301.869311 
L 264.016409 301.96 
L 271.0725 301.778621 
L 278.128591 301.869311 
L 285.184682 301.778621 
L 292.240773 301.597243 
L 299.296864 301.869311 
L 306.352955 301.687932 
L 313.409045 301.778621 
L 320.465136 301.143796 
L 327.521227 301.506553 
L 334.577318 301.506553 
L 341.633409 301.778621 
L 348.6895 301.597243 
L 355.745591 301.597243 
L 362.801682 301.234486 
L 369.857773 301.778621 
L 376.913864 301.687932 
L 383.969955 300.871728 
L 391.026045 301.143796 
L 398.082136 301.143796 
L 405.138227 300.69035 
L 412.194318 300.781039 
L 419.250409 300.781039 
L 426.3065 299.964835 
L 433.362591 300.055525 
L 440.418682 299.511389 
L 447.474773 299.420699 
L 454.530864 298.785874 
L 461.586955 299.239321 
L 468.643045 299.148631 
L 475.699136 297.878981 
L 482.755227 297.153467 
L 489.811318 296.881399 
L 496.867409 296.790709 
L 503.9235 296.427952 
L 510.979591 293.344516 
L 518.035682 292.619001 
L 525.091773 291.44004 
L 532.147864 291.077283 
L 539.203955 286.633507 
L 546.260045 283.55007 
L 553.316136 281.554906 
L 560.372227 279.106294 
L 567.428318 277.201819 
L 574.484409 276.113547 
L 581.5405 270.128053 
L 588.596591 260.242918 
L 595.652682 254.529492 
L 602.708773 248.453308 
L 609.764864 239.747135 
L 616.820955 229.227175 
L 623.877045 223.33237 
L 630.933136 209.638284 
L 637.989227 196.851092 
L 645.045318 180.254948 
L 652.101409 170.641882 
L 659.1575 153.138845 
L 666.213591 135.998566 
L 673.269682 120.853451 
L 680.325773 106.524541 
L 687.381864 87.570475 
L 694.437955 79.136369 
L 701.494045 66.621245 
L 708.550136 58.912654 
L 715.606227 66.530556 
L 722.662318 48.664762 
L 729.718409 58.640586 
L 736.7745 66.077109 
L 743.830591 77.77603 
L 750.886682 71.609157 
L 757.942773 95.279066 
L 764.998864 110.061424 
L 772.054955 127.927217 
L 779.111045 153.682981 
L 786.167136 181.252531 
L 793.223227 202.927275 
L 800.279318 228.683039 
L 807.335409 256.524657 
L 814.3915 264.596005 
" clip-path="url(#p14e13c7f5f)" style="fill: none"/>
    <defs>
     <path id="m5434c43a4c" d="M 0 2 
C 0.530406 2 1.03916 1.789267 1.414214 1.414214 
C 1.789267 1.03916 2 0.530406 2 0 
C 2 -0.530406 1.789267 -1.03916 1.414214 -1.414214 
C 1.03916 -1.789267 0.530406 -2 0 -2 
C -0.530406 -2 -1.03916 -1.789267 -1.414214 -1.414214 
C -1.789267 -1.03916 -2 -0.530406 -2 0 
C -2 0.530406 -1.789267 1.03916 -1.414214 1.414214 
C -1.03916 1.789267 -0.530406 2 0 2 
z
" style="stroke: #000000"/>
    </defs>
    <g clip-path="url(#p14e13c7f5f)">
     <use xlink:href="#m5434c43a4c" x="115.8385" y="301.96" style="stroke: #000000"/>
     <use xlink:href="#m5434c43a4c" x="122.894591" y="301.96" style="stroke: #000000"/>
     <use xlink:href="#m5434c43a4c" x="129.950682" y="301.96" style="stroke: #000000"/>
     <use xlink:href="#m5434c43a4c" x="137.006773" y="301.96" style="stroke: #000000"/>
     <use xlink:href="#m5434c43a4c" x="144.062864" y="301.96" style="stroke: #000000"/>
     <use xlink:href="#m5434c43a4c" x="151.118955" y="301.96" style="stroke: #000000"/>
     <use xlink:href="#m5434c43a4c" x="158.175045" y="301.96" style="stroke: #000000"/>
     <use xlink:href="#m5434c43a4c" x="165.231136" y="301.96" style="stroke: #000000"/>
     <use xlink:href="#m5434c43a4c" x="172.287227" y="301.96" style="stroke: #000000"/>
     <use xlink:href="#m5434c43a4c" x="179.343318" y="301.96" style="stroke: #000000"/>
     <use xlink:href="#m5434c43a4c" x="186.399409" y="301.96" style="stroke: #000000"/>
     <use xlink:href="#m5434c43a4c" x="193.4555" y="301.96" style="stroke: #000000"/>
     <use xlink:href="#m5434c43a4c" x="200.511591" y="301.96" style="stroke: #000000"/>
     <use xlink:href="#m5434c43a4c" x="207.567682" y="301.96" style="stroke: #000000"/>
     <use xlink:href="#m5434c43a4c" x="214.623773" y="301.96" style="stroke: #000000"/>
     <use xlink:href="#m5434c43a4c" x="221.679864" y="301.96" style="stroke: #000000"/>
     <use xlink:href="#m5434c43a4c" x="228.735955" y="301.96" style="stroke: #000000"/>
     <use xlink:href="#m5434c43a4c" x="235.792045" y="301.96" style="stroke: #000000"/>
     <use xlink:href="#m5434c43a4c" x="242.848136" y="301.96" style="stroke: #000000"/>
     <use xlink:href="#m5434c43a4c" x="249.904227" y="301.96" style="stroke: #000000"/>
     <use xlink:href="#m5434c43a4c" x="256.960318" y="301.869311" style="stroke: #000000"/>
     <use xlink:href="#m5434c43a4c" x="264.016409" y="301.96" style="stroke: #000000"/>
     <use xlink:href="#m5434c43a4c" x="271.0725" y="301.778621" style="stroke: #000000"/>
     <use xlink:href="#m5434c43a4c" x="278.128591" y="301.869311" style="stroke: #000000"/>
     <use xlink:href="#m5434c43a4c" x="285.184682" y="301.778621" style="stroke: #000000"/>
     <use xlink:href="#m5434c43a4c" x="292.240773" y="301.597243" style="stroke: #000000"/>
     <use xlink:href="#m5434c43a4c" x="299.296864" y="301.869311" style="stroke: #000000"/>
     <use xlink:href="#m5434c43a4c" x="306.352955" y="301.687932" style="stroke: #000000"/>
     <use xlink:href="#m5434c43a4c" x="313.409045" y="301.778621" style="stroke: #000000"/>
     <use xlink:href="#m5434c43a4c" x="320.465136" y="301.143796" style="stroke: #000000"/>
     <use xlink:href="#m5434c43a4c" x="327.521227" y="301.506553" style="stroke: #000000"/>
     <use xlink:href="#m5434c43a4c" x="334.577318" y="301.506553" style="stroke: #000000"/>
     <use xlink:href="#m5434c43a4c" x="341.633409" y="301.778621" style="stroke: #000000"/>
     <use xlink:href="#m5434c43a4c" x="348.6895" y="301.597243" style="stroke: #000000"/>
     <use xlink:href="#m5434c43a4c" x="355.745591" y="301.597243" style="stroke: #000000"/>
     <use xlink:href="#m5434c43a4c" x="362.801682" y="301.234486" style="stroke: #000000"/>
     <use xlink:href="#m5434c43a4c" x="369.857773" y="301.778621" style="stroke: #000000"/>
     <use xlink:href="#m5434c43a4c" x="376.913864" y="301.687932" style="stroke: #000000"/>
     <use xlink:href="#m5434c43a4c" x="383.969955" y="300.871728" style="stroke: #000000"/>
     <use xlink:href="#m5434c43a4c" x="391.026045" y="301.143796" style="stroke: #000000"/>
     <use xlink:href="#m5434c43a4c" x="398.082136" y="301.143796" style="stroke: #000000"/>
     <use xlink:href="#m5434c43a4c" x="405.138227" y="300.69035" style="stroke: #000000"/>
     <use xlink:href="#m5434c43a4c" x="412.194318" y="300.781039" style="stroke: #000000"/>
     <use xlink:href="#m5434c43a4c" x="419.250409" y="300.781039" style="stroke: #000000"/>
     <use xlink:href="#m5434c43a4c" x="426.3065" y="299.964835" style="stroke: #000000"/>
     <use xlink:href="#m5434c43a4c" x="433.362591" y="300.055525" style="stroke: #000000"/>
     <use xlink:href="#m5434c43a4c" x="440.418682" y="299.511389" style="stroke: #000000"/>
     <use xlink:href="#m5434c43a4c" x="447.474773" y="299.420699" style="stroke: #000000"/>
     <use xlink:href="#m5434c43a4c" x="454.530864" y="298.785874" style="stroke: #000000"/>
     <use xlink:href="#m5434c43a4c" x="461.586955" y="299.239321" style="stroke: #000000"/>
     <use xlink:href="#m5434c43a4c" x="468.643045" y="299.148631" style="stroke: #000000"/>
     <use xlink:href="#m5434c43a4c" x="475.699136" y="297.878981" style="stroke: #000000"/>
     <use xlink:href="#m5434c43a4c" x="482.755227" y="297.153467" style="stroke: #000000"/>
     <use xlink:href="#m5434c43a4c" x="489.811318" y="296.881399" style="stroke: #000000"/>
     <use xlink:href="#m5434c43a4c" x="496.867409" y="296.790709" style="stroke: #000000"/>
     <use xlink:href="#m5434c43a4c" x="503.9235" y="296.427952" style="stroke: #000000"/>
     <use xlink:href="#m5434c43a4c" x="510.979591" y="293.344516" style="stroke: #000000"/>
     <use xlink:href="#m5434c43a4c" x="518.035682" y="292.619001" style="stroke: #000000"/>
     <use xlink:href="#m5434c43a4c" x="525.091773" y="291.44004" style="stroke: #000000"/>
     <use xlink:href="#m5434c43a4c" x="532.147864" y="291.077283" style="stroke: #000000"/>
     <use xlink:href="#m5434c43a4c" x="539.203955" y="286.633507" style="stroke: #000000"/>
     <use xlink:href="#m5434c43a4c" x="546.260045" y="283.55007" style="stroke: #000000"/>
     <use xlink:href="#m5434c43a4c" x="553.316136" y="281.554906" style="stroke: #000000"/>
     <use xlink:href="#m5434c43a4c" x="560.372227" y="279.106294" style="stroke: #000000"/>
     <use xlink:href="#m5434c43a4c" x="567.428318" y="277.201819" style="stroke: #000000"/>
     <use xlink:href="#m5434c43a4c" x="574.484409" y="276.113547" style="stroke: #000000"/>
     <use xlink:href="#m5434c43a4c" x="581.5405" y="270.128053" style="stroke: #000000"/>
     <use xlink:href="#m5434c43a4c" x="588.596591" y="260.242918" style="stroke: #000000"/>
     <use xlink:href="#m5434c43a4c" x="595.652682" y="254.529492" style="stroke: #000000"/>
     <use xlink:href="#m5434c43a4c" x="602.708773" y="248.453308" style="stroke: #000000"/>
     <use xlink:href="#m5434c43a4c" x="609.764864" y="239.747135" style="stroke: #000000"/>
     <use xlink:href="#m5434c43a4c" x="616.820955" y="229.227175" style="stroke: #000000"/>
     <use xlink:href="#m5434c43a4c" x="623.877045" y="223.33237" style="stroke: #000000"/>
     <use xlink:href="#m5434c43a4c" x="630.933136" y="209.638284" style="stroke: #000000"/>
     <use xlink:href="#m5434c43a4c" x="637.989227" y="196.851092" style="stroke: #000000"/>
     <use xlink:href="#m5434c43a4c" x="645.045318" y="180.254948" style="stroke: #000000"/>
     <use xlink:href="#m5434c43a4c" x="652.101409" y="170.641882" style="stroke: #000000"/>
     <use xlink:href="#m5434c43a4c" x="659.1575" y="153.138845" style="stroke: #000000"/>
     <use xlink:href="#m5434c43a4c" x="666.213591" y="135.998566" style="stroke: #000000"/>
     <use xlink:href="#m5434c43a4c" x="673.269682" y="120.853451" style="stroke: #000000"/>
     <use xlink:href="#m5434c43a4c" x="680.325773" y="106.524541" style="stroke: #000000"/>
     <use xlink:href="#m5434c43a4c" x="687.381864" y="87.570475" style="stroke: #000000"/>
     <use xlink:href="#m5434c43a4c" x="694.437955" y="79.136369" style="stroke: #000000"/>
     <use xlink:href="#m5434c43a4c" x="701.494045" y="66.621245" style="stroke: #000000"/>
     <use xlink:href="#m5434c43a4c" x="708.550136" y="58.912654" style="stroke: #000000"/>
     <use xlink:href="#m5434c43a4c" x="715.606227" y="66.530556" style="stroke: #000000"/>
     <use xlink:href="#m5434c43a4c" x="722.662318" y="48.664762" style="stroke: #000000"/>
     <use xlink:href="#m5434c43a4c" x="729.718409" y="58.640586" style="stroke: #000000"/>
     <use xlink:href="#m5434c43a4c" x="736.7745" y="66.077109" style="stroke: #000000"/>
     <use xlink:href="#m5434c43a4c" x="743.830591" y="77.77603" style="stroke: #000000"/>
     <use xlink:href="#m5434c43a4c" x="750.886682" y="71.609157" style="stroke: #000000"/>
     <use xlink:href="#m5434c43a4c" x="757.942773" y="95.279066" style="stroke: #000000"/>
     <use xlink:href="#m5434c43a4c" x="764.998864" y="110.061424" style="stroke: #000000"/>
     <use xlink:href="#m5434c43a4c" x="772.054955" y="127.927217" style="stroke: #000000"/>
     <use xlink:href="#m5434c43a4c" x="779.111045" y="153.682981" style="stroke: #000000"/>
     <use xlink:href="#m5434c43a4c" x="786.167136" y="181.252531" style="stroke: #000000"/>
     <use xlink:href="#m5434c43a4c" x="793.223227" y="202.927275" style="stroke: #000000"/>
     <use xlink:href="#m5434c43a4c" x="800.279318" y="228.683039" style="stroke: #000000"/>
     <use xlink:href="#m5434c43a4c" x="807.335409" y="256.524657" style="stroke: #000000"/>
     <use xlink:href="#m5434c43a4c" x="814.3915" y="264.596005" style="stroke: #000000"/>
    </g>
   </g>
   <g id="patch_103">
    <path d="M 77.03 301.96 
L 77.03 36 
" style="fill: none; stroke: #000000; stroke-width: 0.8; stroke-linejoin: miter; stroke-linecap: square"/>
   </g>
   <g id="patch_104">
    <path d="M 853.2 301.96 
L 853.2 36 
" style="fill: none; stroke: #000000; stroke-width: 0.8; stroke-linejoin: miter; stroke-linecap: square"/>
   </g>
   <g id="patch_105">
    <path d="M 77.03 301.96 
L 853.2 301.96 
" style="fill: none; stroke: #000000; stroke-width: 0.8; stroke-linejoin: miter; stroke-linecap: square"/>
   </g>
   <g id="patch_106">
    <path d="M 77.03 36 
L 853.2 36 
" style="fill: none; stroke: #000000; stroke-width: 0.8; stroke-linejoin: miter; stroke-linecap: square"/>
   </g>
   <g id="legend_1">
    <g id="patch_107">
     <path d="M 87.53 92.034375 
L 207.701094 92.034375 
Q 210.701094 92.034375 210.701094 89.034375 
L 210.701094 46.5 
Q 210.701094 43.5 207.701094 43.5 
L 87.53 43.5 
Q 84.53 43.5 84.53 46.5 
L 84.53 89.034375 
Q 84.53 92.034375 87.53 92.034375 
z
" style="fill: #ffffff; opacity: 0.8; stroke: #cccccc; stroke-linejoin: miter"/>
    </g>
    <g id="patch_108">
     <path d="M 90.53 60.897656 
L 120.53 60.897656 
L 120.53 50.397656 
L 90.53 50.397656 
z
" style="fill: #ffffff; stroke: #0072b2; stroke-linejoin: miter"/>
    </g>
    <g id="text_15">
     <!-- Expected -->
     <g transform="translate(132.53 60.897656) scale(0.15 -0.15)">
      <defs>
       <path id="DejaVuSans-45" d="M 628 4666 
L 3578 4666 
L 3578 4134 
L 1259 4134 
L 1259 2753 
L 3481 2753 
L 3481 2222 
L 1259 2222 
L 1259 531 
L 3634 531 
L 3634 0 
L 628 0 
L 628 4666 
z
" transform="scale(0.015625)"/>
       <path id="DejaVuSans-78" d="M 3513 3500 
L 2247 1797 
L 3578 0 
L 2900 0 
L 1881 1375 
L 863 0 
L 184 0 
L 1544 1831 
L 300 3500 
L 978 3500 
L 1906 2253 
L 2834 3500 
L 3513 3500 
z
" transform="scale(0.015625)"/>
      </defs>
      <use xlink:href="#DejaVuSans-45"/>
      <use xlink:href="#DejaVuSans-78" x="63.183594"/>
      <use xlink:href="#DejaVuSans-70" x="122.363281"/>
      <use xlink:href="#DejaVuSans-65" x="185.839844"/>
      <use xlink:href="#DejaVuSans-63" x="247.363281"/>
      <use xlink:href="#DejaVuSans-74" x="302.34375"/>
      <use xlink:href="#DejaVuSans-65" x="341.552734"/>
      <use xlink:href="#DejaVuSans-64" x="403.076172"/>
     </g>
    </g>
    <g id="line2d_14">
     <path d="M 90.53 77.664844 
L 105.53 77.664844 
L 120.53 77.664844 
" style="fill: none"/>
     <g>
      <use xlink:href="#m5434c43a4c" x="105.53" y="77.664844" style="stroke: #000000"/>
     </g>
    </g>
    <g id="text_16">
     <!-- Observed -->
     <g transform="translate(132.53 82.914844) scale(0.15 -0.15)">
      <defs>
       <path id="DejaVuSans-4f" d="M 2522 4238 
Q 1834 4238 1429 3725 
Q 1025 3213 1025 2328 
Q 1025 1447 1429 934 
Q 1834 422 2522 422 
Q 3209 422 3611 934 
Q 4013 1447 4013 2328 
Q 4013 3213 3611 3725 
Q 3209 4238 2522 4238 
z
M 2522 4750 
Q 3503 4750 4090 4092 
Q 4678 3434 4678 2328 
Q 4678 1225 4090 567 
Q 3503 -91 2522 -91 
Q 1538 -91 948 565 
Q 359 1222 359 2328 
Q 359 3434 948 4092 
Q 1538 4750 2522 4750 
z
" transform="scale(0.015625)"/>
       <path id="DejaVuSans-76" d="M 191 3500 
L 800 3500 
L 1894 563 
L 2988 3500 
L 3597 3500 
L 2284 0 
L 1503 0 
L 191 3500 
z
" transform="scale(0.015625)"/>
      </defs>
      <use xlink:href="#DejaVuSans-4f"/>
      <use xlink:href="#DejaVuSans-62" x="78.710938"/>
      <use xlink:href="#DejaVuSans-73" x="142.1875"/>
      <use xlink:href="#DejaVuSans-65" x="194.287109"/>
      <use xlink:href="#DejaVuSans-72" x="255.810547"/>
      <use xlink:href="#DejaVuSans-76" x="296.923828"/>
      <use xlink:href="#DejaVuSans-65" x="356.103516"/>
      <use xlink:href="#DejaVuSans-64" x="417.626953"/>
     </g>
    </g>
   </g>
  </g>
  <g id="text_17">
   <!-- 1m-+2 on v1rodriguezV34 sampled 10k; overlap=0.979, residual=0.00683 -->
   <g transform="translate(130.52875 19.3575) scale(0.16 -0.16)">
    <defs>
     <path id="DejaVuSans-2d" d="M 313 2009 
L 1997 2009 
L 1997 1497 
L 313 1497 
L 313 2009 
z
" transform="scale(0.015625)"/>
     <path id="DejaVuSans-2b" d="M 2944 4013 
L 2944 2272 
L 4684 2272 
L 4684 1741 
L 2944 1741 
L 2944 0 
L 2419 0 
L 2419 1741 
L 678 1741 
L 678 2272 
L 2419 2272 
L 2419 4013 
L 2944 4013 
z
" transform="scale(0.015625)"/>
     <path id="DejaVuSans-7a" d="M 353 3500 
L 3084 3500 
L 3084 2975 
L 922 459 
L 3084 459 
L 3084 0 
L 275 0 
L 275 525 
L 2438 3041 
L 353 3041 
L 353 3500 
z
" transform="scale(0.015625)"/>
     <path id="DejaVuSans-56" d="M 1831 0 
L 50 4666 
L 709 4666 
L 2188 738 
L 3669 4666 
L 4325 4666 
L 2547 0 
L 1831 0 
z
" transform="scale(0.015625)"/>
     <path id="DejaVuSans-6b" d="M 581 4863 
L 1159 4863 
L 1159 1991 
L 2875 3500 
L 3609 3500 
L 1753 1863 
L 3688 0 
L 2938 0 
L 1159 1709 
L 1159 0 
L 581 0 
L 581 4863 
z
" transform="scale(0.015625)"/>
     <path id="DejaVuSans-3b" d="M 750 3309 
L 1409 3309 
L 1409 2516 
L 750 2516 
L 750 3309 
z
M 750 794 
L 1409 794 
L 1409 256 
L 897 -744 
L 494 -744 
L 750 256 
L 750 794 
z
" transform="scale(0.015625)"/>
     <path id="DejaVuSans-3d" d="M 678 2906 
L 4684 2906 
L 4684 2381 
L 678 2381 
L 678 2906 
z
M 678 1631 
L 4684 1631 
L 4684 1100 
L 678 1100 
L 678 1631 
z
" transform="scale(0.015625)"/>
     <path id="DejaVuSans-2e" d="M 684 794 
L 1344 794 
L 1344 0 
L 684 0 
L 684 794 
z
" transform="scale(0.015625)"/>
     <path id="DejaVuSans-39" d="M 703 97 
L 703 672 
Q 941 559 1184 500 
Q 1428 441 1663 441 
Q 2288 441 2617 861 
Q 2947 1281 2994 2138 
Q 2813 1869 2534 1725 
Q 2256 1581 1919 1581 
Q 1219 1581 811 2004 
Q 403 2428 403 3163 
Q 403 3881 828 4315 
Q 1253 4750 1959 4750 
Q 2769 4750 3195 4129 
Q 3622 3509 3622 2328 
Q 3622 1225 3098 567 
Q 2575 -91 1691 -91 
Q 1453 -91 1209 -44 
Q 966 3 703 97 
z
M 1959 2075 
Q 2384 2075 2632 2365 
Q 2881 2656 2881 3163 
Q 2881 3666 2632 3958 
Q 2384 4250 1959 4250 
Q 1534 4250 1286 3958 
Q 1038 3666 1038 3163 
Q 1038 2656 1286 2365 
Q 1534 2075 1959 2075 
z
" transform="scale(0.015625)"/>
     <path id="DejaVuSans-37" d="M 525 4666 
L 3525 4666 
L 3525 4397 
L 1831 0 
L 1172 0 
L 2766 4134 
L 525 4134 
L 525 4666 
z
" transform="scale(0.015625)"/>
     <path id="DejaVuSans-2c" d="M 750 794 
L 1409 794 
L 1409 256 
L 897 -744 
L 494 -744 
L 750 256 
L 750 794 
z
" transform="scale(0.015625)"/>
     <path id="DejaVuSans-36" d="M 2113 2584 
Q 1688 2584 1439 2293 
Q 1191 2003 1191 1497 
Q 1191 994 1439 701 
Q 1688 409 2113 409 
Q 2538 409 2786 701 
Q 3034 994 3034 1497 
Q 3034 2003 2786 2293 
Q 2538 2584 2113 2584 
z
M 3366 4563 
L 3366 3988 
Q 3128 4100 2886 4159 
Q 2644 4219 2406 4219 
Q 1781 4219 1451 3797 
Q 1122 3375 1075 2522 
Q 1259 2794 1537 2939 
Q 1816 3084 2150 3084 
Q 2853 3084 3261 2657 
Q 3669 2231 3669 1497 
Q 3669 778 3244 343 
Q 2819 -91 2113 -91 
Q 1303 -91 875 529 
Q 447 1150 447 2328 
Q 447 3434 972 4092 
Q 1497 4750 2381 4750 
Q 2619 4750 2861 4703 
Q 3103 4656 3366 4563 
z
" transform="scale(0.015625)"/>
     <path id="DejaVuSans-38" d="M 2034 2216 
Q 1584 2216 1326 1975 
Q 1069 1734 1069 1313 
Q 1069 891 1326 650 
Q 1584 409 2034 409 
Q 2484 409 2743 651 
Q 3003 894 3003 1313 
Q 3003 1734 2745 1975 
Q 2488 2216 2034 2216 
z
M 1403 2484 
Q 997 2584 770 2862 
Q 544 3141 544 3541 
Q 544 4100 942 4425 
Q 1341 4750 2034 4750 
Q 2731 4750 3128 4425 
Q 3525 4100 3525 3541 
Q 3525 3141 3298 2862 
Q 3072 2584 2669 2484 
Q 3125 2378 3379 2068 
Q 3634 1759 3634 1313 
Q 3634 634 3220 271 
Q 2806 -91 2034 -91 
Q 1263 -91 848 271 
Q 434 634 434 1313 
Q 434 1759 690 2068 
Q 947 2378 1403 2484 
z
M 1172 3481 
Q 1172 3119 1398 2916 
Q 1625 2713 2034 2713 
Q 2441 2713 2670 2916 
Q 2900 3119 2900 3481 
Q 2900 3844 2670 4047 
Q 2441 4250 2034 4250 
Q 1625 4250 1398 4047 
Q 1172 3844 1172 3481 
z
" transform="scale(0.015625)"/>
    </defs>
    <use xlink:href="#DejaVuSans-31"/>
    <use xlink:href="#DejaVuSans-6d" x="63.623047"/>
    <use xlink:href="#DejaVuSans-2d" x="161.035156"/>
    <use xlink:href="#DejaVuSans-2b" x="197.119141"/>
    <use xlink:href="#DejaVuSans-32" x="280.908203"/>
    <use xlink:href="#DejaVuSans-20" x="344.53125"/>
    <use xlink:href="#DejaVuSans-6f" x="376.318359"/>
    <use xlink:href="#DejaVuSans-6e" x="437.5"/>
    <use xlink:href="#DejaVuSans-20" x="500.878906"/>
    <use xlink:href="#DejaVuSans-76" x="532.666016"/>
    <use xlink:href="#DejaVuSans-31" x="591.845703"/>
    <use xlink:href="#DejaVuSans-72" x="655.46875"/>
    <use xlink:href="#DejaVuSans-6f" x="694.332031"/>
    <use xlink:href="#DejaVuSans-64" x="755.513672"/>
    <use xlink:href="#DejaVuSans-72" x="818.990234"/>
    <use xlink:href="#DejaVuSans-69" x="860.103516"/>
    <use xlink:href="#DejaVuSans-67" x="887.886719"/>
    <use xlink:href="#DejaVuSans-75" x="951.363281"/>
    <use xlink:href="#DejaVuSans-65" x="1014.742188"/>
    <use xlink:href="#DejaVuSans-7a" x="1076.265625"/>
    <use xlink:href="#DejaVuSans-56" x="1128.755859"/>
    <use xlink:href="#DejaVuSans-33" x="1197.164062"/>
    <use xlink:href="#DejaVuSans-34" x="1260.787109"/>
    <use xlink:href="#DejaVuSans-20" x="1324.410156"/>
    <use xlink:href="#DejaVuSans-73" x="1356.197266"/>
    <use xlink:href="#DejaVuSans-61" x="1408.296875"/>
    <use xlink:href="#DejaVuSans-6d" x="1469.576172"/>
    <use xlink:href="#DejaVuSans-70" x="1566.988281"/>
    <use xlink:href="#DejaVuSans-6c" x="1630.464844"/>
    <use xlink:href="#DejaVuSans-65" x="1658.248047"/>
    <use xlink:href="#DejaVuSans-64" x="1719.771484"/>
    <use xlink:href="#DejaVuSans-20" x="1783.248047"/>
    <use xlink:href="#DejaVuSans-31" x="1815.035156"/>
    <use xlink:href="#DejaVuSans-30" x="1878.658203"/>
    <use xlink:href="#DejaVuSans-6b" x="1942.28125"/>
    <use xlink:href="#DejaVuSans-3b" x="2000.191406"/>
    <use xlink:href="#DejaVuSans-20" x="2033.882812"/>
    <use xlink:href="#DejaVuSans-6f" x="2065.669922"/>
    <use xlink:href="#DejaVuSans-76" x="2126.851562"/>
    <use xlink:href="#DejaVuSans-65" x="2186.03125"/>
    <use xlink:href="#DejaVuSans-72" x="2247.554688"/>
    <use xlink:href="#DejaVuSans-6c" x="2288.667969"/>
    <use xlink:href="#DejaVuSans-61" x="2316.451172"/>
    <use xlink:href="#DejaVuSans-70" x="2377.730469"/>
    <use xlink:href="#DejaVuSans-3d" x="2441.207031"/>
    <use xlink:href="#DejaVuSans-30" x="2524.996094"/>
    <use xlink:href="#DejaVuSans-2e" x="2588.619141"/>
    <use xlink:href="#DejaVuSans-39" x="2620.40625"/>
    <use xlink:href="#DejaVuSans-37" x="2684.029297"/>
    <use xlink:href="#DejaVuSans-39" x="2747.652344"/>
    <use xlink:href="#DejaVuSans-2c" x="2811.275391"/>
    <use xlink:href="#DejaVuSans-20" x="2843.0625"/>
    <use xlink:href="#DejaVuSans-72" x="2874.849609"/>
    <use xlink:href="#DejaVuSans-65" x="2913.712891"/>
    <use xlink:href="#DejaVuSans-73" x="2975.236328"/>
    <use xlink:href="#DejaVuSans-69" x="3027.335938"/>
    <use xlink:href="#DejaVuSans-64" x="3055.119141"/>
    <use xlink:href="#DejaVuSans-75" x="3118.595703"/>
    <use xlink:href="#DejaVuSans-61" x="3181.974609"/>
    <use xlink:href="#DejaVuSans-6c" x="3243.253906"/>
    <use xlink:href="#DejaVuSans-3d" x="3271.037109"/>
    <use xlink:href="#DejaVuSans-30" x="3354.826172"/>
    <use xlink:href="#DejaVuSans-2e" x="3418.449219"/>
    <use xlink:href="#DejaVuSans-30" x="3450.236328"/>
    <use xlink:href="#DejaVuSans-30" x="3513.859375"/>
    <use xlink:href="#DejaVuSans-36" x="3577.482422"/>
    <use xlink:href="#DejaVuSans-38" x="3641.105469"/>
    <use xlink:href="#DejaVuSans-33" x="3704.728516"/>
   </g>
  </g>
 </g>
 <defs>
  <clipPath id="p14e13c7f5f">
   <rect x="77.03" y="36" width="776.17" height="265.96"/>
  </clipPath>
 </defs>
 <defs>
  <pattern id="h863523f555" patternUnits="userSpaceOnUse" x="0" y="0" width="72" height="72">
   <rect x="0" y="0" width="73" height="73" fill="none"/>
   <path d="M -36 36 
L 36 -36 
M -34 38 
L 38 -34 
M -32 40 
L 40 -32 
M -30 42 
L 42 -30 
M -28 44 
L 44 -28 
M -26 46 
L 46 -26 
M -24 48 
L 48 -24 
M -22 50 
L 50 -22 
M -20 52 
L 52 -20 
M -18 54 
L 54 -18 
M -16 56 
L 56 -16 
M -14 58 
L 58 -14 
M -12 60 
L 60 -12 
M -10 62 
L 62 -10 
M -8 64 
L 64 -8 
M -6 66 
L 66 -6 
M -4 68 
L 68 -4 
M -2 70 
L 70 -2 
M 0 72 
L 72 0 
M 2 74 
L 74 2 
M 4 76 
L 76 4 
M 6 78 
L 78 6 
M 8 80 
L 80 8 
M 10 82 
L 82 10 
M 12 84 
L 84 12 
M 14 86 
L 86 14 
M 16 88 
L 88 16 
M 18 90 
L 90 18 
M 20 92 
L 92 20 
M 22 94 
L 94 22 
M 24 96 
L 96 24 
M 26 98 
L 98 26 
M 28 100 
L 100 28 
M 30 102 
L 102 30 
M 32 104 
L 104 32 
M 34 106 
L 106 34 
M 36 108 
L 108 36 
" style="fill: #808080; stroke: #808080; stroke-width: 1.0; stroke-linecap: butt; stroke-linejoin: miter"/>
  </pattern>
 </defs>
</svg>
