<?xml version="1.0" encoding="utf-8" standalone="no"?>
<!DOCTYPE svg PUBLIC "-//W3C//DTD SVG 1.1//EN"
  "http://www.w3.org/Graphics/SVG/1.1/DTD/svg11.dtd">
<svg xmlns:xlink="http://www.w3.org/1999/xlink" width="864pt" height="360pt" viewBox="0 0 864 360" xmlns="http://www.w3.org/2000/svg" version="1.1">
 <metadata>
  <rdf:RDF xmlns:dc="http://purl.org/dc/elements/1.1/" xmlns:cc="http://creativecommons.org/ns#" xmlns:rdf="http://www.w3.org/1999/02/22-rdf-syntax-ns#">
   <cc:Work>
    <dc:type rdf:resource="http://purl.org/dc/dcmitype/StillImage"/>
    <dc:date>2024-06-11T05:22:42.604505</dc:date>
    <dc:format>image/svg+xml</dc:format>
    <dc:creator>
     <cc:Agent>
      <dc:title>Matplotlib v3.9.0, https://matplotlib.org/</dc:title>
     </cc:Agent>
    </dc:creator>
   </cc:Work>
  </rdf:RDF>
 </metadata>
 <defs>
  <style type="text/css">*{stroke-linejoin: round; stroke-linecap: butt}</style>
 </defs>
 <g id="figure_1">
  <g id="patch_1">
   <path d="M 0 360 
L 864 360 
L 864 0 
L 0 0 
z
" style="fill: #ffffff"/>
  </g>
  <g id="axes_1">
   <g id="patch_2">
    <path d="M 88.91 332.12 
L 853.2 332.12 
L 853.2 36 
L 88.91 36 
z
" style="fill: #ffffff"/>
   </g>
   <g id="patch_3">
    <path d="M 123.650455 332.12 
L 130.598545 332.12 
L 130.598545 332.119998 
L 123.650455 332.119998 
z
" clip-path="url(#pa743c1ff07)" style="fill: #ffffff; stroke: #0072b2; stroke-linejoin: miter"/>
   </g>
   <g id="patch_4">
    <path d="M 130.598545 332.12 
L 137.546636 332.12 
L 137.546636 332.119988 
L 130.598545 332.119988 
z
" clip-path="url(#pa743c1ff07)" style="fill: #ffffff; stroke: #0072b2; stroke-linejoin: miter"/>
   </g>
   <g id="patch_5">
    <path d="M 137.546636 332.12 
L 144.494727 332.12 
L 144.494727 332.119969 
L 137.546636 332.119969 
z
" clip-path="url(#pa743c1ff07)" style="fill: #ffffff; stroke: #0072b2; stroke-linejoin: miter"/>
   </g>
   <g id="patch_6">
    <path d="M 144.494727 332.12 
L 151.442818 332.12 
L 151.442818 332.119942 
L 144.494727 332.119942 
z
" clip-path="url(#pa743c1ff07)" style="fill: #ffffff; stroke: #0072b2; stroke-linejoin: miter"/>
   </g>
   <g id="patch_7">
    <path d="M 151.442818 332.12 
L 158.390909 332.12 
L 158.390909 332.119894 
L 151.442818 332.119894 
z
" clip-path="url(#pa743c1ff07)" style="fill: #ffffff; stroke: #0072b2; stroke-linejoin: miter"/>
   </g>
   <g id="patch_8">
    <path d="M 158.390909 332.12 
L 165.339 332.12 
L 165.339 332.119889 
L 158.390909 332.119889 
z
" clip-path="url(#pa743c1ff07)" style="fill: #ffffff; stroke: #0072b2; stroke-linejoin: miter"/>
   </g>
   <g id="patch_9">
    <path d="M 165.339 332.12 
L 172.287091 332.12 
L 172.287091 332.119863 
L 165.339 332.119863 
z
" clip-path="url(#pa743c1ff07)" style="fill: #ffffff; stroke: #0072b2; stroke-linejoin: miter"/>
   </g>
   <g id="patch_10">
    <path d="M 172.287091 332.12 
L 179.235182 332.12 
L 179.235182 332.11976 
L 172.287091 332.11976 
z
" clip-path="url(#pa743c1ff07)" style="fill: #ffffff; stroke: #0072b2; stroke-linejoin: miter"/>
   </g>
   <g id="patch_11">
    <path d="M 179.235182 332.12 
L 186.183273 332.12 
L 186.183273 332.119757 
L 179.235182 332.119757 
z
" clip-path="url(#pa743c1ff07)" style="fill: #ffffff; stroke: #0072b2; stroke-linejoin: miter"/>
   </g>
   <g id="patch_12">
    <path d="M 186.183273 332.12 
L 193.131364 332.12 
L 193.131364 332.11978 
L 186.183273 332.11978 
z
" clip-path="url(#pa743c1ff07)" style="fill: #ffffff; stroke: #0072b2; stroke-linejoin: miter"/>
   </g>
   <g id="patch_13">
    <path d="M 193.131364 332.12 
L 200.079455 332.12 
L 200.079455 332.119767 
L 193.131364 332.119767 
z
" clip-path="url(#pa743c1ff07)" style="fill: #ffffff; stroke: #0072b2; stroke-linejoin: miter"/>
   </g>
   <g id="patch_14">
    <path d="M 200.079455 332.12 
L 207.027545 332.12 
L 207.027545 332.119748 
L 200.079455 332.119748 
z
" clip-path="url(#pa743c1ff07)" style="fill: #ffffff; stroke: #0072b2; stroke-linejoin: miter"/>
   </g>
   <g id="patch_15">
    <path d="M 207.027545 332.12 
L 213.975636 332.12 
L 213.975636 332.119615 
L 207.027545 332.119615 
z
" clip-path="url(#pa743c1ff07)" style="fill: #ffffff; stroke: #0072b2; stroke-linejoin: miter"/>
   </g>
   <g id="patch_16">
    <path d="M 213.975636 332.12 
L 220.923727 332.12 
L 220.923727 332.119567 
L 213.975636 332.119567 
z
" clip-path="url(#pa743c1ff07)" style="fill: #ffffff; stroke: #0072b2; stroke-linejoin: miter"/>
   </g>
   <g id="patch_17">
    <path d="M 220.923727 332.12 
L 227.871818 332.12 
L 227.871818 332.119516 
L 220.923727 332.119516 
z
" clip-path="url(#pa743c1ff07)" style="fill: #ffffff; stroke: #0072b2; stroke-linejoin: miter"/>
   </g>
   <g id="patch_18">
    <path d="M 227.871818 332.12 
L 234.819909 332.12 
L 234.819909 332.119367 
L 227.871818 332.119367 
z
" clip-path="url(#pa743c1ff07)" style="fill: #ffffff; stroke: #0072b2; stroke-linejoin: miter"/>
   </g>
   <g id="patch_19">
    <path d="M 234.819909 332.12 
L 241.768 332.12 
L 241.768 332.119226 
L 234.819909 332.119226 
z
" clip-path="url(#pa743c1ff07)" style="fill: #ffffff; stroke: #0072b2; stroke-linejoin: miter"/>
   </g>
   <g id="patch_20">
    <path d="M 241.768 332.12 
L 248.716091 332.12 
L 248.716091 332.119021 
L 241.768 332.119021 
z
" clip-path="url(#pa743c1ff07)" style="fill: #ffffff; stroke: #0072b2; stroke-linejoin: miter"/>
   </g>
   <g id="patch_21">
    <path d="M 248.716091 332.12 
L 255.664182 332.12 
L 255.664182 332.118839 
L 248.716091 332.118839 
z
" clip-path="url(#pa743c1ff07)" style="fill: #ffffff; stroke: #0072b2; stroke-linejoin: miter"/>
   </g>
   <g id="patch_22">
    <path d="M 255.664182 332.12 
L 262.612273 332.12 
L 262.612273 332.118551 
L 255.664182 332.118551 
z
" clip-path="url(#pa743c1ff07)" style="fill: #ffffff; stroke: #0072b2; stroke-linejoin: miter"/>
   </g>
   <g id="patch_23">
    <path d="M 262.612273 332.12 
L 269.560364 332.12 
L 269.560364 332.11814 
L 262.612273 332.11814 
z
" clip-path="url(#pa743c1ff07)" style="fill: #ffffff; stroke: #0072b2; stroke-linejoin: miter"/>
   </g>
   <g id="patch_24">
    <path d="M 269.560364 332.12 
L 276.508455 332.12 
L 276.508455 332.117658 
L 269.560364 332.117658 
z
" clip-path="url(#pa743c1ff07)" style="fill: #ffffff; stroke: #0072b2; stroke-linejoin: miter"/>
   </g>
   <g id="patch_25">
    <path d="M 276.508455 332.12 
L 283.456545 332.12 
L 283.456545 332.11719 
L 276.508455 332.11719 
z
" clip-path="url(#pa743c1ff07)" style="fill: #ffffff; stroke: #0072b2; stroke-linejoin: miter"/>
   </g>
   <g id="patch_26">
    <path d="M 283.456545 332.12 
L 290.404636 332.12 
L 290.404636 332.11663 
L 283.456545 332.11663 
z
" clip-path="url(#pa743c1ff07)" style="fill: #ffffff; stroke: #0072b2; stroke-linejoin: miter"/>
   </g>
   <g id="patch_27">
    <path d="M 290.404636 332.12 
L 297.352727 332.12 
L 297.352727 332.1158 
L 290.404636 332.1158 
z
" clip-path="url(#pa743c1ff07)" style="fill: #ffffff; stroke: #0072b2; stroke-linejoin: miter"/>
   </g>
   <g id="patch_28">
    <path d="M 297.352727 332.12 
L 304.300818 332.12 
L 304.300818 332.114853 
L 297.352727 332.114853 
z
" clip-path="url(#pa743c1ff07)" style="fill: #ffffff; stroke: #0072b2; stroke-linejoin: miter"/>
   </g>
   <g id="patch_29">
    <path d="M 304.300818 332.12 
L 311.248909 332.12 
L 311.248909 332.1132 
L 304.300818 332.1132 
z
" clip-path="url(#pa743c1ff07)" style="fill: #ffffff; stroke: #0072b2; stroke-linejoin: miter"/>
   </g>
   <g id="patch_30">
    <path d="M 311.248909 332.12 
L 318.197 332.12 
L 318.197 332.111744 
L 311.248909 332.111744 
z
" clip-path="url(#pa743c1ff07)" style="fill: #ffffff; stroke: #0072b2; stroke-linejoin: miter"/>
   </g>
   <g id="patch_31">
    <path d="M 318.197 332.12 
L 325.145091 332.12 
L 325.145091 332.109909 
L 318.197 332.109909 
z
" clip-path="url(#pa743c1ff07)" style="fill: #ffffff; stroke: #0072b2; stroke-linejoin: miter"/>
   </g>
   <g id="patch_32">
    <path d="M 325.145091 332.12 
L 332.093182 332.12 
L 332.093182 332.108053 
L 325.145091 332.108053 
z
" clip-path="url(#pa743c1ff07)" style="fill: #ffffff; stroke: #0072b2; stroke-linejoin: miter"/>
   </g>
   <g id="patch_33">
    <path d="M 332.093182 332.12 
L 339.041273 332.12 
L 339.041273 332.104336 
L 332.093182 332.104336 
z
" clip-path="url(#pa743c1ff07)" style="fill: #ffffff; stroke: #0072b2; stroke-linejoin: miter"/>
   </g>
   <g id="patch_34">
    <path d="M 339.041273 332.12 
L 345.989364 332.12 
L 345.989364 332.102382 
L 339.041273 332.102382 
z
" clip-path="url(#pa743c1ff07)" style="fill: #ffffff; stroke: #0072b2; stroke-linejoin: miter"/>
   </g>
   <g id="patch_35">
    <path d="M 345.989364 332.12 
L 352.937455 332.12 
L 352.937455 332.098211 
L 345.989364 332.098211 
z
" clip-path="url(#pa743c1ff07)" style="fill: #ffffff; stroke: #0072b2; stroke-linejoin: miter"/>
   </g>
   <g id="patch_36">
    <path d="M 352.937455 332.12 
L 359.885545 332.12 
L 359.885545 332.093239 
L 352.937455 332.093239 
z
" clip-path="url(#pa743c1ff07)" style="fill: #ffffff; stroke: #0072b2; stroke-linejoin: miter"/>
   </g>
   <g id="patch_37">
    <path d="M 359.885545 332.12 
L 366.833636 332.12 
L 366.833636 332.087228 
L 359.885545 332.087228 
z
" clip-path="url(#pa743c1ff07)" style="fill: #ffffff; stroke: #0072b2; stroke-linejoin: miter"/>
   </g>
   <g id="patch_38">
    <path d="M 366.833636 332.12 
L 373.781727 332.12 
L 373.781727 332.080032 
L 366.833636 332.080032 
z
" clip-path="url(#pa743c1ff07)" style="fill: #ffffff; stroke: #0072b2; stroke-linejoin: miter"/>
   </g>
   <g id="patch_39">
    <path d="M 373.781727 332.12 
L 380.729818 332.12 
L 380.729818 332.070099 
L 373.781727 332.070099 
z
" clip-path="url(#pa743c1ff07)" style="fill: #ffffff; stroke: #0072b2; stroke-linejoin: miter"/>
   </g>
   <g id="patch_40">
    <path d="M 380.729818 332.12 
L 387.677909 332.12 
L 387.677909 332.054567 
L 380.729818 332.054567 
z
" clip-path="url(#pa743c1ff07)" style="fill: #ffffff; stroke: #0072b2; stroke-linejoin: miter"/>
   </g>
   <g id="patch_41">
    <path d="M 387.677909 332.12 
L 394.626 332.12 
L 394.626 332.034472 
L 387.677909 332.034472 
z
" clip-path="url(#pa743c1ff07)" style="fill: #ffffff; stroke: #0072b2; stroke-linejoin: miter"/>
   </g>
   <g id="patch_42">
    <path d="M 394.626 332.12 
L 401.574091 332.12 
L 401.574091 332.008007 
L 394.626 332.008007 
z
" clip-path="url(#pa743c1ff07)" style="fill: #ffffff; stroke: #0072b2; stroke-linejoin: miter"/>
   </g>
   <g id="patch_43">
    <path d="M 401.574091 332.12 
L 408.522182 332.12 
L 408.522182 331.970082 
L 401.574091 331.970082 
z
" clip-path="url(#pa743c1ff07)" style="fill: #ffffff; stroke: #0072b2; stroke-linejoin: miter"/>
   </g>
   <g id="patch_44">
    <path d="M 408.522182 332.12 
L 415.470273 332.12 
L 415.470273 331.928973 
L 408.522182 331.928973 
z
" clip-path="url(#pa743c1ff07)" style="fill: #ffffff; stroke: #0072b2; stroke-linejoin: miter"/>
   </g>
   <g id="patch_45">
    <path d="M 415.470273 332.12 
L 422.418364 332.12 
L 422.418364 331.877739 
L 415.470273 331.877739 
z
" clip-path="url(#pa743c1ff07)" style="fill: #ffffff; stroke: #0072b2; stroke-linejoin: miter"/>
   </g>
   <g id="patch_46">
    <path d="M 422.418364 332.12 
L 429.366455 332.12 
L 429.366455 331.810207 
L 422.418364 331.810207 
z
" clip-path="url(#pa743c1ff07)" style="fill: #ffffff; stroke: #0072b2; stroke-linejoin: miter"/>
   </g>
   <g id="patch_47">
    <path d="M 429.366455 332.12 
L 436.314545 332.12 
L 436.314545 331.716448 
L 429.366455 331.716448 
z
" clip-path="url(#pa743c1ff07)" style="fill: #ffffff; stroke: #0072b2; stroke-linejoin: miter"/>
   </g>
   <g id="patch_48">
    <path d="M 436.314545 332.12 
L 443.262636 332.12 
L 443.262636 331.61604 
L 436.314545 331.61604 
z
" clip-path="url(#pa743c1ff07)" style="fill: #ffffff; stroke: #0072b2; stroke-linejoin: miter"/>
   </g>
   <g id="patch_49">
    <path d="M 443.262636 332.12 
L 450.210727 332.12 
L 450.210727 331.47338 
L 443.262636 331.47338 
z
" clip-path="url(#pa743c1ff07)" style="fill: #ffffff; stroke: #0072b2; stroke-linejoin: miter"/>
   </g>
   <g id="patch_50">
    <path d="M 450.210727 332.12 
L 457.158818 332.12 
L 457.158818 331.300186 
L 450.210727 331.300186 
z
" clip-path="url(#pa743c1ff07)" style="fill: #ffffff; stroke: #0072b2; stroke-linejoin: miter"/>
   </g>
   <g id="patch_51">
    <path d="M 457.158818 332.12 
L 464.106909 332.12 
L 464.106909 331.104619 
L 457.158818 331.104619 
z
" clip-path="url(#pa743c1ff07)" style="fill: #ffffff; stroke: #0072b2; stroke-linejoin: miter"/>
   </g>
   <g id="patch_52">
    <path d="M 464.106909 332.12 
L 471.055 332.12 
L 471.055 330.821868 
L 464.106909 330.821868 
z
" clip-path="url(#pa743c1ff07)" style="fill: #ffffff; stroke: #0072b2; stroke-linejoin: miter"/>
   </g>
   <g id="patch_53">
    <path d="M 471.055 332.12 
L 478.003091 332.12 
L 478.003091 330.496219 
L 471.055 330.496219 
z
" clip-path="url(#pa743c1ff07)" style="fill: #ffffff; stroke: #0072b2; stroke-linejoin: miter"/>
   </g>
   <g id="patch_54">
    <path d="M 478.003091 332.12 
L 484.951182 332.12 
L 484.951182 330.092304 
L 478.003091 330.092304 
z
" clip-path="url(#pa743c1ff07)" style="fill: #ffffff; stroke: #0072b2; stroke-linejoin: miter"/>
   </g>
   <g id="patch_55">
    <path d="M 484.951182 332.12 
L 491.899273 332.12 
L 491.899273 329.639547 
L 484.951182 329.639547 
z
" clip-path="url(#pa743c1ff07)" style="fill: #ffffff; stroke: #0072b2; stroke-linejoin: miter"/>
   </g>
   <g id="patch_56">
    <path d="M 491.899273 332.12 
L 498.847364 332.12 
L 498.847364 328.984629 
L 491.899273 328.984629 
z
" clip-path="url(#pa743c1ff07)" style="fill: #ffffff; stroke: #0072b2; stroke-linejoin: miter"/>
   </g>
   <g id="patch_57">
    <path d="M 498.847364 332.12 
L 505.795455 332.12 
L 505.795455 328.154518 
L 498.847364 328.154518 
z
" clip-path="url(#pa743c1ff07)" style="fill: #ffffff; stroke: #0072b2; stroke-linejoin: miter"/>
   </g>
   <g id="patch_58">
    <path d="M 505.795455 332.12 
L 512.743545 332.12 
L 512.743545 327.305952 
L 505.795455 327.305952 
z
" clip-path="url(#pa743c1ff07)" style="fill: #ffffff; stroke: #0072b2; stroke-linejoin: miter"/>
   </g>
   <g id="patch_59">
    <path d="M 512.743545 332.12 
L 519.691636 332.12 
L 519.691636 326.298314 
L 512.743545 326.298314 
z
" clip-path="url(#pa743c1ff07)" style="fill: #ffffff; stroke: #0072b2; stroke-linejoin: miter"/>
   </g>
   <g id="patch_60">
    <path d="M 519.691636 332.12 
L 526.639727 332.12 
L 526.639727 325.083433 
L 519.691636 325.083433 
z
" clip-path="url(#pa743c1ff07)" style="fill: #ffffff; stroke: #0072b2; stroke-linejoin: miter"/>
   </g>
   <g id="patch_61">
    <path d="M 526.639727 332.12 
L 533.587818 332.12 
L 533.587818 323.348344 
L 526.639727 323.348344 
z
" clip-path="url(#pa743c1ff07)" style="fill: #ffffff; stroke: #0072b2; stroke-linejoin: miter"/>
   </g>
   <g id="patch_62">
    <path d="M 533.587818 332.12 
L 540.535909 332.12 
L 540.535909 321.066237 
L 533.587818 321.066237 
z
" clip-path="url(#pa743c1ff07)" style="fill: #ffffff; stroke: #0072b2; stroke-linejoin: miter"/>
   </g>
   <g id="patch_63">
    <path d="M 540.535909 332.12 
L 547.484 332.12 
L 547.484 318.816196 
L 540.535909 318.816196 
z
" clip-path="url(#pa743c1ff07)" style="fill: #ffffff; stroke: #0072b2; stroke-linejoin: miter"/>
   </g>
   <g id="patch_64">
    <path d="M 547.484 332.12 
L 554.432091 332.12 
L 554.432091 315.870789 
L 547.484 315.870789 
z
" clip-path="url(#pa743c1ff07)" style="fill: #ffffff; stroke: #0072b2; stroke-linejoin: miter"/>
   </g>
   <g id="patch_65">
    <path d="M 554.432091 332.12 
L 561.380182 332.12 
L 561.380182 312.62623 
L 554.432091 312.62623 
z
" clip-path="url(#pa743c1ff07)" style="fill: #ffffff; stroke: #0072b2; stroke-linejoin: miter"/>
   </g>
   <g id="patch_66">
    <path d="M 561.380182 332.12 
L 568.328273 332.12 
L 568.328273 309.231001 
L 561.380182 309.231001 
z
" clip-path="url(#pa743c1ff07)" style="fill: #ffffff; stroke: #0072b2; stroke-linejoin: miter"/>
   </g>
   <g id="patch_67">
    <path d="M 568.328273 332.12 
L 575.276364 332.12 
L 575.276364 305.552645 
L 568.328273 305.552645 
z
" clip-path="url(#pa743c1ff07)" style="fill: #ffffff; stroke: #0072b2; stroke-linejoin: miter"/>
   </g>
   <g id="patch_68">
    <path d="M 575.276364 332.12 
L 582.224455 332.12 
L 582.224455 301.269932 
L 575.276364 301.269932 
z
" clip-path="url(#pa743c1ff07)" style="fill: #ffffff; stroke: #0072b2; stroke-linejoin: miter"/>
   </g>
   <g id="patch_69">
    <path d="M 582.224455 332.12 
L 589.172545 332.12 
L 589.172545 296.117011 
L 582.224455 296.117011 
z
" clip-path="url(#pa743c1ff07)" style="fill: #ffffff; stroke: #0072b2; stroke-linejoin: miter"/>
   </g>
   <g id="patch_70">
    <path d="M 589.172545 332.12 
L 596.120636 332.12 
L 596.120636 290.653052 
L 589.172545 290.653052 
z
" clip-path="url(#pa743c1ff07)" style="fill: #ffffff; stroke: #0072b2; stroke-linejoin: miter"/>
   </g>
   <g id="patch_71">
    <path d="M 596.120636 332.12 
L 603.068727 332.12 
L 603.068727 283.740392 
L 596.120636 283.740392 
z
" clip-path="url(#pa743c1ff07)" style="fill: #ffffff; stroke: #0072b2; stroke-linejoin: miter"/>
   </g>
   <g id="patch_72">
    <path d="M 603.068727 332.12 
L 610.016818 332.12 
L 610.016818 276.294394 
L 603.068727 276.294394 
z
" clip-path="url(#pa743c1ff07)" style="fill: #ffffff; stroke: #0072b2; stroke-linejoin: miter"/>
   </g>
   <g id="patch_73">
    <path d="M 610.016818 332.12 
L 616.964909 332.12 
L 616.964909 268.100231 
L 610.016818 268.100231 
z
" clip-path="url(#pa743c1ff07)" style="fill: #ffffff; stroke: #0072b2; stroke-linejoin: miter"/>
   </g>
   <g id="patch_74">
    <path d="M 616.964909 332.12 
L 623.913 332.12 
L 623.913 259.683496 
L 616.964909 259.683496 
z
" clip-path="url(#pa743c1ff07)" style="fill: #ffffff; stroke: #0072b2; stroke-linejoin: miter"/>
   </g>
   <g id="patch_75">
    <path d="M 623.913 332.12 
L 630.861091 332.12 
L 630.861091 249.094055 
L 623.913 249.094055 
z
" clip-path="url(#pa743c1ff07)" style="fill: #ffffff; stroke: #0072b2; stroke-linejoin: miter"/>
   </g>
   <g id="patch_76">
    <path d="M 630.861091 332.12 
L 637.809182 332.12 
L 637.809182 236.823654 
L 630.861091 236.823654 
z
" clip-path="url(#pa743c1ff07)" style="fill: #ffffff; stroke: #0072b2; stroke-linejoin: miter"/>
   </g>
   <g id="patch_77">
    <path d="M 637.809182 332.12 
L 644.757273 332.12 
L 644.757273 225.603866 
L 637.809182 225.603866 
z
" clip-path="url(#pa743c1ff07)" style="fill: #ffffff; stroke: #0072b2; stroke-linejoin: miter"/>
   </g>
   <g id="patch_78">
    <path d="M 644.757273 332.12 
L 651.705364 332.12 
L 651.705364 211.89275 
L 644.757273 211.89275 
z
" clip-path="url(#pa743c1ff07)" style="fill: #ffffff; stroke: #0072b2; stroke-linejoin: miter"/>
   </g>
   <g id="patch_79">
    <path d="M 651.705364 332.12 
L 658.653455 332.12 
L 658.653455 196.499549 
L 651.705364 196.499549 
z
" clip-path="url(#pa743c1ff07)" style="fill: #ffffff; stroke: #0072b2; stroke-linejoin: miter"/>
   </g>
   <g id="patch_80">
    <path d="M 658.653455 332.12 
L 665.601545 332.12 
L 665.601545 179.935374 
L 658.653455 179.935374 
z
" clip-path="url(#pa743c1ff07)" style="fill: #ffffff; stroke: #0072b2; stroke-linejoin: miter"/>
   </g>
   <g id="patch_81">
    <path d="M 665.601545 332.12 
L 672.549636 332.12 
L 672.549636 164.79157 
L 665.601545 164.79157 
z
" clip-path="url(#pa743c1ff07)" style="fill: #ffffff; stroke: #0072b2; stroke-linejoin: miter"/>
   </g>
   <g id="patch_82">
    <path d="M 672.549636 332.12 
L 679.497727 332.12 
L 679.497727 147.67081 
L 672.549636 147.67081 
z
" clip-path="url(#pa743c1ff07)" style="fill: #ffffff; stroke: #0072b2; stroke-linejoin: miter"/>
   </g>
   <g id="patch_83">
    <path d="M 679.497727 332.12 
L 686.445818 332.12 
L 686.445818 130.553157 
L 679.497727 130.553157 
z
" clip-path="url(#pa743c1ff07)" style="fill: #ffffff; stroke: #0072b2; stroke-linejoin: miter"/>
   </g>
   <g id="patch_84">
    <path d="M 686.445818 332.12 
L 693.393909 332.12 
L 693.393909 111.292433 
L 686.445818 111.292433 
z
" clip-path="url(#pa743c1ff07)" style="fill: #ffffff; stroke: #0072b2; stroke-linejoin: miter"/>
   </g>
   <g id="patch_85">
    <path d="M 693.393909 332.12 
L 700.342 332.12 
L 700.342 97.037122 
L 693.393909 97.037122 
z
" clip-path="url(#pa743c1ff07)" style="fill: #ffffff; stroke: #0072b2; stroke-linejoin: miter"/>
   </g>
   <g id="patch_86">
    <path d="M 700.342 332.12 
L 707.290091 332.12 
L 707.290091 82.692701 
L 700.342 82.692701 
z
" clip-path="url(#pa743c1ff07)" style="fill: #ffffff; stroke: #0072b2; stroke-linejoin: miter"/>
   </g>
   <g id="patch_87">
    <path d="M 707.290091 332.12 
L 714.238182 332.12 
L 714.238182 69.448053 
L 707.290091 69.448053 
z
" clip-path="url(#pa743c1ff07)" style="fill: #ffffff; stroke: #0072b2; stroke-linejoin: miter"/>
   </g>
   <g id="patch_88">
    <path d="M 714.238182 332.12 
L 721.186273 332.12 
L 721.186273 63.057565 
L 714.238182 63.057565 
z
" clip-path="url(#pa743c1ff07)" style="fill: #ffffff; stroke: #0072b2; stroke-linejoin: miter"/>
   </g>
   <g id="patch_89">
    <path d="M 721.186273 332.12 
L 728.134364 332.12 
L 728.134364 53.295799 
L 721.186273 53.295799 
z
" clip-path="url(#pa743c1ff07)" style="fill: #ffffff; stroke: #0072b2; stroke-linejoin: miter"/>
   </g>
   <g id="patch_90">
    <path d="M 728.134364 332.12 
L 735.082455 332.12 
L 735.082455 51.166299 
L 728.134364 51.166299 
z
" clip-path="url(#pa743c1ff07)" style="fill: #ffffff; stroke: #0072b2; stroke-linejoin: miter"/>
   </g>
   <g id="patch_91">
    <path d="M 735.082455 332.12 
L 742.030545 332.12 
L 742.030545 55.054739 
L 735.082455 55.054739 
z
" clip-path="url(#pa743c1ff07)" style="fill: #ffffff; stroke: #0072b2; stroke-linejoin: miter"/>
   </g>
   <g id="patch_92">
    <path d="M 742.030545 332.12 
L 748.978636 332.12 
L 748.978636 56.11581 
L 742.030545 56.11581 
z
" clip-path="url(#pa743c1ff07)" style="fill: #ffffff; stroke: #0072b2; stroke-linejoin: miter"/>
   </g>
   <g id="patch_93">
    <path d="M 748.978636 332.12 
L 755.926727 332.12 
L 755.926727 65.874071 
L 748.978636 65.874071 
z
" clip-path="url(#pa743c1ff07)" style="fill: #ffffff; stroke: #0072b2; stroke-linejoin: miter"/>
   </g>
   <g id="patch_94">
    <path d="M 755.926727 332.12 
L 762.874818 332.12 
L 762.874818 73.926311 
L 755.926727 73.926311 
z
" clip-path="url(#pa743c1ff07)" style="fill: #ffffff; stroke: #0072b2; stroke-linejoin: miter"/>
   </g>
   <g id="patch_95">
    <path d="M 762.874818 332.12 
L 769.822909 332.12 
L 769.822909 93.180076 
L 762.874818 93.180076 
z
" clip-path="url(#pa743c1ff07)" style="fill: #ffffff; stroke: #0072b2; stroke-linejoin: miter"/>
   </g>
   <g id="patch_96">
    <path d="M 769.822909 332.12 
L 776.771 332.12 
L 776.771 118.768178 
L 769.822909 118.768178 
z
" clip-path="url(#pa743c1ff07)" style="fill: #ffffff; stroke: #0072b2; stroke-linejoin: miter"/>
   </g>
   <g id="patch_97">
    <path d="M 776.771 332.12 
L 783.719091 332.12 
L 783.719091 143.865117 
L 776.771 143.865117 
z
" clip-path="url(#pa743c1ff07)" style="fill: #ffffff; stroke: #0072b2; stroke-linejoin: miter"/>
   </g>
   <g id="patch_98">
    <path d="M 783.719091 332.12 
L 790.667182 332.12 
L 790.667182 176.46697 
L 783.719091 176.46697 
z
" clip-path="url(#pa743c1ff07)" style="fill: #ffffff; stroke: #0072b2; stroke-linejoin: miter"/>
   </g>
   <g id="patch_99">
    <path d="M 790.667182 332.12 
L 797.615273 332.12 
L 797.615273 201.251278 
L 790.667182 201.251278 
z
" clip-path="url(#pa743c1ff07)" style="fill: #ffffff; stroke: #0072b2; stroke-linejoin: miter"/>
   </g>
   <g id="patch_100">
    <path d="M 797.615273 332.12 
L 804.563364 332.12 
L 804.563364 232.244683 
L 797.615273 232.244683 
z
" clip-path="url(#pa743c1ff07)" style="fill: #ffffff; stroke: #0072b2; stroke-linejoin: miter"/>
   </g>
   <g id="patch_101">
    <path d="M 804.563364 332.12 
L 811.511455 332.12 
L 811.511455 272.337071 
L 804.563364 272.337071 
z
" clip-path="url(#pa743c1ff07)" style="fill: #ffffff; stroke: #0072b2; stroke-linejoin: miter"/>
   </g>
   <g id="patch_102">
    <path d="M 811.511455 332.12 
L 818.459545 332.12 
L 818.459545 277.024148 
L 811.511455 277.024148 
z
" clip-path="url(#pa743c1ff07)" style="fill: #ffffff; stroke: #0072b2; stroke-linejoin: miter"/>
   </g>
   <g id="PatchCollection_1">
    <path d="M 123.650455 332.120445 
L 130.598545 332.120445 
L 130.598545 332.119551 
L 123.650455 332.119551 
z
" clip-path="url(#pa743c1ff07)" style="fill: url(#h35334fbbe0)"/>
    <path d="M 130.598545 332.121089 
L 137.546636 332.121089 
L 137.546636 332.118887 
L 130.598545 332.118887 
z
" clip-path="url(#pa743c1ff07)" style="fill: url(#h35334fbbe0)"/>
    <path d="M 137.546636 332.121757 
L 144.494727 332.121757 
L 144.494727 332.11818 
L 137.546636 332.11818 
z
" clip-path="url(#pa743c1ff07)" style="fill: url(#h35334fbbe0)"/>
    <path d="M 144.494727 332.122372 
L 151.442818 332.122372 
L 151.442818 332.117512 
L 144.494727 332.117512 
z
" clip-path="url(#pa743c1ff07)" style="fill: url(#h35334fbbe0)"/>
    <path d="M 151.442818 332.123174 
L 158.390909 332.123174 
L 158.390909 332.116615 
L 151.442818 332.116615 
z
" clip-path="url(#pa743c1ff07)" style="fill: url(#h35334fbbe0)"/>
    <path d="M 158.390909 332.123246 
L 165.339 332.123246 
L 165.339 332.116533 
L 158.390909 332.116533 
z
" clip-path="url(#pa743c1ff07)" style="fill: url(#h35334fbbe0)"/>
    <path d="M 165.339 332.123599 
L 172.287091 332.123599 
L 172.287091 332.116127 
L 165.339 332.116127 
z
" clip-path="url(#pa743c1ff07)" style="fill: url(#h35334fbbe0)"/>
    <path d="M 172.287091 332.124702 
L 179.235182 332.124702 
L 179.235182 332.114818 
L 172.287091 332.114818 
z
" clip-path="url(#pa743c1ff07)" style="fill: url(#h35334fbbe0)"/>
    <path d="M 179.235182 332.124734 
L 186.183273 332.124734 
L 186.183273 332.114779 
L 179.235182 332.114779 
z
" clip-path="url(#pa743c1ff07)" style="fill: url(#h35334fbbe0)"/>
    <path d="M 186.183273 332.124515 
L 193.131364 332.124515 
L 193.131364 332.115044 
L 186.183273 332.115044 
z
" clip-path="url(#pa743c1ff07)" style="fill: url(#h35334fbbe0)"/>
    <path d="M 193.131364 332.124637 
L 200.079455 332.124637 
L 200.079455 332.114897 
L 193.131364 332.114897 
z
" clip-path="url(#pa743c1ff07)" style="fill: url(#h35334fbbe0)"/>
    <path d="M 200.079455 332.124814 
L 207.027545 332.124814 
L 207.027545 332.114682 
L 200.079455 332.114682 
z
" clip-path="url(#pa743c1ff07)" style="fill: url(#h35334fbbe0)"/>
    <path d="M 207.027545 332.125879 
L 213.975636 332.125879 
L 213.975636 332.11335 
L 207.027545 332.11335 
z
" clip-path="url(#pa743c1ff07)" style="fill: url(#h35334fbbe0)"/>
    <path d="M 213.975636 332.126209 
L 220.923727 332.126209 
L 220.923727 332.112924 
L 213.975636 332.112924 
z
" clip-path="url(#pa743c1ff07)" style="fill: url(#h35334fbbe0)"/>
    <path d="M 220.923727 332.126536 
L 227.871818 332.126536 
L 227.871818 332.112496 
L 220.923727 332.112496 
z
" clip-path="url(#pa743c1ff07)" style="fill: url(#h35334fbbe0)"/>
    <path d="M 227.871818 332.127396 
L 234.819909 332.127396 
L 234.819909 332.111337 
L 227.871818 332.111337 
z
" clip-path="url(#pa743c1ff07)" style="fill: url(#h35334fbbe0)"/>
    <path d="M 234.819909 332.128105 
L 241.768 332.128105 
L 241.768 332.110346 
L 234.819909 332.110346 
z
" clip-path="url(#pa743c1ff07)" style="fill: url(#h35334fbbe0)"/>
    <path d="M 241.768 332.129003 
L 248.716091 332.129003 
L 248.716091 332.10904 
L 241.768 332.10904 
z
" clip-path="url(#pa743c1ff07)" style="fill: url(#h35334fbbe0)"/>
    <path d="M 248.716091 332.129711 
L 255.664182 332.129711 
L 255.664182 332.107967 
L 248.716091 332.107967 
z
" clip-path="url(#pa743c1ff07)" style="fill: url(#h35334fbbe0)"/>
    <path d="M 255.664182 332.130696 
L 262.612273 332.130696 
L 262.612273 332.106407 
L 255.664182 332.106407 
z
" clip-path="url(#pa743c1ff07)" style="fill: url(#h35334fbbe0)"/>
    <path d="M 262.612273 332.131902 
L 269.560364 332.131902 
L 269.560364 332.104377 
L 262.612273 332.104377 
z
" clip-path="url(#pa743c1ff07)" style="fill: url(#h35334fbbe0)"/>
    <path d="M 269.560364 332.1331 
L 276.508455 332.1331 
L 276.508455 332.102216 
L 269.560364 332.102216 
z
" clip-path="url(#pa743c1ff07)" style="fill: url(#h35334fbbe0)"/>
    <path d="M 276.508455 332.134105 
L 283.456545 332.134105 
L 283.456545 332.100275 
L 276.508455 332.100275 
z
" clip-path="url(#pa743c1ff07)" style="fill: url(#h35334fbbe0)"/>
    <path d="M 283.456545 332.135153 
L 290.404636 332.135153 
L 290.404636 332.098106 
L 283.456545 332.098106 
z
" clip-path="url(#pa743c1ff07)" style="fill: url(#h35334fbbe0)"/>
    <path d="M 290.404636 332.136479 
L 297.352727 332.136479 
L 297.352727 332.09512 
L 290.404636 332.09512 
z
" clip-path="url(#pa743c1ff07)" style="fill: url(#h35334fbbe0)"/>
    <path d="M 297.352727 332.137744 
L 304.300818 332.137744 
L 304.300818 332.091962 
L 297.352727 332.091962 
z
" clip-path="url(#pa743c1ff07)" style="fill: url(#h35334fbbe0)"/>
    <path d="M 304.300818 332.139511 
L 311.248909 332.139511 
L 311.248909 332.08689 
L 304.300818 332.08689 
z
" clip-path="url(#pa743c1ff07)" style="fill: url(#h35334fbbe0)"/>
    <path d="M 311.248909 332.140736 
L 318.197 332.140736 
L 318.197 332.082752 
L 311.248909 332.082752 
z
" clip-path="url(#pa743c1ff07)" style="fill: url(#h35334fbbe0)"/>
    <path d="M 318.197 332.141961 
L 325.145091 332.141961 
L 325.145091 332.077858 
L 318.197 332.077858 
z
" clip-path="url(#pa743c1ff07)" style="fill: url(#h35334fbbe0)"/>
    <path d="M 325.145091 332.142928 
L 332.093182 332.142928 
L 332.093182 332.073178 
L 325.145091 332.073178 
z
" clip-path="url(#pa743c1ff07)" style="fill: url(#h35334fbbe0)"/>
    <path d="M 332.093182 332.144269 
L 339.041273 332.144269 
L 339.041273 332.064403 
L 332.093182 332.064403 
z
" clip-path="url(#pa743c1ff07)" style="fill: url(#h35334fbbe0)"/>
    <path d="M 339.041273 332.144733 
L 345.989364 332.144733 
L 345.989364 332.060031 
L 339.041273 332.060031 
z
" clip-path="url(#pa743c1ff07)" style="fill: url(#h35334fbbe0)"/>
    <path d="M 345.989364 332.145308 
L 352.937455 332.145308 
L 352.937455 332.051113 
L 345.989364 332.051113 
z
" clip-path="url(#pa743c1ff07)" style="fill: url(#h35334fbbe0)"/>
    <path d="M 352.937455 332.145433 
L 359.885545 332.145433 
L 359.885545 332.041045 
L 352.937455 332.041045 
z
" clip-path="url(#pa743c1ff07)" style="fill: url(#h35334fbbe0)"/>
    <path d="M 359.885545 332.144987 
L 366.833636 332.144987 
L 366.833636 332.029468 
L 359.885545 332.029468 
z
" clip-path="url(#pa743c1ff07)" style="fill: url(#h35334fbbe0)"/>
    <path d="M 366.833636 332.143817 
L 373.781727 332.143817 
L 373.781727 332.016246 
L 366.833636 332.016246 
z
" clip-path="url(#pa743c1ff07)" style="fill: url(#h35334fbbe0)"/>
    <path d="M 373.781727 332.141371 
L 380.729818 332.141371 
L 380.729818 331.998828 
L 373.781727 331.998828 
z
" clip-path="url(#pa743c1ff07)" style="fill: url(#h35334fbbe0)"/>
    <path d="M 380.729818 332.136179 
L 387.677909 332.136179 
L 387.677909 331.972955 
L 380.729818 331.972955 
z
" clip-path="url(#pa743c1ff07)" style="fill: url(#h35334fbbe0)"/>
    <path d="M 387.677909 332.127776 
L 394.626 332.127776 
L 394.626 331.941167 
L 387.677909 331.941167 
z
" clip-path="url(#pa743c1ff07)" style="fill: url(#h35334fbbe0)"/>
    <path d="M 394.626 332.114774 
L 401.574091 332.114774 
L 401.574091 331.901241 
L 394.626 331.901241 
z
" clip-path="url(#pa743c1ff07)" style="fill: url(#h35334fbbe0)"/>
    <path d="M 401.574091 332.093608 
L 408.522182 332.093608 
L 408.522182 331.846556 
L 401.574091 331.846556 
z
" clip-path="url(#pa743c1ff07)" style="fill: url(#h35334fbbe0)"/>
    <path d="M 408.522182 332.068407 
L 415.470273 332.068407 
L 415.470273 331.789538 
L 408.522182 331.789538 
z
" clip-path="url(#pa743c1ff07)" style="fill: url(#h35334fbbe0)"/>
    <path d="M 415.470273 332.034758 
L 422.418364 332.034758 
L 422.418364 331.720719 
L 415.470273 331.720719 
z
" clip-path="url(#pa743c1ff07)" style="fill: url(#h35334fbbe0)"/>
    <path d="M 422.418364 331.987762 
L 429.366455 331.987762 
L 429.366455 331.632651 
L 422.418364 331.632651 
z
" clip-path="url(#pa743c1ff07)" style="fill: url(#h35334fbbe0)"/>
    <path d="M 429.366455 331.919092 
L 436.314545 331.919092 
L 436.314545 331.513805 
L 429.366455 331.513805 
z
" clip-path="url(#pa743c1ff07)" style="fill: url(#h35334fbbe0)"/>
    <path d="M 436.314545 331.842487 
L 443.262636 331.842487 
L 443.262636 331.389594 
L 436.314545 331.389594 
z
" clip-path="url(#pa743c1ff07)" style="fill: url(#h35334fbbe0)"/>
    <path d="M 443.262636 331.729872 
L 450.210727 331.729872 
L 450.210727 331.216889 
L 443.262636 331.216889 
z
" clip-path="url(#pa743c1ff07)" style="fill: url(#h35334fbbe0)"/>
    <path d="M 450.210727 331.588977 
L 457.158818 331.588977 
L 457.158818 331.011395 
L 450.210727 331.011395 
z
" clip-path="url(#pa743c1ff07)" style="fill: url(#h35334fbbe0)"/>
    <path d="M 457.158818 331.425996 
L 464.106909 331.425996 
L 464.106909 330.783241 
L 457.158818 330.783241 
z
" clip-path="url(#pa743c1ff07)" style="fill: url(#h35334fbbe0)"/>
    <path d="M 464.106909 331.185223 
L 471.055 331.185223 
L 471.055 330.458513 
L 464.106909 330.458513 
z
" clip-path="url(#pa743c1ff07)" style="fill: url(#h35334fbbe0)"/>
    <path d="M 471.055 330.902571 
L 478.003091 330.902571 
L 478.003091 330.089867 
L 471.055 330.089867 
z
" clip-path="url(#pa743c1ff07)" style="fill: url(#h35334fbbe0)"/>
    <path d="M 478.003091 330.546352 
L 484.951182 330.546352 
L 484.951182 329.638255 
L 478.003091 329.638255 
z
" clip-path="url(#pa743c1ff07)" style="fill: url(#h35334fbbe0)"/>
    <path d="M 484.951182 330.141685 
L 491.899273 330.141685 
L 491.899273 329.13741 
L 484.951182 329.13741 
z
" clip-path="url(#pa743c1ff07)" style="fill: url(#h35334fbbe0)"/>
    <path d="M 491.899273 329.549113 
L 498.847364 329.549113 
L 498.847364 328.420145 
L 491.899273 328.420145 
z
" clip-path="url(#pa743c1ff07)" style="fill: url(#h35334fbbe0)"/>
    <path d="M 498.847364 328.789262 
L 505.795455 328.789262 
L 505.795455 327.519774 
L 498.847364 327.519774 
z
" clip-path="url(#pa743c1ff07)" style="fill: url(#h35334fbbe0)"/>
    <path d="M 505.795455 328.005215 
L 512.743545 328.005215 
L 512.743545 326.60669 
L 505.795455 326.60669 
z
" clip-path="url(#pa743c1ff07)" style="fill: url(#h35334fbbe0)"/>
    <path d="M 512.743545 327.067151 
L 519.691636 327.067151 
L 519.691636 325.529478 
L 512.743545 325.529478 
z
" clip-path="url(#pa743c1ff07)" style="fill: url(#h35334fbbe0)"/>
    <path d="M 519.691636 325.928525 
L 526.639727 325.928525 
L 526.639727 324.238339 
L 519.691636 324.238339 
z
" clip-path="url(#pa743c1ff07)" style="fill: url(#h35334fbbe0)"/>
    <path d="M 526.639727 324.291678 
L 533.587818 324.291678 
L 533.587818 322.405008 
L 526.639727 322.405008 
z
" clip-path="url(#pa743c1ff07)" style="fill: url(#h35334fbbe0)"/>
    <path d="M 533.587818 322.124923 
L 540.535909 322.124923 
L 540.535909 320.00755 
L 533.587818 320.00755 
z
" clip-path="url(#pa743c1ff07)" style="fill: url(#h35334fbbe0)"/>
    <path d="M 540.535909 319.977301 
L 547.484 319.977301 
L 547.484 317.655092 
L 540.535909 317.655092 
z
" clip-path="url(#pa743c1ff07)" style="fill: url(#h35334fbbe0)"/>
    <path d="M 547.484 317.153564 
L 554.432091 317.153564 
L 554.432091 314.588012 
L 547.484 314.588012 
z
" clip-path="url(#pa743c1ff07)" style="fill: url(#h35334fbbe0)"/>
    <path d="M 554.432091 314.030703 
L 561.380182 314.030703 
L 561.380182 311.221757 
L 554.432091 311.221757 
z
" clip-path="url(#pa743c1ff07)" style="fill: url(#h35334fbbe0)"/>
    <path d="M 561.380182 310.752193 
L 568.328273 310.752193 
L 568.328273 307.70981 
L 561.380182 307.70981 
z
" clip-path="url(#pa743c1ff07)" style="fill: url(#h35334fbbe0)"/>
    <path d="M 568.328273 307.190671 
L 575.276364 307.190671 
L 575.276364 303.914619 
L 568.328273 303.914619 
z
" clip-path="url(#pa743c1ff07)" style="fill: url(#h35334fbbe0)"/>
    <path d="M 575.276364 303.034014 
L 582.224455 303.034014 
L 582.224455 299.50585 
L 575.276364 299.50585 
z
" clip-path="url(#pa743c1ff07)" style="fill: url(#h35334fbbe0)"/>
    <path d="M 582.224455 298.021445 
L 589.172545 298.021445 
L 589.172545 294.212578 
L 582.224455 294.212578 
z
" clip-path="url(#pa743c1ff07)" style="fill: url(#h35334fbbe0)"/>
    <path d="M 589.172545 292.695309 
L 596.120636 292.695309 
L 596.120636 288.610794 
L 589.172545 288.610794 
z
" clip-path="url(#pa743c1ff07)" style="fill: url(#h35334fbbe0)"/>
    <path d="M 596.120636 285.944353 
L 603.068727 285.944353 
L 603.068727 281.536432 
L 596.120636 281.536432 
z
" clip-path="url(#pa743c1ff07)" style="fill: url(#h35334fbbe0)"/>
    <path d="M 603.068727 278.659465 
L 610.016818 278.659465 
L 610.016818 273.929326 
L 603.068727 273.929326 
z
" clip-path="url(#pa743c1ff07)" style="fill: url(#h35334fbbe0)"/>
    <path d="M 610.016818 270.629956 
L 616.964909 270.629956 
L 616.964909 265.5705 
L 610.016818 265.5705 
z
" clip-path="url(#pa743c1ff07)" style="fill: url(#h35334fbbe0)"/>
    <path d="M 616.964909 262.370755 
L 623.913 262.370755 
L 623.913 256.996231 
L 616.964909 256.996231 
z
" clip-path="url(#pa743c1ff07)" style="fill: url(#h35334fbbe0)"/>
    <path d="M 623.913 251.966606 
L 630.861091 251.966606 
L 630.861091 246.221508 
L 623.913 246.221508 
z
" clip-path="url(#pa743c1ff07)" style="fill: url(#h35334fbbe0)"/>
    <path d="M 630.861091 239.89566 
L 637.809182 239.89566 
L 637.809182 233.751649 
L 630.861091 233.751649 
z
" clip-path="url(#pa743c1ff07)" style="fill: url(#h35334fbbe0)"/>
    <path d="M 637.809182 228.845045 
L 644.757273 228.845045 
L 644.757273 222.362684 
L 637.809182 222.362684 
z
" clip-path="url(#pa743c1ff07)" style="fill: url(#h35334fbbe0)"/>
    <path d="M 644.757273 215.328107 
L 651.705364 215.328107 
L 651.705364 208.457383 
L 644.757273 208.457383 
z
" clip-path="url(#pa743c1ff07)" style="fill: url(#h35334fbbe0)"/>
    <path d="M 651.705364 200.138319 
L 658.653455 200.138319 
L 658.653455 192.860773 
L 651.705364 192.860773 
z
" clip-path="url(#pa743c1ff07)" style="fill: url(#h35334fbbe0)"/>
    <path d="M 658.653455 183.777967 
L 665.601545 183.777967 
L 665.601545 176.092774 
L 658.653455 176.092774 
z
" clip-path="url(#pa743c1ff07)" style="fill: url(#h35334fbbe0)"/>
    <path d="M 665.601545 168.806306 
L 672.549636 168.806306 
L 672.549636 160.776835 
L 665.601545 160.776835 
z
" clip-path="url(#pa743c1ff07)" style="fill: url(#h35334fbbe0)"/>
    <path d="M 672.549636 151.868365 
L 679.497727 151.868365 
L 679.497727 143.473243 
L 672.549636 143.473243 
z
" clip-path="url(#pa743c1ff07)" style="fill: url(#h35334fbbe0)"/>
    <path d="M 679.497727 134.920146 
L 686.445818 134.920146 
L 686.445818 126.186176 
L 679.497727 126.186176 
z
" clip-path="url(#pa743c1ff07)" style="fill: url(#h35334fbbe0)"/>
    <path d="M 686.445818 115.838077 
L 693.393909 115.838077 
L 693.393909 106.746801 
L 686.445818 106.746801 
z
" clip-path="url(#pa743c1ff07)" style="fill: url(#h35334fbbe0)"/>
    <path d="M 693.393909 101.696907 
L 700.342 101.696907 
L 700.342 92.377316 
L 693.393909 92.377316 
z
" clip-path="url(#pa743c1ff07)" style="fill: url(#h35334fbbe0)"/>
    <path d="M 700.342 87.456784 
L 707.290091 87.456784 
L 707.290091 77.928605 
L 700.342 77.928605 
z
" clip-path="url(#pa743c1ff07)" style="fill: url(#h35334fbbe0)"/>
    <path d="M 707.290091 74.294336 
L 714.238182 74.294336 
L 714.238182 64.601766 
L 707.290091 64.601766 
z
" clip-path="url(#pa743c1ff07)" style="fill: url(#h35334fbbe0)"/>
    <path d="M 714.238182 67.91292 
L 721.186273 67.91292 
L 721.186273 58.202219 
L 714.238182 58.202219 
z
" clip-path="url(#pa743c1ff07)" style="fill: url(#h35334fbbe0)"/>
    <path d="M 721.186273 58.179615 
L 728.134364 58.179615 
L 728.134364 48.411976 
L 721.186273 48.411976 
z
" clip-path="url(#pa743c1ff07)" style="fill: url(#h35334fbbe0)"/>
    <path d="M 728.134364 56.000526 
L 735.082455 56.000526 
L 735.082455 46.332093 
L 728.134364 46.332093 
z
" clip-path="url(#pa743c1ff07)" style="fill: url(#h35334fbbe0)"/>
    <path d="M 735.082455 59.776541 
L 742.030545 59.776541 
L 742.030545 50.332935 
L 735.082455 50.332935 
z
" clip-path="url(#pa743c1ff07)" style="fill: url(#h35334fbbe0)"/>
    <path d="M 742.030545 60.736645 
L 748.978636 60.736645 
L 748.978636 51.49496 
L 742.030545 51.49496 
z
" clip-path="url(#pa743c1ff07)" style="fill: url(#h35334fbbe0)"/>
    <path d="M 748.978636 70.307016 
L 755.926727 70.307016 
L 755.926727 61.441107 
L 748.978636 61.441107 
z
" clip-path="url(#pa743c1ff07)" style="fill: url(#h35334fbbe0)"/>
    <path d="M 755.926727 78.17 
L 762.874818 78.17 
L 762.874818 69.682643 
L 755.926727 69.682643 
z
" clip-path="url(#pa743c1ff07)" style="fill: url(#h35334fbbe0)"/>
    <path d="M 762.874818 97.123474 
L 769.822909 97.123474 
L 769.822909 89.236677 
L 762.874818 89.236677 
z
" clip-path="url(#pa743c1ff07)" style="fill: url(#h35334fbbe0)"/>
    <path d="M 769.822909 122.339798 
L 776.771 122.339798 
L 776.771 115.196557 
L 769.822909 115.196557 
z
" clip-path="url(#pa743c1ff07)" style="fill: url(#h35334fbbe0)"/>
    <path d="M 776.771 147.042837 
L 783.719091 147.042837 
L 783.719091 140.687405 
L 776.771 140.687405 
z
" clip-path="url(#pa743c1ff07)" style="fill: url(#h35334fbbe0)"/>
    <path d="M 783.719091 179.162712 
L 790.667182 179.162712 
L 790.667182 173.771236 
L 783.719091 173.771236 
z
" clip-path="url(#pa743c1ff07)" style="fill: url(#h35334fbbe0)"/>
    <path d="M 790.667182 203.50373 
L 797.615273 203.50373 
L 797.615273 198.998818 
L 790.667182 198.998818 
z
" clip-path="url(#pa743c1ff07)" style="fill: url(#h35334fbbe0)"/>
    <path d="M 797.615273 233.963816 
L 804.563364 233.963816 
L 804.563364 230.52555 
L 797.615273 230.52555 
z
" clip-path="url(#pa743c1ff07)" style="fill: url(#h35334fbbe0)"/>
    <path d="M 804.563364 273.412174 
L 811.511455 273.412174 
L 811.511455 271.261973 
L 804.563364 271.261973 
z
" clip-path="url(#pa743c1ff07)" style="fill: url(#h35334fbbe0)"/>
    <path d="M 811.511455 277.467518 
L 818.459545 277.467518 
L 818.459545 276.580779 
L 811.511455 276.580779 
z
" clip-path="url(#pa743c1ff07)" style="fill: url(#h35334fbbe0)"/>
   </g>
   <g id="matplotlib.axis_1">
    <g id="xtick_1">
     <g id="line2d_1">
      <defs>
       <path id="mce3a2d5fea" d="M 0 0 
L 0 3.5 
" style="stroke: #000000; stroke-width: 0.8"/>
      </defs>
      <g>
       <use xlink:href="#mce3a2d5fea" x="112.345366" y="332.12" style="stroke: #000000; stroke-width: 0.8"/>
      </g>
     </g>
     <g id="text_1">
      <!-- −6 -->
      <g transform="translate(104.974272 346.718437) scale(0.1 -0.1)">
       <defs>
        <path id="DejaVuSans-2212" d="M 678 2272 
L 4684 2272 
L 4684 1741 
L 678 1741 
L 678 2272 
z
" transform="scale(0.015625)"/>
        <path id="DejaVuSans-36" d="M 2113 2584 
Q 1688 2584 1439 2293 
Q 1191 2003 1191 1497 
Q 1191 994 1439 701 
Q 1688 409 2113 409 
Q 2538 409 2786 701 
Q 3034 994 3034 1497 
Q 3034 2003 2786 2293 
Q 2538 2584 2113 2584 
z
M 3366 4563 
L 3366 3988 
Q 3128 4100 2886 4159 
Q 2644 4219 2406 4219 
Q 1781 4219 1451 3797 
Q 1122 3375 1075 2522 
Q 1259 2794 1537 2939 
Q 1816 3084 2150 3084 
Q 2853 3084 3261 2657 
Q 3669 2231 3669 1497 
Q 3669 778 3244 343 
Q 2819 -91 2113 -91 
Q 1303 -91 875 529 
Q 447 1150 447 2328 
Q 447 3434 972 4092 
Q 1497 4750 2381 4750 
Q 2619 4750 2861 4703 
Q 3103 4656 3366 4563 
z
" transform="scale(0.015625)"/>
       </defs>
       <use xlink:href="#DejaVuSans-2212"/>
       <use xlink:href="#DejaVuSans-36" x="83.789062"/>
      </g>
     </g>
    </g>
    <g id="xtick_2">
     <g id="line2d_2">
      <g>
       <use xlink:href="#mce3a2d5fea" x="230.031062" y="332.12" style="stroke: #000000; stroke-width: 0.8"/>
      </g>
     </g>
     <g id="text_2">
      <!-- −5 -->
      <g transform="translate(222.659969 346.718437) scale(0.1 -0.1)">
       <defs>
        <path id="DejaVuSans-35" d="M 691 4666 
L 3169 4666 
L 3169 4134 
L 1269 4134 
L 1269 2991 
Q 1406 3038 1543 3061 
Q 1681 3084 1819 3084 
Q 2600 3084 3056 2656 
Q 3513 2228 3513 1497 
Q 3513 744 3044 326 
Q 2575 -91 1722 -91 
Q 1428 -91 1123 -41 
Q 819 9 494 109 
L 494 744 
Q 775 591 1075 516 
Q 1375 441 1709 441 
Q 2250 441 2565 725 
Q 2881 1009 2881 1497 
Q 2881 1984 2565 2268 
Q 2250 2553 1709 2553 
Q 1456 2553 1204 2497 
Q 953 2441 691 2322 
L 691 4666 
z
" transform="scale(0.015625)"/>
       </defs>
       <use xlink:href="#DejaVuSans-2212"/>
       <use xlink:href="#DejaVuSans-35" x="83.789062"/>
      </g>
     </g>
    </g>
    <g id="xtick_3">
     <g id="line2d_3">
      <g>
       <use xlink:href="#mce3a2d5fea" x="347.716759" y="332.12" style="stroke: #000000; stroke-width: 0.8"/>
      </g>
     </g>
     <g id="text_3">
      <!-- −4 -->
      <g transform="translate(340.345665 346.718437) scale(0.1 -0.1)">
       <defs>
        <path id="DejaVuSans-34" d="M 2419 4116 
L 825 1625 
L 2419 1625 
L 2419 4116 
z
M 2253 4666 
L 3047 4666 
L 3047 1625 
L 3713 1625 
L 3713 1100 
L 3047 1100 
L 3047 0 
L 2419 0 
L 2419 1100 
L 313 1100 
L 313 1709 
L 2253 4666 
z
" transform="scale(0.015625)"/>
       </defs>
       <use xlink:href="#DejaVuSans-2212"/>
       <use xlink:href="#DejaVuSans-34" x="83.789062"/>
      </g>
     </g>
    </g>
    <g id="xtick_4">
     <g id="line2d_4">
      <g>
       <use xlink:href="#mce3a2d5fea" x="465.402456" y="332.12" style="stroke: #000000; stroke-width: 0.8"/>
      </g>
     </g>
     <g id="text_4">
      <!-- −3 -->
      <g transform="translate(458.031362 346.718437) scale(0.1 -0.1)">
       <defs>
        <path id="DejaVuSans-33" d="M 2597 2516 
Q 3050 2419 3304 2112 
Q 3559 1806 3559 1356 
Q 3559 666 3084 287 
Q 2609 -91 1734 -91 
Q 1441 -91 1130 -33 
Q 819 25 488 141 
L 488 750 
Q 750 597 1062 519 
Q 1375 441 1716 441 
Q 2309 441 2620 675 
Q 2931 909 2931 1356 
Q 2931 1769 2642 2001 
Q 2353 2234 1838 2234 
L 1294 2234 
L 1294 2753 
L 1863 2753 
Q 2328 2753 2575 2939 
Q 2822 3125 2822 3475 
Q 2822 3834 2567 4026 
Q 2313 4219 1838 4219 
Q 1578 4219 1281 4162 
Q 984 4106 628 3988 
L 628 4550 
Q 988 4650 1302 4700 
Q 1616 4750 1894 4750 
Q 2613 4750 3031 4423 
Q 3450 4097 3450 3541 
Q 3450 3153 3228 2886 
Q 3006 2619 2597 2516 
z
" transform="scale(0.015625)"/>
       </defs>
       <use xlink:href="#DejaVuSans-2212"/>
       <use xlink:href="#DejaVuSans-33" x="83.789062"/>
      </g>
     </g>
    </g>
    <g id="xtick_5">
     <g id="line2d_5">
      <g>
       <use xlink:href="#mce3a2d5fea" x="583.088152" y="332.12" style="stroke: #000000; stroke-width: 0.8"/>
      </g>
     </g>
     <g id="text_5">
      <!-- −2 -->
      <g transform="translate(575.717058 346.718437) scale(0.1 -0.1)">
       <defs>
        <path id="DejaVuSans-32" d="M 1228 531 
L 3431 531 
L 3431 0 
L 469 0 
L 469 531 
Q 828 903 1448 1529 
Q 2069 2156 2228 2338 
Q 2531 2678 2651 2914 
Q 2772 3150 2772 3378 
Q 2772 3750 2511 3984 
Q 2250 4219 1831 4219 
Q 1534 4219 1204 4116 
Q 875 4013 500 3803 
L 500 4441 
Q 881 4594 1212 4672 
Q 1544 4750 1819 4750 
Q 2544 4750 2975 4387 
Q 3406 4025 3406 3419 
Q 3406 3131 3298 2873 
Q 3191 2616 2906 2266 
Q 2828 2175 2409 1742 
Q 1991 1309 1228 531 
z
" transform="scale(0.015625)"/>
       </defs>
       <use xlink:href="#DejaVuSans-2212"/>
       <use xlink:href="#DejaVuSans-32" x="83.789062"/>
      </g>
     </g>
    </g>
    <g id="xtick_6">
     <g id="line2d_6">
      <g>
       <use xlink:href="#mce3a2d5fea" x="700.773849" y="332.12" style="stroke: #000000; stroke-width: 0.8"/>
      </g>
     </g>
     <g id="text_6">
      <!-- −1 -->
      <g transform="translate(693.402755 346.718437) scale(0.1 -0.1)">
       <defs>
        <path id="DejaVuSans-31" d="M 794 531 
L 1825 531 
L 1825 4091 
L 703 3866 
L 703 4441 
L 1819 4666 
L 2450 4666 
L 2450 531 
L 3481 531 
L 3481 0 
L 794 0 
L 794 531 
z
" transform="scale(0.015625)"/>
       </defs>
       <use xlink:href="#DejaVuSans-2212"/>
       <use xlink:href="#DejaVuSans-31" x="83.789062"/>
      </g>
     </g>
    </g>
    <g id="xtick_7">
     <g id="line2d_7">
      <g>
       <use xlink:href="#mce3a2d5fea" x="818.459545" y="332.12" style="stroke: #000000; stroke-width: 0.8"/>
      </g>
     </g>
     <g id="text_7">
      <!-- 0 -->
      <g transform="translate(815.278295 346.718437) scale(0.1 -0.1)">
       <defs>
        <path id="DejaVuSans-30" d="M 2034 4250 
Q 1547 4250 1301 3770 
Q 1056 3291 1056 2328 
Q 1056 1369 1301 889 
Q 1547 409 2034 409 
Q 2525 409 2770 889 
Q 3016 1369 3016 2328 
Q 3016 3291 2770 3770 
Q 2525 4250 2034 4250 
z
M 2034 4750 
Q 2819 4750 3233 4129 
Q 3647 3509 3647 2328 
Q 3647 1150 3233 529 
Q 2819 -91 2034 -91 
Q 1250 -91 836 529 
Q 422 1150 422 2328 
Q 422 3509 836 4129 
Q 1250 4750 2034 4750 
z
" transform="scale(0.015625)"/>
       </defs>
       <use xlink:href="#DejaVuSans-30"/>
      </g>
     </g>
    </g>
   </g>
   <g id="matplotlib.axis_2">
    <g id="ytick_1">
     <g id="line2d_8">
      <defs>
       <path id="m213dd3b424" d="M 0 0 
L -3.5 0 
" style="stroke: #000000; stroke-width: 0.8"/>
      </defs>
      <g>
       <use xlink:href="#m213dd3b424" x="88.91" y="332.12" style="stroke: #000000; stroke-width: 0.8"/>
      </g>
     </g>
     <g id="text_8">
      <!-- 0 -->
      <g transform="translate(71.73 338.19875) scale(0.16 -0.16)">
       <use xlink:href="#DejaVuSans-30"/>
      </g>
     </g>
    </g>
    <g id="ytick_2">
     <g id="line2d_9">
      <g>
       <use xlink:href="#m213dd3b424" x="88.91" y="281.214035" style="stroke: #000000; stroke-width: 0.8"/>
      </g>
     </g>
     <g id="text_9">
      <!-- 500 -->
      <g transform="translate(51.37 287.292785) scale(0.16 -0.16)">
       <use xlink:href="#DejaVuSans-35"/>
       <use xlink:href="#DejaVuSans-30" x="63.623047"/>
       <use xlink:href="#DejaVuSans-30" x="127.246094"/>
      </g>
     </g>
    </g>
    <g id="ytick_3">
     <g id="line2d_10">
      <g>
       <use xlink:href="#m213dd3b424" x="88.91" y="230.308069" style="stroke: #000000; stroke-width: 0.8"/>
      </g>
     </g>
     <g id="text_10">
      <!-- 1000 -->
      <g transform="translate(41.19 236.386819) scale(0.16 -0.16)">
       <use xlink:href="#DejaVuSans-31"/>
       <use xlink:href="#DejaVuSans-30" x="63.623047"/>
       <use xlink:href="#DejaVuSans-30" x="127.246094"/>
       <use xlink:href="#DejaVuSans-30" x="190.869141"/>
      </g>
     </g>
    </g>
    <g id="ytick_4">
     <g id="line2d_11">
      <g>
       <use xlink:href="#m213dd3b424" x="88.91" y="179.402104" style="stroke: #000000; stroke-width: 0.8"/>
      </g>
     </g>
     <g id="text_11">
      <!-- 1500 -->
      <g transform="translate(41.19 185.480854) scale(0.16 -0.16)">
       <use xlink:href="#DejaVuSans-31"/>
       <use xlink:href="#DejaVuSans-35" x="63.623047"/>
       <use xlink:href="#DejaVuSans-30" x="127.246094"/>
       <use xlink:href="#DejaVuSans-30" x="190.869141"/>
      </g>
     </g>
    </g>
    <g id="ytick_5">
     <g id="line2d_12">
      <g>
       <use xlink:href="#m213dd3b424" x="88.91" y="128.496139" style="stroke: #000000; stroke-width: 0.8"/>
      </g>
     </g>
     <g id="text_12">
      <!-- 2000 -->
      <g transform="translate(41.19 134.574889) scale(0.16 -0.16)">
       <use xlink:href="#DejaVuSans-32"/>
       <use xlink:href="#DejaVuSans-30" x="63.623047"/>
       <use xlink:href="#DejaVuSans-30" x="127.246094"/>
       <use xlink:href="#DejaVuSans-30" x="190.869141"/>
      </g>
     </g>
    </g>
    <g id="ytick_6">
     <g id="line2d_13">
      <g>
       <use xlink:href="#m213dd3b424" x="88.91" y="77.590174" style="stroke: #000000; stroke-width: 0.8"/>
      </g>
     </g>
     <g id="text_13">
      <!-- 2500 -->
      <g transform="translate(41.19 83.668924) scale(0.16 -0.16)">
       <use xlink:href="#DejaVuSans-32"/>
       <use xlink:href="#DejaVuSans-35" x="63.623047"/>
       <use xlink:href="#DejaVuSans-30" x="127.246094"/>
       <use xlink:href="#DejaVuSans-30" x="190.869141"/>
      </g>
     </g>
    </g>
    <g id="text_14">
     <!-- number of mutations -->
     <g transform="translate(27.030625 289.574062) rotate(-90) scale(0.2 -0.2)">
      <defs>
       <path id="DejaVuSans-6e" d="M 3513 2113 
L 3513 0 
L 2938 0 
L 2938 2094 
Q 2938 2591 2744 2837 
Q 2550 3084 2163 3084 
Q 1697 3084 1428 2787 
Q 1159 2491 1159 1978 
L 1159 0 
L 581 0 
L 581 3500 
L 1159 3500 
L 1159 2956 
Q 1366 3272 1645 3428 
Q 1925 3584 2291 3584 
Q 2894 3584 3203 3211 
Q 3513 2838 3513 2113 
z
" transform="scale(0.015625)"/>
       <path id="DejaVuSans-75" d="M 544 1381 
L 544 3500 
L 1119 3500 
L 1119 1403 
Q 1119 906 1312 657 
Q 1506 409 1894 409 
Q 2359 409 2629 706 
Q 2900 1003 2900 1516 
L 2900 3500 
L 3475 3500 
L 3475 0 
L 2900 0 
L 2900 538 
Q 2691 219 2414 64 
Q 2138 -91 1772 -91 
Q 1169 -91 856 284 
Q 544 659 544 1381 
z
M 1991 3584 
L 1991 3584 
z
" transform="scale(0.015625)"/>
       <path id="DejaVuSans-6d" d="M 3328 2828 
Q 3544 3216 3844 3400 
Q 4144 3584 4550 3584 
Q 5097 3584 5394 3201 
Q 5691 2819 5691 2113 
L 5691 0 
L 5113 0 
L 5113 2094 
Q 5113 2597 4934 2840 
Q 4756 3084 4391 3084 
Q 3944 3084 3684 2787 
Q 3425 2491 3425 1978 
L 3425 0 
L 2847 0 
L 2847 2094 
Q 2847 2600 2669 2842 
Q 2491 3084 2119 3084 
Q 1678 3084 1418 2786 
Q 1159 2488 1159 1978 
L 1159 0 
L 581 0 
L 581 3500 
L 1159 3500 
L 1159 2956 
Q 1356 3278 1631 3431 
Q 1906 3584 2284 3584 
Q 2666 3584 2933 3390 
Q 3200 3197 3328 2828 
z
" transform="scale(0.015625)"/>
       <path id="DejaVuSans-62" d="M 3116 1747 
Q 3116 2381 2855 2742 
Q 2594 3103 2138 3103 
Q 1681 3103 1420 2742 
Q 1159 2381 1159 1747 
Q 1159 1113 1420 752 
Q 1681 391 2138 391 
Q 2594 391 2855 752 
Q 3116 1113 3116 1747 
z
M 1159 2969 
Q 1341 3281 1617 3432 
Q 1894 3584 2278 3584 
Q 2916 3584 3314 3078 
Q 3713 2572 3713 1747 
Q 3713 922 3314 415 
Q 2916 -91 2278 -91 
Q 1894 -91 1617 61 
Q 1341 213 1159 525 
L 1159 0 
L 581 0 
L 581 4863 
L 1159 4863 
L 1159 2969 
z
" transform="scale(0.015625)"/>
       <path id="DejaVuSans-65" d="M 3597 1894 
L 3597 1613 
L 953 1613 
Q 991 1019 1311 708 
Q 1631 397 2203 397 
Q 2534 397 2845 478 
Q 3156 559 3463 722 
L 3463 178 
Q 3153 47 2828 -22 
Q 2503 -91 2169 -91 
Q 1331 -91 842 396 
Q 353 884 353 1716 
Q 353 2575 817 3079 
Q 1281 3584 2069 3584 
Q 2775 3584 3186 3129 
Q 3597 2675 3597 1894 
z
M 3022 2063 
Q 3016 2534 2758 2815 
Q 2500 3097 2075 3097 
Q 1594 3097 1305 2825 
Q 1016 2553 972 2059 
L 3022 2063 
z
" transform="scale(0.015625)"/>
       <path id="DejaVuSans-72" d="M 2631 2963 
Q 2534 3019 2420 3045 
Q 2306 3072 2169 3072 
Q 1681 3072 1420 2755 
Q 1159 2438 1159 1844 
L 1159 0 
L 581 0 
L 581 3500 
L 1159 3500 
L 1159 2956 
Q 1341 3275 1631 3429 
Q 1922 3584 2338 3584 
Q 2397 3584 2469 3576 
Q 2541 3569 2628 3553 
L 2631 2963 
z
" transform="scale(0.015625)"/>
       <path id="DejaVuSans-20" transform="scale(0.015625)"/>
       <path id="DejaVuSans-6f" d="M 1959 3097 
Q 1497 3097 1228 2736 
Q 959 2375 959 1747 
Q 959 1119 1226 758 
Q 1494 397 1959 397 
Q 2419 397 2687 759 
Q 2956 1122 2956 1747 
Q 2956 2369 2687 2733 
Q 2419 3097 1959 3097 
z
M 1959 3584 
Q 2709 3584 3137 3096 
Q 3566 2609 3566 1747 
Q 3566 888 3137 398 
Q 2709 -91 1959 -91 
Q 1206 -91 779 398 
Q 353 888 353 1747 
Q 353 2609 779 3096 
Q 1206 3584 1959 3584 
z
" transform="scale(0.015625)"/>
       <path id="DejaVuSans-66" d="M 2375 4863 
L 2375 4384 
L 1825 4384 
Q 1516 4384 1395 4259 
Q 1275 4134 1275 3809 
L 1275 3500 
L 2222 3500 
L 2222 3053 
L 1275 3053 
L 1275 0 
L 697 0 
L 697 3053 
L 147 3053 
L 147 3500 
L 697 3500 
L 697 3744 
Q 697 4328 969 4595 
Q 1241 4863 1831 4863 
L 2375 4863 
z
" transform="scale(0.015625)"/>
       <path id="DejaVuSans-74" d="M 1172 4494 
L 1172 3500 
L 2356 3500 
L 2356 3053 
L 1172 3053 
L 1172 1153 
Q 1172 725 1289 603 
Q 1406 481 1766 481 
L 2356 481 
L 2356 0 
L 1766 0 
Q 1100 0 847 248 
Q 594 497 594 1153 
L 594 3053 
L 172 3053 
L 172 3500 
L 594 3500 
L 594 4494 
L 1172 4494 
z
" transform="scale(0.015625)"/>
       <path id="DejaVuSans-61" d="M 2194 1759 
Q 1497 1759 1228 1600 
Q 959 1441 959 1056 
Q 959 750 1161 570 
Q 1363 391 1709 391 
Q 2188 391 2477 730 
Q 2766 1069 2766 1631 
L 2766 1759 
L 2194 1759 
z
M 3341 1997 
L 3341 0 
L 2766 0 
L 2766 531 
Q 2569 213 2275 61 
Q 1981 -91 1556 -91 
Q 1019 -91 701 211 
Q 384 513 384 1019 
Q 384 1609 779 1909 
Q 1175 2209 1959 2209 
L 2766 2209 
L 2766 2266 
Q 2766 2663 2505 2880 
Q 2244 3097 1772 3097 
Q 1472 3097 1187 3025 
Q 903 2953 641 2809 
L 641 3341 
Q 956 3463 1253 3523 
Q 1550 3584 1831 3584 
Q 2591 3584 2966 3190 
Q 3341 2797 3341 1997 
z
" transform="scale(0.015625)"/>
       <path id="DejaVuSans-69" d="M 603 3500 
L 1178 3500 
L 1178 0 
L 603 0 
L 603 3500 
z
M 603 4863 
L 1178 4863 
L 1178 4134 
L 603 4134 
L 603 4863 
z
" transform="scale(0.015625)"/>
       <path id="DejaVuSans-73" d="M 2834 3397 
L 2834 2853 
Q 2591 2978 2328 3040 
Q 2066 3103 1784 3103 
Q 1356 3103 1142 2972 
Q 928 2841 928 2578 
Q 928 2378 1081 2264 
Q 1234 2150 1697 2047 
L 1894 2003 
Q 2506 1872 2764 1633 
Q 3022 1394 3022 966 
Q 3022 478 2636 193 
Q 2250 -91 1575 -91 
Q 1294 -91 989 -36 
Q 684 19 347 128 
L 347 722 
Q 666 556 975 473 
Q 1284 391 1588 391 
Q 1994 391 2212 530 
Q 2431 669 2431 922 
Q 2431 1156 2273 1281 
Q 2116 1406 1581 1522 
L 1381 1569 
Q 847 1681 609 1914 
Q 372 2147 372 2553 
Q 372 3047 722 3315 
Q 1072 3584 1716 3584 
Q 2034 3584 2315 3537 
Q 2597 3491 2834 3397 
z
" transform="scale(0.015625)"/>
      </defs>
      <use xlink:href="#DejaVuSans-6e"/>
      <use xlink:href="#DejaVuSans-75" x="63.378906"/>
      <use xlink:href="#DejaVuSans-6d" x="126.757812"/>
      <use xlink:href="#DejaVuSans-62" x="224.169922"/>
      <use xlink:href="#DejaVuSans-65" x="287.646484"/>
      <use xlink:href="#DejaVuSans-72" x="349.169922"/>
      <use xlink:href="#DejaVuSans-20" x="390.283203"/>
      <use xlink:href="#DejaVuSans-6f" x="422.070312"/>
      <use xlink:href="#DejaVuSans-66" x="483.251953"/>
      <use xlink:href="#DejaVuSans-20" x="518.457031"/>
      <use xlink:href="#DejaVuSans-6d" x="550.244141"/>
      <use xlink:href="#DejaVuSans-75" x="647.65625"/>
      <use xlink:href="#DejaVuSans-74" x="711.035156"/>
      <use xlink:href="#DejaVuSans-61" x="750.244141"/>
      <use xlink:href="#DejaVuSans-74" x="811.523438"/>
      <use xlink:href="#DejaVuSans-69" x="850.732422"/>
      <use xlink:href="#DejaVuSans-6f" x="878.515625"/>
      <use xlink:href="#DejaVuSans-6e" x="939.697266"/>
      <use xlink:href="#DejaVuSans-73" x="1003.076172"/>
     </g>
    </g>
   </g>
   <g id="line2d_14">
    <path d="M 127.1245 332.12 
L 134.072591 332.12 
L 141.020682 332.12 
L 147.968773 332.12 
L 154.916864 332.12 
L 161.864955 332.12 
L 168.813045 332.12 
L 175.761136 332.12 
L 182.709227 332.12 
L 189.657318 332.12 
L 196.605409 332.12 
L 203.5535 332.12 
L 210.501591 332.12 
L 217.449682 332.12 
L 224.397773 332.12 
L 231.345864 332.12 
L 238.293955 332.12 
L 245.242045 332.018188 
L 252.190136 332.12 
L 259.138227 332.12 
L 266.086318 332.12 
L 273.034409 332.12 
L 279.9825 332.018188 
L 286.930591 332.12 
L 293.878682 332.12 
L 300.826773 331.712752 
L 307.774864 331.916376 
L 314.722955 331.712752 
L 321.671045 332.018188 
L 328.619136 331.814564 
L 335.567227 331.509128 
L 342.515318 331.916376 
L 349.463409 331.61094 
L 356.4115 331.916376 
L 363.359591 331.61094 
L 370.307682 331.916376 
L 377.255773 331.712752 
L 384.203864 331.407316 
L 391.151955 331.509128 
L 398.100045 330.796445 
L 405.048136 331.000069 
L 411.996227 331.509128 
L 418.944318 331.000069 
L 425.892409 330.694633 
L 432.8405 330.083761 
L 439.788591 330.491009 
L 446.736682 330.592821 
L 453.684773 329.574702 
L 460.632864 329.880138 
L 467.580955 329.065642 
L 474.529045 328.760206 
L 481.477136 329.371078 
L 488.425227 328.149335 
L 495.373318 326.31672 
L 502.321409 324.789541 
L 509.2695 325.604036 
L 516.217591 323.16055 
L 523.165682 324.687729 
L 530.113773 322.549679 
L 537.061864 321.429747 
L 544.009955 316.542775 
L 550.958045 314.913784 
L 557.906136 314.099288 
L 564.854227 307.990572 
L 571.802318 306.768829 
L 578.750409 302.08548 
L 585.6985 295.773141 
L 592.646591 295.365893 
L 599.594682 286.202819 
L 606.542773 270.727406 
L 613.490864 269.403851 
L 620.438955 257.491855 
L 627.387045 250.161396 
L 634.335136 236.111349 
L 641.283227 222.366739 
L 648.231318 207.400385 
L 655.179409 188.056118 
L 662.1275 172.377081 
L 669.075591 156.799856 
L 676.023682 142.647997 
L 682.971773 121.980175 
L 689.919864 103.043156 
L 696.867955 83.698889 
L 703.816045 69.343407 
L 710.764136 51.220884 
L 717.712227 61.198453 
L 724.660318 51.322696 
L 731.608409 50.100952 
L 738.5565 59.162214 
L 745.504591 67.001733 
L 752.452682 65.678178 
L 759.400773 75.553935 
L 766.348864 100.192422 
L 773.296955 132.364992 
L 780.245045 156.799856 
L 787.193136 186.223504 
L 794.141227 212.898229 
L 801.089318 243.339997 
L 808.037409 278.363301 
L 814.9855 289.664425 
" clip-path="url(#pa743c1ff07)" style="fill: none"/>
    <defs>
     <path id="m6426bf0578" d="M 0 2 
C 0.530406 2 1.03916 1.789267 1.414214 1.414214 
C 1.789267 1.03916 2 0.530406 2 0 
C 2 -0.530406 1.789267 -1.03916 1.414214 -1.414214 
C 1.03916 -1.789267 0.530406 -2 0 -2 
C -0.530406 -2 -1.03916 -1.789267 -1.414214 -1.414214 
C -1.789267 -1.03916 -2 -0.530406 -2 0 
C -2 0.530406 -1.789267 1.03916 -1.414214 1.414214 
C -1.03916 1.789267 -0.530406 2 0 2 
z
" style="stroke: #000000"/>
    </defs>
    <g clip-path="url(#pa743c1ff07)">
     <use xlink:href="#m6426bf0578" x="127.1245" y="332.12" style="stroke: #000000"/>
     <use xlink:href="#m6426bf0578" x="134.072591" y="332.12" style="stroke: #000000"/>
     <use xlink:href="#m6426bf0578" x="141.020682" y="332.12" style="stroke: #000000"/>
     <use xlink:href="#m6426bf0578" x="147.968773" y="332.12" style="stroke: #000000"/>
     <use xlink:href="#m6426bf0578" x="154.916864" y="332.12" style="stroke: #000000"/>
     <use xlink:href="#m6426bf0578" x="161.864955" y="332.12" style="stroke: #000000"/>
     <use xlink:href="#m6426bf0578" x="168.813045" y="332.12" style="stroke: #000000"/>
     <use xlink:href="#m6426bf0578" x="175.761136" y="332.12" style="stroke: #000000"/>
     <use xlink:href="#m6426bf0578" x="182.709227" y="332.12" style="stroke: #000000"/>
     <use xlink:href="#m6426bf0578" x="189.657318" y="332.12" style="stroke: #000000"/>
     <use xlink:href="#m6426bf0578" x="196.605409" y="332.12" style="stroke: #000000"/>
     <use xlink:href="#m6426bf0578" x="203.5535" y="332.12" style="stroke: #000000"/>
     <use xlink:href="#m6426bf0578" x="210.501591" y="332.12" style="stroke: #000000"/>
     <use xlink:href="#m6426bf0578" x="217.449682" y="332.12" style="stroke: #000000"/>
     <use xlink:href="#m6426bf0578" x="224.397773" y="332.12" style="stroke: #000000"/>
     <use xlink:href="#m6426bf0578" x="231.345864" y="332.12" style="stroke: #000000"/>
     <use xlink:href="#m6426bf0578" x="238.293955" y="332.12" style="stroke: #000000"/>
     <use xlink:href="#m6426bf0578" x="245.242045" y="332.018188" style="stroke: #000000"/>
     <use xlink:href="#m6426bf0578" x="252.190136" y="332.12" style="stroke: #000000"/>
     <use xlink:href="#m6426bf0578" x="259.138227" y="332.12" style="stroke: #000000"/>
     <use xlink:href="#m6426bf0578" x="266.086318" y="332.12" style="stroke: #000000"/>
     <use xlink:href="#m6426bf0578" x="273.034409" y="332.12" style="stroke: #000000"/>
     <use xlink:href="#m6426bf0578" x="279.9825" y="332.018188" style="stroke: #000000"/>
     <use xlink:href="#m6426bf0578" x="286.930591" y="332.12" style="stroke: #000000"/>
     <use xlink:href="#m6426bf0578" x="293.878682" y="332.12" style="stroke: #000000"/>
     <use xlink:href="#m6426bf0578" x="300.826773" y="331.712752" style="stroke: #000000"/>
     <use xlink:href="#m6426bf0578" x="307.774864" y="331.916376" style="stroke: #000000"/>
     <use xlink:href="#m6426bf0578" x="314.722955" y="331.712752" style="stroke: #000000"/>
     <use xlink:href="#m6426bf0578" x="321.671045" y="332.018188" style="stroke: #000000"/>
     <use xlink:href="#m6426bf0578" x="328.619136" y="331.814564" style="stroke: #000000"/>
     <use xlink:href="#m6426bf0578" x="335.567227" y="331.509128" style="stroke: #000000"/>
     <use xlink:href="#m6426bf0578" x="342.515318" y="331.916376" style="stroke: #000000"/>
     <use xlink:href="#m6426bf0578" x="349.463409" y="331.61094" style="stroke: #000000"/>
     <use xlink:href="#m6426bf0578" x="356.4115" y="331.916376" style="stroke: #000000"/>
     <use xlink:href="#m6426bf0578" x="363.359591" y="331.61094" style="stroke: #000000"/>
     <use xlink:href="#m6426bf0578" x="370.307682" y="331.916376" style="stroke: #000000"/>
     <use xlink:href="#m6426bf0578" x="377.255773" y="331.712752" style="stroke: #000000"/>
     <use xlink:href="#m6426bf0578" x="384.203864" y="331.407316" style="stroke: #000000"/>
     <use xlink:href="#m6426bf0578" x="391.151955" y="331.509128" style="stroke: #000000"/>
     <use xlink:href="#m6426bf0578" x="398.100045" y="330.796445" style="stroke: #000000"/>
     <use xlink:href="#m6426bf0578" x="405.048136" y="331.000069" style="stroke: #000000"/>
     <use xlink:href="#m6426bf0578" x="411.996227" y="331.509128" style="stroke: #000000"/>
     <use xlink:href="#m6426bf0578" x="418.944318" y="331.000069" style="stroke: #000000"/>
     <use xlink:href="#m6426bf0578" x="425.892409" y="330.694633" style="stroke: #000000"/>
     <use xlink:href="#m6426bf0578" x="432.8405" y="330.083761" style="stroke: #000000"/>
     <use xlink:href="#m6426bf0578" x="439.788591" y="330.491009" style="stroke: #000000"/>
     <use xlink:href="#m6426bf0578" x="446.736682" y="330.592821" style="stroke: #000000"/>
     <use xlink:href="#m6426bf0578" x="453.684773" y="329.574702" style="stroke: #000000"/>
     <use xlink:href="#m6426bf0578" x="460.632864" y="329.880138" style="stroke: #000000"/>
     <use xlink:href="#m6426bf0578" x="467.580955" y="329.065642" style="stroke: #000000"/>
     <use xlink:href="#m6426bf0578" x="474.529045" y="328.760206" style="stroke: #000000"/>
     <use xlink:href="#m6426bf0578" x="481.477136" y="329.371078" style="stroke: #000000"/>
     <use xlink:href="#m6426bf0578" x="488.425227" y="328.149335" style="stroke: #000000"/>
     <use xlink:href="#m6426bf0578" x="495.373318" y="326.31672" style="stroke: #000000"/>
     <use xlink:href="#m6426bf0578" x="502.321409" y="324.789541" style="stroke: #000000"/>
     <use xlink:href="#m6426bf0578" x="509.2695" y="325.604036" style="stroke: #000000"/>
     <use xlink:href="#m6426bf0578" x="516.217591" y="323.16055" style="stroke: #000000"/>
     <use xlink:href="#m6426bf0578" x="523.165682" y="324.687729" style="stroke: #000000"/>
     <use xlink:href="#m6426bf0578" x="530.113773" y="322.549679" style="stroke: #000000"/>
     <use xlink:href="#m6426bf0578" x="537.061864" y="321.429747" style="stroke: #000000"/>
     <use xlink:href="#m6426bf0578" x="544.009955" y="316.542775" style="stroke: #000000"/>
     <use xlink:href="#m6426bf0578" x="550.958045" y="314.913784" style="stroke: #000000"/>
     <use xlink:href="#m6426bf0578" x="557.906136" y="314.099288" style="stroke: #000000"/>
     <use xlink:href="#m6426bf0578" x="564.854227" y="307.990572" style="stroke: #000000"/>
     <use xlink:href="#m6426bf0578" x="571.802318" y="306.768829" style="stroke: #000000"/>
     <use xlink:href="#m6426bf0578" x="578.750409" y="302.08548" style="stroke: #000000"/>
     <use xlink:href="#m6426bf0578" x="585.6985" y="295.773141" style="stroke: #000000"/>
     <use xlink:href="#m6426bf0578" x="592.646591" y="295.365893" style="stroke: #000000"/>
     <use xlink:href="#m6426bf0578" x="599.594682" y="286.202819" style="stroke: #000000"/>
     <use xlink:href="#m6426bf0578" x="606.542773" y="270.727406" style="stroke: #000000"/>
     <use xlink:href="#m6426bf0578" x="613.490864" y="269.403851" style="stroke: #000000"/>
     <use xlink:href="#m6426bf0578" x="620.438955" y="257.491855" style="stroke: #000000"/>
     <use xlink:href="#m6426bf0578" x="627.387045" y="250.161396" style="stroke: #000000"/>
     <use xlink:href="#m6426bf0578" x="634.335136" y="236.111349" style="stroke: #000000"/>
     <use xlink:href="#m6426bf0578" x="641.283227" y="222.366739" style="stroke: #000000"/>
     <use xlink:href="#m6426bf0578" x="648.231318" y="207.400385" style="stroke: #000000"/>
     <use xlink:href="#m6426bf0578" x="655.179409" y="188.056118" style="stroke: #000000"/>
     <use xlink:href="#m6426bf0578" x="662.1275" y="172.377081" style="stroke: #000000"/>
     <use xlink:href="#m6426bf0578" x="669.075591" y="156.799856" style="stroke: #000000"/>
     <use xlink:href="#m6426bf0578" x="676.023682" y="142.647997" style="stroke: #000000"/>
     <use xlink:href="#m6426bf0578" x="682.971773" y="121.980175" style="stroke: #000000"/>
     <use xlink:href="#m6426bf0578" x="689.919864" y="103.043156" style="stroke: #000000"/>
     <use xlink:href="#m6426bf0578" x="696.867955" y="83.698889" style="stroke: #000000"/>
     <use xlink:href="#m6426bf0578" x="703.816045" y="69.343407" style="stroke: #000000"/>
     <use xlink:href="#m6426bf0578" x="710.764136" y="51.220884" style="stroke: #000000"/>
     <use xlink:href="#m6426bf0578" x="717.712227" y="61.198453" style="stroke: #000000"/>
     <use xlink:href="#m6426bf0578" x="724.660318" y="51.322696" style="stroke: #000000"/>
     <use xlink:href="#m6426bf0578" x="731.608409" y="50.100952" style="stroke: #000000"/>
     <use xlink:href="#m6426bf0578" x="738.5565" y="59.162214" style="stroke: #000000"/>
     <use xlink:href="#m6426bf0578" x="745.504591" y="67.001733" style="stroke: #000000"/>
     <use xlink:href="#m6426bf0578" x="752.452682" y="65.678178" style="stroke: #000000"/>
     <use xlink:href="#m6426bf0578" x="759.400773" y="75.553935" style="stroke: #000000"/>
     <use xlink:href="#m6426bf0578" x="766.348864" y="100.192422" style="stroke: #000000"/>
     <use xlink:href="#m6426bf0578" x="773.296955" y="132.364992" style="stroke: #000000"/>
     <use xlink:href="#m6426bf0578" x="780.245045" y="156.799856" style="stroke: #000000"/>
     <use xlink:href="#m6426bf0578" x="787.193136" y="186.223504" style="stroke: #000000"/>
     <use xlink:href="#m6426bf0578" x="794.141227" y="212.898229" style="stroke: #000000"/>
     <use xlink:href="#m6426bf0578" x="801.089318" y="243.339997" style="stroke: #000000"/>
     <use xlink:href="#m6426bf0578" x="808.037409" y="278.363301" style="stroke: #000000"/>
     <use xlink:href="#m6426bf0578" x="814.9855" y="289.664425" style="stroke: #000000"/>
    </g>
   </g>
   <g id="patch_103">
    <path d="M 88.91 332.12 
L 88.91 36 
" style="fill: none; stroke: #000000; stroke-width: 0.8; stroke-linejoin: miter; stroke-linecap: square"/>
   </g>
   <g id="patch_104">
    <path d="M 853.2 332.12 
L 853.2 36 
" style="fill: none; stroke: #000000; stroke-width: 0.8; stroke-linejoin: miter; stroke-linecap: square"/>
   </g>
   <g id="patch_105">
    <path d="M 88.91 332.12 
L 853.2 332.12 
" style="fill: none; stroke: #000000; stroke-width: 0.8; stroke-linejoin: miter; stroke-linecap: square"/>
   </g>
   <g id="patch_106">
    <path d="M 88.91 36 
L 853.2 36 
" style="fill: none; stroke: #000000; stroke-width: 0.8; stroke-linejoin: miter; stroke-linecap: square"/>
   </g>
   <g id="legend_1">
    <g id="patch_107">
     <path d="M 99.41 92.034375 
L 219.581094 92.034375 
Q 222.581094 92.034375 222.581094 89.034375 
L 222.581094 46.5 
Q 222.581094 43.5 219.581094 43.5 
L 99.41 43.5 
Q 96.41 43.5 96.41 46.5 
L 96.41 89.034375 
Q 96.41 92.034375 99.41 92.034375 
z
" style="fill: #ffffff; opacity: 0.8; stroke: #cccccc; stroke-linejoin: miter"/>
    </g>
    <g id="patch_108">
     <path d="M 102.41 60.897656 
L 132.41 60.897656 
L 132.41 50.397656 
L 102.41 50.397656 
z
" style="fill: #ffffff; stroke: #0072b2; stroke-linejoin: miter"/>
    </g>
    <g id="text_15">
     <!-- Expected -->
     <g transform="translate(144.41 60.897656) scale(0.15 -0.15)">
      <defs>
       <path id="DejaVuSans-45" d="M 628 4666 
L 3578 4666 
L 3578 4134 
L 1259 4134 
L 1259 2753 
L 3481 2753 
L 3481 2222 
L 1259 2222 
L 1259 531 
L 3634 531 
L 3634 0 
L 628 0 
L 628 4666 
z
" transform="scale(0.015625)"/>
       <path id="DejaVuSans-78" d="M 3513 3500 
L 2247 1797 
L 3578 0 
L 2900 0 
L 1881 1375 
L 863 0 
L 184 0 
L 1544 1831 
L 300 3500 
L 978 3500 
L 1906 2253 
L 2834 3500 
L 3513 3500 
z
" transform="scale(0.015625)"/>
       <path id="DejaVuSans-70" d="M 1159 525 
L 1159 -1331 
L 581 -1331 
L 581 3500 
L 1159 3500 
L 1159 2969 
Q 1341 3281 1617 3432 
Q 1894 3584 2278 3584 
Q 2916 3584 3314 3078 
Q 3713 2572 3713 1747 
Q 3713 922 3314 415 
Q 2916 -91 2278 -91 
Q 1894 -91 1617 61 
Q 1341 213 1159 525 
z
M 3116 1747 
Q 3116 2381 2855 2742 
Q 2594 3103 2138 3103 
Q 1681 3103 1420 2742 
Q 1159 2381 1159 1747 
Q 1159 1113 1420 752 
Q 1681 391 2138 391 
Q 2594 391 2855 752 
Q 3116 1113 3116 1747 
z
" transform="scale(0.015625)"/>
       <path id="DejaVuSans-63" d="M 3122 3366 
L 3122 2828 
Q 2878 2963 2633 3030 
Q 2388 3097 2138 3097 
Q 1578 3097 1268 2742 
Q 959 2388 959 1747 
Q 959 1106 1268 751 
Q 1578 397 2138 397 
Q 2388 397 2633 464 
Q 2878 531 3122 666 
L 3122 134 
Q 2881 22 2623 -34 
Q 2366 -91 2075 -91 
Q 1284 -91 818 406 
Q 353 903 353 1747 
Q 353 2603 823 3093 
Q 1294 3584 2113 3584 
Q 2378 3584 2631 3529 
Q 2884 3475 3122 3366 
z
" transform="scale(0.015625)"/>
       <path id="DejaVuSans-64" d="M 2906 2969 
L 2906 4863 
L 3481 4863 
L 3481 0 
L 2906 0 
L 2906 525 
Q 2725 213 2448 61 
Q 2172 -91 1784 -91 
Q 1150 -91 751 415 
Q 353 922 353 1747 
Q 353 2572 751 3078 
Q 1150 3584 1784 3584 
Q 2172 3584 2448 3432 
Q 2725 3281 2906 2969 
z
M 947 1747 
Q 947 1113 1208 752 
Q 1469 391 1925 391 
Q 2381 391 2643 752 
Q 2906 1113 2906 1747 
Q 2906 2381 2643 2742 
Q 2381 3103 1925 3103 
Q 1469 3103 1208 2742 
Q 947 2381 947 1747 
z
" transform="scale(0.015625)"/>
      </defs>
      <use xlink:href="#DejaVuSans-45"/>
      <use xlink:href="#DejaVuSans-78" x="63.183594"/>
      <use xlink:href="#DejaVuSans-70" x="122.363281"/>
      <use xlink:href="#DejaVuSans-65" x="185.839844"/>
      <use xlink:href="#DejaVuSans-63" x="247.363281"/>
      <use xlink:href="#DejaVuSans-74" x="302.34375"/>
      <use xlink:href="#DejaVuSans-65" x="341.552734"/>
      <use xlink:href="#DejaVuSans-64" x="403.076172"/>
     </g>
    </g>
    <g id="line2d_15">
     <path d="M 102.41 77.664844 
L 117.41 77.664844 
L 132.41 77.664844 
" style="fill: none"/>
     <g>
      <use xlink:href="#m6426bf0578" x="117.41" y="77.664844" style="stroke: #000000"/>
     </g>
    </g>
    <g id="text_16">
     <!-- Observed -->
     <g transform="translate(144.41 82.914844) scale(0.15 -0.15)">
      <defs>
       <path id="DejaVuSans-4f" d="M 2522 4238 
Q 1834 4238 1429 3725 
Q 1025 3213 1025 2328 
Q 1025 1447 1429 934 
Q 1834 422 2522 422 
Q 3209 422 3611 934 
Q 4013 1447 4013 2328 
Q 4013 3213 3611 3725 
Q 3209 4238 2522 4238 
z
M 2522 4750 
Q 3503 4750 4090 4092 
Q 4678 3434 4678 2328 
Q 4678 1225 4090 567 
Q 3503 -91 2522 -91 
Q 1538 -91 948 565 
Q 359 1222 359 2328 
Q 359 3434 948 4092 
Q 1538 4750 2522 4750 
z
" transform="scale(0.015625)"/>
       <path id="DejaVuSans-76" d="M 191 3500 
L 800 3500 
L 1894 563 
L 2988 3500 
L 3597 3500 
L 2284 0 
L 1503 0 
L 191 3500 
z
" transform="scale(0.015625)"/>
      </defs>
      <use xlink:href="#DejaVuSans-4f"/>
      <use xlink:href="#DejaVuSans-62" x="78.710938"/>
      <use xlink:href="#DejaVuSans-73" x="142.1875"/>
      <use xlink:href="#DejaVuSans-65" x="194.287109"/>
      <use xlink:href="#DejaVuSans-72" x="255.810547"/>
      <use xlink:href="#DejaVuSans-76" x="296.923828"/>
      <use xlink:href="#DejaVuSans-65" x="356.103516"/>
      <use xlink:href="#DejaVuSans-64" x="417.626953"/>
     </g>
    </g>
   </g>
  </g>
  <g id="text_17">
   <!-- 8m-+2 on v1rodriguezV34 sampled 10k; overlap=0.977, residual=0.00834 -->
   <g transform="translate(130.52875 19.3575) scale(0.16 -0.16)">
    <defs>
     <path id="DejaVuSans-38" d="M 2034 2216 
Q 1584 2216 1326 1975 
Q 1069 1734 1069 1313 
Q 1069 891 1326 650 
Q 1584 409 2034 409 
Q 2484 409 2743 651 
Q 3003 894 3003 1313 
Q 3003 1734 2745 1975 
Q 2488 2216 2034 2216 
z
M 1403 2484 
Q 997 2584 770 2862 
Q 544 3141 544 3541 
Q 544 4100 942 4425 
Q 1341 4750 2034 4750 
Q 2731 4750 3128 4425 
Q 3525 4100 3525 3541 
Q 3525 3141 3298 2862 
Q 3072 2584 2669 2484 
Q 3125 2378 3379 2068 
Q 3634 1759 3634 1313 
Q 3634 634 3220 271 
Q 2806 -91 2034 -91 
Q 1263 -91 848 271 
Q 434 634 434 1313 
Q 434 1759 690 2068 
Q 947 2378 1403 2484 
z
M 1172 3481 
Q 1172 3119 1398 2916 
Q 1625 2713 2034 2713 
Q 2441 2713 2670 2916 
Q 2900 3119 2900 3481 
Q 2900 3844 2670 4047 
Q 2441 4250 2034 4250 
Q 1625 4250 1398 4047 
Q 1172 3844 1172 3481 
z
" transform="scale(0.015625)"/>
     <path id="DejaVuSans-2d" d="M 313 2009 
L 1997 2009 
L 1997 1497 
L 313 1497 
L 313 2009 
z
" transform="scale(0.015625)"/>
     <path id="DejaVuSans-2b" d="M 2944 4013 
L 2944 2272 
L 4684 2272 
L 4684 1741 
L 2944 1741 
L 2944 0 
L 2419 0 
L 2419 1741 
L 678 1741 
L 678 2272 
L 2419 2272 
L 2419 4013 
L 2944 4013 
z
" transform="scale(0.015625)"/>
     <path id="DejaVuSans-67" d="M 2906 1791 
Q 2906 2416 2648 2759 
Q 2391 3103 1925 3103 
Q 1463 3103 1205 2759 
Q 947 2416 947 1791 
Q 947 1169 1205 825 
Q 1463 481 1925 481 
Q 2391 481 2648 825 
Q 2906 1169 2906 1791 
z
M 3481 434 
Q 3481 -459 3084 -895 
Q 2688 -1331 1869 -1331 
Q 1566 -1331 1297 -1286 
Q 1028 -1241 775 -1147 
L 775 -588 
Q 1028 -725 1275 -790 
Q 1522 -856 1778 -856 
Q 2344 -856 2625 -561 
Q 2906 -266 2906 331 
L 2906 616 
Q 2728 306 2450 153 
Q 2172 0 1784 0 
Q 1141 0 747 490 
Q 353 981 353 1791 
Q 353 2603 747 3093 
Q 1141 3584 1784 3584 
Q 2172 3584 2450 3431 
Q 2728 3278 2906 2969 
L 2906 3500 
L 3481 3500 
L 3481 434 
z
" transform="scale(0.015625)"/>
     <path id="DejaVuSans-7a" d="M 353 3500 
L 3084 3500 
L 3084 2975 
L 922 459 
L 3084 459 
L 3084 0 
L 275 0 
L 275 525 
L 2438 3041 
L 353 3041 
L 353 3500 
z
" transform="scale(0.015625)"/>
     <path id="DejaVuSans-56" d="M 1831 0 
L 50 4666 
L 709 4666 
L 2188 738 
L 3669 4666 
L 4325 4666 
L 2547 0 
L 1831 0 
z
" transform="scale(0.015625)"/>
     <path id="DejaVuSans-6c" d="M 603 4863 
L 1178 4863 
L 1178 0 
L 603 0 
L 603 4863 
z
" transform="scale(0.015625)"/>
     <path id="DejaVuSans-6b" d="M 581 4863 
L 1159 4863 
L 1159 1991 
L 2875 3500 
L 3609 3500 
L 1753 1863 
L 3688 0 
L 2938 0 
L 1159 1709 
L 1159 0 
L 581 0 
L 581 4863 
z
" transform="scale(0.015625)"/>
     <path id="DejaVuSans-3b" d="M 750 3309 
L 1409 3309 
L 1409 2516 
L 750 2516 
L 750 3309 
z
M 750 794 
L 1409 794 
L 1409 256 
L 897 -744 
L 494 -744 
L 750 256 
L 750 794 
z
" transform="scale(0.015625)"/>
     <path id="DejaVuSans-3d" d="M 678 2906 
L 4684 2906 
L 4684 2381 
L 678 2381 
L 678 2906 
z
M 678 1631 
L 4684 1631 
L 4684 1100 
L 678 1100 
L 678 1631 
z
" transform="scale(0.015625)"/>
     <path id="DejaVuSans-2e" d="M 684 794 
L 1344 794 
L 1344 0 
L 684 0 
L 684 794 
z
" transform="scale(0.015625)"/>
     <path id="DejaVuSans-39" d="M 703 97 
L 703 672 
Q 941 559 1184 500 
Q 1428 441 1663 441 
Q 2288 441 2617 861 
Q 2947 1281 2994 2138 
Q 2813 1869 2534 1725 
Q 2256 1581 1919 1581 
Q 1219 1581 811 2004 
Q 403 2428 403 3163 
Q 403 3881 828 4315 
Q 1253 4750 1959 4750 
Q 2769 4750 3195 4129 
Q 3622 3509 3622 2328 
Q 3622 1225 3098 567 
Q 2575 -91 1691 -91 
Q 1453 -91 1209 -44 
Q 966 3 703 97 
z
M 1959 2075 
Q 2384 2075 2632 2365 
Q 2881 2656 2881 3163 
Q 2881 3666 2632 3958 
Q 2384 4250 1959 4250 
Q 1534 4250 1286 3958 
Q 1038 3666 1038 3163 
Q 1038 2656 1286 2365 
Q 1534 2075 1959 2075 
z
" transform="scale(0.015625)"/>
     <path id="DejaVuSans-37" d="M 525 4666 
L 3525 4666 
L 3525 4397 
L 1831 0 
L 1172 0 
L 2766 4134 
L 525 4134 
L 525 4666 
z
" transform="scale(0.015625)"/>
     <path id="DejaVuSans-2c" d="M 750 794 
L 1409 794 
L 1409 256 
L 897 -744 
L 494 -744 
L 750 256 
L 750 794 
z
" transform="scale(0.015625)"/>
    </defs>
    <use xlink:href="#DejaVuSans-38"/>
    <use xlink:href="#DejaVuSans-6d" x="63.623047"/>
    <use xlink:href="#DejaVuSans-2d" x="161.035156"/>
    <use xlink:href="#DejaVuSans-2b" x="197.119141"/>
    <use xlink:href="#DejaVuSans-32" x="280.908203"/>
    <use xlink:href="#DejaVuSans-20" x="344.53125"/>
    <use xlink:href="#DejaVuSans-6f" x="376.318359"/>
    <use xlink:href="#DejaVuSans-6e" x="437.5"/>
    <use xlink:href="#DejaVuSans-20" x="500.878906"/>
    <use xlink:href="#DejaVuSans-76" x="532.666016"/>
    <use xlink:href="#DejaVuSans-31" x="591.845703"/>
    <use xlink:href="#DejaVuSans-72" x="655.46875"/>
    <use xlink:href="#DejaVuSans-6f" x="694.332031"/>
    <use xlink:href="#DejaVuSans-64" x="755.513672"/>
    <use xlink:href="#DejaVuSans-72" x="818.990234"/>
    <use xlink:href="#DejaVuSans-69" x="860.103516"/>
    <use xlink:href="#DejaVuSans-67" x="887.886719"/>
    <use xlink:href="#DejaVuSans-75" x="951.363281"/>
    <use xlink:href="#DejaVuSans-65" x="1014.742188"/>
    <use xlink:href="#DejaVuSans-7a" x="1076.265625"/>
    <use xlink:href="#DejaVuSans-56" x="1128.755859"/>
    <use xlink:href="#DejaVuSans-33" x="1197.164062"/>
    <use xlink:href="#DejaVuSans-34" x="1260.787109"/>
    <use xlink:href="#DejaVuSans-20" x="1324.410156"/>
    <use xlink:href="#DejaVuSans-73" x="1356.197266"/>
    <use xlink:href="#DejaVuSans-61" x="1408.296875"/>
    <use xlink:href="#DejaVuSans-6d" x="1469.576172"/>
    <use xlink:href="#DejaVuSans-70" x="1566.988281"/>
    <use xlink:href="#DejaVuSans-6c" x="1630.464844"/>
    <use xlink:href="#DejaVuSans-65" x="1658.248047"/>
    <use xlink:href="#DejaVuSans-64" x="1719.771484"/>
    <use xlink:href="#DejaVuSans-20" x="1783.248047"/>
    <use xlink:href="#DejaVuSans-31" x="1815.035156"/>
    <use xlink:href="#DejaVuSans-30" x="1878.658203"/>
    <use xlink:href="#DejaVuSans-6b" x="1942.28125"/>
    <use xlink:href="#DejaVuSans-3b" x="2000.191406"/>
    <use xlink:href="#DejaVuSans-20" x="2033.882812"/>
    <use xlink:href="#DejaVuSans-6f" x="2065.669922"/>
    <use xlink:href="#DejaVuSans-76" x="2126.851562"/>
    <use xlink:href="#DejaVuSans-65" x="2186.03125"/>
    <use xlink:href="#DejaVuSans-72" x="2247.554688"/>
    <use xlink:href="#DejaVuSans-6c" x="2288.667969"/>
    <use xlink:href="#DejaVuSans-61" x="2316.451172"/>
    <use xlink:href="#DejaVuSans-70" x="2377.730469"/>
    <use xlink:href="#DejaVuSans-3d" x="2441.207031"/>
    <use xlink:href="#DejaVuSans-30" x="2524.996094"/>
    <use xlink:href="#DejaVuSans-2e" x="2588.619141"/>
    <use xlink:href="#DejaVuSans-39" x="2620.40625"/>
    <use xlink:href="#DejaVuSans-37" x="2684.029297"/>
    <use xlink:href="#DejaVuSans-37" x="2747.652344"/>
    <use xlink:href="#DejaVuSans-2c" x="2811.275391"/>
    <use xlink:href="#DejaVuSans-20" x="2843.0625"/>
    <use xlink:href="#DejaVuSans-72" x="2874.849609"/>
    <use xlink:href="#DejaVuSans-65" x="2913.712891"/>
    <use xlink:href="#DejaVuSans-73" x="2975.236328"/>
    <use xlink:href="#DejaVuSans-69" x="3027.335938"/>
    <use xlink:href="#DejaVuSans-64" x="3055.119141"/>
    <use xlink:href="#DejaVuSans-75" x="3118.595703"/>
    <use xlink:href="#DejaVuSans-61" x="3181.974609"/>
    <use xlink:href="#DejaVuSans-6c" x="3243.253906"/>
    <use xlink:href="#DejaVuSans-3d" x="3271.037109"/>
    <use xlink:href="#DejaVuSans-30" x="3354.826172"/>
    <use xlink:href="#DejaVuSans-2e" x="3418.449219"/>
    <use xlink:href="#DejaVuSans-30" x="3450.236328"/>
    <use xlink:href="#DejaVuSans-30" x="3513.859375"/>
    <use xlink:href="#DejaVuSans-38" x="3577.482422"/>
    <use xlink:href="#DejaVuSans-33" x="3641.105469"/>
    <use xlink:href="#DejaVuSans-34" x="3704.728516"/>
   </g>
  </g>
 </g>
 <defs>
  <clipPath id="pa743c1ff07">
   <rect x="88.91" y="36" width="764.29" height="296.12"/>
  </clipPath>
 </defs>
 <defs>
  <pattern id="h35334fbbe0" patternUnits="userSpaceOnUse" x="0" y="0" width="72" height="72">
   <rect x="0" y="0" width="73" height="73" fill="none"/>
   <path d="M -36 36 
L 36 -36 
M -34 38 
L 38 -34 
M -32 40 
L 40 -32 
M -30 42 
L 42 -30 
M -28 44 
L 44 -28 
M -26 46 
L 46 -26 
M -24 48 
L 48 -24 
M -22 50 
L 50 -22 
M -20 52 
L 52 -20 
M -18 54 
L 54 -18 
M -16 56 
L 56 -16 
M -14 58 
L 58 -14 
M -12 60 
L 60 -12 
M -10 62 
L 62 -10 
M -8 64 
L 64 -8 
M -6 66 
L 66 -6 
M -4 68 
L 68 -4 
M -2 70 
L 70 -2 
M 0 72 
L 72 0 
M 2 74 
L 74 2 
M 4 76 
L 76 4 
M 6 78 
L 78 6 
M 8 80 
L 80 8 
M 10 82 
L 82 10 
M 12 84 
L 84 12 
M 14 86 
L 86 14 
M 16 88 
L 88 16 
M 18 90 
L 90 18 
M 20 92 
L 92 20 
M 22 94 
L 94 22 
M 24 96 
L 96 24 
M 26 98 
L 98 26 
M 28 100 
L 100 28 
M 30 102 
L 102 30 
M 32 104 
L 104 32 
M 34 106 
L 106 34 
M 36 108 
L 108 36 
" style="fill: #808080; stroke: #808080; stroke-width: 1.0; stroke-linecap: butt; stroke-linejoin: miter"/>
  </pattern>
 </defs>
</svg>
